<?xml version="1.0" encoding="UTF-8"?>
<?xml-stylesheet type='text/css' href='S401Style.css'?>
<svg version="1.2" baseProfile="tiny" style="shape-rendering:geometricPrecision; fill-rule:evenodd;" width="7.00mm" height="10.20mm" viewBox="-3.51 -5.11 7.02 10.22" xmlns="http://www.w3.org/2000/svg">
  <title>NOVCON01A</title>
  <desc>no overtaking of convoys by convoys (A.3)</desc>
  <metadata />
  <g>
    <polygon class="fTRFCD sTRFCD" style="stroke-width:0.04" points="-3.50,-4.48 -3.50,-5.10 -3.08,-5.10 3.50,4.48 3.50,5.10 3.08,5.10 -3.50,-4.48 " />
    <polygon class="fTRFCD sTRFCD" style="stroke-width:0.04" points="-1.39,-5.10 -1.39,0.04 -0.56,-0.30 -0.44,-0.14 -1.40,1.21 -1.39,3.38 -0.56,3.04 -0.44,3.20 -1.78,5.10 -3.08,3.20 -2.96,3.04 -2.16,3.38 -2.16,1.20 -3.08,-0.14 -2.96,-0.30 -2.16,0.04 -2.16,-5.10 -1.39,-5.10 -1.51,-4.98 -2.05,-4.98 -2.05,0.19 -2.92,-0.16 -2.94,-0.14 -2.05,1.15 -2.05,3.53 -2.92,3.18 -2.94,3.21 -1.78,4.90 -0.59,3.21 -0.60,3.18 -1.51,3.53 -1.51,1.16 -0.58,-0.12 -0.60,-0.16 -1.51,0.19 -1.51,-4.98 -1.39,-5.10 " />
    <polygon class="fTRFCD sTRFCD" style="stroke-width:0.04" points="1.39,5.10 1.39,-0.04 0.56,0.30 0.44,0.14 1.39,-1.21 1.39,-3.38 0.56,-3.04 0.44,-3.20 1.78,-5.10 3.08,-3.20 2.96,-3.04 2.16,-3.38 2.16,-1.20 3.08,0.14 2.96,0.30 2.16,-0.04 2.16,5.10 1.39,5.10 1.51,4.98 2.05,4.98 2.05,-0.19 2.92,0.16 2.93,0.13 2.05,-1.15 2.05,-3.53 2.92,-3.18 2.93,-3.21 1.78,-4.90 0.58,-3.21 0.60,-3.18 1.51,-3.53 1.51,-1.16 0.58,0.12 0.60,0.16 1.51,-0.19 1.51,4.98 1.39,5.10 " />
    <circle class="pivotPoint layout" fill="none" cx="0" cy="0" r="0.2" />
  </g>
</svg>