<?xml version="1.0" encoding="UTF-8"?>
<?xml-stylesheet type='text/css' href='S401Style.css'?>
<svg version="1.2" baseProfile="tiny" style="shape-rendering:geometricPrecision; fill-rule:evenodd;" width="7.00mm" height="10.20mm" viewBox="-3.51 -5.11 7.02 10.22" xmlns="http://www.w3.org/2000/svg">
  <title>NOVCON2B</title>
  <desc>no overtaking of convoys by convoys (A.3) gleiche richtung</desc>
  <metadata />
  <g>
    <polygon class="fTRFCD sTRFCD" style="stroke-width:0.04" points="-3.50,-4.48 -3.50,-5.10 -3.08,-5.10 3.50,4.48 3.50,5.10 3.08,5.10 -3.50,-4.48 " />
    <polygon class="fTRFCD sTRFCD" style="stroke-width:0.04" points="1.36,0.52 1.36,-1.11 0.53,-0.77 0.41,-0.93 1.36,-2.28 1.36,-3.38 0.53,-3.04 0.41,-3.20 1.75,-5.10 3.05,-3.20 2.93,-3.04 2.13,-3.38 2.13,-2.27 3.05,-0.93 2.93,-0.77 2.13,-1.11 2.13,0.52 1.36,0.52 1.48,0.41 2.02,0.41 2.02,-1.26 2.89,-0.91 2.90,-0.94 2.02,-2.22 2.02,-3.53 2.89,-3.18 2.90,-3.21 1.75,-4.90 0.55,-3.21 0.57,-3.18 1.48,-3.53 1.48,-2.23 0.55,-0.95 0.57,-0.91 1.48,-1.26 1.48,0.41 1.36,0.52 " />
    <polygon class="fTRFCD sTRFCD" style="stroke-width:0.04" points="-2.16,5.10 -2.16,3.47 -2.99,3.81 -3.11,3.65 -2.16,2.30 -2.16,1.20 -2.99,1.54 -3.11,1.37 -1.78,-0.52 -0.48,1.37 -0.60,1.54 -1.40,1.20 -1.40,2.30 -0.48,3.65 -0.60,3.81 -1.40,3.47 -1.40,5.10 -2.16,5.10 -2.05,4.99 -1.51,4.99 -1.51,3.32 -0.63,3.67 -0.62,3.64 -1.51,2.35 -1.51,1.05 -0.63,1.40 -0.62,1.37 -1.78,-0.32 -2.97,1.37 -2.95,1.40 -2.05,1.05 -2.05,2.35 -2.97,3.63 -2.95,3.67 -2.05,3.32 -2.05,4.99 -2.16,5.10 " />
    <circle class="pivotPoint layout" fill="none" cx="0" cy="0" r="0.2" />
  </g>
</svg>