<?xml version="1.0" encoding="UTF-8"?>
<?xml-stylesheet type='text/css' href='S401Style.css'?>
<svg version="1.2" baseProfile="tiny" style="shape-rendering:geometricPrecision; fill-rule:evenodd;" width="7.00mm" height="10.20mm" viewBox="-3.51 -5.11 7.02 10.22" xmlns="http://www.w3.org/2000/svg">
  <title>NOVRTK01A</title>
  <desc>no overtaking (A.2) violet</desc>
  <metadata />
  <g>
    <polyline class="f0 sWHITE" style="stroke-width:0.04" points="-3.50,-4.48 3.08,5.10 " />
    <polyline class="f0 sWHITE" style="stroke-width:0.04" points="-3.08,-5.10 3.50,4.48 " />
    <polygon class="fTRFCD sTRFCD" style="stroke-width:0.04" points="-3.50,-4.48 -3.50,-5.10 -3.08,-5.10 3.50,4.48 3.50,5.10 3.08,5.10 -3.50,-4.48 " />
    <polygon class="fTRFCD sTRFCD" style="stroke-width:0.04" points="0.15,-2.71 0.15,-2.71 0.23,-2.63 0.20,-2.50 0.01,-2.69 1.52,-5.10 3.03,-2.68 2.85,-2.50 1.92,-2.85 1.93,-0.50 1.09,-0.50 1.09,-2.84 0.20,-2.50 0.23,-2.63 1.21,-3.01 1.21,-0.62 1.81,-0.62 1.81,-3.02 2.83,-2.63 2.90,-2.69 1.52,-4.88 0.15,-2.71 " />
    <polygon class="fTRFCD sTRFCD" style="stroke-width:0.04" points="-2.87,3.02 -2.87,3.02 -2.79,3.10 -2.82,3.23 -3.01,3.04 -1.51,0.63 0.01,3.05 -0.18,3.23 -1.13,2.88 -1.13,5.10 -1.89,5.10 -1.90,2.89 -2.82,3.23 -2.79,3.10 -1.78,2.72 -1.78,4.98 -1.24,4.98 -1.24,2.71 -0.19,3.10 -0.13,3.04 -1.50,0.85 -2.87,3.02 " />
    <circle class="pivotPoint layout" fill="none" cx="0" cy="0" r="0.2" />
  </g>
</svg>