<?xml version="1.0" encoding="UTF-8"?>
<?xml-stylesheet type='text/css' href='S401Style.css'?>
<svg version="1.2" baseProfile="tiny" style="shape-rendering:geometricPrecision; fill-rule:evenodd;" width="7.00mm" height="7.00mm" viewBox="-3.51 -3.51 7.02 7.02" xmlns="http://www.w3.org/2000/svg">
  <title>NOWAKE02</title>
  <desc>do not create wash likely to cause damage (A.9)</desc>
  <metadata />
  <g>
    <polygon class="fTRFCD sTRFCD" style="stroke-width:0.04" points="-3.50,-3.01 -3.50,-3.50 -3.01,-3.50 3.50,2.97 3.50,3.50 3.01,3.50 -3.50,-3.01 " />
    <polygon class="fTRFCD sTRFCD" style="stroke-width:0.04" points="-3.50,-1.58 -2.82,-1.22 -2.57,-1.08 -2.36,-1.02 -2.13,-1.05 -1.96,-1.12 -1.46,-1.42 -0.98,-1.73 -0.57,-1.91 -0.10,-1.99 0.57,-1.95 1.12,-1.72 1.71,-1.33 2.19,-1.04 2.41,-1.02 2.69,-1.05 2.92,-1.15 3.12,-1.29 3.50,-1.53 3.50,-1.40 2.97,-1.05 2.73,-0.94 2.42,-0.91 2.16,-0.92 1.65,-1.23 1.07,-1.61 0.54,-1.84 -0.09,-1.88 -0.54,-1.80 -0.93,-1.63 -1.39,-1.33 -1.90,-1.01 -2.10,-0.93 -2.37,-0.90 -2.61,-0.97 -2.87,-1.11 -3.50,-1.45 -3.50,-1.58 " />
    <polygon class="fTRFCD sTRFCD" style="stroke-width:0.04" points="-3.50,-0.60 -3.16,-0.42 -2.79,-0.25 -2.39,-0.15 -2.07,-0.17 -1.84,-0.22 -1.02,-0.69 -0.60,-0.96 -0.15,-1.09 0.35,-1.09 0.78,-0.92 1.30,-0.59 1.98,-0.19 2.27,-0.11 2.49,-0.10 2.86,-0.16 3.12,-0.27 3.50,-0.52 3.50,-0.38 3.18,-0.16 2.89,-0.05 2.50,0.01 2.25,0.00 1.94,-0.08 1.24,-0.49 0.73,-0.81 0.32,-0.97 -0.14,-0.97 -0.55,-0.85 -0.96,-0.59 -1.80,-0.11 -2.05,-0.05 -2.40,-0.03 -2.82,-0.14 -3.21,-0.31 -3.50,-0.47 -3.50,-0.60 " />
    <polygon class="fTRFCD sTRFCD" style="stroke-width:0.04" points="-3.50,0.65 -3.50,0.47 -2.82,0.83 -2.40,0.95 -2.17,0.94 -1.94,0.88 -1.46,0.62 -0.93,0.27 -0.61,0.10 -0.21,0.00 0.10,-0.02 0.42,0.00 0.69,0.14 1.04,0.37 1.64,0.77 1.88,0.90 2.14,0.96 2.43,0.99 2.68,0.96 3.12,0.75 3.50,0.53 3.50,0.67 3.18,0.86 2.72,1.07 2.43,1.11 2.12,1.08 1.84,1.01 1.58,0.87 0.97,0.46 0.63,0.24 0.38,0.12 0.10,0.09 -0.19,0.12 -0.57,0.21 -0.87,0.37 -1.40,0.72 -1.90,0.99 -2.16,1.06 -2.42,1.06 -2.86,0.93 -3.50,0.60 -3.50,0.47 " />
    <polygon class="fTRFCD sTRFCD" style="stroke-width:0.04" points="3.50,1.53 2.84,1.84 2.52,1.87 2.04,1.85 1.59,1.73 1.21,1.55 0.78,1.22 0.33,0.95 0.10,0.92 -0.15,0.95 -0.56,1.08 -1.16,1.47 -1.75,1.75 -2.04,1.84 -2.29,1.85 -2.51,1.84 -3.16,1.63 -3.50,1.44 -3.50,1.57 -3.20,1.73 -2.54,1.95 -2.29,1.97 -2.02,1.95 -1.70,1.86 -1.11,1.57 -0.51,1.19 -0.12,1.06 0.10,1.03 0.29,1.06 0.72,1.32 1.15,1.65 1.55,1.84 2.02,1.97 2.53,1.99 2.87,1.95 3.50,1.66 3.50,1.53 " />
    <circle class="pivotPoint layout" fill="none" cx="0" cy="0" r="0.2" />
  </g>
</svg>