<?xml version="1.0" encoding="UTF-8"?>
<?xml-stylesheet type='text/css' href='S401Style.css'?>
<svg version="1.2" baseProfile="tiny" style="shape-rendering:geometricPrecision; fill-rule:evenodd;" width="7.00mm" height="7.00mm" viewBox="-3.51 -3.51 7.02 7.02" xmlns="http://www.w3.org/2000/svg">
  <title>TRNARE01A</title>
  <desc>turning area (E.8)</desc>
  <metadata />
  <g>
    <polygon class="fTRFCD sTRFCD" style="stroke-width:0.04" points="0.87,2.78 0.76,2.82 0.52,2.87 0.28,2.90 0.03,2.91 -0.23,2.90 -0.49,2.87 -0.74,2.81 -0.99,2.73 -1.24,2.63 -1.47,2.50 -1.69,2.36 -1.89,2.19 -2.07,2.02 -2.23,1.83 -2.38,1.63 -2.50,1.43 -2.61,1.22 -2.70,1.00 -2.77,0.77 -2.82,0.53 -2.85,0.28 -2.86,0.02 -2.85,-0.24 -2.81,-0.50 -2.75,-0.76 -2.67,-1.01 -2.56,-1.25 -2.44,-1.47 -2.29,-1.69 -2.13,-1.88 -1.96,-2.06 -1.78,-2.22 -1.59,-2.36 -1.39,-2.48 -1.18,-2.59 -0.95,-2.68 -0.71,-2.75 -0.46,-2.81 -0.21,-2.84 0.05,-2.85 0.32,-2.83 0.58,-2.79 0.83,-2.73 1.08,-2.64 1.32,-2.54 1.54,-2.41 1.75,-2.27 1.94,-2.11 2.11,-1.94 2.33,-1.69 1.88,-1.26 3.37,-0.88 3.21,-2.46 2.73,-2.02 2.43,-2.35 2.23,-2.55 2.00,-2.73 1.76,-2.89 1.49,-3.04 1.22,-3.16 0.92,-3.25 0.63,-3.33 0.32,-3.37 0.01,-3.38 -0.29,-3.37 -0.59,-3.33 -0.88,-3.27 -1.16,-3.18 -1.43,-3.07 -1.67,-2.94 -1.90,-2.80 -2.13,-2.63 -2.34,-2.45 -2.54,-2.24 -2.73,-2.01 -2.89,-1.76 -3.04,-1.49 -3.16,-1.21 -3.26,-0.92 -3.33,-0.61 -3.37,-0.31 -3.39,-0.01 -3.37,0.29 -3.33,0.59 -3.27,0.87 -3.19,1.14 -3.08,1.40 -2.96,1.64 -2.81,1.88 -2.65,2.11 -2.45,2.33 -2.24,2.54 -2.00,2.73 -1.75,2.90 -1.48,3.04 -1.20,3.16 -0.90,3.26 -0.60,3.33 -0.30,3.37 0.00,3.38 0.29,3.37 0.58,3.33 0.85,3.27 1.01,3.22 0.87,2.78 0.94,2.64 1.15,3.30 0.88,3.38 0.60,3.44 0.30,3.48 0.00,3.50 -0.31,3.48 -0.62,3.44 -0.93,3.37 -1.24,3.27 -1.53,3.15 -1.81,2.99 -2.07,2.82 -2.31,2.62 -2.54,2.41 -2.74,2.18 -2.91,1.94 -3.06,1.70 -3.19,1.45 -3.29,1.18 -3.38,0.90 -3.45,0.61 -3.49,0.30 -3.50,-0.01 -3.49,-0.32 -3.44,-0.64 -3.37,-0.95 -3.27,-1.25 -3.14,-1.54 -2.99,-1.82 -2.82,-2.08 -2.63,-2.31 -2.42,-2.53 -2.20,-2.72 -1.97,-2.89 -1.73,-3.04 -1.47,-3.17 -1.20,-3.29 -0.91,-3.38 -0.61,-3.45 -0.30,-3.49 0.01,-3.50 0.33,-3.48 0.65,-3.44 0.96,-3.37 1.26,-3.26 1.54,-3.14 1.82,-2.99 2.07,-2.82 2.30,-2.63 2.51,-2.43 2.74,-2.19 3.30,-2.69 3.50,-0.72 1.65,-1.20 2.17,-1.70 2.03,-1.87 1.86,-2.03 1.68,-2.18 1.48,-2.31 1.27,-2.43 1.04,-2.54 0.80,-2.62 0.56,-2.68 0.30,-2.72 0.05,-2.73 -0.20,-2.72 -0.44,-2.69 -0.68,-2.64 -0.91,-2.57 -1.13,-2.48 -1.33,-2.38 -1.52,-2.26 -1.71,-2.13 -1.88,-1.98 -2.05,-1.81 -2.20,-1.62 -2.34,-1.41 -2.46,-1.19 -2.56,-0.96 -2.64,-0.72 -2.70,-0.48 -2.74,-0.23 -2.75,0.02 -2.74,0.27 -2.71,0.51 -2.66,0.74 -2.59,0.96 -2.50,1.17 -2.40,1.37 -2.28,1.57 -2.14,1.76 -1.99,1.94 -1.81,2.11 -1.62,2.26 -1.41,2.40 -1.19,2.52 -0.95,2.62 -0.71,2.70 -0.47,2.75 -0.22,2.79 0.03,2.80 0.27,2.79 0.50,2.75 0.73,2.70 0.94,2.64 " />
    <polygon class="fTRFCD sTRFCD" style="stroke-width:0.04" points="0.09,1.26 0.10,1.82 -0.02,1.94 -0.02,1.16 0.05,1.15 0.13,1.14 0.20,1.13 0.28,1.11 0.36,1.08 0.44,1.05 0.52,1.01 0.59,0.96 0.66,0.91 0.73,0.84 0.79,0.78 0.85,0.70 0.90,0.63 0.95,0.54 0.98,0.46 1.01,0.37 1.04,0.29 1.05,0.20 1.06,0.11 1.06,0.03 1.05,-0.06 1.04,-0.14 1.02,-0.21 1.00,-0.29 0.97,-0.36 0.94,-0.42 0.90,-0.49 0.86,-0.55 0.81,-0.62 0.76,-0.68 0.70,-0.74 0.63,-0.80 0.56,-0.85 0.48,-0.89 0.40,-0.93 0.31,-0.97 0.22,-0.99 0.13,-1.01 0.04,-1.02 -0.06,-1.02 -0.15,-1.01 -0.24,-1.00 -0.32,-0.98 -0.41,-0.95 -0.48,-0.92 -0.56,-0.88 -0.63,-0.84 -0.69,-0.79 -0.75,-0.75 -0.80,-0.70 -0.21,-0.20 -2.15,0.21 -1.80,-1.83 -1.29,-1.24 -1.19,-1.32 -1.09,-1.41 -0.98,-1.49 -0.86,-1.56 -0.73,-1.62 -0.60,-1.68 -0.45,-1.72 -0.30,-1.76 -0.15,-1.78 0.01,-1.79 0.17,-1.79 0.33,-1.77 0.49,-1.73 0.64,-1.69 0.79,-1.63 0.93,-1.56 1.07,-1.48 1.19,-1.39 1.31,-1.29 1.41,-1.19 1.51,-1.08 1.59,-0.96 1.66,-0.85 1.72,-0.73 1.77,-0.61 1.81,-0.50 1.85,-0.37 1.88,-0.24 1.90,-0.10 1.90,0.05 1.90,0.19 1.88,0.34 1.85,0.50 1.81,0.65 1.76,0.80 1.69,0.94 1.61,1.08 1.52,1.21 1.41,1.33 1.30,1.45 1.18,1.55 1.05,1.64 0.92,1.72 0.78,1.78 0.64,1.84 0.51,1.88 0.37,1.91 0.24,1.93 0.10,1.94 -0.02,1.94 0.10,1.82 0.22,1.81 0.35,1.80 0.48,1.77 0.61,1.73 0.74,1.68 0.86,1.62 0.99,1.54 1.11,1.46 1.22,1.36 1.33,1.26 1.43,1.14 1.51,1.02 1.59,0.89 1.65,0.75 1.70,0.61 1.74,0.47 1.77,0.33 1.78,0.19 1.79,0.05 1.78,-0.09 1.76,-0.22 1.74,-0.34 1.70,-0.46 1.66,-0.57 1.62,-0.68 1.56,-0.79 1.49,-0.90 1.42,-1.01 1.33,-1.11 1.23,-1.21 1.12,-1.30 1.01,-1.38 0.88,-1.46 0.75,-1.53 0.61,-1.58 0.46,-1.62 0.31,-1.65 0.16,-1.67 0.01,-1.67 -0.13,-1.67 -0.28,-1.65 -0.42,-1.61 -0.56,-1.57 -0.68,-1.52 -0.81,-1.46 -0.92,-1.39 -1.02,-1.32 -1.12,-1.24 -1.29,-1.07 -1.72,-1.57 -2.01,0.06 -0.46,-0.26 -0.98,-0.69 -0.83,-0.83 -0.76,-0.89 -0.69,-0.94 -0.62,-0.98 -0.53,-1.02 -0.45,-1.06 -0.35,-1.09 -0.26,-1.11 -0.16,-1.13 -0.06,-1.13 0.04,-1.13 0.15,-1.12 0.25,-1.10 0.35,-1.07 0.44,-1.04 0.53,-1.00 0.62,-0.95 0.70,-0.89 0.77,-0.83 0.84,-0.76 0.90,-0.69 0.96,-0.62 1.00,-0.55 1.04,-0.47 1.08,-0.40 1.11,-0.32 1.13,-0.24 1.15,-0.16 1.16,-0.07 1.17,0.02 1.17,0.12 1.16,0.21 1.15,0.31 1.12,0.41 1.09,0.50 1.05,0.60 1.00,0.69 0.95,0.77 0.88,0.85 0.81,0.93 0.74,0.99 0.66,1.05 0.57,1.11 0.49,1.15 0.40,1.19 0.32,1.22 0.23,1.24 0.14,1.26 0.09,1.26 " />
    <polyline class="f0 sWHITE" style="stroke-width:0.04" points="-3.01,-3.50 3.50,3.01 " />
    <polyline class="f0 sWHITE" style="stroke-width:0.04" points="-3.50,-3.01 3.01,3.50 " />
    <polygon class="fTRFCD sTRFCD" style="stroke-width:0.04" points="-3.50,-3.01 -3.50,-3.50 -3.01,-3.50 3.50,3.01 3.50,3.50 3.01,3.50 -3.50,-3.01 " />
    <circle class="pivotPoint layout" fill="none" cx="0" cy="0" r="0.2" />
  </g>
</svg>