<?xml version="1.0" encoding="UTF-8"?>
<?xml-stylesheet type='text/css' href='S401Style.css'?>
<svg version="1.2" baseProfile="tiny" width="4.10mm" height="6.09mm" viewBox="-2.06 -6.10 4.12 6.11" xmlns="http://www.w3.org/2000/svg">
  <title>BOYCARNB</title>
  <desc>Buoy cardinal north, beacon</desc>
  <metadata />
  <g>
    <path class="fYLLOW sYLLOW" d="M -0.63,-1.50 L 1.14,-1.50 L 1.10,-1.04 L 2.05,-0.65 L 2.05,0.00 L -2.05,0.00 L -2.05,-0.65 L -0.89,-1.04 L -0.63,-1.50 Z" stroke-width="0.04" />
    <path class="fBLACK sBLACK" d="M -0.63,-1.50 L 0.21,-3.00 L 1.28,-3.00 L 1.14,-1.50 L -0.63,-1.50 Z" stroke-width="0.04" />
    <path class="f0 sBLACK" d="M -2.05,0.00 L -2.05,-0.65 L -0.89,-1.04 L 0.21,-3.00 L 1.28,-3.00 L 1.10,-1.04 L 2.05,-0.65 L 2.05,0.00 L -2.05,0.00 Z" stroke-width="0.12" />
    <path class="f0 sBLACK" d="M -2.05,0.00 L 2.05,0.00 " stroke-width="0.04" />
    <path class="f0 sBLACK" d="M -0.63,-1.50 L 1.14,-1.50 " stroke-width="0.04" />
    <path class="fBLACK sBLACK" d="M 1.65,-3.70 L 0.15,-3.70 L 1.14,-4.70 L 1.65,-3.70 Z" stroke-width="0.04" />
    <path class="fBLACK sBLACK" d="M 2.04,-5.10 L 0.54,-5.10 L 1.53,-6.09 L 2.04,-5.10 Z" stroke-width="0.04" />
    <circle class="pivotPoint layout" fill="none" cx="0" cy="0" r="0.2" />
  </g>
</svg>