<?xml version="1.0" encoding="UTF-8"?>
<?xml-stylesheet type='text/css' href='svgStyle.css'?>
<svg version="1.2" baseProfile="tiny" width="7.14mm" height="10.22mm" viewBox="-3.57 -6.23 7.16 10.24" xmlns="http://www.w3.org/2000/svg">
  <title>BOYINL03ML</title>
  <desc>river buoy bifurcation of the fairway (3.B of CEVNI) - off position - missing - text area -d - left hand side</desc>
  <metadata />
  <g>
    <path class="fMIDGN sBLACK" d="M -0.82,-3.22 L 0.02,-4.67 L 0.85,-3.22 L -0.82,-3.22 Z" stroke-width="0.12" />
    <path class="fORRED sORRED" d="M -1.18,-0.22 L -1.84,0.21 L -1.84,0.68 L 1.86,0.68 L 1.86,0.21 L 1.28,-0.22 L 1.33,-0.31 L 1.38,-0.41 L 1.42,-0.51 L 1.45,-0.61 L 1.47,-0.71 L 1.49,-0.81 L 1.50,-0.92 L 1.50,-1.02 L 1.49,-1.13 L 1.48,-1.23 L 1.46,-1.33 L 1.43,-1.43 L 1.40,-1.53 L 1.35,-1.63 L 1.31,-1.72 L 1.25,-1.81 L 1.19,-1.90 L 1.12,-1.98 L 1.05,-2.05 L 0.97,-2.12 L 0.88,-2.18 L 0.80,-2.24 L 0.70,-2.29 L 0.61,-2.34 L 0.51,-2.37 L 0.41,-2.40 L 0.31,-2.42 L 0.20,-2.44 L 0.10,-2.45 L -0.01,-2.45 L -0.11,-2.44 L -0.22,-2.42 L -0.32,-2.40 L -0.42,-2.37 L -0.52,-2.33 L -0.61,-2.29 L -0.70,-2.24 L -0.79,-2.18 L -0.87,-2.12 L -0.95,-2.05 L -1.03,-1.97 L -1.09,-1.89 L -1.16,-1.81 L -1.21,-1.72 L -1.26,-1.63 L -1.30,-1.53 L -1.34,-1.43 L -1.37,-1.33 L -1.39,-1.23 L -1.40,-1.12 L -1.41,-1.02 L -1.40,-0.91 L -1.39,-0.81 L -1.38,-0.71 L -1.35,-0.60 L -1.32,-0.50 L -1.28,-0.41 L -1.24,-0.31 L -1.18,-0.22 Z" stroke-width="0.04" />
    <path class="fBLACK sBLACK" d="M 0.03,2.20 L 0.00,2.17 L -0.04,2.14 L -0.08,2.11 L -0.13,2.09 L -0.19,2.08 L -0.25,2.06 L -0.32,2.06 L -0.38,2.06 L -0.42,2.06 L -0.46,2.06 L -0.50,2.07 L -0.54,2.08 L -0.58,2.09 L -0.62,2.10 L -0.65,2.12 L -0.69,2.14 L -0.72,2.16 L -0.76,2.18 L -0.79,2.21 L -0.82,2.23 L -0.85,2.26 L -0.87,2.29 L -0.90,2.33 L -0.92,2.36 L -0.92,2.10 L -1.23,2.10 L -1.23,4.00 L -0.91,4.00 L -0.91,2.88 L -0.91,2.83 L -0.90,2.78 L -0.90,2.74 L -0.89,2.71 L -0.88,2.67 L -0.87,2.63 L -0.86,2.60 L -0.84,2.56 L -0.82,2.53 L -0.80,2.50 L -0.77,2.46 L -0.73,2.43 L -0.69,2.40 L -0.64,2.38 L -0.59,2.36 L -0.54,2.35 L -0.49,2.34 L -0.44,2.34 L -0.40,2.34 L -0.36,2.34 L -0.32,2.35 L -0.29,2.36 L -0.25,2.38 L -0.22,2.40 L -0.20,2.43 L 0.03,2.20 Z" stroke-width="0.04" />
    <path class="fBLACK sBLACK" d="M -0.23,2.39 L -0.21,2.42 L -0.19,2.46 L -0.17,2.51 L -0.15,2.57 L -0.14,2.63 L -0.14,2.69 L -0.14,3.97 L 0.18,3.97 L 0.18,2.84 L 0.19,2.80 L 0.19,2.75 L 0.20,2.70 L 0.21,2.65 L 0.21,2.61 L 0.22,2.58 L 0.24,2.54 L 0.25,2.51 L 0.27,2.48 L 0.30,2.45 L 0.32,2.43 L 0.35,2.40 L 0.38,2.38 L 0.41,2.36 L 0.45,2.34 L 0.49,2.33 L 0.53,2.32 L 0.57,2.31 L 0.61,2.30 L 0.65,2.30 L 0.70,2.30 L 0.75,2.31 L 0.80,2.33 L 0.84,2.35 L 0.86,2.37 L 0.89,2.39 L 0.91,2.41 L 0.92,2.43 L 0.94,2.46 L 0.95,2.48 L 0.96,2.51 L 0.96,2.54 L 0.97,2.60 L 0.98,2.67 L 0.98,2.74 L 0.98,2.80 L 0.98,3.97 L 1.30,3.97 L 1.30,2.83 L 1.30,2.74 L 1.30,2.64 L 1.29,2.55 L 1.28,2.46 L 1.28,2.43 L 1.27,2.39 L 1.26,2.36 L 1.25,2.33 L 1.24,2.30 L 1.22,2.27 L 1.20,2.24 L 1.18,2.21 L 1.16,2.19 L 1.13,2.16 L 1.11,2.14 L 1.08,2.12 L 1.05,2.10 L 1.02,2.08 L 0.99,2.07 L 0.95,2.06 L 0.89,2.04 L 0.83,2.03 L 0.76,2.02 L 0.70,2.02 L 0.65,2.02 L 0.61,2.03 L 0.57,2.03 L 0.53,2.04 L 0.49,2.05 L 0.45,2.06 L 0.41,2.08 L 0.37,2.10 L 0.33,2.12 L 0.30,2.14 L 0.26,2.16 L 0.23,2.19 L 0.20,2.22 L 0.17,2.25 L 0.14,2.28 L 0.12,2.31 L 0.09,2.27 L 0.07,2.23 L 0.03,2.20 L 0.00,2.16 L -0.23,2.39 Z" stroke-width="0.04" />
    <path class="fBLACK sBLACK" d="M -2.33,0.63 L -3.56,-1.12 L -2.38,-2.80 L -2.19,-2.67 L -3.27,-1.12 L -2.14,0.49 L -2.33,0.63 Z" stroke-width="0.04" />
    <path class="fBLACK sBLACK" d="M -1.35,-4.28 L 0.01,-6.22 L 1.36,-4.30 L 1.16,-4.16 L 0.01,-5.81 L -1.16,-4.14 L -1.35,-4.28 Z" stroke-width="0.04" />
    <path class="fBLACK sBLACK" d="M 2.44,-2.75 L 3.58,-1.12 L 2.35,0.64 L 2.15,0.51 L 3.30,-1.12 L 2.25,-2.61 L 2.44,-2.75 Z" stroke-width="0.04" />
    <path class="fMIDGN sMIDGN" d="M 1.36,-1.61 L 1.31,-1.71 L 1.26,-1.80 L 1.20,-1.88 L 1.13,-1.96 L 1.06,-2.04 L 0.98,-2.11 L 0.89,-2.18 L 0.80,-2.24 L 0.71,-2.29 L 0.62,-2.33 L 0.52,-2.37 L 0.41,-2.40 L 0.31,-2.42 L 0.21,-2.44 L 0.10,-2.45 L -0.01,-2.45 L -0.11,-2.44 L -0.22,-2.42 L -0.32,-2.40 L -0.42,-2.37 L -0.52,-2.33 L -0.62,-2.29 L -0.71,-2.24 L -0.80,-2.18 L -0.88,-2.11 L -0.96,-2.04 L -1.03,-1.96 L -1.10,-1.88 L -1.16,-1.80 L -1.22,-1.71 L -1.27,-1.61 L 1.36,-1.61 Z" stroke-width="0.04" />
    <path class="fMIDGN sMIDGN" d="M -1.18,-0.22 L 1.28,-0.22 L 1.34,-0.33 L 1.39,-0.43 L 1.43,-0.54 L 1.46,-0.66 L 1.48,-0.77 L 1.50,-0.89 L -1.40,-0.89 L -1.39,-0.77 L -1.36,-0.66 L -1.33,-0.54 L -1.29,-0.43 L -1.24,-0.32 L -1.18,-0.22 Z" stroke-width="0.04" />
    <path class="f0 sBLACK" d="M -1.18,-0.22 L -1.84,0.21 L -1.84,0.68 L 1.86,0.68 L 1.86,0.21 L 1.28,-0.22 " stroke-width="0.12" />
    <path class="f0 sBLACK" d="M -1.18,-0.22 L -1.24,-0.31 L -1.28,-0.41 L -1.32,-0.50 L -1.35,-0.60 L -1.38,-0.71 L -1.39,-0.81 L -1.40,-0.91 L -1.41,-1.02 L -1.40,-1.12 L -1.39,-1.23 L -1.37,-1.33 L -1.34,-1.43 L -1.30,-1.53 L -1.26,-1.63 L -1.21,-1.72 L -1.16,-1.81 L -1.09,-1.89 L -1.03,-1.97 L -0.95,-2.05 L -0.87,-2.12 L -0.79,-2.18 L -0.70,-2.24 L -0.61,-2.29 L -0.52,-2.33 L -0.42,-2.37 L -0.32,-2.40 L -0.22,-2.42 L -0.11,-2.44 L -0.01,-2.45 L 0.10,-2.45 L 0.20,-2.44 L 0.31,-2.42 L 0.41,-2.40 L 0.51,-2.37 L 0.61,-2.34 L 0.70,-2.29 L 0.80,-2.24 L 0.88,-2.18 L 0.97,-2.12 L 1.05,-2.05 L 1.12,-1.98 L 1.19,-1.90 L 1.25,-1.81 L 1.31,-1.72 L 1.35,-1.63 L 1.40,-1.53 L 1.43,-1.43 L 1.46,-1.33 L 1.48,-1.23 L 1.49,-1.13 L 1.50,-1.02 L 1.50,-0.92 L 1.49,-0.81 L 1.47,-0.71 L 1.45,-0.61 L 1.42,-0.51 L 1.38,-0.41 L 1.33,-0.31 L 1.28,-0.22 " stroke-width="0.12" />
    <path class="f0 sBLACK" d="M -1.18,-0.22 L -1.24,-0.31 L -1.28,-0.41 L -1.32,-0.50 L -1.35,-0.60 L -1.38,-0.71 L -1.39,-0.81 L -1.40,-0.91 L -1.41,-1.02 L -1.40,-1.12 L -1.39,-1.23 L -1.37,-1.33 L -1.34,-1.43 L -1.30,-1.53 L -1.26,-1.63 L -1.21,-1.72 L -1.16,-1.81 L -1.09,-1.89 L -1.03,-1.97 L -0.95,-2.05 L -0.87,-2.12 L -0.79,-2.18 L -0.70,-2.24 L -0.61,-2.29 L -0.52,-2.33 L -0.42,-2.37 L -0.32,-2.40 L -0.22,-2.42 L -0.11,-2.44 L -0.01,-2.45 L 0.10,-2.45 L 0.20,-2.44 L 0.31,-2.42 L 0.41,-2.40 L 0.51,-2.37 L 0.61,-2.34 L 0.70,-2.29 L 0.80,-2.24 L 0.88,-2.18 L 0.97,-2.12 L 1.05,-2.05 L 1.12,-1.98 L 1.19,-1.90 L 1.25,-1.81 L 1.31,-1.72 L 1.35,-1.63 L 1.40,-1.53 L 1.43,-1.43 L 1.46,-1.33 L 1.48,-1.23 L 1.49,-1.13 L 1.50,-1.02 L 1.50,-0.92 L 1.49,-0.81 L 1.47,-0.71 L 1.45,-0.61 L 1.42,-0.51 L 1.38,-0.41 L 1.33,-0.31 L 1.28,-0.22 " stroke-width="0.12" />
    <path class="f0 sBLACK" d="M -1.18,-0.22 L -1.24,-0.31 L -1.28,-0.41 L -1.32,-0.50 L -1.35,-0.60 L -1.38,-0.71 L -1.39,-0.81 L -1.40,-0.91 L -1.41,-1.02 L -1.40,-1.12 L -1.39,-1.23 L -1.37,-1.33 L -1.34,-1.43 L -1.30,-1.53 L -1.26,-1.63 L -1.21,-1.72 L -1.16,-1.81 L -1.09,-1.89 L -1.03,-1.97 L -0.95,-2.05 L -0.87,-2.12 L -0.79,-2.18 L -0.70,-2.24 L -0.61,-2.29 L -0.52,-2.33 L -0.42,-2.37 L -0.32,-2.40 L -0.22,-2.42 L -0.11,-2.44 L -0.01,-2.45 L 0.10,-2.45 L 0.20,-2.44 L 0.31,-2.42 L 0.41,-2.40 L 0.51,-2.37 L 0.61,-2.33 L 0.70,-2.29 L 0.80,-2.24 L 0.88,-2.18 L 0.97,-2.12 L 1.05,-2.05 L 1.12,-1.98 L 1.19,-1.90 L 1.25,-1.81 L 1.31,-1.72 L 1.35,-1.63 L 1.40,-1.53 L 1.43,-1.43 L 1.46,-1.33 L 1.48,-1.23 L 1.49,-1.13 L 1.50,-1.02 L 1.50,-0.92 L 1.49,-0.81 L 1.47,-0.71 L 1.45,-0.61 L 1.42,-0.51 L 1.38,-0.41 L 1.33,-0.31 L 1.28,-0.22 " stroke-width="0.12" />
    <circle class="pivotPoint layout" fill="none" cx="0" cy="0" r="0.2" />
  </g>
</svg>