<?xml version="1.0" encoding="UTF-8"?>
<?xml-stylesheet type='text/css' href='S401Style.css'?>
<svg version="1.2" baseProfile="tiny" width="7.14mm" height="10.16mm" viewBox="-3.64 -6.18 7.16 10.18" xmlns="http://www.w3.org/2000/svg">
  <title>BOYINL03MR</title>
  <desc>river buoy bifurcation of the fairway (3.B of CEVNI) - off position - missing - text area -d - right hand side</desc>
  <metadata />
  <g>
    <path class="fORRED sBLACK" d="M -0.68,-3.18 L 0.56,-3.18 L 0.56,-4.42 L -0.68,-4.42 L -0.68,-3.18 Z" stroke-width="0.12" />
    <path class="fORRED sORRED" d="M -1.25,-0.22 L -1.91,0.20 L -1.91,0.68 L 1.80,0.68 L 1.80,0.20 L 1.21,-0.23 L 1.26,-0.32 L 1.31,-0.41 L 1.35,-0.51 L 1.38,-0.61 L 1.40,-0.71 L 1.42,-0.81 L 1.43,-0.92 L 1.43,-1.02 L 1.43,-1.13 L 1.41,-1.23 L 1.39,-1.34 L 1.36,-1.44 L 1.33,-1.54 L 1.29,-1.63 L 1.24,-1.72 L 1.18,-1.81 L 1.12,-1.90 L 1.05,-1.98 L 0.98,-2.05 L 0.90,-2.12 L 0.82,-2.19 L 0.73,-2.24 L 0.64,-2.29 L 0.54,-2.34 L 0.44,-2.37 L 0.34,-2.40 L 0.24,-2.43 L 0.13,-2.44 L 0.03,-2.45 L -0.08,-2.45 L -0.18,-2.44 L -0.28,-2.43 L -0.39,-2.40 L -0.49,-2.37 L -0.58,-2.34 L -0.68,-2.29 L -0.77,-2.24 L -0.86,-2.18 L -0.94,-2.12 L -1.02,-2.05 L -1.10,-1.98 L -1.16,-1.90 L -1.23,-1.81 L -1.28,-1.72 L -1.33,-1.63 L -1.37,-1.53 L -1.41,-1.43 L -1.44,-1.33 L -1.46,-1.23 L -1.47,-1.13 L -1.47,-1.02 L -1.47,-0.92 L -1.46,-0.81 L -1.45,-0.71 L -1.42,-0.61 L -1.39,-0.51 L -1.35,-0.41 L -1.30,-0.31 L -1.25,-0.22 Z" stroke-width="0.04" />
    <path class="fBLACK sBLACK" d="M -0.03,2.19 L -0.07,2.16 L -0.11,2.14 L -0.15,2.11 L -0.20,2.09 L -0.26,2.07 L -0.32,2.06 L -0.39,2.06 L -0.45,2.06 L -0.49,2.06 L -0.53,2.06 L -0.57,2.07 L -0.61,2.08 L -0.65,2.09 L -0.69,2.10 L -0.72,2.12 L -0.76,2.14 L -0.79,2.16 L -0.83,2.18 L -0.86,2.21 L -0.89,2.23 L -0.92,2.26 L -0.94,2.29 L -0.97,2.32 L -0.99,2.36 L -0.99,2.10 L -1.29,2.10 L -1.29,4.00 L -0.98,4.00 L -0.98,2.88 L -0.98,2.83 L -0.97,2.78 L -0.97,2.74 L -0.96,2.70 L -0.95,2.67 L -0.94,2.63 L -0.92,2.60 L -0.91,2.56 L -0.89,2.53 L -0.87,2.50 L -0.83,2.46 L -0.80,2.43 L -0.75,2.40 L -0.71,2.37 L -0.66,2.36 L -0.61,2.34 L -0.56,2.34 L -0.51,2.34 L -0.46,2.34 L -0.43,2.34 L -0.39,2.35 L -0.36,2.36 L -0.32,2.38 L -0.29,2.40 L -0.26,2.43 L -0.03,2.19 Z" stroke-width="0.04" />
    <path class="fBLACK sBLACK" d="M -0.30,2.39 L -0.28,2.42 L -0.26,2.45 L -0.24,2.51 L -0.22,2.57 L -0.21,2.63 L -0.21,2.69 L -0.21,3.97 L 0.12,3.97 L 0.12,2.84 L 0.12,2.79 L 0.12,2.74 L 0.13,2.69 L 0.14,2.65 L 0.15,2.61 L 0.16,2.58 L 0.17,2.54 L 0.19,2.51 L 0.21,2.48 L 0.23,2.45 L 0.25,2.42 L 0.28,2.40 L 0.31,2.38 L 0.35,2.36 L 0.38,2.34 L 0.42,2.32 L 0.46,2.31 L 0.50,2.31 L 0.54,2.30 L 0.58,2.30 L 0.63,2.30 L 0.68,2.31 L 0.73,2.33 L 0.77,2.35 L 0.80,2.37 L 0.82,2.39 L 0.84,2.41 L 0.85,2.43 L 0.87,2.46 L 0.88,2.48 L 0.89,2.51 L 0.90,2.54 L 0.91,2.60 L 0.91,2.67 L 0.91,2.73 L 0.91,2.80 L 0.91,3.97 L 1.23,3.97 L 1.23,2.82 L 1.23,2.73 L 1.23,2.64 L 1.22,2.55 L 1.22,2.46 L 1.21,2.43 L 1.20,2.39 L 1.19,2.36 L 1.18,2.33 L 1.17,2.30 L 1.15,2.27 L 1.13,2.24 L 1.11,2.21 L 1.09,2.19 L 1.06,2.16 L 1.04,2.14 L 1.01,2.12 L 0.98,2.10 L 0.95,2.08 L 0.92,2.07 L 0.89,2.06 L 0.82,2.04 L 0.76,2.03 L 0.69,2.02 L 0.63,2.02 L 0.59,2.02 L 0.54,2.03 L 0.50,2.03 L 0.46,2.04 L 0.42,2.05 L 0.38,2.06 L 0.34,2.08 L 0.30,2.09 L 0.26,2.12 L 0.23,2.14 L 0.20,2.16 L 0.16,2.19 L 0.13,2.22 L 0.10,2.25 L 0.08,2.28 L 0.05,2.31 L 0.03,2.27 L 0.00,2.23 L -0.03,2.19 L -0.07,2.16 L -0.30,2.39 Z" stroke-width="0.04" />
    <path class="fBLACK sBLACK" d="M -1.43,-4.22 L -0.07,-6.17 L 1.28,-4.24 L 1.09,-4.11 L -0.07,-5.76 L -1.24,-4.09 L -1.43,-4.22 Z" stroke-width="0.04" />
    <path class="fBLACK sBLACK" d="M -1.43,-4.22 L -0.07,-6.17 L 1.28,-4.24 L 1.09,-4.11 L -0.07,-5.76 L -1.24,-4.09 L -1.43,-4.22 Z" stroke-width="0.04" />
    <path class="fBLACK sBLACK" d="M -2.40,0.68 L -3.63,-1.07 L -2.45,-2.75 L -2.26,-2.61 L -3.34,-1.07 L -2.21,0.55 L -2.40,0.68 Z" stroke-width="0.04" />
    <path class="fBLACK sBLACK" d="M 2.37,-2.69 L 3.51,-1.07 L 2.28,0.70 L 2.08,0.57 L 3.22,-1.07 L 2.18,-2.56 L 2.37,-2.69 Z" stroke-width="0.04" />
    <path class="fMIDGN sMIDGN" d="M 1.29,-1.61 L 1.25,-1.71 L 1.19,-1.80 L 1.13,-1.89 L 1.06,-1.97 L 0.99,-2.04 L 0.91,-2.11 L 0.82,-2.18 L 0.74,-2.24 L 0.64,-2.29 L 0.55,-2.33 L 0.45,-2.37 L 0.35,-2.40 L 0.24,-2.43 L 0.14,-2.44 L 0.03,-2.45 L -0.07,-2.45 L -0.18,-2.44 L -0.28,-2.43 L -0.39,-2.40 L -0.49,-2.37 L -0.59,-2.33 L -0.69,-2.29 L -0.78,-2.24 L -0.87,-2.18 L -0.95,-2.11 L -1.03,-2.04 L -1.10,-1.97 L -1.17,-1.89 L -1.23,-1.80 L -1.29,-1.71 L -1.34,-1.61 L 1.29,-1.61 Z" stroke-width="0.04" />
    <path class="fMIDGN sMIDGN" d="M -1.25,-0.22 L 1.21,-0.23 L 1.27,-0.33 L 1.32,-0.44 L 1.36,-0.55 L 1.39,-0.66 L 1.41,-0.77 L 1.43,-0.89 L -1.47,-0.89 L -1.46,-0.77 L -1.43,-0.66 L -1.40,-0.54 L -1.36,-0.43 L -1.31,-0.33 L -1.25,-0.22 Z" stroke-width="0.04" />
    <path class="f0 sBLACK" d="M -1.25,-0.22 L -1.91,0.20 L -1.91,0.68 L 1.80,0.68 L 1.80,0.20 L 1.21,-0.23 " stroke-width="0.12" />
    <path class="f0 sBLACK" d="M -1.25,-0.22 L -1.30,-0.31 L -1.35,-0.41 L -1.39,-0.51 L -1.42,-0.61 L -1.45,-0.71 L -1.46,-0.81 L -1.47,-0.92 L -1.47,-1.02 L -1.47,-1.13 L -1.46,-1.23 L -1.44,-1.33 L -1.41,-1.43 L -1.37,-1.53 L -1.33,-1.63 L -1.28,-1.72 L -1.22,-1.81 L -1.16,-1.90 L -1.10,-1.98 L -1.02,-2.05 L -0.94,-2.12 L -0.86,-2.18 L -0.77,-2.24 L -0.68,-2.29 L -0.58,-2.34 L -0.49,-2.37 L -0.39,-2.40 L -0.28,-2.43 L -0.18,-2.44 L -0.07,-2.45 L 0.03,-2.45 L 0.13,-2.44 L 0.24,-2.43 L 0.34,-2.40 L 0.44,-2.37 L 0.54,-2.34 L 0.64,-2.29 L 0.73,-2.24 L 0.82,-2.19 L 0.90,-2.12 L 0.98,-2.05 L 1.05,-1.98 L 1.12,-1.90 L 1.18,-1.81 L 1.24,-1.72 L 1.29,-1.63 L 1.33,-1.54 L 1.36,-1.44 L 1.39,-1.34 L 1.41,-1.23 L 1.43,-1.13 L 1.43,-1.02 L 1.43,-0.92 L 1.42,-0.81 L 1.40,-0.71 L 1.38,-0.61 L 1.35,-0.51 L 1.31,-0.41 L 1.26,-0.32 L 1.21,-0.23 " stroke-width="0.12" />
    <path class="f0 sBLACK" d="M -1.25,-0.22 L -1.30,-0.31 L -1.35,-0.41 L -1.39,-0.51 L -1.42,-0.61 L -1.45,-0.71 L -1.46,-0.81 L -1.47,-0.92 L -1.47,-1.02 L -1.47,-1.13 L -1.46,-1.23 L -1.44,-1.33 L -1.41,-1.43 L -1.37,-1.53 L -1.33,-1.63 L -1.28,-1.72 L -1.22,-1.81 L -1.16,-1.90 L -1.10,-1.98 L -1.02,-2.05 L -0.94,-2.12 L -0.86,-2.18 L -0.77,-2.24 L -0.68,-2.29 L -0.58,-2.34 L -0.49,-2.37 L -0.39,-2.40 L -0.28,-2.43 L -0.18,-2.44 L -0.07,-2.45 L 0.03,-2.45 L 0.13,-2.44 L 0.24,-2.43 L 0.34,-2.40 L 0.44,-2.37 L 0.54,-2.34 L 0.64,-2.29 L 0.73,-2.24 L 0.82,-2.19 L 0.90,-2.12 L 0.98,-2.05 L 1.05,-1.98 L 1.12,-1.90 L 1.18,-1.81 L 1.24,-1.72 L 1.29,-1.63 L 1.33,-1.54 L 1.36,-1.44 L 1.39,-1.34 L 1.41,-1.23 L 1.43,-1.13 L 1.43,-1.02 L 1.43,-0.92 L 1.42,-0.81 L 1.40,-0.71 L 1.38,-0.61 L 1.35,-0.51 L 1.31,-0.41 L 1.26,-0.32 L 1.21,-0.23 " stroke-width="0.12" />
    <path class="f0 sBLACK" d="M -1.25,-0.22 L -1.30,-0.31 L -1.35,-0.41 L -1.39,-0.51 L -1.42,-0.61 L -1.45,-0.71 L -1.46,-0.81 L -1.47,-0.92 L -1.47,-1.02 L -1.47,-1.13 L -1.46,-1.23 L -1.44,-1.33 L -1.41,-1.43 L -1.37,-1.53 L -1.33,-1.63 L -1.28,-1.72 L -1.22,-1.81 L -1.16,-1.90 L -1.10,-1.98 L -1.02,-2.05 L -0.94,-2.12 L -0.86,-2.18 L -0.77,-2.24 L -0.68,-2.29 L -0.58,-2.34 L -0.49,-2.37 L -0.39,-2.40 L -0.28,-2.43 L -0.18,-2.44 L -0.07,-2.45 L 0.03,-2.45 L 0.13,-2.44 L 0.24,-2.43 L 0.34,-2.40 L 0.44,-2.37 L 0.54,-2.34 L 0.64,-2.29 L 0.73,-2.24 L 0.82,-2.18 L 0.90,-2.12 L 0.98,-2.05 L 1.05,-1.98 L 1.12,-1.90 L 1.18,-1.81 L 1.24,-1.72 L 1.29,-1.63 L 1.33,-1.54 L 1.36,-1.44 L 1.39,-1.34 L 1.41,-1.23 L 1.43,-1.13 L 1.43,-1.02 L 1.43,-0.92 L 1.42,-0.81 L 1.40,-0.71 L 1.38,-0.61 L 1.35,-0.51 L 1.31,-0.41 L 1.26,-0.32 L 1.21,-0.23 " stroke-width="0.12" />
    <circle class="pivotPoint layout" fill="none" cx="0" cy="0" r="0.2" />
  </g>
</svg>