<?xml version="1.0" encoding="UTF-8"?>
<?xml-stylesheet type='text/css' href='svgStyle.css'?>
<svg version="1.2" baseProfile="tiny" width="7.14mm" height="10.17mm" viewBox="-3.58 -6.20 7.16 10.19" xmlns="http://www.w3.org/2000/svg">
  <title>BOYINL03FL</title>
  <desc>river buoy bifurcation of the fairway (3.B of CEVNI) - off position - text area -d - left hand side</desc>
  <metadata />
  <g>
    <path class="fMIDGN sBLACK" d="M -0.83,-3.31 L 0.00,-4.75 L 0.84,-3.31 L -0.83,-3.31 Z" stroke-width="0.12" />
    <path class="fORRED sORRED" d="M -1.20,-0.31 L -1.86,0.12 L -1.86,0.59 L 1.85,0.59 L 1.85,0.12 L 1.27,-0.31 L 1.32,-0.40 L 1.36,-0.50 L 1.40,-0.59 L 1.43,-0.69 L 1.46,-0.80 L 1.48,-0.90 L 1.49,-1.00 L 1.49,-1.11 L 1.48,-1.21 L 1.47,-1.32 L 1.45,-1.42 L 1.42,-1.52 L 1.38,-1.62 L 1.34,-1.72 L 1.29,-1.81 L 1.24,-1.90 L 1.17,-1.98 L 1.11,-2.06 L 1.03,-2.14 L 0.95,-2.21 L 0.87,-2.27 L 0.78,-2.33 L 0.69,-2.38 L 0.60,-2.42 L 0.50,-2.46 L 0.40,-2.49 L 0.29,-2.51 L 0.19,-2.53 L 0.09,-2.53 L -0.02,-2.53 L -0.12,-2.53 L -0.23,-2.51 L -0.33,-2.49 L -0.43,-2.46 L -0.53,-2.42 L -0.62,-2.38 L -0.72,-2.33 L -0.80,-2.27 L -0.89,-2.21 L -0.97,-2.14 L -1.04,-2.06 L -1.11,-1.98 L -1.17,-1.90 L -1.23,-1.81 L -1.27,-1.71 L -1.32,-1.62 L -1.35,-1.52 L -1.38,-1.42 L -1.40,-1.32 L -1.41,-1.21 L -1.42,-1.11 L -1.42,-1.00 L -1.41,-0.90 L -1.39,-0.79 L -1.37,-0.69 L -1.33,-0.59 L -1.30,-0.49 L -1.25,-0.40 L -1.20,-0.31 Z" stroke-width="0.04" />
    <path class="f0 sBLACK" d="M 3.57,-1.09 L 1.28,2.17 " stroke-width="0.12" />
    <path class="fBLACK sBLACK" d="M 0.52,3.06 L 0.51,3.12 L 0.51,3.17 L 0.50,3.22 L 0.49,3.28 L 0.48,3.33 L 0.46,3.38 L 0.44,3.43 L 0.43,3.46 L 0.41,3.49 L 0.39,3.52 L 0.37,3.55 L 0.34,3.57 L 0.32,3.60 L 0.29,3.62 L 0.26,3.64 L 0.23,3.66 L 0.20,3.67 L 0.17,3.69 L 0.13,3.70 L 0.10,3.70 L 0.06,3.71 L 0.03,3.71 L -0.01,3.71 L -0.04,3.71 L -0.08,3.71 L -0.11,3.71 L -0.15,3.70 L -0.18,3.69 L -0.22,3.67 L -0.25,3.66 L -0.28,3.64 L -0.31,3.62 L -0.34,3.60 L -0.36,3.57 L -0.39,3.55 L -0.41,3.52 L -0.43,3.49 L -0.45,3.46 L -0.46,3.43 L -0.48,3.38 L -0.50,3.33 L -0.51,3.27 L -0.52,3.22 L -0.53,3.17 L -0.53,3.12 L -0.85,3.12 L -0.84,3.23 L -0.83,3.32 L -0.81,3.40 L -0.78,3.48 L -0.74,3.56 L -0.71,3.62 L -0.67,3.68 L -0.63,3.73 L -0.58,3.78 L -0.53,3.82 L -0.48,3.86 L -0.42,3.90 L -0.36,3.93 L -0.32,3.94 L -0.28,3.95 L -0.23,3.96 L -0.19,3.97 L -0.14,3.98 L -0.10,3.98 L -0.05,3.99 L -0.01,3.99 L 0.04,3.98 L 0.09,3.98 L 0.14,3.98 L 0.19,3.97 L 0.23,3.96 L 0.27,3.95 L 0.31,3.94 L 0.35,3.92 L 0.39,3.90 L 0.42,3.88 L 0.46,3.86 L 0.50,3.84 L 0.55,3.79 L 0.59,3.74 L 0.64,3.69 L 0.68,3.64 L 0.71,3.58 L 0.74,3.52 L 0.77,3.46 L 0.79,3.39 L 0.81,3.30 L 0.82,3.20 L 0.83,3.11 L 0.52,3.06 Z" stroke-width="0.04" />
    <path class="fBLACK sBLACK" d="M -0.01,2.04 L -0.05,2.04 L -0.10,2.04 L -0.14,2.05 L -0.19,2.05 L -0.23,2.06 L -0.28,2.07 L -0.32,2.08 L -0.36,2.10 L -0.40,2.12 L -0.44,2.14 L -0.48,2.17 L -0.52,2.19 L -0.55,2.22 L -0.58,2.25 L -0.62,2.28 L -0.65,2.32 L -0.68,2.35 L -0.70,2.39 L -0.72,2.43 L -0.75,2.47 L -0.77,2.51 L -0.78,2.55 L -0.80,2.59 L -0.81,2.64 L -0.83,2.73 L -0.84,2.82 L -0.85,2.92 L -0.85,3.01 L -0.85,3.12 L -0.53,3.12 L -0.54,3.06 L -0.54,3.01 L -0.54,2.96 L -0.53,2.91 L -0.53,2.85 L -0.52,2.80 L -0.51,2.75 L -0.50,2.70 L -0.48,2.65 L -0.46,2.60 L -0.45,2.57 L -0.43,2.53 L -0.41,2.50 L -0.39,2.48 L -0.36,2.45 L -0.34,2.43 L -0.31,2.40 L -0.28,2.38 L -0.25,2.37 L -0.22,2.35 L -0.18,2.34 L -0.15,2.33 L -0.11,2.32 L -0.08,2.31 L -0.04,2.31 L -0.01,2.31 L -0.01,2.04 Z" stroke-width="0.04" />
    <path class="fBLACK sBLACK" d="M -0.01,2.31 L 0.03,2.31 L 0.06,2.32 L 0.10,2.32 L 0.13,2.33 L 0.17,2.34 L 0.20,2.35 L 0.23,2.37 L 0.26,2.39 L 0.29,2.41 L 0.32,2.43 L 0.34,2.45 L 0.37,2.48 L 0.39,2.51 L 0.41,2.53 L 0.43,2.57 L 0.44,2.60 L 0.46,2.65 L 0.48,2.70 L 0.49,2.75 L 0.50,2.80 L 0.51,2.85 L 0.51,2.91 L 0.52,2.96 L 0.52,3.01 L 0.52,3.06 L 0.83,3.11 L 0.83,3.01 L 0.83,2.91 L 0.82,2.80 L 0.80,2.71 L 0.78,2.63 L 0.76,2.54 L 0.72,2.46 L 0.69,2.41 L 0.65,2.35 L 0.61,2.30 L 0.56,2.25 L 0.51,2.20 L 0.46,2.16 L 0.40,2.13 L 0.34,2.10 L 0.30,2.08 L 0.26,2.07 L 0.21,2.06 L 0.17,2.05 L 0.12,2.05 L 0.08,2.04 L 0.03,2.04 L -0.01,2.04 L -0.01,2.31 Z" stroke-width="0.04" />
    <path class="fBLACK sBLACK" d="M -1.29,2.16 L -3.57,-1.09 L 0.00,-6.19 L 3.57,-1.09 L 1.28,2.17 L 1.17,1.92 L 3.29,-1.09 L 0.00,-5.78 L -3.28,-1.09 L -1.17,1.92 L -1.29,2.16 Z" stroke-width="0" />
    <path class="fMIDGN sMIDGN" d="M 1.35,-1.70 L 1.30,-1.79 L 1.25,-1.88 L 1.18,-1.97 L 1.12,-2.05 L 1.04,-2.13 L 0.96,-2.20 L 0.88,-2.26 L 0.79,-2.32 L 0.70,-2.37 L 0.60,-2.42 L 0.50,-2.46 L 0.40,-2.49 L 0.30,-2.51 L 0.19,-2.53 L 0.09,-2.53 L -0.02,-2.53 L -0.12,-2.53 L -0.23,-2.51 L -0.33,-2.49 L -0.43,-2.46 L -0.53,-2.42 L -0.63,-2.37 L -0.72,-2.32 L -0.81,-2.26 L -0.90,-2.20 L -0.97,-2.13 L -1.05,-2.05 L -1.12,-1.97 L -1.18,-1.88 L -1.23,-1.79 L -1.28,-1.70 L 1.35,-1.70 Z" stroke-width="0.04" />
    <path class="fMIDGN sMIDGN" d="M -1.20,-0.31 L 1.27,-0.31 L 1.32,-0.41 L 1.37,-0.52 L 1.41,-0.63 L 1.45,-0.74 L 1.47,-0.86 L 1.48,-0.98 L -1.42,-0.98 L -1.40,-0.86 L -1.38,-0.74 L -1.35,-0.63 L -1.30,-0.52 L -1.25,-0.41 L -1.20,-0.31 Z" stroke-width="0.04" />
    <path class="f0 sBLACK" d="M -1.20,-0.31 L -1.86,0.12 L -1.86,0.59 L 1.85,0.59 L 1.85,0.12 L 1.27,-0.31 " stroke-width="0.12" />
    <path class="f0 sBLACK" d="M -1.20,-0.31 L -1.25,-0.40 L -1.30,-0.49 L -1.33,-0.59 L -1.37,-0.69 L -1.39,-0.79 L -1.41,-0.90 L -1.42,-1.00 L -1.42,-1.11 L -1.41,-1.21 L -1.40,-1.32 L -1.38,-1.42 L -1.35,-1.52 L -1.32,-1.62 L -1.27,-1.71 L -1.23,-1.81 L -1.17,-1.90 L -1.11,-1.98 L -1.04,-2.06 L -0.97,-2.14 L -0.89,-2.21 L -0.80,-2.27 L -0.72,-2.33 L -0.62,-2.38 L -0.53,-2.42 L -0.43,-2.46 L -0.33,-2.49 L -0.23,-2.51 L -0.12,-2.53 L -0.02,-2.53 L 0.09,-2.53 L 0.19,-2.53 L 0.29,-2.51 L 0.40,-2.49 L 0.50,-2.46 L 0.60,-2.42 L 0.69,-2.38 L 0.78,-2.33 L 0.87,-2.27 L 0.95,-2.21 L 1.03,-2.14 L 1.11,-2.06 L 1.17,-1.98 L 1.24,-1.90 L 1.29,-1.81 L 1.34,-1.72 L 1.38,-1.62 L 1.42,-1.52 L 1.45,-1.42 L 1.47,-1.32 L 1.48,-1.21 L 1.49,-1.11 L 1.49,-1.00 L 1.48,-0.90 L 1.46,-0.80 L 1.44,-0.69 L 1.40,-0.59 L 1.36,-0.50 L 1.32,-0.40 L 1.27,-0.31 " stroke-width="0.12" />
    <path class="f0 sBLACK" d="M -1.20,-0.31 L -1.25,-0.40 L -1.30,-0.49 L -1.33,-0.59 L -1.37,-0.69 L -1.39,-0.79 L -1.41,-0.90 L -1.42,-1.00 L -1.42,-1.11 L -1.41,-1.21 L -1.40,-1.32 L -1.38,-1.42 L -1.35,-1.52 L -1.32,-1.62 L -1.27,-1.71 L -1.23,-1.81 L -1.17,-1.90 L -1.11,-1.98 L -1.04,-2.06 L -0.97,-2.14 L -0.89,-2.21 L -0.80,-2.27 L -0.72,-2.33 L -0.62,-2.38 L -0.53,-2.42 L -0.43,-2.46 L -0.33,-2.49 L -0.23,-2.51 L -0.12,-2.53 L -0.02,-2.53 L 0.09,-2.53 L 0.19,-2.53 L 0.29,-2.51 L 0.40,-2.49 L 0.50,-2.46 L 0.60,-2.42 L 0.69,-2.38 L 0.78,-2.33 L 0.87,-2.27 L 0.95,-2.21 L 1.03,-2.14 L 1.11,-2.06 L 1.17,-1.98 L 1.24,-1.90 L 1.29,-1.81 L 1.34,-1.72 L 1.38,-1.62 L 1.42,-1.52 L 1.45,-1.42 L 1.47,-1.32 L 1.48,-1.21 L 1.49,-1.11 L 1.49,-1.00 L 1.48,-0.90 L 1.46,-0.80 L 1.44,-0.69 L 1.40,-0.59 L 1.36,-0.50 L 1.32,-0.40 L 1.27,-0.31 " stroke-width="0.12" />
    <path class="f0 sBLACK" d="M -1.20,-0.31 L -1.25,-0.40 L -1.30,-0.49 L -1.33,-0.59 L -1.37,-0.69 L -1.39,-0.79 L -1.41,-0.90 L -1.42,-1.00 L -1.42,-1.11 L -1.41,-1.21 L -1.40,-1.32 L -1.38,-1.42 L -1.35,-1.52 L -1.32,-1.62 L -1.27,-1.71 L -1.23,-1.81 L -1.17,-1.90 L -1.11,-1.98 L -1.04,-2.06 L -0.97,-2.14 L -0.89,-2.21 L -0.80,-2.27 L -0.72,-2.33 L -0.62,-2.38 L -0.53,-2.42 L -0.43,-2.46 L -0.33,-2.49 L -0.23,-2.51 L -0.12,-2.53 L -0.02,-2.53 L 0.09,-2.53 L 0.19,-2.53 L 0.29,-2.51 L 0.40,-2.49 L 0.50,-2.46 L 0.60,-2.42 L 0.69,-2.38 L 0.78,-2.33 L 0.87,-2.27 L 0.95,-2.21 L 1.03,-2.14 L 1.11,-2.06 L 1.17,-1.98 L 1.24,-1.90 L 1.29,-1.81 L 1.34,-1.72 L 1.38,-1.62 L 1.42,-1.52 L 1.45,-1.42 L 1.47,-1.32 L 1.48,-1.21 L 1.49,-1.11 L 1.49,-1.00 L 1.48,-0.90 L 1.46,-0.80 L 1.44,-0.69 L 1.40,-0.59 L 1.36,-0.50 L 1.32,-0.40 L 1.27,-0.31 " stroke-width="0.12" />
    <circle class="pivotPoint layout" fill="none" cx="0" cy="0" r="0.2" />
  </g>
</svg>