<?xml version="1.0" encoding="UTF-8"?>
<?xml-stylesheet type='text/css' href='svgStyle.css'?>
<svg version="1.2" baseProfile="tiny" width="7.14mm" height="10.20mm" viewBox="-3.57 -6.18 7.16 10.22" xmlns="http://www.w3.org/2000/svg">
  <title>BOYINL03FR</title>
  <desc>river buoy bifurcation of the fairway (3.B of CEVNI) - off position - text area -d - right hand side</desc>
  <metadata />
  <g>
    <path class="fORRED sBLACK" d="M -0.61,-3.22 L 0.63,-3.22 L 0.63,-4.46 L -0.61,-4.46 L -0.61,-3.22 Z" stroke-width="0.12" />
    <path class="fORRED sORRED" d="M -1.18,-0.27 L -1.84,0.16 L -1.84,0.63 L 1.87,0.63 L 1.87,0.16 L 1.28,-0.27 L 1.33,-0.36 L 1.38,-0.46 L 1.42,-0.55 L 1.45,-0.65 L 1.47,-0.76 L 1.49,-0.86 L 1.50,-0.96 L 1.50,-1.07 L 1.50,-1.17 L 1.48,-1.28 L 1.46,-1.38 L 1.43,-1.48 L 1.40,-1.58 L 1.36,-1.68 L 1.31,-1.77 L 1.25,-1.86 L 1.19,-1.94 L 1.12,-2.02 L 1.05,-2.10 L 0.97,-2.17 L 0.89,-2.23 L 0.80,-2.29 L 0.71,-2.34 L 0.61,-2.38 L 0.51,-2.42 L 0.41,-2.45 L 0.31,-2.47 L 0.20,-2.49 L 0.10,-2.49 L 0.00,-2.49 L -0.11,-2.49 L -0.21,-2.47 L -0.32,-2.45 L -0.42,-2.42 L -0.51,-2.38 L -0.61,-2.34 L -0.70,-2.29 L -0.79,-2.23 L -0.87,-2.17 L -0.95,-2.10 L -1.03,-2.02 L -1.09,-1.94 L -1.15,-1.86 L -1.21,-1.77 L -1.26,-1.67 L -1.30,-1.58 L -1.34,-1.48 L -1.37,-1.38 L -1.39,-1.28 L -1.40,-1.17 L -1.40,-1.07 L -1.40,-0.96 L -1.39,-0.86 L -1.38,-0.75 L -1.35,-0.65 L -1.32,-0.55 L -1.28,-0.45 L -1.23,-0.36 L -1.18,-0.27 Z" stroke-width="0.04" />
    <path class="fBLACK sBLACK" d="M 0.53,3.10 L 0.53,3.16 L 0.52,3.21 L 0.52,3.26 L 0.51,3.32 L 0.49,3.37 L 0.48,3.42 L 0.46,3.47 L 0.44,3.50 L 0.43,3.53 L 0.41,3.56 L 0.38,3.59 L 0.36,3.61 L 0.33,3.64 L 0.31,3.66 L 0.28,3.68 L 0.25,3.70 L 0.21,3.71 L 0.18,3.73 L 0.15,3.74 L 0.11,3.75 L 0.08,3.75 L 0.04,3.75 L 0.01,3.75 L -0.03,3.75 L -0.06,3.75 L -0.10,3.75 L -0.13,3.74 L -0.17,3.73 L -0.20,3.71 L -0.23,3.70 L -0.27,3.68 L -0.29,3.66 L -0.32,3.64 L -0.35,3.61 L -0.37,3.59 L -0.39,3.56 L -0.42,3.53 L -0.43,3.50 L -0.45,3.47 L -0.47,3.42 L -0.48,3.37 L -0.50,3.31 L -0.51,3.26 L -0.51,3.21 L -0.52,3.16 L -0.84,3.16 L -0.83,3.27 L -0.81,3.36 L -0.79,3.44 L -0.76,3.52 L -0.73,3.60 L -0.70,3.66 L -0.66,3.72 L -0.62,3.77 L -0.57,3.82 L -0.52,3.86 L -0.46,3.90 L -0.41,3.94 L -0.35,3.97 L -0.30,3.98 L -0.26,3.99 L -0.22,4.01 L -0.17,4.01 L -0.13,4.02 L -0.08,4.02 L -0.04,4.03 L 0.00,4.03 L 0.06,4.02 L 0.11,4.02 L 0.16,4.02 L 0.20,4.01 L 0.25,4.00 L 0.29,3.99 L 0.33,3.98 L 0.37,3.96 L 0.40,3.94 L 0.44,3.92 L 0.48,3.90 L 0.51,3.88 L 0.56,3.83 L 0.61,3.78 L 0.65,3.73 L 0.69,3.68 L 0.73,3.62 L 0.76,3.56 L 0.78,3.50 L 0.80,3.43 L 0.82,3.34 L 0.83,3.24 L 0.84,3.15 L 0.53,3.10 Z" stroke-width="0.04" />
    <path class="fBLACK sBLACK" d="M 0.00,2.08 L -0.04,2.08 L -0.08,2.08 L -0.13,2.09 L -0.17,2.09 L -0.22,2.10 L -0.26,2.11 L -0.30,2.12 L -0.35,2.14 L -0.39,2.16 L -0.43,2.18 L -0.46,2.21 L -0.50,2.23 L -0.54,2.26 L -0.57,2.29 L -0.60,2.32 L -0.63,2.36 L -0.66,2.39 L -0.69,2.43 L -0.71,2.47 L -0.73,2.51 L -0.75,2.55 L -0.77,2.59 L -0.78,2.63 L -0.79,2.68 L -0.81,2.77 L -0.83,2.86 L -0.84,2.96 L -0.84,3.05 L -0.84,3.16 L -0.52,3.16 L -0.52,3.10 L -0.52,3.05 L -0.52,3.00 L -0.52,2.95 L -0.51,2.89 L -0.51,2.84 L -0.50,2.79 L -0.48,2.74 L -0.47,2.69 L -0.45,2.64 L -0.43,2.61 L -0.41,2.57 L -0.39,2.54 L -0.37,2.52 L -0.35,2.49 L -0.32,2.47 L -0.29,2.44 L -0.26,2.42 L -0.23,2.41 L -0.20,2.39 L -0.17,2.38 L -0.13,2.37 L -0.10,2.36 L -0.06,2.35 L -0.03,2.35 L 0.01,2.35 L 0.00,2.08 Z" stroke-width="0.04" />
    <path class="fBLACK sBLACK" d="M 0.01,2.35 L 0.04,2.35 L 0.08,2.36 L 0.11,2.36 L 0.15,2.37 L 0.18,2.38 L 0.21,2.39 L 0.25,2.41 L 0.28,2.43 L 0.31,2.45 L 0.33,2.47 L 0.36,2.49 L 0.38,2.52 L 0.40,2.55 L 0.42,2.57 L 0.44,2.61 L 0.46,2.64 L 0.48,2.69 L 0.49,2.74 L 0.50,2.79 L 0.52,2.84 L 0.52,2.89 L 0.53,2.95 L 0.53,3.00 L 0.53,3.05 L 0.53,3.10 L 0.84,3.15 L 0.84,3.05 L 0.84,2.95 L 0.83,2.84 L 0.82,2.75 L 0.80,2.67 L 0.77,2.58 L 0.73,2.50 L 0.70,2.45 L 0.67,2.39 L 0.62,2.34 L 0.58,2.29 L 0.53,2.24 L 0.47,2.20 L 0.42,2.17 L 0.36,2.14 L 0.31,2.12 L 0.27,2.11 L 0.23,2.10 L 0.18,2.09 L 0.14,2.09 L 0.09,2.08 L 0.05,2.08 L 0.00,2.08 L 0.01,2.35 Z" stroke-width="0.04" />
    <path class="fBLACK sBLACK" d="M -1.28,2.18 L -3.56,-1.08 L 0.00,-6.17 L 3.58,-1.08 L 1.29,2.18 L 1.18,1.94 L 3.29,-1.08 L 0.01,-5.76 L -3.27,-1.08 L -1.17,1.93 L -1.28,2.18 Z" stroke-width="0" />
    <path class="fMIDGN sMIDGN" d="M 1.36,-1.66 L 1.32,-1.75 L 1.26,-1.84 L 1.20,-1.93 L 1.13,-2.01 L 1.06,-2.09 L 0.98,-2.16 L 0.89,-2.22 L 0.81,-2.28 L 0.71,-2.33 L 0.62,-2.38 L 0.52,-2.42 L 0.42,-2.45 L 0.31,-2.47 L 0.21,-2.49 L 0.10,-2.49 L 0.00,-2.49 L -0.11,-2.49 L -0.21,-2.47 L -0.32,-2.45 L -0.42,-2.42 L -0.52,-2.38 L -0.62,-2.33 L -0.71,-2.28 L -0.80,-2.22 L -0.88,-2.16 L -0.96,-2.09 L -1.03,-2.01 L -1.10,-1.93 L -1.16,-1.84 L -1.22,-1.75 L -1.27,-1.66 L 1.36,-1.66 Z" stroke-width="0.04" />
    <path class="fMIDGN sMIDGN" d="M -1.18,-0.27 L 1.28,-0.27 L 1.34,-0.37 L 1.39,-0.48 L 1.43,-0.59 L 1.46,-0.70 L 1.48,-0.82 L 1.50,-0.94 L -1.40,-0.94 L -1.39,-0.82 L -1.36,-0.70 L -1.33,-0.59 L -1.29,-0.48 L -1.24,-0.37 L -1.18,-0.27 Z" stroke-width="0.04" />
    <path class="f0 sBLACK" d="M -1.18,-0.27 L -1.84,0.16 L -1.84,0.63 L 1.87,0.63 L 1.87,0.16 L 1.28,-0.27 " stroke-width="0.12" />
    <path class="f0 sBLACK" d="M -1.18,-0.27 L -1.23,-0.36 L -1.28,-0.45 L -1.32,-0.55 L -1.35,-0.65 L -1.38,-0.75 L -1.39,-0.86 L -1.40,-0.96 L -1.40,-1.07 L -1.40,-1.17 L -1.39,-1.28 L -1.36,-1.38 L -1.34,-1.48 L -1.30,-1.58 L -1.26,-1.67 L -1.21,-1.77 L -1.15,-1.86 L -1.09,-1.94 L -1.02,-2.02 L -0.95,-2.10 L -0.87,-2.17 L -0.79,-2.23 L -0.70,-2.29 L -0.61,-2.34 L -0.51,-2.38 L -0.42,-2.42 L -0.32,-2.45 L -0.21,-2.47 L -0.11,-2.49 L 0.00,-2.49 L 0.10,-2.49 L 0.21,-2.49 L 0.31,-2.47 L 0.41,-2.45 L 0.51,-2.42 L 0.61,-2.38 L 0.71,-2.34 L 0.80,-2.29 L 0.89,-2.23 L 0.97,-2.17 L 1.05,-2.10 L 1.12,-2.02 L 1.19,-1.94 L 1.25,-1.86 L 1.31,-1.77 L 1.36,-1.68 L 1.40,-1.58 L 1.43,-1.48 L 1.46,-1.38 L 1.48,-1.28 L 1.50,-1.17 L 1.50,-1.07 L 1.50,-0.96 L 1.49,-0.86 L 1.47,-0.76 L 1.45,-0.65 L 1.42,-0.55 L 1.38,-0.46 L 1.33,-0.36 L 1.28,-0.27 " stroke-width="0.12" />
    <path class="f0 sBLACK" d="M -1.18,-0.27 L -1.23,-0.36 L -1.28,-0.45 L -1.32,-0.55 L -1.35,-0.65 L -1.38,-0.75 L -1.39,-0.86 L -1.40,-0.96 L -1.40,-1.07 L -1.40,-1.17 L -1.39,-1.28 L -1.36,-1.38 L -1.34,-1.48 L -1.30,-1.58 L -1.26,-1.67 L -1.21,-1.77 L -1.15,-1.86 L -1.09,-1.94 L -1.02,-2.02 L -0.95,-2.10 L -0.87,-2.17 L -0.79,-2.23 L -0.70,-2.29 L -0.61,-2.34 L -0.51,-2.38 L -0.42,-2.42 L -0.32,-2.45 L -0.21,-2.47 L -0.11,-2.49 L 0.00,-2.49 L 0.10,-2.49 L 0.21,-2.49 L 0.31,-2.47 L 0.41,-2.45 L 0.51,-2.42 L 0.61,-2.38 L 0.71,-2.34 L 0.80,-2.29 L 0.89,-2.23 L 0.97,-2.17 L 1.05,-2.10 L 1.12,-2.02 L 1.19,-1.94 L 1.25,-1.86 L 1.31,-1.77 L 1.36,-1.68 L 1.40,-1.58 L 1.43,-1.48 L 1.46,-1.38 L 1.48,-1.28 L 1.50,-1.17 L 1.50,-1.07 L 1.50,-0.96 L 1.49,-0.86 L 1.47,-0.76 L 1.45,-0.65 L 1.42,-0.55 L 1.38,-0.46 L 1.33,-0.36 L 1.28,-0.27 " stroke-width="0.12" />
    <path class="f0 sBLACK" d="M -1.18,-0.27 L -1.23,-0.36 L -1.28,-0.45 L -1.32,-0.55 L -1.35,-0.65 L -1.38,-0.75 L -1.39,-0.86 L -1.40,-0.96 L -1.40,-1.07 L -1.40,-1.17 L -1.39,-1.28 L -1.36,-1.38 L -1.34,-1.48 L -1.30,-1.58 L -1.26,-1.67 L -1.21,-1.77 L -1.15,-1.86 L -1.09,-1.94 L -1.02,-2.02 L -0.95,-2.10 L -0.87,-2.16 L -0.79,-2.23 L -0.70,-2.29 L -0.61,-2.34 L -0.51,-2.38 L -0.42,-2.42 L -0.32,-2.45 L -0.21,-2.47 L -0.11,-2.49 L 0.00,-2.49 L 0.10,-2.49 L 0.21,-2.49 L 0.31,-2.47 L 0.41,-2.45 L 0.51,-2.42 L 0.61,-2.38 L 0.71,-2.34 L 0.80,-2.29 L 0.89,-2.23 L 0.97,-2.17 L 1.05,-2.10 L 1.12,-2.02 L 1.19,-1.94 L 1.25,-1.86 L 1.31,-1.77 L 1.36,-1.68 L 1.40,-1.58 L 1.43,-1.48 L 1.46,-1.38 L 1.48,-1.28 L 1.50,-1.17 L 1.50,-1.07 L 1.50,-0.96 L 1.49,-0.86 L 1.47,-0.76 L 1.45,-0.65 L 1.42,-0.55 L 1.38,-0.46 L 1.33,-0.36 L 1.28,-0.27 " stroke-width="0.12" />
    <circle class="pivotPoint layout" fill="none" cx="0" cy="0" r="0.2" />
  </g>
</svg>