<?xml version="1.0" encoding="UTF-8"?>
<?xml-stylesheet type='text/css' href='svgStyle.css'?>
<svg version="1.2" baseProfile="tiny" width="7.14mm" height="10.18mm" viewBox="-3.58 -6.21 7.16 10.20" xmlns="http://www.w3.org/2000/svg">
  <title>BOYINL03OL</title>
  <desc>river buoy bifurcation of the fairway (3.B of CEVNI) - on position - left hand side</desc>
  <metadata />
  <g>
    <path class="fMIDGN sBLACK" d="M -0.83,-3.26 L 0.01,-4.71 L 0.84,-3.26 L -0.83,-3.26 Z" stroke-width="0.12" />
    <path class="fORRED sORRED" d="M -1.19,-0.26 L -1.84,0.16 L -1.84,0.64 L 1.86,0.64 L 1.86,0.16 L 1.28,-0.26 L 1.33,-0.36 L 1.38,-0.45 L 1.42,-0.55 L 1.45,-0.65 L 1.47,-0.75 L 1.49,-0.85 L 1.50,-0.96 L 1.50,-1.06 L 1.49,-1.17 L 1.48,-1.27 L 1.46,-1.37 L 1.43,-1.48 L 1.40,-1.57 L 1.35,-1.67 L 1.30,-1.76 L 1.25,-1.85 L 1.19,-1.94 L 1.12,-2.02 L 1.04,-2.09 L 0.97,-2.16 L 0.88,-2.22 L 0.79,-2.28 L 0.70,-2.33 L 0.61,-2.38 L 0.51,-2.41 L 0.41,-2.44 L 0.31,-2.47 L 0.20,-2.48 L 0.10,-2.49 L -0.01,-2.49 L -0.11,-2.48 L -0.22,-2.47 L -0.32,-2.44 L -0.42,-2.41 L -0.52,-2.38 L -0.61,-2.33 L -0.70,-2.28 L -0.79,-2.22 L -0.88,-2.16 L -0.95,-2.09 L -1.03,-2.01 L -1.10,-1.93 L -1.16,-1.85 L -1.21,-1.76 L -1.26,-1.67 L -1.31,-1.57 L -1.34,-1.47 L -1.37,-1.37 L -1.39,-1.27 L -1.40,-1.17 L -1.41,-1.06 L -1.41,-0.96 L -1.40,-0.85 L -1.38,-0.75 L -1.35,-0.65 L -1.32,-0.55 L -1.28,-0.45 L -1.24,-0.35 L -1.19,-0.26 Z" stroke-width="0.04" />
    <path class="fBLACK sBLACK" d="M 0.00,3.99 L -3.57,-1.10 L 0.00,-6.20 L 3.57,-1.10 L 0.00,3.99 L 0.00,3.58 L 3.29,-1.10 L 0.00,-5.79 L -3.28,-1.10 L 0.00,3.58 L 0.00,3.99 Z" stroke-width="0.04" />
    <path class="fMIDGN sMIDGN" d="M 1.36,-1.65 L 1.31,-1.75 L 1.26,-1.84 L 1.20,-1.92 L 1.13,-2.01 L 1.05,-2.08 L 0.98,-2.15 L 0.89,-2.22 L 0.80,-2.28 L 0.71,-2.33 L 0.61,-2.37 L 0.51,-2.41 L 0.41,-2.44 L 0.31,-2.46 L 0.20,-2.48 L 0.10,-2.49 L -0.01,-2.49 L -0.11,-2.48 L -0.22,-2.46 L -0.32,-2.44 L -0.42,-2.41 L -0.52,-2.37 L -0.62,-2.33 L -0.71,-2.28 L -0.80,-2.22 L -0.88,-2.15 L -0.96,-2.08 L -1.04,-2.01 L -1.10,-1.92 L -1.17,-1.84 L -1.22,-1.75 L -1.27,-1.65 L 1.36,-1.65 Z" stroke-width="0.04" />
    <path class="fMIDGN sMIDGN" d="M -1.19,-0.26 L 1.28,-0.26 L 1.34,-0.37 L 1.39,-0.47 L 1.43,-0.58 L 1.46,-0.70 L 1.48,-0.81 L 1.50,-0.93 L -1.40,-0.93 L -1.39,-0.81 L -1.37,-0.70 L -1.33,-0.58 L -1.29,-0.47 L -1.24,-0.37 L -1.19,-0.26 Z" stroke-width="0.04" />
    <path class="f0 sBLACK" d="M -1.19,-0.26 L -1.84,0.16 L -1.84,0.64 L 1.86,0.64 L 1.86,0.16 L 1.28,-0.26 " stroke-width="0.12" />
    <path class="f0 sBLACK" d="M -1.19,-0.26 L -1.24,-0.35 L -1.28,-0.45 L -1.32,-0.55 L -1.35,-0.65 L -1.38,-0.75 L -1.40,-0.85 L -1.41,-0.96 L -1.41,-1.06 L -1.40,-1.17 L -1.39,-1.27 L -1.37,-1.37 L -1.34,-1.47 L -1.31,-1.57 L -1.26,-1.67 L -1.21,-1.76 L -1.16,-1.85 L -1.10,-1.93 L -1.03,-2.01 L -0.95,-2.09 L -0.88,-2.16 L -0.79,-2.22 L -0.70,-2.28 L -0.61,-2.33 L -0.52,-2.38 L -0.42,-2.41 L -0.32,-2.44 L -0.22,-2.47 L -0.11,-2.48 L -0.01,-2.49 L 0.10,-2.49 L 0.20,-2.48 L 0.31,-2.47 L 0.41,-2.44 L 0.51,-2.41 L 0.61,-2.38 L 0.70,-2.33 L 0.79,-2.28 L 0.88,-2.22 L 0.97,-2.16 L 1.04,-2.09 L 1.12,-2.02 L 1.19,-1.94 L 1.25,-1.85 L 1.30,-1.76 L 1.35,-1.67 L 1.40,-1.57 L 1.43,-1.48 L 1.46,-1.37 L 1.48,-1.27 L 1.49,-1.17 L 1.50,-1.06 L 1.50,-0.96 L 1.49,-0.85 L 1.47,-0.75 L 1.45,-0.65 L 1.42,-0.55 L 1.38,-0.45 L 1.33,-0.36 L 1.28,-0.26 " stroke-width="0.12" />
    <path class="f0 sBLACK" d="M -1.19,-0.26 L -1.24,-0.35 L -1.28,-0.45 L -1.32,-0.55 L -1.35,-0.65 L -1.38,-0.75 L -1.40,-0.85 L -1.41,-0.96 L -1.41,-1.06 L -1.40,-1.17 L -1.39,-1.27 L -1.37,-1.37 L -1.34,-1.47 L -1.31,-1.57 L -1.26,-1.67 L -1.21,-1.76 L -1.16,-1.85 L -1.10,-1.93 L -1.03,-2.01 L -0.95,-2.09 L -0.88,-2.16 L -0.79,-2.22 L -0.70,-2.28 L -0.61,-2.33 L -0.52,-2.38 L -0.42,-2.41 L -0.32,-2.44 L -0.22,-2.47 L -0.11,-2.48 L -0.01,-2.49 L 0.10,-2.49 L 0.20,-2.48 L 0.31,-2.47 L 0.41,-2.44 L 0.51,-2.41 L 0.61,-2.38 L 0.70,-2.33 L 0.79,-2.28 L 0.88,-2.22 L 0.97,-2.16 L 1.04,-2.09 L 1.12,-2.02 L 1.19,-1.94 L 1.25,-1.85 L 1.30,-1.76 L 1.35,-1.67 L 1.40,-1.57 L 1.43,-1.48 L 1.46,-1.37 L 1.48,-1.27 L 1.49,-1.17 L 1.50,-1.06 L 1.50,-0.96 L 1.49,-0.85 L 1.47,-0.75 L 1.45,-0.65 L 1.42,-0.55 L 1.38,-0.45 L 1.33,-0.36 L 1.28,-0.26 " stroke-width="0.12" />
    <path class="f0 sBLACK" d="M -1.19,-0.26 L -1.24,-0.35 L -1.28,-0.45 L -1.32,-0.55 L -1.35,-0.65 L -1.38,-0.75 L -1.40,-0.85 L -1.41,-0.96 L -1.41,-1.06 L -1.40,-1.17 L -1.39,-1.27 L -1.37,-1.37 L -1.34,-1.47 L -1.30,-1.57 L -1.26,-1.67 L -1.21,-1.76 L -1.16,-1.85 L -1.10,-1.93 L -1.03,-2.01 L -0.95,-2.09 L -0.88,-2.16 L -0.79,-2.22 L -0.70,-2.28 L -0.61,-2.33 L -0.52,-2.38 L -0.42,-2.41 L -0.32,-2.44 L -0.22,-2.46 L -0.11,-2.48 L -0.01,-2.49 L 0.10,-2.49 L 0.20,-2.48 L 0.31,-2.47 L 0.41,-2.44 L 0.51,-2.41 L 0.61,-2.38 L 0.70,-2.33 L 0.79,-2.28 L 0.88,-2.22 L 0.97,-2.16 L 1.04,-2.09 L 1.12,-2.02 L 1.19,-1.94 L 1.25,-1.85 L 1.30,-1.76 L 1.35,-1.67 L 1.40,-1.57 L 1.43,-1.48 L 1.46,-1.37 L 1.48,-1.27 L 1.49,-1.17 L 1.50,-1.06 L 1.50,-0.96 L 1.49,-0.85 L 1.47,-0.75 L 1.45,-0.65 L 1.42,-0.55 L 1.38,-0.45 L 1.33,-0.36 L 1.28,-0.26 " stroke-width="0.12" />
    <circle class="pivotPoint layout" fill="none" cx="0" cy="0" r="0.2" />
  </g>
</svg>