<?xml version="1.0" encoding="UTF-8"?>
<?xml-stylesheet type='text/css' href='S401Style.css'?>
<svg version="1.2" baseProfile="tiny" width="6.10mm" height="8.70mm" viewBox="-3.01 -5.41 6.12 8.72" xmlns="http://www.w3.org/2000/svg">
  <title>BOYINL02V</title>
  <desc>river buoy left-hand side of the fairway (2.B of CEVNI) - virtual</desc>
  <metadata />
  <g>
    <path class="fMIDGN sBLACK" d="M -1.70,-0.42 L 1.79,-0.42 L 1.79,-0.95 L 1.32,-0.95 L 0.05,-2.97 L -1.22,-0.95 L -1.70,-0.95 L -1.70,-0.42 Z" stroke-width="0.12" />
    <path class="fMIDGN sBLACK" d="M -1.70,-0.42 L 1.79,-0.42 L 1.79,-0.95 L 1.32,-0.95 L 0.05,-2.97 L -1.22,-0.95 L -1.70,-0.95 L -1.70,-0.42 Z" stroke-width="0.12" />
    <path class="fBLACK sBLACK" d="M -0.96,-3.62 L 0.04,-5.05 L 1.03,-3.64 L 1.20,-3.76 L 0.04,-5.40 L -1.12,-3.74 L -0.96,-3.62 Z" stroke-width="0.04" />
    <path class="fBLACK sBLACK" d="M -1.79,0.34 L -2.76,-1.04 L -1.83,-2.36 L -1.99,-2.48 L -3.00,-1.04 L -1.95,0.45 L -1.79,0.34 Z" stroke-width="0.04" />
    <path class="fBLACK sBLACK" d="M 2.13,-2.43 L 3.10,-1.04 L 1.98,0.55 L 1.82,0.43 L 2.85,-1.04 L 1.96,-2.32 L 2.13,-2.43 Z" stroke-width="0.04" />
    <path class="fBLACK sBLACK" d="M 1.15,1.72 L 0.04,3.30 L -1.01,1.80 L -0.85,1.68 L 0.04,2.95 L 0.99,1.60 L 1.15,1.72 Z" stroke-width="0.04" />
    <circle class="pivotPoint layout" fill="none" cx="0" cy="0" r="0.2" />
  </g>
</svg>