<?xml version="1.0" encoding="UTF-8"?>
<?xml-stylesheet type='text/css' href='svgStyle.css'?>
<svg version="1.2" baseProfile="tiny" width="6.10mm" height="8.69mm" viewBox="-2.85 -5.46 6.12 8.71" xmlns="http://www.w3.org/2000/svg">
  <title>BOYINL08M</title>
  <desc>river buoy yellow float (8.C of CEVNI) - off position - missing- - text area -d</desc>
  <metadata />
  <g>
    <path class="fYLLOW sBLACK" d="M -1.66,-0.21 L 1.96,-0.21 L 1.96,-0.85 L 1.54,-0.85 L 1.88,-2.19 L -0.90,-2.19 L -1.24,-0.85 L -1.66,-0.85 L -1.66,-0.21 Z" stroke-width="0.12" />
    <path class="fBLACK sBLACK" d="M 0.22,1.43 L 0.18,1.40 L 0.14,1.37 L 0.10,1.35 L 0.06,1.32 L -0.01,1.31 L -0.07,1.29 L -0.13,1.29 L -0.20,1.29 L -0.24,1.29 L -0.28,1.29 L -0.32,1.30 L -0.36,1.31 L -0.40,1.32 L -0.43,1.33 L -0.47,1.35 L -0.51,1.37 L -0.54,1.39 L -0.57,1.41 L -0.61,1.44 L -0.64,1.47 L -0.66,1.49 L -0.69,1.53 L -0.71,1.56 L -0.74,1.59 L -0.74,1.33 L -1.04,1.33 L -1.04,3.23 L -0.73,3.23 L -0.73,2.11 L -0.72,2.06 L -0.72,2.01 L -0.71,1.97 L -0.71,1.94 L -0.70,1.90 L -0.69,1.87 L -0.67,1.83 L -0.66,1.80 L -0.64,1.76 L -0.62,1.73 L -0.58,1.69 L -0.54,1.66 L -0.50,1.63 L -0.46,1.61 L -0.41,1.59 L -0.36,1.58 L -0.31,1.57 L -0.26,1.57 L -0.21,1.57 L -0.17,1.57 L -0.14,1.58 L -0.10,1.59 L -0.07,1.61 L -0.04,1.63 L -0.01,1.66 L 0.22,1.43 Z" stroke-width="0.04" />
    <path class="fBLACK sBLACK" d="M -0.05,1.63 L -0.02,1.66 L 0.00,1.69 L 0.02,1.74 L 0.03,1.80 L 0.04,1.86 L 0.04,1.92 L 0.04,3.20 L 0.37,3.20 L 0.37,2.08 L 0.37,2.03 L 0.37,1.98 L 0.38,1.93 L 0.39,1.88 L 0.40,1.84 L 0.41,1.81 L 0.42,1.78 L 0.44,1.74 L 0.46,1.71 L 0.48,1.68 L 0.50,1.66 L 0.53,1.63 L 0.56,1.61 L 0.60,1.59 L 0.63,1.57 L 0.67,1.56 L 0.71,1.55 L 0.75,1.54 L 0.79,1.54 L 0.83,1.53 L 0.88,1.54 L 0.93,1.55 L 0.98,1.56 L 1.03,1.59 L 1.05,1.60 L 1.07,1.62 L 1.09,1.64 L 1.11,1.67 L 1.12,1.69 L 1.13,1.72 L 1.14,1.74 L 1.15,1.77 L 1.16,1.84 L 1.16,1.90 L 1.16,1.97 L 1.16,2.03 L 1.16,3.20 L 1.48,3.20 L 1.48,2.06 L 1.48,1.97 L 1.48,1.88 L 1.48,1.79 L 1.47,1.69 L 1.46,1.66 L 1.46,1.63 L 1.45,1.59 L 1.43,1.56 L 1.42,1.53 L 1.40,1.50 L 1.38,1.47 L 1.36,1.44 L 1.34,1.42 L 1.32,1.39 L 1.29,1.37 L 1.26,1.35 L 1.23,1.33 L 1.20,1.32 L 1.17,1.30 L 1.14,1.29 L 1.08,1.27 L 1.01,1.26 L 0.95,1.26 L 0.88,1.25 L 0.84,1.26 L 0.80,1.26 L 0.75,1.26 L 0.71,1.27 L 0.67,1.28 L 0.63,1.30 L 0.59,1.31 L 0.55,1.33 L 0.52,1.35 L 0.48,1.37 L 0.45,1.40 L 0.42,1.42 L 0.39,1.45 L 0.36,1.48 L 0.33,1.51 L 0.30,1.55 L 0.28,1.50 L 0.25,1.46 L 0.22,1.43 L 0.18,1.39 L -0.05,1.63 Z" stroke-width="0.04" />
    <path class="fBLACK sBLACK" d="M -0.82,-3.64 L 0.21,-5.11 L 1.22,-3.65 L 1.39,-3.77 L 0.21,-5.45 L -0.99,-3.75 L -0.82,-3.64 Z" stroke-width="0.04" />
    <path class="fBLACK sBLACK" d="M -1.79,0.39 L -1.63,0.28 L -2.60,-1.10 L -1.67,-2.43 L -1.83,-2.54 L -2.84,-1.10 L -1.79,0.39 Z" stroke-width="0.04" />
    <path class="fBLACK sBLACK" d="M 2.28,-2.49 L 3.26,-1.10 L 2.15,0.48 L 1.98,0.37 L 3.01,-1.10 L 2.12,-2.38 L 2.28,-2.49 Z" stroke-width="0.04" />
    <circle class="pivotPoint layout" fill="none" cx="0" cy="0" r="0.2" />
  </g>
</svg>