<?xml version="1.0" encoding="UTF-8"?>
<?xml-stylesheet type='text/css' href='svgStyle.css'?>
<svg version="1.2" baseProfile="tiny" width="6.10mm" height="8.70mm" viewBox="-2.94 -5.29 6.12 8.72" xmlns="http://www.w3.org/2000/svg">
  <title>BOYINL08F</title>
  <desc>river buoy yellow float (8.C of CEVNI) - off position - text area -d</desc>
  <metadata />
  <g>
    <path class="fYLLOW sBLACK" d="M -1.75,-0.04 L 1.87,-0.04 L 1.87,-0.68 L 1.45,-0.68 L 1.79,-2.02 L -0.98,-2.02 L -1.33,-0.68 L -1.75,-0.68 L -1.75,-0.04 Z" stroke-width="0.12" />
    <path class="fBLACK sBLACK" d="M 0.65,2.50 L 0.65,2.55 L 0.64,2.60 L 0.64,2.66 L 0.62,2.71 L 0.61,2.76 L 0.59,2.81 L 0.58,2.86 L 0.56,2.89 L 0.54,2.92 L 0.52,2.95 L 0.50,2.98 L 0.48,3.01 L 0.45,3.03 L 0.43,3.05 L 0.40,3.07 L 0.37,3.09 L 0.33,3.11 L 0.30,3.12 L 0.27,3.13 L 0.23,3.14 L 0.20,3.14 L 0.16,3.15 L 0.13,3.15 L 0.09,3.15 L 0.06,3.14 L 0.02,3.14 L -0.01,3.13 L -0.05,3.12 L -0.08,3.11 L -0.11,3.09 L -0.15,3.07 L -0.18,3.05 L -0.20,3.03 L -0.23,3.01 L -0.25,2.98 L -0.28,2.95 L -0.30,2.92 L -0.31,2.89 L -0.33,2.86 L -0.35,2.81 L -0.36,2.76 L -0.38,2.71 L -0.39,2.65 L -0.40,2.60 L -0.40,2.55 L -0.72,2.55 L -0.71,2.66 L -0.69,2.75 L -0.67,2.83 L -0.64,2.92 L -0.61,2.99 L -0.58,3.05 L -0.54,3.11 L -0.50,3.16 L -0.45,3.21 L -0.40,3.25 L -0.35,3.29 L -0.29,3.33 L -0.23,3.36 L -0.18,3.37 L -0.14,3.39 L -0.10,3.40 L -0.05,3.41 L -0.01,3.41 L 0.03,3.42 L 0.08,3.42 L 0.12,3.42 L 0.17,3.42 L 0.22,3.41 L 0.27,3.41 L 0.32,3.40 L 0.37,3.39 L 0.41,3.38 L 0.45,3.37 L 0.48,3.35 L 0.52,3.34 L 0.56,3.32 L 0.59,3.29 L 0.63,3.27 L 0.68,3.22 L 0.73,3.18 L 0.77,3.13 L 0.81,3.07 L 0.85,3.01 L 0.88,2.95 L 0.90,2.89 L 0.92,2.82 L 0.94,2.73 L 0.95,2.64 L 0.96,2.54 L 0.65,2.50 Z" stroke-width="0.04" />
    <path class="fBLACK sBLACK" d="M 0.12,1.47 L 0.08,1.47 L 0.03,1.47 L -0.01,1.48 L -0.05,1.48 L -0.10,1.49 L -0.14,1.50 L -0.18,1.52 L -0.23,1.53 L -0.27,1.55 L -0.31,1.57 L -0.35,1.60 L -0.38,1.62 L -0.42,1.65 L -0.45,1.68 L -0.48,1.71 L -0.51,1.75 L -0.54,1.78 L -0.57,1.82 L -0.59,1.86 L -0.61,1.90 L -0.63,1.94 L -0.65,1.98 L -0.66,2.02 L -0.68,2.07 L -0.70,2.16 L -0.71,2.25 L -0.72,2.35 L -0.72,2.44 L -0.72,2.55 L -0.40,2.55 L -0.40,2.50 L -0.40,2.44 L -0.40,2.39 L -0.40,2.34 L -0.40,2.29 L -0.39,2.23 L -0.38,2.18 L -0.36,2.13 L -0.35,2.08 L -0.33,2.03 L -0.31,2.00 L -0.30,1.97 L -0.28,1.94 L -0.25,1.91 L -0.23,1.88 L -0.20,1.86 L -0.17,1.84 L -0.15,1.82 L -0.11,1.80 L -0.08,1.78 L -0.05,1.77 L -0.01,1.76 L 0.02,1.75 L 0.06,1.75 L 0.09,1.75 L 0.13,1.75 L 0.12,1.47 Z" stroke-width="0.04" />
    <path class="fBLACK sBLACK" d="M 0.13,1.75 L 0.16,1.75 L 0.20,1.75 L 0.23,1.75 L 0.27,1.76 L 0.30,1.77 L 0.33,1.78 L 0.37,1.80 L 0.40,1.82 L 0.42,1.84 L 0.45,1.86 L 0.48,1.88 L 0.50,1.91 L 0.52,1.94 L 0.54,1.97 L 0.56,2.00 L 0.58,2.03 L 0.59,2.08 L 0.61,2.13 L 0.62,2.18 L 0.63,2.23 L 0.64,2.29 L 0.65,2.34 L 0.65,2.39 L 0.65,2.44 L 0.65,2.50 L 0.96,2.54 L 0.96,2.45 L 0.96,2.34 L 0.95,2.23 L 0.94,2.14 L 0.92,2.06 L 0.89,1.98 L 0.85,1.90 L 0.82,1.84 L 0.78,1.78 L 0.74,1.73 L 0.70,1.68 L 0.65,1.64 L 0.59,1.60 L 0.53,1.56 L 0.47,1.53 L 0.43,1.52 L 0.39,1.50 L 0.35,1.49 L 0.30,1.48 L 0.26,1.48 L 0.21,1.47 L 0.17,1.47 L 0.12,1.47 L 0.13,1.75 Z" stroke-width="0.04" />
    <path class="fBLACK sBLACK" d="M 1.42,1.58 L 3.18,-0.93 L 0.13,-5.28 L -2.93,-0.93 L -1.17,1.58 L -1.06,1.39 L -2.68,-0.93 L 0.13,-4.94 L 2.93,-0.93 L 1.31,1.38 L 1.42,1.58 Z" stroke-width="0" />
    <circle class="pivotPoint layout" fill="none" cx="0" cy="0" r="0.2" />
  </g>
</svg>