<?xml version="1.0" encoding="UTF-8"?>
<?xml-stylesheet type='text/css' href='svgStyle.css'?>
<svg version="1.2" baseProfile="tiny" width="7.14mm" height="10.18mm" viewBox="-3.58 -6.20 7.16 10.20" xmlns="http://www.w3.org/2000/svg">
  <title>BOYINL03OR</title>
  <desc>river buoy bifurcation of the fairway (3.B of CEVNI) - on pos- right hand side</desc>
  <metadata />
  <g>
    <path class="fORRED sORRED" d="M -1.18,-0.28 L -1.84,0.15 L -1.84,0.62 L 1.87,0.62 L 1.87,0.15 L 1.29,-0.28 L 1.34,-0.37 L 1.38,-0.46 L 1.42,-0.56 L 1.46,-0.66 L 1.48,-0.76 L 1.50,-0.87 L 1.51,-0.97 L 1.51,-1.08 L 1.50,-1.18 L 1.49,-1.28 L 1.47,-1.39 L 1.44,-1.49 L 1.40,-1.59 L 1.36,-1.68 L 1.31,-1.78 L 1.26,-1.87 L 1.19,-1.95 L 1.13,-2.03 L 1.05,-2.10 L 0.97,-2.17 L 0.89,-2.24 L 0.80,-2.29 L 0.71,-2.35 L 0.62,-2.39 L 0.52,-2.43 L 0.42,-2.46 L 0.31,-2.48 L 0.21,-2.49 L 0.11,-2.50 L 0.00,-2.50 L -0.10,-2.49 L -0.21,-2.48 L -0.31,-2.46 L -0.41,-2.43 L -0.51,-2.39 L -0.60,-2.34 L -0.70,-2.29 L -0.78,-2.24 L -0.87,-2.17 L -0.95,-2.10 L -1.02,-2.03 L -1.09,-1.95 L -1.15,-1.86 L -1.21,-1.77 L -1.25,-1.68 L -1.30,-1.59 L -1.33,-1.49 L -1.36,-1.39 L -1.38,-1.28 L -1.39,-1.18 L -1.40,-1.07 L -1.40,-0.97 L -1.39,-0.86 L -1.37,-0.76 L -1.35,-0.66 L -1.31,-0.56 L -1.28,-0.46 L -1.23,-0.37 L -1.18,-0.28 Z" stroke-width="0.04" />
    <path class="fORRED sBLACK" d="M -0.60,-3.24 L 0.63,-3.24 L 0.63,-4.47 L -0.60,-4.47 L -0.60,-3.24 Z" stroke-width="0.12" />
    <path class="fBLACK sBLACK" d="M 0.00,3.99 L -3.57,-1.10 L 0.00,-6.19 L 3.57,-1.10 L 0.00,3.99 L 0.00,3.58 L 3.29,-1.10 L 0.00,-5.78 L -3.28,-1.10 L 0.00,3.58 L 0.00,3.99 Z" stroke-width="0.04" />
    <path class="fMIDGN sMIDGN" d="M 1.37,-1.67 L 1.32,-1.76 L 1.27,-1.85 L 1.20,-1.94 L 1.14,-2.02 L 1.06,-2.10 L 0.98,-2.17 L 0.90,-2.23 L 0.81,-2.29 L 0.72,-2.34 L 0.62,-2.39 L 0.52,-2.42 L 0.42,-2.45 L 0.32,-2.48 L 0.21,-2.49 L 0.11,-2.50 L 0.00,-2.50 L -0.10,-2.49 L -0.21,-2.48 L -0.31,-2.45 L -0.41,-2.42 L -0.51,-2.39 L -0.61,-2.34 L -0.70,-2.29 L -0.79,-2.23 L -0.87,-2.17 L -0.95,-2.10 L -1.03,-2.02 L -1.10,-1.94 L -1.16,-1.85 L -1.21,-1.76 L -1.26,-1.67 L 1.37,-1.67 Z" stroke-width="0.04" />
    <path class="fMIDGN sMIDGN" d="M -1.18,-0.28 L 1.29,-0.28 L 1.34,-0.38 L 1.39,-0.49 L 1.43,-0.60 L 1.47,-0.71 L 1.49,-0.83 L 1.50,-0.94 L -1.40,-0.94 L -1.38,-0.83 L -1.36,-0.71 L -1.33,-0.60 L -1.28,-0.49 L -1.23,-0.38 L -1.18,-0.28 Z" stroke-width="0.04" />
    <path class="f0 sBLACK" d="M -1.18,-0.28 L -1.84,0.15 L -1.84,0.62 L 1.87,0.62 L 1.87,0.15 L 1.29,-0.28 " stroke-width="0.12" />
    <path class="f0 sBLACK" d="M -1.18,-0.28 L -1.23,-0.37 L -1.28,-0.46 L -1.31,-0.56 L -1.35,-0.66 L -1.37,-0.76 L -1.39,-0.86 L -1.40,-0.97 L -1.40,-1.07 L -1.39,-1.18 L -1.38,-1.28 L -1.36,-1.39 L -1.33,-1.49 L -1.30,-1.59 L -1.25,-1.68 L -1.21,-1.77 L -1.15,-1.86 L -1.09,-1.95 L -1.02,-2.03 L -0.95,-2.10 L -0.87,-2.17 L -0.78,-2.24 L -0.70,-2.29 L -0.60,-2.34 L -0.51,-2.39 L -0.41,-2.43 L -0.31,-2.46 L -0.21,-2.48 L -0.10,-2.49 L 0.00,-2.50 L 0.11,-2.50 L 0.21,-2.49 L 0.31,-2.48 L 0.42,-2.46 L 0.52,-2.43 L 0.62,-2.39 L 0.71,-2.35 L 0.80,-2.29 L 0.89,-2.24 L 0.97,-2.17 L 1.05,-2.10 L 1.13,-2.03 L 1.19,-1.95 L 1.26,-1.87 L 1.31,-1.78 L 1.36,-1.68 L 1.40,-1.59 L 1.44,-1.49 L 1.47,-1.39 L 1.49,-1.28 L 1.50,-1.18 L 1.51,-1.08 L 1.51,-0.97 L 1.50,-0.87 L 1.48,-0.76 L 1.46,-0.66 L 1.42,-0.56 L 1.39,-0.46 L 1.34,-0.37 L 1.29,-0.28 " stroke-width="0.12" />
    <path class="f0 sBLACK" d="M -1.18,-0.28 L -1.23,-0.37 L -1.28,-0.46 L -1.31,-0.56 L -1.35,-0.66 L -1.37,-0.76 L -1.39,-0.86 L -1.40,-0.97 L -1.40,-1.07 L -1.39,-1.18 L -1.38,-1.28 L -1.36,-1.39 L -1.33,-1.49 L -1.30,-1.59 L -1.25,-1.68 L -1.21,-1.77 L -1.15,-1.86 L -1.09,-1.95 L -1.02,-2.03 L -0.95,-2.10 L -0.87,-2.17 L -0.78,-2.24 L -0.70,-2.29 L -0.60,-2.34 L -0.51,-2.39 L -0.41,-2.43 L -0.31,-2.46 L -0.21,-2.48 L -0.10,-2.49 L 0.00,-2.50 L 0.11,-2.50 L 0.21,-2.49 L 0.31,-2.48 L 0.42,-2.46 L 0.52,-2.43 L 0.62,-2.39 L 0.71,-2.35 L 0.80,-2.29 L 0.89,-2.24 L 0.97,-2.17 L 1.05,-2.10 L 1.13,-2.03 L 1.19,-1.95 L 1.26,-1.87 L 1.31,-1.78 L 1.36,-1.68 L 1.40,-1.59 L 1.44,-1.49 L 1.47,-1.39 L 1.49,-1.28 L 1.50,-1.18 L 1.51,-1.08 L 1.51,-0.97 L 1.50,-0.87 L 1.48,-0.76 L 1.46,-0.66 L 1.42,-0.56 L 1.39,-0.46 L 1.34,-0.37 L 1.29,-0.28 " stroke-width="0.12" />
    <path class="f0 sBLACK" d="M -1.18,-0.28 L -1.23,-0.37 L -1.28,-0.46 L -1.31,-0.56 L -1.35,-0.66 L -1.37,-0.76 L -1.39,-0.86 L -1.40,-0.97 L -1.40,-1.07 L -1.39,-1.18 L -1.38,-1.28 L -1.36,-1.39 L -1.33,-1.49 L -1.30,-1.59 L -1.25,-1.68 L -1.21,-1.77 L -1.15,-1.86 L -1.09,-1.95 L -1.02,-2.03 L -0.95,-2.10 L -0.87,-2.17 L -0.78,-2.24 L -0.70,-2.29 L -0.60,-2.34 L -0.51,-2.39 L -0.41,-2.43 L -0.31,-2.46 L -0.21,-2.48 L -0.10,-2.49 L 0.00,-2.50 L 0.11,-2.50 L 0.21,-2.49 L 0.31,-2.48 L 0.42,-2.46 L 0.52,-2.43 L 0.62,-2.39 L 0.71,-2.35 L 0.80,-2.29 L 0.89,-2.24 L 0.97,-2.17 L 1.05,-2.10 L 1.13,-2.03 L 1.19,-1.95 L 1.26,-1.86 L 1.31,-1.78 L 1.36,-1.68 L 1.40,-1.59 L 1.44,-1.49 L 1.47,-1.39 L 1.49,-1.28 L 1.50,-1.18 L 1.51,-1.08 L 1.51,-0.97 L 1.50,-0.87 L 1.48,-0.76 L 1.46,-0.66 L 1.42,-0.56 L 1.38,-0.46 L 1.34,-0.37 L 1.29,-0.28 " stroke-width="0.12" />
    <circle class="pivotPoint layout" fill="none" cx="0" cy="0" r="0.2" />
  </g>
</svg>