<?xml version="1.0" encoding="UTF-8"?>
<?xml-stylesheet type='text/css' href='svgStyle.css'?>
<svg version="1.2" baseProfile="tiny" width="6.10mm" height="8.70mm" viewBox="-3.07 -5.25 6.12 8.72" xmlns="http://www.w3.org/2000/svg">
  <title>BOYINL01F</title>
  <desc>river buoy right-hand side of the fairway (1.B of CEVNI) - off position - arial + black wt2 -d</desc>
  <metadata />
  <g>
    <path class="fORRED sBLACK" d="M -1.82,-0.15 L -1.82,-0.76 L -1.18,-1.09 L -1.18,-2.32 L 1.19,-2.32 L 1.19,-1.09 L 1.83,-0.76 L 1.83,-0.15 L -1.82,-0.15 Z" stroke-width="0.12" />
    <path class="fBLACK sBLACK" d="M 0.51,2.54 L 0.51,2.59 L 0.50,2.64 L 0.50,2.70 L 0.49,2.75 L 0.47,2.80 L 0.46,2.85 L 0.44,2.90 L 0.42,2.93 L 0.41,2.97 L 0.39,2.99 L 0.36,3.02 L 0.34,3.05 L 0.31,3.07 L 0.29,3.09 L 0.26,3.11 L 0.23,3.13 L 0.20,3.15 L 0.16,3.16 L 0.13,3.17 L 0.09,3.18 L 0.06,3.18 L 0.02,3.19 L -0.01,3.19 L -0.05,3.19 L -0.08,3.18 L -0.12,3.18 L -0.15,3.17 L -0.19,3.16 L -0.22,3.15 L -0.25,3.13 L -0.29,3.11 L -0.31,3.09 L -0.34,3.07 L -0.37,3.05 L -0.39,3.02 L -0.41,2.99 L -0.43,2.96 L -0.45,2.93 L -0.47,2.90 L -0.49,2.85 L -0.50,2.80 L -0.52,2.75 L -0.53,2.70 L -0.53,2.64 L -0.54,2.59 L -0.86,2.60 L -0.85,2.71 L -0.83,2.79 L -0.81,2.88 L -0.78,2.96 L -0.75,3.04 L -0.72,3.10 L -0.68,3.15 L -0.64,3.20 L -0.59,3.25 L -0.54,3.30 L -0.48,3.34 L -0.43,3.37 L -0.37,3.40 L -0.32,3.41 L -0.28,3.43 L -0.24,3.44 L -0.19,3.45 L -0.15,3.45 L -0.10,3.46 L -0.06,3.46 L -0.02,3.46 L 0.04,3.46 L 0.09,3.46 L 0.14,3.45 L 0.19,3.44 L 0.23,3.43 L 0.27,3.42 L 0.31,3.41 L 0.35,3.39 L 0.38,3.38 L 0.42,3.36 L 0.46,3.33 L 0.49,3.31 L 0.54,3.27 L 0.59,3.22 L 0.63,3.17 L 0.67,3.11 L 0.71,3.05 L 0.74,2.99 L 0.76,2.93 L 0.78,2.86 L 0.80,2.77 L 0.81,2.68 L 0.82,2.58 L 0.51,2.54 Z" stroke-width="0.04" />
    <path class="fBLACK sBLACK" d="M -0.02,1.51 L -0.06,1.51 L -0.10,1.51 L -0.15,1.52 L -0.19,1.53 L -0.24,1.53 L -0.28,1.54 L -0.32,1.56 L -0.37,1.57 L -0.41,1.59 L -0.45,1.61 L -0.48,1.64 L -0.52,1.67 L -0.56,1.69 L -0.59,1.72 L -0.62,1.76 L -0.65,1.79 L -0.68,1.83 L -0.71,1.86 L -0.73,1.90 L -0.75,1.94 L -0.77,1.98 L -0.79,2.02 L -0.80,2.07 L -0.81,2.11 L -0.83,2.20 L -0.85,2.30 L -0.86,2.39 L -0.86,2.48 L -0.86,2.60 L -0.54,2.59 L -0.54,2.54 L -0.54,2.48 L -0.54,2.43 L -0.54,2.38 L -0.53,2.33 L -0.53,2.27 L -0.52,2.22 L -0.50,2.17 L -0.49,2.12 L -0.47,2.07 L -0.45,2.04 L -0.43,2.01 L -0.41,1.98 L -0.39,1.95 L -0.37,1.92 L -0.34,1.90 L -0.31,1.88 L -0.28,1.86 L -0.25,1.84 L -0.22,1.82 L -0.19,1.81 L -0.15,1.80 L -0.12,1.79 L -0.08,1.79 L -0.05,1.79 L -0.01,1.79 L -0.02,1.51 Z" stroke-width="0.04" />
    <path class="fBLACK sBLACK" d="M -0.01,1.79 L 0.02,1.79 L 0.06,1.79 L 0.09,1.80 L 0.13,1.80 L 0.16,1.81 L 0.19,1.83 L 0.23,1.84 L 0.26,1.86 L 0.29,1.88 L 0.31,1.90 L 0.34,1.93 L 0.36,1.95 L 0.39,1.98 L 0.40,2.01 L 0.42,2.04 L 0.44,2.07 L 0.46,2.12 L 0.47,2.17 L 0.49,2.22 L 0.50,2.27 L 0.50,2.33 L 0.51,2.38 L 0.51,2.43 L 0.51,2.48 L 0.51,2.54 L 0.82,2.58 L 0.82,2.49 L 0.82,2.38 L 0.81,2.27 L 0.80,2.18 L 0.78,2.10 L 0.75,2.02 L 0.71,1.94 L 0.68,1.88 L 0.65,1.82 L 0.60,1.77 L 0.56,1.72 L 0.51,1.68 L 0.45,1.64 L 0.40,1.60 L 0.34,1.57 L 0.29,1.56 L 0.25,1.54 L 0.21,1.53 L 0.16,1.53 L 0.12,1.52 L 0.07,1.51 L 0.03,1.51 L -0.02,1.51 L -0.01,1.79 Z" stroke-width="0.04" />
    <path class="fBLACK sBLACK" d="M 1.28,1.62 L 3.04,-0.89 L -0.01,-5.24 L -3.06,-0.89 L -1.31,1.62 L -1.20,1.43 L -2.82,-0.89 L -0.01,-4.89 L 2.79,-0.89 L 1.17,1.42 L 1.28,1.62 Z" stroke-width="0" />
    <circle class="pivotPoint layout" fill="none" cx="0" cy="0" r="0.2" />
  </g>
</svg>