<?xml version="1.0" encoding="UTF-8"?>
<?xml-stylesheet type='text/css' href='svgStyle.css'?>
<svg version="1.2" baseProfile="tiny" width="7.14mm" height="10.18mm" viewBox="-3.57 -6.20 7.16 10.20" xmlns="http://www.w3.org/2000/svg">
  <title>BOYINL03VR</title>
  <desc>river buoy bifurcation of the fairway (3.B of CEVNI) - on position - missing - right hand side</desc>
  <metadata />
  <g>
    <path class="fORRED sBLACK" d="M -0.59,-3.24 L 0.64,-3.24 L 0.64,-4.47 L -0.59,-4.47 L -0.59,-3.24 Z" stroke-width="0.12" />
    <path class="fORRED sORRED" d="M -1.19,-0.30 L -1.85,0.13 L -1.85,0.60 L 1.86,0.60 L 1.86,0.13 L 1.28,-0.30 L 1.33,-0.39 L 1.37,-0.49 L 1.41,-0.58 L 1.44,-0.68 L 1.47,-0.79 L 1.49,-0.89 L 1.50,-0.99 L 1.50,-1.10 L 1.49,-1.20 L 1.48,-1.31 L 1.46,-1.41 L 1.43,-1.51 L 1.39,-1.61 L 1.35,-1.71 L 1.30,-1.80 L 1.25,-1.89 L 1.18,-1.97 L 1.12,-2.05 L 1.04,-2.13 L 0.96,-2.20 L 0.88,-2.26 L 0.79,-2.32 L 0.70,-2.37 L 0.60,-2.41 L 0.51,-2.45 L 0.41,-2.48 L 0.30,-2.50 L 0.20,-2.52 L 0.09,-2.52 L -0.01,-2.52 L -0.11,-2.52 L -0.22,-2.50 L -0.32,-2.48 L -0.42,-2.45 L -0.52,-2.41 L -0.61,-2.37 L -0.71,-2.32 L -0.79,-2.26 L -0.88,-2.20 L -0.96,-2.13 L -1.03,-2.05 L -1.10,-1.97 L -1.16,-1.89 L -1.22,-1.80 L -1.26,-1.70 L -1.31,-1.61 L -1.34,-1.51 L -1.37,-1.41 L -1.39,-1.31 L -1.40,-1.20 L -1.41,-1.10 L -1.41,-0.99 L -1.40,-0.89 L -1.38,-0.78 L -1.36,-0.68 L -1.32,-0.58 L -1.29,-0.48 L -1.24,-0.39 L -1.19,-0.30 Z" stroke-width="0.04" />
    <path class="fBLACK sBLACK" d="M -2.33,0.66 L -3.56,-1.09 L -2.38,-2.78 L -2.19,-2.64 L -3.27,-1.09 L -2.14,0.52 L -2.33,0.66 Z" stroke-width="0" />
    <path class="fBLACK sBLACK" d="M 1.30,2.14 L 0.00,3.99 L -1.23,2.23 L -1.04,2.10 L 0.00,3.58 L 1.11,2.00 L 1.30,2.14 Z" stroke-width="0" />
    <path class="fBLACK sBLACK" d="M 2.35,0.66 L 3.58,-1.09 L 2.40,-2.78 L 2.21,-2.64 L 3.29,-1.09 L 2.16,0.52 L 2.35,0.66 Z" stroke-width="0" />
    <path class="fBLACK sBLACK" d="M -1.36,-4.25 L 0.00,-6.19 L 1.35,-4.27 L 1.16,-4.13 L 0.00,-5.78 L -1.17,-4.11 L -1.36,-4.25 Z" stroke-width="0" />
    <path class="fMIDGN sMIDGN" d="M 1.36,-1.69 L 1.31,-1.78 L 1.26,-1.87 L 1.19,-1.96 L 1.13,-2.04 L 1.05,-2.12 L 0.97,-2.19 L 0.89,-2.25 L 0.80,-2.31 L 0.71,-2.36 L 0.61,-2.41 L 0.51,-2.45 L 0.41,-2.48 L 0.31,-2.50 L 0.20,-2.52 L 0.10,-2.52 L -0.01,-2.52 L -0.11,-2.52 L -0.22,-2.50 L -0.32,-2.48 L -0.43,-2.45 L -0.52,-2.41 L -0.62,-2.36 L -0.71,-2.31 L -0.80,-2.25 L -0.89,-2.19 L -0.96,-2.12 L -1.04,-2.04 L -1.11,-1.96 L -1.17,-1.87 L -1.22,-1.78 L -1.27,-1.69 L 1.36,-1.69 Z" stroke-width="0.04" />
    <path class="fMIDGN sMIDGN" d="M -1.19,-0.30 L 1.28,-0.30 L 1.33,-0.40 L 1.38,-0.51 L 1.42,-0.62 L 1.46,-0.73 L 1.48,-0.85 L 1.49,-0.97 L -1.41,-0.97 L -1.39,-0.85 L -1.37,-0.73 L -1.34,-0.62 L -1.29,-0.51 L -1.24,-0.40 L -1.19,-0.30 Z" stroke-width="0.04" />
    <path class="f0 sBLACK" d="M -1.19,-0.30 L -1.85,0.13 L -1.85,0.60 L 1.86,0.60 L 1.86,0.13 L 1.28,-0.30 " stroke-width="0.12" />
    <path class="f0 sBLACK" d="M -1.19,-0.30 L -1.24,-0.39 L -1.29,-0.48 L -1.32,-0.58 L -1.36,-0.68 L -1.38,-0.78 L -1.40,-0.89 L -1.41,-0.99 L -1.41,-1.10 L -1.40,-1.20 L -1.39,-1.31 L -1.37,-1.41 L -1.34,-1.51 L -1.31,-1.61 L -1.26,-1.70 L -1.22,-1.80 L -1.16,-1.89 L -1.10,-1.97 L -1.03,-2.05 L -0.96,-2.13 L -0.88,-2.20 L -0.79,-2.26 L -0.71,-2.32 L -0.61,-2.37 L -0.52,-2.41 L -0.42,-2.45 L -0.32,-2.48 L -0.22,-2.50 L -0.11,-2.52 L -0.01,-2.52 L 0.10,-2.52 L 0.20,-2.52 L 0.30,-2.50 L 0.41,-2.48 L 0.51,-2.45 L 0.61,-2.41 L 0.70,-2.37 L 0.79,-2.32 L 0.88,-2.26 L 0.96,-2.20 L 1.04,-2.13 L 1.12,-2.05 L 1.18,-1.97 L 1.25,-1.89 L 1.30,-1.80 L 1.35,-1.71 L 1.39,-1.61 L 1.43,-1.51 L 1.46,-1.41 L 1.48,-1.31 L 1.49,-1.20 L 1.50,-1.10 L 1.50,-0.99 L 1.49,-0.89 L 1.47,-0.79 L 1.44,-0.68 L 1.41,-0.58 L 1.37,-0.49 L 1.33,-0.39 L 1.28,-0.30 " stroke-width="0.12" />
    <path class="f0 sBLACK" d="M -1.19,-0.30 L -1.24,-0.39 L -1.29,-0.48 L -1.32,-0.58 L -1.36,-0.68 L -1.38,-0.78 L -1.40,-0.89 L -1.41,-0.99 L -1.41,-1.10 L -1.40,-1.20 L -1.39,-1.31 L -1.37,-1.41 L -1.34,-1.51 L -1.31,-1.61 L -1.26,-1.70 L -1.22,-1.80 L -1.16,-1.89 L -1.10,-1.97 L -1.03,-2.05 L -0.96,-2.13 L -0.88,-2.20 L -0.79,-2.26 L -0.71,-2.32 L -0.61,-2.37 L -0.52,-2.41 L -0.42,-2.45 L -0.32,-2.48 L -0.22,-2.50 L -0.11,-2.52 L -0.01,-2.52 L 0.10,-2.52 L 0.20,-2.52 L 0.30,-2.50 L 0.41,-2.48 L 0.51,-2.45 L 0.61,-2.41 L 0.70,-2.37 L 0.79,-2.32 L 0.88,-2.26 L 0.96,-2.20 L 1.04,-2.13 L 1.12,-2.05 L 1.18,-1.97 L 1.25,-1.89 L 1.30,-1.80 L 1.35,-1.71 L 1.39,-1.61 L 1.43,-1.51 L 1.46,-1.41 L 1.48,-1.31 L 1.49,-1.20 L 1.50,-1.10 L 1.50,-0.99 L 1.49,-0.89 L 1.47,-0.79 L 1.44,-0.68 L 1.41,-0.58 L 1.37,-0.49 L 1.33,-0.39 L 1.28,-0.30 " stroke-width="0.12" />
    <path class="f0 sBLACK" d="M -1.19,-0.30 L -1.24,-0.39 L -1.29,-0.48 L -1.32,-0.58 L -1.36,-0.68 L -1.38,-0.78 L -1.40,-0.89 L -1.41,-0.99 L -1.41,-1.10 L -1.40,-1.20 L -1.39,-1.30 L -1.37,-1.41 L -1.34,-1.51 L -1.31,-1.61 L -1.26,-1.70 L -1.22,-1.80 L -1.16,-1.89 L -1.10,-1.97 L -1.03,-2.05 L -0.96,-2.13 L -0.88,-2.19 L -0.79,-2.26 L -0.71,-2.32 L -0.61,-2.37 L -0.52,-2.41 L -0.42,-2.45 L -0.32,-2.48 L -0.22,-2.50 L -0.11,-2.52 L -0.01,-2.52 L 0.10,-2.52 L 0.20,-2.52 L 0.30,-2.50 L 0.41,-2.48 L 0.51,-2.45 L 0.61,-2.41 L 0.70,-2.37 L 0.79,-2.32 L 0.88,-2.26 L 0.96,-2.20 L 1.04,-2.13 L 1.12,-2.05 L 1.18,-1.97 L 1.25,-1.89 L 1.30,-1.80 L 1.35,-1.71 L 1.39,-1.61 L 1.43,-1.51 L 1.46,-1.41 L 1.48,-1.31 L 1.49,-1.20 L 1.50,-1.10 L 1.50,-0.99 L 1.49,-0.89 L 1.47,-0.79 L 1.44,-0.68 L 1.41,-0.58 L 1.37,-0.49 L 1.33,-0.39 L 1.28,-0.30 " stroke-width="0.12" />
    <circle class="pivotPoint layout" fill="none" cx="0" cy="0" r="0.2" />
  </g>
</svg>