<?xml version="1.0" encoding="UTF-8"?>
<?xml-stylesheet type='text/css' href='svgStyle.css'?>
<svg version="1.2" baseProfile="tiny" width="4.10mm" height="6.10mm" viewBox="-2.06 -6.11 4.12 6.12" xmlns="http://www.w3.org/2000/svg">
  <title>BOYISDB</title>
  <desc>Buoy isolated danger, buoy</desc>
  <metadata />
  <g>
    <path class="fBLACK sBLACK" d="M -0.35,-2.00 L 0.21,-3.00 L 1.28,-3.00 L 1.19,-2.00 L -0.35,-2.00 Z" stroke-width="0.04" />
    <path class="fORRED sORRED" d="M -0.89,-1.04 L -0.35,-2.00 L 1.19,-2.00 L 1.10,-1.04 L 1.10,-1.04 L -0.89,-1.04 Z" stroke-width="0.04" />
    <path class="fBLACK sBLACK" d="M -0.89,-1.04 L 1.10,-1.04 L 2.05,-0.65 L 2.05,0.00 L -2.05,0.00 L -2.05,-0.65 L -0.89,-1.04 Z" stroke-width="0.04" />
    <circle cx="1.42" cy="-5.55" r="0.55" class="fBLACK sBLACK" stroke-width="0.04" />
    <circle cx="1.01" cy="-4.05" r="0.55" class="fBLACK sBLACK" stroke-width="0.04" />
    <path class="f0 sBLACK" d="M -2.05,0.00 L -2.05,-0.65 L -0.89,-1.04 L 0.21,-3.00 L 1.28,-3.00 L 1.10,-1.04 L 2.05,-0.65 L 2.05,0.00 L -2.05,0.00 Z" stroke-width="0.12" />
    <path class="f0 sBLACK" d="M -0.35,-2.00 L 1.19,-2.00 " stroke-width="0.04" />
    <circle class="pivotPoint layout" fill="none" cx="0" cy="0" r="0.2" />
  </g>
</svg>