<?xml version="1.0" encoding="UTF-8"?>
<?xml-stylesheet type='text/css' href='svgStyle.css'?>
<svg version="1.2" baseProfile="tiny" width="6.10mm" height="8.70mm" viewBox="-3.06 -5.43 6.12 8.72" xmlns="http://www.w3.org/2000/svg">
  <title>BOYINL03F</title>
  <desc>river buoy bifurcation of the fairway (3.B of CEVNI) - off position - text area -d</desc>
  <metadata />
  <g>
    <path class="fORRED sORRED" d="M -1.20,-1.02 L -1.85,-0.59 L -1.85,-0.12 L 1.85,-0.12 L 1.85,-0.59 L 1.27,-1.02 L 1.32,-1.11 L 1.36,-1.20 L 1.40,-1.30 L 1.44,-1.40 L 1.46,-1.50 L 1.48,-1.61 L 1.49,-1.71 L 1.49,-1.82 L 1.48,-1.92 L 1.47,-2.02 L 1.45,-2.13 L 1.42,-2.23 L 1.38,-2.33 L 1.34,-2.42 L 1.29,-2.52 L 1.24,-2.60 L 1.17,-2.69 L 1.11,-2.77 L 1.03,-2.84 L 0.95,-2.91 L 0.87,-2.98 L 0.78,-3.03 L 0.69,-3.08 L 0.60,-3.13 L 0.50,-3.17 L 0.40,-3.20 L 0.29,-3.22 L 0.19,-3.23 L 0.09,-3.24 L -0.02,-3.24 L -0.12,-3.23 L -0.23,-3.22 L -0.33,-3.19 L -0.43,-3.16 L -0.53,-3.13 L -0.62,-3.08 L -0.71,-3.03 L -0.80,-2.98 L -0.89,-2.91 L -0.96,-2.84 L -1.04,-2.77 L -1.11,-2.69 L -1.17,-2.60 L -1.22,-2.51 L -1.27,-2.42 L -1.31,-2.33 L -1.35,-2.23 L -1.38,-2.13 L -1.40,-2.02 L -1.41,-1.92 L -1.42,-1.81 L -1.42,-1.71 L -1.41,-1.60 L -1.39,-1.50 L -1.36,-1.40 L -1.33,-1.30 L -1.29,-1.20 L -1.25,-1.11 L -1.20,-1.02 Z" stroke-width="0.04" />
    <path class="fBLACK sBLACK" d="M 0.53,2.36 L 0.53,2.41 L 0.52,2.46 L 0.51,2.52 L 0.50,2.57 L 0.49,2.62 L 0.47,2.67 L 0.46,2.72 L 0.44,2.75 L 0.42,2.78 L 0.40,2.81 L 0.38,2.84 L 0.36,2.87 L 0.33,2.89 L 0.30,2.91 L 0.27,2.93 L 0.24,2.95 L 0.21,2.97 L 0.18,2.98 L 0.15,2.99 L 0.11,3.00 L 0.08,3.00 L 0.04,3.00 L 0.01,3.00 L -0.03,3.00 L -0.07,3.00 L -0.10,3.00 L -0.14,2.99 L -0.17,2.98 L -0.20,2.97 L -0.24,2.95 L -0.27,2.93 L -0.30,2.91 L -0.33,2.89 L -0.35,2.87 L -0.38,2.84 L -0.40,2.81 L -0.42,2.78 L -0.44,2.75 L -0.45,2.72 L -0.47,2.67 L -0.48,2.62 L -0.50,2.57 L -0.51,2.51 L -0.52,2.46 L -0.52,2.41 L -0.84,2.41 L -0.83,2.52 L -0.82,2.61 L -0.79,2.69 L -0.77,2.77 L -0.73,2.85 L -0.70,2.91 L -0.66,2.97 L -0.62,3.02 L -0.57,3.07 L -0.52,3.11 L -0.47,3.15 L -0.41,3.19 L -0.35,3.22 L -0.31,3.23 L -0.26,3.24 L -0.22,3.26 L -0.18,3.26 L -0.13,3.27 L -0.09,3.28 L -0.04,3.28 L 0.00,3.28 L 0.05,3.28 L 0.10,3.27 L 0.15,3.27 L 0.20,3.26 L 0.24,3.25 L 0.28,3.24 L 0.32,3.23 L 0.36,3.21 L 0.40,3.19 L 0.44,3.17 L 0.47,3.15 L 0.51,3.13 L 0.56,3.08 L 0.61,3.04 L 0.65,2.98 L 0.69,2.93 L 0.73,2.87 L 0.75,2.81 L 0.78,2.75 L 0.80,2.68 L 0.82,2.59 L 0.83,2.50 L 0.84,2.40 L 0.53,2.36 Z" stroke-width="0.04" />
    <path class="fBLACK sBLACK" d="M 0.00,1.33 L -0.04,1.33 L -0.09,1.33 L -0.13,1.34 L -0.18,1.34 L -0.22,1.35 L -0.26,1.36 L -0.31,1.38 L -0.35,1.39 L -0.39,1.41 L -0.43,1.43 L -0.47,1.46 L -0.50,1.48 L -0.54,1.51 L -0.57,1.54 L -0.60,1.57 L -0.63,1.61 L -0.66,1.64 L -0.69,1.68 L -0.71,1.72 L -0.73,1.76 L -0.75,1.80 L -0.77,1.84 L -0.79,1.88 L -0.80,1.93 L -0.82,2.02 L -0.83,2.11 L -0.84,2.21 L -0.84,2.30 L -0.84,2.41 L -0.52,2.41 L -0.52,2.36 L -0.52,2.30 L -0.52,2.25 L -0.52,2.20 L -0.52,2.14 L -0.51,2.09 L -0.50,2.04 L -0.48,1.99 L -0.47,1.94 L -0.45,1.89 L -0.43,1.86 L -0.42,1.83 L -0.40,1.80 L -0.37,1.77 L -0.35,1.74 L -0.32,1.72 L -0.30,1.70 L -0.27,1.67 L -0.24,1.66 L -0.20,1.64 L -0.17,1.63 L -0.14,1.62 L -0.10,1.61 L -0.07,1.61 L -0.03,1.60 L 0.01,1.60 L 0.00,1.33 Z" stroke-width="0.04" />
    <path class="fBLACK sBLACK" d="M 0.01,1.60 L 0.04,1.60 L 0.08,1.61 L 0.11,1.61 L 0.15,1.62 L 0.18,1.63 L 0.21,1.64 L 0.24,1.66 L 0.27,1.68 L 0.30,1.70 L 0.33,1.72 L 0.36,1.74 L 0.38,1.77 L 0.40,1.80 L 0.42,1.83 L 0.44,1.86 L 0.46,1.89 L 0.47,1.94 L 0.49,1.99 L 0.50,2.04 L 0.51,2.09 L 0.52,2.14 L 0.53,2.20 L 0.53,2.25 L 0.53,2.30 L 0.53,2.36 L 0.84,2.40 L 0.84,2.31 L 0.84,2.20 L 0.83,2.09 L 0.82,2.00 L 0.80,1.92 L 0.77,1.84 L 0.73,1.76 L 0.70,1.70 L 0.66,1.64 L 0.62,1.59 L 0.58,1.54 L 0.52,1.50 L 0.47,1.46 L 0.41,1.42 L 0.35,1.39 L 0.31,1.38 L 0.27,1.36 L 0.22,1.35 L 0.18,1.34 L 0.14,1.34 L 0.09,1.33 L 0.05,1.33 L 0.00,1.33 L 0.01,1.60 Z" stroke-width="0.04" />
    <path class="fBLACK sBLACK" d="M 1.30,1.43 L 3.05,-1.07 L 0.00,-5.42 L -3.05,-1.07 L -1.29,1.44 L -1.18,1.24 L -2.80,-1.07 L 0.00,-5.08 L 2.81,-1.07 L 1.19,1.24 L 1.30,1.43 Z" stroke-width="0" />
    <path class="fMIDGN sMIDGN" d="M 1.35,-2.41 L 1.30,-2.50 L 1.25,-2.59 L 1.18,-2.68 L 1.12,-2.76 L 1.04,-2.83 L 0.96,-2.91 L 0.88,-2.97 L 0.79,-3.03 L 0.70,-3.08 L 0.60,-3.13 L 0.50,-3.16 L 0.40,-3.19 L 0.30,-3.22 L 0.19,-3.23 L 0.09,-3.24 L -0.02,-3.24 L -0.12,-3.23 L -0.23,-3.22 L -0.33,-3.19 L -0.43,-3.16 L -0.53,-3.13 L -0.63,-3.08 L -0.72,-3.03 L -0.81,-2.97 L -0.89,-2.91 L -0.97,-2.83 L -1.05,-2.76 L -1.11,-2.68 L -1.18,-2.59 L -1.23,-2.50 L -1.28,-2.41 L 1.35,-2.41 Z" stroke-width="0.04" />
    <path class="fMIDGN sMIDGN" d="M -1.19,-1.02 L 1.27,-1.02 L 1.32,-1.12 L 1.37,-1.23 L 1.41,-1.34 L 1.45,-1.45 L 1.47,-1.57 L 1.48,-1.68 L -1.41,-1.68 L -1.40,-1.57 L -1.38,-1.45 L -1.34,-1.34 L -1.30,-1.23 L -1.25,-1.12 L -1.19,-1.02 Z" stroke-width="0.04" />
    <path class="f0 sBLACK" d="M -1.19,-1.02 L -1.85,-0.59 L -1.85,-0.12 L 1.85,-0.12 L 1.85,-0.59 L 1.27,-1.02 " stroke-width="0.12" />
    <path class="f0 sBLACK" d="M -1.19,-1.02 L -1.25,-1.11 L -1.29,-1.20 L -1.33,-1.30 L -1.36,-1.40 L -1.39,-1.50 L -1.41,-1.60 L -1.42,-1.71 L -1.42,-1.81 L -1.41,-1.92 L -1.40,-2.02 L -1.38,-2.13 L -1.35,-2.23 L -1.31,-2.33 L -1.27,-2.42 L -1.22,-2.51 L -1.17,-2.60 L -1.11,-2.69 L -1.04,-2.77 L -0.96,-2.84 L -0.89,-2.91 L -0.80,-2.98 L -0.71,-3.03 L -0.62,-3.08 L -0.53,-3.13 L -0.43,-3.16 L -0.33,-3.19 L -0.23,-3.22 L -0.12,-3.23 L -0.02,-3.24 L 0.09,-3.24 L 0.19,-3.23 L 0.29,-3.22 L 0.40,-3.20 L 0.50,-3.17 L 0.60,-3.13 L 0.69,-3.08 L 0.78,-3.03 L 0.87,-2.98 L 0.95,-2.91 L 1.03,-2.84 L 1.11,-2.77 L 1.17,-2.69 L 1.24,-2.60 L 1.29,-2.52 L 1.34,-2.42 L 1.38,-2.33 L 1.42,-2.23 L 1.45,-2.13 L 1.47,-2.02 L 1.48,-1.92 L 1.49,-1.82 L 1.49,-1.71 L 1.48,-1.61 L 1.46,-1.50 L 1.44,-1.40 L 1.40,-1.30 L 1.37,-1.20 L 1.32,-1.11 L 1.27,-1.02 " stroke-width="0.12" />
    <path class="f0 sBLACK" d="M -1.19,-1.02 L -1.25,-1.11 L -1.29,-1.20 L -1.33,-1.30 L -1.36,-1.40 L -1.39,-1.50 L -1.41,-1.60 L -1.42,-1.71 L -1.42,-1.81 L -1.41,-1.92 L -1.40,-2.02 L -1.38,-2.13 L -1.35,-2.23 L -1.31,-2.33 L -1.27,-2.42 L -1.22,-2.51 L -1.17,-2.60 L -1.11,-2.69 L -1.04,-2.77 L -0.96,-2.84 L -0.89,-2.91 L -0.80,-2.98 L -0.71,-3.03 L -0.62,-3.08 L -0.53,-3.13 L -0.43,-3.16 L -0.33,-3.19 L -0.23,-3.22 L -0.12,-3.23 L -0.02,-3.24 L 0.09,-3.24 L 0.19,-3.23 L 0.29,-3.22 L 0.40,-3.20 L 0.50,-3.17 L 0.60,-3.13 L 0.69,-3.08 L 0.78,-3.03 L 0.87,-2.98 L 0.95,-2.91 L 1.03,-2.84 L 1.11,-2.77 L 1.17,-2.69 L 1.24,-2.60 L 1.29,-2.52 L 1.34,-2.42 L 1.38,-2.33 L 1.42,-2.23 L 1.45,-2.13 L 1.47,-2.02 L 1.48,-1.92 L 1.49,-1.82 L 1.49,-1.71 L 1.48,-1.61 L 1.46,-1.50 L 1.44,-1.40 L 1.40,-1.30 L 1.37,-1.20 L 1.32,-1.11 L 1.27,-1.02 " stroke-width="0.12" />
    <path class="f0 sBLACK" d="M -1.19,-1.02 L -1.25,-1.11 L -1.29,-1.20 L -1.33,-1.30 L -1.36,-1.40 L -1.39,-1.50 L -1.41,-1.60 L -1.42,-1.71 L -1.42,-1.81 L -1.41,-1.92 L -1.40,-2.02 L -1.38,-2.13 L -1.35,-2.23 L -1.31,-2.33 L -1.27,-2.42 L -1.22,-2.51 L -1.17,-2.60 L -1.11,-2.69 L -1.04,-2.77 L -0.96,-2.84 L -0.89,-2.91 L -0.80,-2.98 L -0.71,-3.03 L -0.62,-3.08 L -0.53,-3.13 L -0.43,-3.16 L -0.33,-3.19 L -0.23,-3.22 L -0.12,-3.23 L -0.02,-3.24 L 0.09,-3.24 L 0.19,-3.23 L 0.29,-3.22 L 0.40,-3.20 L 0.50,-3.17 L 0.60,-3.13 L 0.69,-3.08 L 0.78,-3.03 L 0.87,-2.98 L 0.95,-2.91 L 1.03,-2.84 L 1.11,-2.77 L 1.17,-2.69 L 1.24,-2.60 L 1.29,-2.52 L 1.34,-2.42 L 1.38,-2.33 L 1.42,-2.23 L 1.45,-2.13 L 1.47,-2.02 L 1.48,-1.92 L 1.49,-1.82 L 1.49,-1.71 L 1.48,-1.61 L 1.46,-1.50 L 1.44,-1.40 L 1.40,-1.30 L 1.36,-1.20 L 1.32,-1.11 L 1.27,-1.02 " stroke-width="0.12" />
    <circle class="pivotPoint layout" fill="none" cx="0" cy="0" r="0.2" />
  </g>
</svg>