<?xml version="1.0" encoding="UTF-8"?>
<?xml-stylesheet type='text/css' href='S401Style.css'?>
<svg version="1.2" baseProfile="tiny" width="6.10mm" height="8.70mm" viewBox="-3.02 -5.11 6.12 8.72" xmlns="http://www.w3.org/2000/svg">
  <title>BOYINL02F</title>
  <desc>river buoy left-hand side of the fairway (2.B of CEVNI) - off position - text area -d</desc>
  <metadata />
  <g>
    <path class="fMIDGN sBLACK" d="M -1.70,-0.11 L 1.79,-0.11 L 1.79,-0.65 L 1.32,-0.65 L 0.05,-2.67 L -1.22,-0.65 L -1.70,-0.65 L -1.70,-0.11 Z" stroke-width="0.12" />
    <path class="fBLACK sBLACK" d="M 0.57,2.69 L 0.57,2.74 L 0.56,2.79 L 0.55,2.84 L 0.54,2.90 L 0.53,2.95 L 0.51,3.00 L 0.50,3.05 L 0.48,3.08 L 0.46,3.11 L 0.44,3.14 L 0.42,3.17 L 0.40,3.20 L 0.37,3.22 L 0.35,3.24 L 0.32,3.26 L 0.29,3.28 L 0.25,3.29 L 0.22,3.31 L 0.19,3.32 L 0.15,3.33 L 0.12,3.33 L 0.08,3.33 L 0.05,3.33 L 0.01,3.33 L -0.02,3.33 L -0.06,3.33 L -0.10,3.32 L -0.13,3.31 L -0.16,3.29 L -0.19,3.28 L -0.23,3.26 L -0.26,3.24 L -0.28,3.22 L -0.31,3.19 L -0.33,3.17 L -0.36,3.14 L -0.38,3.11 L -0.39,3.08 L -0.41,3.05 L -0.43,3.00 L -0.44,2.95 L -0.46,2.89 L -0.47,2.84 L -0.48,2.79 L -0.48,2.74 L -0.80,2.74 L -0.79,2.85 L -0.77,2.94 L -0.75,3.02 L -0.72,3.10 L -0.69,3.18 L -0.66,3.24 L -0.62,3.30 L -0.58,3.35 L -0.53,3.40 L -0.48,3.44 L -0.43,3.48 L -0.37,3.52 L -0.31,3.55 L -0.26,3.56 L -0.22,3.57 L -0.18,3.59 L -0.13,3.59 L -0.09,3.60 L -0.05,3.60 L 0.00,3.61 L 0.04,3.61 L 0.09,3.60 L 0.14,3.60 L 0.19,3.60 L 0.24,3.59 L 0.28,3.58 L 0.33,3.57 L 0.36,3.56 L 0.40,3.54 L 0.44,3.52 L 0.48,3.50 L 0.51,3.48 L 0.55,3.46 L 0.60,3.41 L 0.65,3.36 L 0.69,3.31 L 0.73,3.26 L 0.77,3.20 L 0.80,3.14 L 0.82,3.08 L 0.84,3.01 L 0.86,2.92 L 0.87,2.82 L 0.88,2.73 L 0.57,2.69 Z" stroke-width="0.04" />
    <path class="fBLACK sBLACK" d="M 0.04,1.66 L 0.00,1.66 L -0.05,1.66 L -0.09,1.67 L -0.13,1.67 L -0.18,1.68 L -0.22,1.69 L -0.26,1.70 L -0.31,1.72 L -0.35,1.74 L -0.39,1.76 L -0.43,1.79 L -0.46,1.81 L -0.50,1.84 L -0.53,1.87 L -0.56,1.90 L -0.59,1.94 L -0.62,1.97 L -0.65,2.01 L -0.67,2.05 L -0.69,2.09 L -0.71,2.13 L -0.73,2.17 L -0.74,2.21 L -0.76,2.26 L -0.78,2.35 L -0.79,2.44 L -0.80,2.54 L -0.80,2.63 L -0.80,2.74 L -0.48,2.74 L -0.48,2.68 L -0.48,2.63 L -0.48,2.58 L -0.48,2.53 L -0.48,2.47 L -0.47,2.42 L -0.46,2.37 L -0.44,2.32 L -0.43,2.27 L -0.41,2.22 L -0.39,2.19 L -0.38,2.15 L -0.36,2.13 L -0.33,2.10 L -0.31,2.07 L -0.28,2.05 L -0.26,2.02 L -0.23,2.00 L -0.19,1.99 L -0.16,1.97 L -0.13,1.96 L -0.09,1.95 L -0.06,1.94 L -0.02,1.94 L 0.01,1.93 L 0.05,1.93 L 0.04,1.66 Z" stroke-width="0.04" />
    <path class="fBLACK sBLACK" d="M 0.05,1.93 L 0.08,1.93 L 0.12,1.94 L 0.15,1.94 L 0.19,1.95 L 0.22,1.96 L 0.25,1.97 L 0.29,1.99 L 0.32,2.01 L 0.34,2.03 L 0.37,2.05 L 0.40,2.07 L 0.42,2.10 L 0.44,2.13 L 0.46,2.16 L 0.48,2.19 L 0.50,2.22 L 0.51,2.27 L 0.53,2.32 L 0.54,2.37 L 0.55,2.42 L 0.56,2.47 L 0.57,2.53 L 0.57,2.58 L 0.57,2.63 L 0.57,2.69 L 0.88,2.73 L 0.88,2.64 L 0.88,2.53 L 0.87,2.42 L 0.86,2.33 L 0.84,2.25 L 0.81,2.16 L 0.77,2.08 L 0.74,2.03 L 0.70,1.97 L 0.66,1.92 L 0.62,1.87 L 0.57,1.82 L 0.51,1.78 L 0.45,1.75 L 0.39,1.72 L 0.35,1.70 L 0.31,1.69 L 0.27,1.68 L 0.22,1.67 L 0.18,1.67 L 0.13,1.66 L 0.09,1.66 L 0.04,1.66 L 0.05,1.93 Z" stroke-width="0.04" />
    <path class="fBLACK sBLACK" d="M 1.34,1.76 L 3.09,-0.74 L 0.04,-5.10 L -3.01,-0.74 L -1.25,1.77 L -1.14,1.57 L -2.76,-0.74 L 0.04,-4.75 L 2.85,-0.74 L 1.23,1.57 L 1.34,1.76 Z" stroke-width="0" />
    <circle class="pivotPoint layout" fill="none" cx="0" cy="0" r="0.2" />
  </g>
</svg>