<?xml version="1.0" encoding="UTF-8"?>
<?xml-stylesheet type='text/css' href='S401Style.css'?>
<svg version="1.2" baseProfile="tiny" width="6.10mm" height="8.68mm" viewBox="-3.05 -5.45 6.12 8.70" xmlns="http://www.w3.org/2000/svg">
  <title>BOYINL03M</title>
  <desc>river buoy bifurcation of the fairway (3.B of CEVNI) - off position - missing - text area -d</desc>
  <metadata />
  <g>
    <path class="fORRED sORRED" d="M -1.19,-0.90 L -1.85,-0.47 L -1.85,0.00 L 1.85,0.00 L 1.85,-0.47 L 1.27,-0.90 L 1.32,-0.99 L 1.37,-1.09 L 1.41,-1.19 L 1.44,-1.29 L 1.46,-1.39 L 1.48,-1.49 L 1.49,-1.60 L 1.49,-1.70 L 1.48,-1.81 L 1.47,-1.91 L 1.45,-2.01 L 1.42,-2.11 L 1.39,-2.21 L 1.34,-2.31 L 1.29,-2.40 L 1.24,-2.49 L 1.18,-2.57 L 1.11,-2.65 L 1.04,-2.73 L 0.96,-2.80 L 0.87,-2.86 L 0.79,-2.92 L 0.69,-2.97 L 0.60,-3.01 L 0.50,-3.05 L 0.40,-3.08 L 0.30,-3.10 L 0.19,-3.12 L 0.09,-3.13 L -0.02,-3.13 L -0.12,-3.12 L -0.22,-3.10 L -0.33,-3.08 L -0.43,-3.05 L -0.53,-3.01 L -0.62,-2.97 L -0.71,-2.92 L -0.80,-2.86 L -0.88,-2.80 L -0.96,-2.73 L -1.04,-2.65 L -1.10,-2.57 L -1.17,-2.49 L -1.22,-2.40 L -1.27,-2.31 L -1.31,-2.21 L -1.35,-2.11 L -1.38,-2.01 L -1.40,-1.91 L -1.41,-1.80 L -1.42,-1.70 L -1.41,-1.59 L -1.40,-1.49 L -1.39,-1.39 L -1.36,-1.28 L -1.33,-1.18 L -1.29,-1.09 L -1.25,-0.99 L -1.19,-0.90 Z" stroke-width="0.04" />
    <path class="fBLACK sBLACK" d="M 0.02,1.44 L -0.02,1.41 L -0.06,1.38 L -0.10,1.36 L -0.15,1.33 L -0.21,1.32 L -0.27,1.30 L -0.34,1.30 L -0.40,1.30 L -0.44,1.30 L -0.48,1.30 L -0.52,1.31 L -0.56,1.32 L -0.60,1.33 L -0.64,1.34 L -0.67,1.36 L -0.71,1.38 L -0.74,1.40 L -0.78,1.42 L -0.81,1.45 L -0.84,1.48 L -0.87,1.50 L -0.89,1.53 L -0.92,1.57 L -0.94,1.60 L -0.94,1.34 L -1.24,1.34 L -1.24,3.24 L -0.93,3.24 L -0.93,2.12 L -0.93,2.07 L -0.92,2.02 L -0.92,1.98 L -0.91,1.95 L -0.90,1.91 L -0.89,1.88 L -0.87,1.84 L -0.86,1.81 L -0.84,1.77 L -0.82,1.74 L -0.78,1.70 L -0.75,1.67 L -0.70,1.64 L -0.66,1.62 L -0.61,1.60 L -0.56,1.59 L -0.51,1.58 L -0.46,1.58 L -0.41,1.58 L -0.38,1.58 L -0.34,1.59 L -0.31,1.60 L -0.27,1.62 L -0.24,1.64 L -0.21,1.67 L 0.02,1.44 Z" stroke-width="0.04" />
    <path class="fBLACK sBLACK" d="M -0.25,1.64 L -0.23,1.67 L -0.21,1.70 L -0.19,1.75 L -0.17,1.81 L -0.16,1.87 L -0.16,1.93 L -0.16,3.21 L 0.17,3.21 L 0.17,2.09 L 0.17,2.04 L 0.17,1.99 L 0.18,1.94 L 0.19,1.89 L 0.20,1.85 L 0.21,1.82 L 0.22,1.79 L 0.24,1.75 L 0.26,1.72 L 0.28,1.69 L 0.30,1.67 L 0.33,1.64 L 0.36,1.62 L 0.40,1.60 L 0.43,1.58 L 0.47,1.57 L 0.51,1.56 L 0.55,1.55 L 0.59,1.55 L 0.63,1.54 L 0.68,1.55 L 0.73,1.56 L 0.78,1.57 L 0.82,1.60 L 0.85,1.61 L 0.87,1.63 L 0.89,1.65 L 0.90,1.68 L 0.92,1.70 L 0.93,1.73 L 0.94,1.75 L 0.95,1.78 L 0.95,1.85 L 0.96,1.91 L 0.96,1.98 L 0.96,2.04 L 0.96,3.21 L 1.28,3.21 L 1.28,2.07 L 1.28,1.98 L 1.28,1.89 L 1.27,1.80 L 1.27,1.70 L 1.26,1.67 L 1.25,1.64 L 1.24,1.60 L 1.23,1.57 L 1.22,1.54 L 1.20,1.51 L 1.18,1.48 L 1.16,1.45 L 1.14,1.43 L 1.11,1.40 L 1.09,1.38 L 1.06,1.36 L 1.03,1.34 L 1.00,1.33 L 0.97,1.31 L 0.94,1.30 L 0.87,1.28 L 0.81,1.27 L 0.74,1.27 L 0.68,1.26 L 0.64,1.27 L 0.59,1.27 L 0.55,1.27 L 0.51,1.28 L 0.47,1.29 L 0.43,1.31 L 0.39,1.32 L 0.35,1.34 L 0.31,1.36 L 0.28,1.38 L 0.25,1.41 L 0.21,1.43 L 0.18,1.46 L 0.15,1.49 L 0.13,1.52 L 0.10,1.55 L 0.08,1.51 L 0.05,1.47 L 0.02,1.44 L -0.02,1.40 L -0.25,1.64 Z" stroke-width="0.04" />
    <path class="fBLACK sBLACK" d="M -1.02,-3.62 L 0.01,-5.09 L 1.03,-3.64 L 1.19,-3.75 L 0.01,-5.44 L -1.19,-3.74 L -1.02,-3.62 Z" stroke-width="0.04" />
    <path class="fBLACK sBLACK" d="M -1.99,0.41 L -1.83,0.29 L -2.80,-1.09 L -1.87,-2.41 L -2.03,-2.53 L -3.04,-1.09 L -1.99,0.41 Z" stroke-width="0.04" />
    <path class="fBLACK sBLACK" d="M 2.09,-2.47 L 3.06,-1.09 L 1.95,0.50 L 1.78,0.38 L 2.81,-1.09 L 1.92,-2.36 L 2.09,-2.47 Z" stroke-width="0.04" />
    <path class="fMIDGN sMIDGN" d="M 1.35,-2.29 L 1.30,-2.39 L 1.25,-2.48 L 1.19,-2.56 L 1.12,-2.64 L 1.05,-2.72 L 0.97,-2.79 L 0.88,-2.86 L 0.79,-2.91 L 0.70,-2.97 L 0.61,-3.01 L 0.51,-3.05 L 0.40,-3.08 L 0.30,-3.10 L 0.20,-3.12 L 0.09,-3.13 L -0.02,-3.13 L -0.12,-3.12 L -0.23,-3.10 L -0.33,-3.08 L -0.43,-3.05 L -0.53,-3.01 L -0.63,-2.97 L -0.72,-2.91 L -0.81,-2.86 L -0.89,-2.79 L -0.97,-2.72 L -1.04,-2.64 L -1.11,-2.56 L -1.17,-2.48 L -1.23,-2.39 L -1.28,-2.29 L 1.35,-2.29 Z" stroke-width="0.04" />
    <path class="fMIDGN sMIDGN" d="M -1.19,-0.90 L 1.27,-0.90 L 1.33,-1.01 L 1.38,-1.11 L 1.42,-1.22 L 1.45,-1.34 L 1.47,-1.45 L 1.49,-1.57 L -1.41,-1.57 L -1.40,-1.45 L -1.37,-1.34 L -1.34,-1.22 L -1.30,-1.11 L -1.25,-1.00 L -1.19,-0.90 Z" stroke-width="0.04" />
    <path class="f0 sBLACK" d="M -1.19,-0.90 L -1.85,-0.47 L -1.85,0.00 L 1.85,0.00 L 1.85,-0.47 L 1.27,-0.90 " stroke-width="0.12" />
    <path class="f0 sBLACK" d="M -1.19,-0.90 L -1.25,-0.99 L -1.29,-1.09 L -1.33,-1.18 L -1.36,-1.28 L -1.39,-1.39 L -1.40,-1.49 L -1.41,-1.59 L -1.41,-1.70 L -1.41,-1.80 L -1.40,-1.91 L -1.38,-2.01 L -1.35,-2.11 L -1.31,-2.21 L -1.27,-2.31 L -1.22,-2.40 L -1.17,-2.49 L -1.10,-2.57 L -1.04,-2.65 L -0.96,-2.73 L -0.88,-2.80 L -0.80,-2.86 L -0.71,-2.92 L -0.62,-2.97 L -0.53,-3.01 L -0.43,-3.05 L -0.33,-3.08 L -0.22,-3.10 L -0.12,-3.12 L -0.02,-3.13 L 0.09,-3.13 L 0.19,-3.12 L 0.30,-3.10 L 0.40,-3.08 L 0.50,-3.05 L 0.60,-3.01 L 0.69,-2.97 L 0.79,-2.92 L 0.87,-2.86 L 0.96,-2.80 L 1.04,-2.73 L 1.11,-2.65 L 1.18,-2.57 L 1.24,-2.49 L 1.29,-2.40 L 1.34,-2.31 L 1.39,-2.21 L 1.42,-2.11 L 1.45,-2.01 L 1.47,-1.91 L 1.48,-1.81 L 1.49,-1.70 L 1.49,-1.60 L 1.48,-1.49 L 1.46,-1.39 L 1.44,-1.29 L 1.41,-1.19 L 1.37,-1.09 L 1.32,-0.99 L 1.27,-0.90 " stroke-width="0.12" />
    <path class="f0 sBLACK" d="M -1.19,-0.90 L -1.25,-0.99 L -1.29,-1.09 L -1.33,-1.18 L -1.36,-1.28 L -1.39,-1.39 L -1.40,-1.49 L -1.41,-1.59 L -1.41,-1.70 L -1.41,-1.80 L -1.40,-1.91 L -1.38,-2.01 L -1.35,-2.11 L -1.31,-2.21 L -1.27,-2.31 L -1.22,-2.40 L -1.17,-2.49 L -1.10,-2.57 L -1.04,-2.65 L -0.96,-2.73 L -0.88,-2.80 L -0.80,-2.86 L -0.71,-2.92 L -0.62,-2.97 L -0.53,-3.01 L -0.43,-3.05 L -0.33,-3.08 L -0.22,-3.10 L -0.12,-3.12 L -0.02,-3.13 L 0.09,-3.13 L 0.19,-3.12 L 0.30,-3.10 L 0.40,-3.08 L 0.50,-3.05 L 0.60,-3.01 L 0.69,-2.97 L 0.79,-2.92 L 0.87,-2.86 L 0.96,-2.80 L 1.04,-2.73 L 1.11,-2.65 L 1.18,-2.57 L 1.24,-2.49 L 1.29,-2.40 L 1.34,-2.31 L 1.39,-2.21 L 1.42,-2.11 L 1.45,-2.01 L 1.47,-1.91 L 1.48,-1.81 L 1.49,-1.70 L 1.49,-1.60 L 1.48,-1.49 L 1.46,-1.39 L 1.44,-1.29 L 1.41,-1.19 L 1.37,-1.09 L 1.32,-0.99 L 1.27,-0.90 " stroke-width="0.12" />
    <path class="f0 sBLACK" d="M -1.19,-0.90 L -1.25,-0.99 L -1.29,-1.09 L -1.33,-1.18 L -1.36,-1.28 L -1.39,-1.39 L -1.40,-1.49 L -1.41,-1.59 L -1.41,-1.70 L -1.41,-1.80 L -1.40,-1.91 L -1.38,-2.01 L -1.35,-2.11 L -1.31,-2.21 L -1.27,-2.31 L -1.22,-2.40 L -1.17,-2.49 L -1.10,-2.57 L -1.04,-2.65 L -0.96,-2.73 L -0.88,-2.80 L -0.80,-2.86 L -0.71,-2.92 L -0.62,-2.97 L -0.53,-3.01 L -0.43,-3.05 L -0.33,-3.08 L -0.22,-3.10 L -0.12,-3.12 L -0.02,-3.12 L 0.09,-3.12 L 0.19,-3.12 L 0.30,-3.10 L 0.40,-3.08 L 0.50,-3.05 L 0.60,-3.01 L 0.69,-2.97 L 0.79,-2.92 L 0.87,-2.86 L 0.96,-2.80 L 1.04,-2.73 L 1.11,-2.65 L 1.18,-2.57 L 1.24,-2.49 L 1.29,-2.40 L 1.34,-2.31 L 1.39,-2.21 L 1.42,-2.11 L 1.45,-2.01 L 1.47,-1.91 L 1.48,-1.81 L 1.49,-1.70 L 1.49,-1.60 L 1.48,-1.49 L 1.46,-1.39 L 1.44,-1.29 L 1.41,-1.19 L 1.37,-1.09 L 1.32,-0.99 L 1.27,-0.90 " stroke-width="0.12" />
    <circle class="pivotPoint layout" fill="none" cx="0" cy="0" r="0.2" />
  </g>
</svg>