<?xml version="1.0" encoding="UTF-8"?>
<?xml-stylesheet type='text/css' href='svgStyle.css'?>
<svg version="1.2" baseProfile="tiny" width="6.10mm" height="8.68mm" viewBox="-3.01 -5.40 6.12 8.70" xmlns="http://www.w3.org/2000/svg">
  <title>BOYINL02M</title>
  <desc>river buoy left-hand side of the fairway (2.B of CEVNI) - off position - missing - text area -d</desc>
  <metadata />
  <g>
    <path class="fMIDGN sBLACK" d="M -1.70,-0.42 L 1.79,-0.42 L 1.79,-0.95 L 1.32,-0.95 L 0.05,-2.97 L -1.22,-0.95 L -1.70,-0.95 L -1.70,-0.42 Z" stroke-width="0.12" />
    <path class="fMIDGN sBLACK" d="M -1.70,-0.42 L 1.79,-0.42 L 1.79,-0.95 L 1.32,-0.95 L 0.05,-2.97 L -1.22,-0.95 L -1.70,-0.95 L -1.70,-0.42 Z" stroke-width="0.12" />
    <path class="fBLACK sBLACK" d="M 0.06,1.48 L 0.02,1.45 L -0.02,1.42 L -0.06,1.40 L -0.11,1.38 L -0.17,1.36 L -0.23,1.35 L -0.30,1.34 L -0.36,1.34 L -0.40,1.35 L -0.44,1.35 L -0.48,1.36 L -0.52,1.36 L -0.56,1.38 L -0.60,1.39 L -0.63,1.41 L -0.67,1.42 L -0.70,1.45 L -0.74,1.47 L -0.77,1.49 L -0.80,1.52 L -0.83,1.55 L -0.85,1.58 L -0.88,1.61 L -0.90,1.65 L -0.90,1.39 L -1.20,1.39 L -1.20,3.29 L -0.89,3.29 L -0.89,2.17 L -0.89,2.12 L -0.88,2.07 L -0.88,2.03 L -0.87,1.99 L -0.86,1.96 L -0.85,1.92 L -0.84,1.89 L -0.82,1.85 L -0.80,1.82 L -0.78,1.79 L -0.74,1.75 L -0.71,1.72 L -0.66,1.69 L -0.62,1.66 L -0.57,1.64 L -0.52,1.63 L -0.47,1.63 L -0.42,1.62 L -0.38,1.62 L -0.34,1.63 L -0.30,1.64 L -0.27,1.65 L -0.23,1.67 L -0.20,1.69 L -0.18,1.72 L 0.06,1.48 Z" stroke-width="0.04" />
    <path class="fBLACK sBLACK" d="M -0.21,1.68 L -0.19,1.71 L -0.17,1.74 L -0.15,1.80 L -0.13,1.86 L -0.12,1.92 L -0.12,1.98 L -0.12,3.25 L 0.20,3.25 L 0.20,2.13 L 0.21,2.08 L 0.21,2.03 L 0.22,1.98 L 0.23,1.94 L 0.23,1.90 L 0.25,1.87 L 0.26,1.83 L 0.28,1.80 L 0.30,1.77 L 0.32,1.74 L 0.34,1.71 L 0.37,1.69 L 0.40,1.66 L 0.44,1.64 L 0.47,1.63 L 0.51,1.61 L 0.55,1.60 L 0.59,1.59 L 0.63,1.59 L 0.67,1.59 L 0.72,1.59 L 0.77,1.60 L 0.82,1.62 L 0.86,1.64 L 0.89,1.66 L 0.91,1.68 L 0.93,1.70 L 0.94,1.72 L 0.96,1.75 L 0.97,1.77 L 0.98,1.80 L 0.99,1.83 L 0.99,1.89 L 1.00,1.96 L 1.00,2.02 L 1.00,2.09 L 1.00,3.25 L 1.32,3.25 L 1.32,2.11 L 1.32,2.02 L 1.32,1.93 L 1.31,1.84 L 1.31,1.75 L 1.30,1.72 L 1.29,1.68 L 1.28,1.65 L 1.27,1.62 L 1.26,1.59 L 1.24,1.56 L 1.22,1.53 L 1.20,1.50 L 1.18,1.47 L 1.15,1.45 L 1.13,1.43 L 1.10,1.41 L 1.07,1.39 L 1.04,1.37 L 1.01,1.36 L 0.98,1.35 L 0.91,1.33 L 0.85,1.32 L 0.78,1.31 L 0.72,1.31 L 0.67,1.31 L 0.63,1.31 L 0.59,1.32 L 0.55,1.33 L 0.51,1.34 L 0.47,1.35 L 0.43,1.37 L 0.39,1.38 L 0.35,1.40 L 0.32,1.43 L 0.29,1.45 L 0.25,1.48 L 0.22,1.51 L 0.19,1.54 L 0.17,1.57 L 0.14,1.60 L 0.11,1.56 L 0.09,1.52 L 0.06,1.48 L 0.02,1.45 L -0.21,1.68 Z" stroke-width="0.04" />
    <path class="fBLACK sBLACK" d="M -0.98,-3.58 L 0.05,-5.04 L 1.07,-3.59 L 1.23,-3.71 L 0.05,-5.39 L -1.15,-3.69 L -0.98,-3.58 Z" stroke-width="0.04" />
    <path class="fBLACK sBLACK" d="M -1.95,0.45 L -1.79,0.34 L -2.76,-1.04 L -1.83,-2.37 L -1.99,-2.48 L -3.00,-1.04 L -1.95,0.45 Z" stroke-width="0.04" />
    <path class="fBLACK sBLACK" d="M 2.12,-2.43 L 3.10,-1.04 L 1.99,0.54 L 1.82,0.43 L 2.85,-1.04 L 1.96,-2.31 L 2.12,-2.43 Z" stroke-width="0.04" />
    <circle class="pivotPoint layout" fill="none" cx="0" cy="0" r="0.2" />
  </g>
</svg>