<?xml version="1.0" encoding="UTF-8"?>
<?xml-stylesheet type='text/css' href='S401Style.css'?>
<svg version="1.2" baseProfile="tiny" width="7.14mm" height="10.18mm" viewBox="-3.57 -6.14 7.16 10.20" xmlns="http://www.w3.org/2000/svg">
  <title>BOYINL03VL</title>
  <desc>river buoy bifurcation of the fairway (3.B of CEVNI) - virtual - left hand side</desc>
  <metadata />
  <g>
    <path class="fMIDGN sBLACK" d="M -0.82,-3.24 L 0.01,-4.68 L 0.85,-3.24 L -0.82,-3.24 Z" stroke-width="0.12" />
    <path class="fMIDGN sBLACK" d="M -0.82,-3.24 L 0.01,-4.68 L 0.85,-3.24 L -0.82,-3.24 Z" stroke-width="0.12" />
    <path class="fMIDGN sBLACK" d="M -0.82,-3.24 L 0.01,-4.68 L 0.85,-3.24 L -0.82,-3.24 Z" stroke-width="0.12" />
    <path class="fORRED sORRED" d="M -1.19,-0.24 L -1.85,0.19 L -1.85,0.66 L 1.86,0.66 L 1.86,0.19 L 1.28,-0.24 L 1.33,-0.33 L 1.37,-0.43 L 1.41,-0.52 L 1.44,-0.62 L 1.47,-0.73 L 1.49,-0.83 L 1.50,-0.93 L 1.50,-1.04 L 1.49,-1.14 L 1.48,-1.25 L 1.46,-1.35 L 1.43,-1.45 L 1.39,-1.55 L 1.35,-1.65 L 1.30,-1.74 L 1.25,-1.83 L 1.18,-1.91 L 1.12,-1.99 L 1.04,-2.07 L 0.96,-2.14 L 0.88,-2.20 L 0.79,-2.26 L 0.70,-2.31 L 0.60,-2.35 L 0.51,-2.39 L 0.41,-2.42 L 0.30,-2.44 L 0.20,-2.46 L 0.09,-2.46 L -0.01,-2.46 L -0.11,-2.46 L -0.22,-2.44 L -0.32,-2.42 L -0.42,-2.39 L -0.52,-2.35 L -0.62,-2.31 L -0.71,-2.26 L -0.79,-2.20 L -0.88,-2.13 L -0.96,-2.07 L -1.03,-1.99 L -1.10,-1.91 L -1.16,-1.83 L -1.22,-1.74 L -1.27,-1.64 L -1.31,-1.55 L -1.34,-1.45 L -1.37,-1.35 L -1.39,-1.24 L -1.40,-1.14 L -1.41,-1.04 L -1.41,-0.93 L -1.40,-0.83 L -1.38,-0.72 L -1.36,-0.62 L -1.32,-0.52 L -1.29,-0.42 L -1.24,-0.33 L -1.19,-0.24 Z" stroke-width="0.04" />
    <path class="fBLACK sBLACK" d="M -2.33,0.72 L -3.56,-1.03 L -2.38,-2.72 L -2.19,-2.58 L -3.27,-1.03 L -2.14,0.58 L -2.33,0.72 Z" stroke-width="0" />
    <path class="fBLACK sBLACK" d="M -1.36,-4.19 L 0.00,-6.13 L 1.35,-4.21 L 1.16,-4.07 L 0.00,-5.72 L -1.17,-4.05 L -1.36,-4.19 Z" stroke-width="0" />
    <path class="fBLACK sBLACK" d="M 1.30,2.20 L 0.00,4.05 L -1.23,2.29 L -1.04,2.16 L 0.00,3.64 L 1.11,2.06 L 1.30,2.20 Z" stroke-width="0" />
    <path class="fBLACK sBLACK" d="M 2.35,0.72 L 3.58,-1.03 L 2.40,-2.72 L 2.21,-2.58 L 3.29,-1.03 L 2.16,0.58 L 2.35,0.72 Z" stroke-width="0" />
    <path class="fMIDGN sMIDGN" d="M 1.36,-1.63 L 1.31,-1.72 L 1.26,-1.81 L 1.19,-1.90 L 1.13,-1.98 L 1.05,-2.06 L 0.97,-2.13 L 0.89,-2.19 L 0.80,-2.25 L 0.71,-2.30 L 0.61,-2.35 L 0.51,-2.39 L 0.41,-2.42 L 0.31,-2.44 L 0.20,-2.46 L 0.10,-2.46 L -0.01,-2.46 L -0.12,-2.46 L -0.22,-2.44 L -0.32,-2.42 L -0.43,-2.39 L -0.52,-2.35 L -0.62,-2.30 L -0.71,-2.25 L -0.80,-2.19 L -0.89,-2.13 L -0.96,-2.06 L -1.04,-1.98 L -1.11,-1.90 L -1.17,-1.81 L -1.22,-1.72 L -1.27,-1.63 L 1.36,-1.63 Z" stroke-width="0.04" />
    <path class="fMIDGN sMIDGN" d="M -1.19,-0.24 L 1.28,-0.24 L 1.33,-0.34 L 1.38,-0.45 L 1.42,-0.56 L 1.46,-0.67 L 1.48,-0.79 L 1.49,-0.91 L -1.41,-0.91 L -1.39,-0.79 L -1.37,-0.67 L -1.34,-0.56 L -1.29,-0.45 L -1.25,-0.34 L -1.19,-0.24 Z" stroke-width="0.04" />
    <path class="f0 sBLACK" d="M -1.19,-0.24 L -1.85,0.19 L -1.85,0.66 L 1.86,0.66 L 1.86,0.19 L 1.28,-0.24 " stroke-width="0.12" />
    <path class="f0 sBLACK" d="M -1.19,-0.24 L -1.24,-0.33 L -1.29,-0.42 L -1.32,-0.52 L -1.36,-0.62 L -1.38,-0.72 L -1.40,-0.83 L -1.41,-0.93 L -1.41,-1.04 L -1.40,-1.14 L -1.39,-1.24 L -1.37,-1.35 L -1.34,-1.45 L -1.31,-1.55 L -1.26,-1.64 L -1.22,-1.74 L -1.16,-1.83 L -1.10,-1.91 L -1.03,-1.99 L -0.96,-2.07 L -0.88,-2.13 L -0.79,-2.20 L -0.71,-2.26 L -0.62,-2.31 L -0.52,-2.35 L -0.42,-2.39 L -0.32,-2.42 L -0.22,-2.44 L -0.11,-2.46 L -0.01,-2.46 L 0.09,-2.46 L 0.20,-2.46 L 0.30,-2.44 L 0.41,-2.42 L 0.51,-2.39 L 0.60,-2.35 L 0.70,-2.31 L 0.79,-2.26 L 0.88,-2.20 L 0.96,-2.14 L 1.04,-2.07 L 1.12,-1.99 L 1.18,-1.91 L 1.25,-1.83 L 1.30,-1.74 L 1.35,-1.65 L 1.39,-1.55 L 1.43,-1.45 L 1.46,-1.35 L 1.48,-1.25 L 1.49,-1.14 L 1.50,-1.04 L 1.50,-0.93 L 1.49,-0.83 L 1.47,-0.73 L 1.44,-0.62 L 1.41,-0.52 L 1.37,-0.43 L 1.33,-0.33 L 1.28,-0.24 " stroke-width="0.12" />
    <path class="f0 sBLACK" d="M -1.19,-0.24 L -1.24,-0.33 L -1.29,-0.42 L -1.32,-0.52 L -1.36,-0.62 L -1.38,-0.72 L -1.40,-0.83 L -1.41,-0.93 L -1.41,-1.04 L -1.40,-1.14 L -1.39,-1.24 L -1.37,-1.35 L -1.34,-1.45 L -1.31,-1.55 L -1.26,-1.64 L -1.22,-1.74 L -1.16,-1.83 L -1.10,-1.91 L -1.03,-1.99 L -0.96,-2.07 L -0.88,-2.13 L -0.79,-2.20 L -0.71,-2.26 L -0.62,-2.31 L -0.52,-2.35 L -0.42,-2.39 L -0.32,-2.42 L -0.22,-2.44 L -0.11,-2.46 L -0.01,-2.46 L 0.09,-2.46 L 0.20,-2.46 L 0.30,-2.44 L 0.41,-2.42 L 0.51,-2.39 L 0.60,-2.35 L 0.70,-2.31 L 0.79,-2.26 L 0.88,-2.20 L 0.96,-2.14 L 1.04,-2.07 L 1.12,-1.99 L 1.18,-1.91 L 1.25,-1.83 L 1.30,-1.74 L 1.35,-1.65 L 1.39,-1.55 L 1.43,-1.45 L 1.46,-1.35 L 1.48,-1.25 L 1.49,-1.14 L 1.50,-1.04 L 1.50,-0.93 L 1.49,-0.83 L 1.47,-0.73 L 1.44,-0.62 L 1.41,-0.52 L 1.37,-0.43 L 1.33,-0.33 L 1.28,-0.24 " stroke-width="0.12" />
    <path class="f0 sBLACK" d="M -1.19,-0.24 L -1.24,-0.33 L -1.29,-0.42 L -1.32,-0.52 L -1.36,-0.62 L -1.38,-0.72 L -1.40,-0.83 L -1.41,-0.93 L -1.41,-1.04 L -1.40,-1.14 L -1.39,-1.24 L -1.37,-1.35 L -1.34,-1.45 L -1.31,-1.55 L -1.26,-1.64 L -1.22,-1.74 L -1.16,-1.83 L -1.10,-1.91 L -1.03,-1.99 L -0.96,-2.07 L -0.88,-2.13 L -0.79,-2.20 L -0.71,-2.26 L -0.61,-2.31 L -0.52,-2.35 L -0.42,-2.39 L -0.32,-2.42 L -0.22,-2.44 L -0.11,-2.46 L -0.01,-2.46 L 0.09,-2.46 L 0.20,-2.46 L 0.30,-2.44 L 0.41,-2.42 L 0.51,-2.39 L 0.60,-2.35 L 0.70,-2.31 L 0.79,-2.26 L 0.88,-2.20 L 0.96,-2.14 L 1.04,-2.07 L 1.12,-1.99 L 1.18,-1.91 L 1.25,-1.83 L 1.30,-1.74 L 1.35,-1.65 L 1.39,-1.55 L 1.43,-1.45 L 1.46,-1.35 L 1.48,-1.25 L 1.49,-1.14 L 1.50,-1.04 L 1.50,-0.93 L 1.49,-0.83 L 1.47,-0.73 L 1.44,-0.62 L 1.41,-0.52 L 1.37,-0.43 L 1.33,-0.33 L 1.28,-0.24 " stroke-width="0.12" />
    <circle class="pivotPoint layout" fill="none" cx="0" cy="0" r="0.2" />
  </g>
</svg>