<?xml version="1.0" encoding="UTF-8"?>
<?xml-stylesheet type='text/css' href='svgStyle.css'?>
<svg version="1.2" baseProfile="tiny" width="6.10mm" height="8.70mm" viewBox="-3.05 -5.45 6.12 8.72" xmlns="http://www.w3.org/2000/svg">
  <title>BOYINL03V</title>
  <desc>river buoy bifurcation of the fairway (3.B of CEVNI) - virtual</desc>
  <metadata />
  <g>
    <path class="fORRED sORRED" d="M -1.20,-0.90 L -1.86,-0.48 L -1.86,0.00 L 1.84,0.00 L 1.84,-0.48 L 1.26,-0.90 L 1.31,-1.00 L 1.36,-1.09 L 1.40,-1.19 L 1.43,-1.29 L 1.45,-1.39 L 1.47,-1.49 L 1.48,-1.60 L 1.48,-1.70 L 1.47,-1.81 L 1.46,-1.91 L 1.44,-2.01 L 1.41,-2.11 L 1.38,-2.21 L 1.33,-2.31 L 1.29,-2.40 L 1.23,-2.49 L 1.17,-2.58 L 1.10,-2.66 L 1.03,-2.73 L 0.95,-2.80 L 0.86,-2.86 L 0.78,-2.92 L 0.68,-2.97 L 0.59,-3.01 L 0.49,-3.05 L 0.39,-3.08 L 0.29,-3.10 L 0.18,-3.12 L 0.08,-3.13 L -0.03,-3.13 L -0.13,-3.12 L -0.23,-3.10 L -0.34,-3.08 L -0.44,-3.05 L -0.53,-3.01 L -0.63,-2.97 L -0.72,-2.92 L -0.81,-2.86 L -0.89,-2.80 L -0.97,-2.73 L -1.05,-2.65 L -1.11,-2.57 L -1.17,-2.49 L -1.23,-2.40 L -1.28,-2.31 L -1.32,-2.21 L -1.36,-2.11 L -1.38,-2.01 L -1.41,-1.91 L -1.42,-1.80 L -1.42,-1.70 L -1.42,-1.59 L -1.41,-1.49 L -1.40,-1.39 L -1.37,-1.28 L -1.34,-1.19 L -1.30,-1.09 L -1.25,-0.99 L -1.20,-0.90 Z" stroke-width="0.04" />
    <path class="fBLACK sBLACK" d="M -1.00,-3.67 L 0.00,-5.10 L 0.99,-3.69 L 1.16,-3.80 L 0.00,-5.44 L -1.16,-3.78 L -1.00,-3.67 Z" stroke-width="0.04" />
    <path class="fBLACK sBLACK" d="M -1.83,0.29 L -2.80,-1.09 L -1.87,-2.41 L -2.03,-2.53 L -3.04,-1.09 L -1.99,0.41 L -1.83,0.29 Z" stroke-width="0.04" />
    <path class="fBLACK sBLACK" d="M 2.09,-2.48 L 3.06,-1.09 L 1.94,0.50 L 1.78,0.39 L 2.81,-1.09 L 1.92,-2.36 L 2.09,-2.48 Z" stroke-width="0.04" />
    <path class="fBLACK sBLACK" d="M 1.11,1.67 L 0.00,3.26 L -1.05,1.75 L -0.89,1.64 L 0.00,2.91 L 0.95,1.56 L 1.11,1.67 Z" stroke-width="0.04" />
    <path class="fMIDGN sMIDGN" d="M 1.34,-2.29 L 1.29,-2.39 L 1.24,-2.48 L 1.18,-2.56 L 1.11,-2.64 L 1.04,-2.72 L 0.96,-2.79 L 0.87,-2.86 L 0.78,-2.91 L 0.69,-2.97 L 0.60,-3.01 L 0.50,-3.05 L 0.40,-3.08 L 0.29,-3.10 L 0.19,-3.12 L 0.08,-3.13 L -0.02,-3.13 L -0.13,-3.12 L -0.24,-3.10 L -0.34,-3.08 L -0.44,-3.05 L -0.54,-3.01 L -0.64,-2.97 L -0.73,-2.91 L -0.82,-2.86 L -0.90,-2.79 L -0.98,-2.72 L -1.05,-2.64 L -1.12,-2.56 L -1.18,-2.48 L -1.24,-2.39 L -1.29,-2.29 L 1.34,-2.29 Z" stroke-width="0.04" />
    <path class="fMIDGN sMIDGN" d="M -1.20,-0.90 L 1.26,-0.90 L 1.32,-1.01 L 1.37,-1.11 L 1.41,-1.22 L 1.44,-1.34 L 1.46,-1.45 L 1.48,-1.57 L -1.42,-1.57 L -1.41,-1.45 L -1.38,-1.34 L -1.35,-1.22 L -1.31,-1.11 L -1.26,-1.01 L -1.20,-0.90 Z" stroke-width="0.04" />
    <path class="f0 sBLACK" d="M -1.20,-0.90 L -1.86,-0.48 L -1.86,0.00 L 1.84,0.00 L 1.84,-0.48 L 1.26,-0.90 " stroke-width="0.12" />
    <path class="f0 sBLACK" d="M -1.20,-0.90 L -1.25,-0.99 L -1.30,-1.09 L -1.34,-1.19 L -1.37,-1.28 L -1.40,-1.39 L -1.41,-1.49 L -1.42,-1.59 L -1.42,-1.70 L -1.42,-1.80 L -1.41,-1.91 L -1.38,-2.01 L -1.36,-2.11 L -1.32,-2.21 L -1.28,-2.31 L -1.23,-2.40 L -1.17,-2.49 L -1.11,-2.57 L -1.04,-2.65 L -0.97,-2.73 L -0.89,-2.80 L -0.81,-2.86 L -0.72,-2.92 L -0.63,-2.97 L -0.53,-3.01 L -0.44,-3.05 L -0.34,-3.08 L -0.23,-3.10 L -0.13,-3.12 L -0.03,-3.13 L 0.08,-3.13 L 0.18,-3.12 L 0.29,-3.10 L 0.39,-3.08 L 0.49,-3.05 L 0.59,-3.01 L 0.68,-2.97 L 0.78,-2.92 L 0.86,-2.86 L 0.95,-2.80 L 1.03,-2.73 L 1.10,-2.66 L 1.17,-2.58 L 1.23,-2.49 L 1.29,-2.40 L 1.33,-2.31 L 1.38,-2.21 L 1.41,-2.11 L 1.44,-2.01 L 1.46,-1.91 L 1.47,-1.81 L 1.48,-1.70 L 1.48,-1.60 L 1.47,-1.49 L 1.45,-1.39 L 1.43,-1.29 L 1.40,-1.19 L 1.36,-1.09 L 1.31,-1.00 L 1.26,-0.90 " stroke-width="0.12" />
    <circle class="pivotPoint layout" fill="none" cx="0" cy="0" r="0.2" />
  </g>
</svg>