<?xml version="1.0" encoding="UTF-8"?>
<?xml-stylesheet type='text/css' href='svgStyle.css'?>
<svg version="1.2" baseProfile="tiny" width="7.14mm" height="10.19mm" viewBox="-3.14 -7.91 7.16 10.21" xmlns="http://www.w3.org/2000/svg">
  <title>BOYLAT27M</title>
  <desc>river buoy, obstruction at the left side - off position - missing - text area -d</desc>
  <metadata />
  <g>
    <path class="fWHITE sWHITE" d="M -0.54,-0.86 L 0.68,-0.86 L 1.11,-5.29 L -0.10,-5.29 L -0.54,-0.86 Z" stroke-width="0.04" />
    <path class="fBLACK sBLACK" d="M 0.43,0.49 L 0.39,0.46 L 0.35,0.43 L 0.31,0.40 L 0.26,0.38 L 0.20,0.37 L 0.14,0.35 L 0.07,0.35 L 0.01,0.35 L -0.03,0.35 L -0.07,0.35 L -0.11,0.36 L -0.15,0.37 L -0.19,0.38 L -0.23,0.39 L -0.26,0.41 L -0.30,0.43 L -0.33,0.45 L -0.37,0.47 L -0.40,0.50 L -0.43,0.52 L -0.46,0.55 L -0.48,0.58 L -0.51,0.62 L -0.53,0.65 L -0.53,0.39 L -0.84,0.39 L -0.84,2.29 L -0.52,2.29 L -0.52,1.17 L -0.52,1.12 L -0.51,1.07 L -0.51,1.03 L -0.50,1.00 L -0.49,0.96 L -0.48,0.92 L -0.47,0.89 L -0.45,0.85 L -0.43,0.82 L -0.41,0.79 L -0.37,0.75 L -0.34,0.72 L -0.29,0.69 L -0.25,0.67 L -0.20,0.65 L -0.15,0.64 L -0.10,0.63 L -0.05,0.63 L -0.01,0.63 L 0.03,0.63 L 0.07,0.64 L 0.10,0.65 L 0.14,0.67 L 0.17,0.69 L 0.19,0.72 L 0.43,0.49 Z" stroke-width="0.04" />
    <path class="fBLACK sBLACK" d="M 0.19,0.72 L 0.22,0.75 L 0.24,0.78 L 0.26,0.84 L 0.27,0.89 L 0.28,0.95 L 0.28,1.01 L 0.28,2.29 L 0.61,2.29 L 0.61,1.17 L 0.61,1.12 L 0.61,1.07 L 0.62,1.02 L 0.63,0.97 L 0.64,0.94 L 0.65,0.90 L 0.66,0.87 L 0.68,0.84 L 0.70,0.81 L 0.72,0.78 L 0.75,0.75 L 0.77,0.73 L 0.80,0.70 L 0.84,0.68 L 0.88,0.66 L 0.91,0.65 L 0.95,0.64 L 0.99,0.63 L 1.03,0.63 L 1.07,0.63 L 1.12,0.63 L 1.17,0.64 L 1.22,0.66 L 1.27,0.68 L 1.29,0.69 L 1.31,0.71 L 1.33,0.74 L 1.35,0.76 L 1.36,0.78 L 1.37,0.81 L 1.38,0.84 L 1.39,0.86 L 1.40,0.93 L 1.40,0.99 L 1.41,1.06 L 1.40,1.13 L 1.40,2.29 L 1.72,2.29 L 1.72,1.15 L 1.72,1.06 L 1.72,0.97 L 1.72,0.88 L 1.71,0.79 L 1.70,0.75 L 1.70,0.72 L 1.69,0.69 L 1.67,0.65 L 1.66,0.62 L 1.64,0.59 L 1.62,0.56 L 1.60,0.54 L 1.58,0.51 L 1.56,0.49 L 1.53,0.46 L 1.50,0.44 L 1.47,0.43 L 1.44,0.41 L 1.41,0.40 L 1.38,0.38 L 1.32,0.37 L 1.25,0.35 L 1.19,0.35 L 1.12,0.35 L 1.08,0.35 L 1.04,0.35 L 0.99,0.36 L 0.95,0.37 L 0.91,0.38 L 0.87,0.39 L 0.83,0.40 L 0.79,0.42 L 0.76,0.44 L 0.72,0.46 L 0.69,0.49 L 0.66,0.52 L 0.63,0.54 L 0.60,0.57 L 0.57,0.61 L 0.54,0.64 L 0.52,0.60 L 0.49,0.56 L 0.46,0.52 L 0.43,0.49 L 0.19,0.72 Z" stroke-width="0.04" />
    <path class="fBLACK sBLACK" d="M -0.92,-5.95 L 0.44,-7.90 L 1.79,-5.98 L 1.60,-5.84 L 0.44,-7.49 L -0.73,-5.82 L -0.92,-5.95 Z" stroke-width="0.04" />
    <path class="fBLACK sBLACK" d="M -1.90,-1.05 L -3.13,-2.80 L -1.95,-4.48 L -1.75,-4.35 L -2.84,-2.80 L -1.71,-1.18 L -1.90,-1.05 Z" stroke-width="0.04" />
    <path class="fBLACK sBLACK" d="M 2.88,-4.42 L 4.01,-2.80 L 2.78,-1.04 L 2.58,-1.17 L 3.73,-2.80 L 2.68,-4.29 L 2.88,-4.42 Z" stroke-width="0.04" />
    <path class="fMIDGN sMIDGN" d="M -0.10,-5.29 L 1.11,-5.29 L 1.00,-4.17 L -0.21,-4.17 L -0.10,-5.29 Z" stroke-width="0.04" />
    <path class="fMIDGN sMIDGN" d="M -0.32,-3.07 L 0.88,-3.07 L 0.78,-1.94 L -0.43,-1.94 L -0.32,-3.07 Z" stroke-width="0.04" />
    <path class="f0 sBLACK" d="M -0.10,-5.29 L 1.11,-5.29 L 0.68,-0.86 L -0.54,-0.86 L -0.10,-5.29 Z" stroke-width="0.12" />
    <circle class="pivotPoint layout" fill="none" cx="0" cy="0" r="0.2" />
  </g>
</svg>