<?xml version="1.0" encoding="UTF-8"?>
<?xml-stylesheet type='text/css' href='svgStyle.css'?>
<svg version="1.2" baseProfile="tiny" width="7.14mm" height="10.18mm" viewBox="-3.14 -7.84 7.16 10.20" xmlns="http://www.w3.org/2000/svg">
  <title>BOYLAT27F</title>
  <desc>river buoy, obstruction at the left side - off position - text area -d</desc>
  <metadata />
  <g>
    <path class="fWHITE sWHITE" d="M -0.54,-0.79 L 0.68,-0.79 L 1.10,-5.22 L -0.10,-5.22 L -0.54,-0.79 Z" stroke-width="0.04" />
    <path class="fBLACK sBLACK" d="M 0.96,1.43 L 0.96,1.48 L 0.96,1.54 L 0.95,1.59 L 0.94,1.64 L 0.92,1.69 L 0.91,1.74 L 0.89,1.79 L 0.87,1.83 L 0.86,1.86 L 0.84,1.89 L 0.82,1.91 L 0.79,1.94 L 0.77,1.97 L 0.74,1.99 L 0.71,2.01 L 0.68,2.02 L 0.65,2.04 L 0.61,2.05 L 0.58,2.06 L 0.55,2.07 L 0.51,2.08 L 0.48,2.08 L 0.44,2.08 L 0.40,2.08 L 0.37,2.08 L 0.33,2.07 L 0.30,2.06 L 0.26,2.05 L 0.23,2.04 L 0.20,2.03 L 0.17,2.01 L 0.14,1.99 L 0.11,1.96 L 0.08,1.94 L 0.06,1.91 L 0.04,1.89 L 0.02,1.85 L 0.00,1.82 L -0.02,1.79 L -0.03,1.74 L -0.05,1.69 L -0.06,1.64 L -0.07,1.59 L -0.08,1.54 L -0.09,1.48 L -0.40,1.49 L -0.39,1.60 L -0.38,1.68 L -0.36,1.77 L -0.33,1.85 L -0.30,1.93 L -0.26,1.99 L -0.23,2.04 L -0.18,2.10 L -0.14,2.14 L -0.09,2.19 L -0.03,2.23 L 0.03,2.26 L 0.09,2.29 L 0.13,2.31 L 0.17,2.32 L 0.21,2.33 L 0.26,2.34 L 0.30,2.35 L 0.35,2.35 L 0.39,2.35 L 0.44,2.35 L 0.49,2.35 L 0.54,2.35 L 0.59,2.34 L 0.64,2.33 L 0.68,2.33 L 0.72,2.31 L 0.76,2.30 L 0.80,2.29 L 0.84,2.27 L 0.87,2.25 L 0.91,2.23 L 0.94,2.20 L 0.99,2.16 L 1.04,2.11 L 1.09,2.06 L 1.13,2.00 L 1.16,1.95 L 1.19,1.88 L 1.21,1.82 L 1.23,1.76 L 1.25,1.66 L 1.27,1.57 L 1.27,1.48 L 0.96,1.43 Z" stroke-width="0.04" />
    <path class="fBLACK sBLACK" d="M 0.44,0.41 L 0.39,0.41 L 0.35,0.41 L 0.30,0.41 L 0.26,0.42 L 0.21,0.43 L 0.17,0.44 L 0.13,0.45 L 0.09,0.46 L 0.05,0.49 L 0.01,0.51 L -0.03,0.53 L -0.07,0.56 L -0.10,0.59 L -0.14,0.62 L -0.17,0.65 L -0.20,0.68 L -0.23,0.72 L -0.25,0.75 L -0.28,0.79 L -0.30,0.83 L -0.32,0.87 L -0.34,0.92 L -0.35,0.96 L -0.36,1.00 L -0.38,1.09 L -0.40,1.19 L -0.40,1.28 L -0.41,1.38 L -0.40,1.49 L -0.09,1.48 L -0.09,1.43 L -0.09,1.38 L -0.09,1.32 L -0.09,1.27 L -0.08,1.22 L -0.07,1.17 L -0.06,1.11 L -0.05,1.06 L -0.03,1.01 L -0.02,0.96 L 0.00,0.93 L 0.02,0.90 L 0.04,0.87 L 0.06,0.84 L 0.08,0.82 L 0.11,0.79 L 0.14,0.77 L 0.17,0.75 L 0.20,0.73 L 0.23,0.72 L 0.26,0.70 L 0.30,0.69 L 0.33,0.69 L 0.37,0.68 L 0.40,0.68 L 0.44,0.68 L 0.44,0.41 Z" stroke-width="0.04" />
    <path class="fBLACK sBLACK" d="M 0.44,0.68 L 0.48,0.68 L 0.51,0.68 L 0.55,0.69 L 0.58,0.69 L 0.61,0.70 L 0.65,0.72 L 0.68,0.73 L 0.71,0.75 L 0.74,0.77 L 0.77,0.79 L 0.79,0.82 L 0.82,0.84 L 0.84,0.87 L 0.86,0.90 L 0.87,0.93 L 0.89,0.96 L 0.91,1.01 L 0.92,1.06 L 0.94,1.11 L 0.95,1.17 L 0.96,1.22 L 0.96,1.27 L 0.96,1.32 L 0.96,1.38 L 0.96,1.43 L 1.27,1.48 L 1.28,1.38 L 1.27,1.27 L 1.26,1.16 L 1.25,1.08 L 1.23,0.99 L 1.20,0.91 L 1.17,0.83 L 1.13,0.77 L 1.10,0.71 L 1.06,0.66 L 1.01,0.61 L 0.96,0.57 L 0.91,0.53 L 0.85,0.50 L 0.79,0.46 L 0.75,0.45 L 0.70,0.44 L 0.66,0.43 L 0.62,0.42 L 0.57,0.41 L 0.53,0.41 L 0.48,0.40 L 0.44,0.41 L 0.44,0.68 Z" stroke-width="0.04" />
    <path class="fBLACK sBLACK" d="M -0.85,0.52 L -3.13,-2.73 L 0.43,-7.83 L 4.01,-2.73 L 1.72,0.53 L 1.60,0.28 L 3.72,-2.73 L 0.43,-7.42 L -2.85,-2.73 L -0.74,0.28 L -0.85,0.52 Z" stroke-width="0" />
    <path class="fMIDGN sMIDGN" d="M -0.10,-5.22 L 1.10,-5.22 L 0.99,-4.09 L -0.21,-4.09 L -0.10,-5.22 Z" stroke-width="0.04" />
    <path class="fMIDGN sMIDGN" d="M -0.32,-3.00 L 0.88,-3.00 L 0.77,-1.87 L -0.43,-1.87 L -0.32,-3.00 Z" stroke-width="0.04" />
    <path class="f0 sBLACK" d="M -0.10,-5.22 L 1.10,-5.22 L 0.68,-0.79 L -0.54,-0.79 L -0.10,-5.22 Z" stroke-width="0.12" />
    <circle class="pivotPoint layout" fill="none" cx="0" cy="0" r="0.2" />
  </g>
</svg>