<?xml version="1.0" encoding="UTF-8"?>
<?xml-stylesheet type='text/css' href='svgStyle.css'?>
<svg version="1.2" baseProfile="tiny" width="7.14mm" height="10.19mm" viewBox="-3.13 -7.85 7.16 10.21" xmlns="http://www.w3.org/2000/svg">
  <title>BOYLAT26M</title>
  <desc>river buoy, obstruction at the right side - off position - missing - text area -d</desc>
  <metadata />
  <g>
    <path class="fWHITE sWHITE" d="M -0.53,-0.80 L 0.68,-0.80 L 1.11,-5.23 L -0.09,-5.23 L -0.53,-0.80 Z" stroke-width="0.04" />
    <path class="fBLACK sBLACK" d="M 0.43,0.55 L 0.39,0.52 L 0.35,0.49 L 0.31,0.46 L 0.26,0.44 L 0.20,0.43 L 0.14,0.41 L 0.08,0.41 L 0.01,0.41 L -0.03,0.41 L -0.07,0.41 L -0.11,0.42 L -0.15,0.43 L -0.19,0.44 L -0.23,0.45 L -0.26,0.47 L -0.30,0.49 L -0.33,0.51 L -0.37,0.53 L -0.40,0.56 L -0.43,0.58 L -0.45,0.61 L -0.48,0.64 L -0.51,0.68 L -0.53,0.71 L -0.53,0.45 L -0.83,0.45 L -0.83,2.35 L -0.52,2.35 L -0.52,1.23 L -0.51,1.18 L -0.51,1.13 L -0.51,1.09 L -0.50,1.06 L -0.49,1.02 L -0.48,0.98 L -0.46,0.95 L -0.45,0.92 L -0.43,0.88 L -0.41,0.85 L -0.37,0.81 L -0.33,0.78 L -0.29,0.75 L -0.25,0.73 L -0.20,0.71 L -0.15,0.70 L -0.10,0.69 L -0.05,0.69 L 0.00,0.69 L 0.03,0.69 L 0.07,0.70 L 0.11,0.71 L 0.14,0.73 L 0.17,0.75 L 0.20,0.78 L 0.43,0.55 Z" stroke-width="0.04" />
    <path class="fBLACK sBLACK" d="M 0.20,0.78 L 0.22,0.81 L 0.24,0.84 L 0.26,0.90 L 0.27,0.95 L 0.28,1.01 L 0.28,1.07 L 0.28,2.35 L 0.61,2.35 L 0.61,1.23 L 0.61,1.18 L 0.62,1.13 L 0.62,1.08 L 0.63,1.03 L 0.64,1.00 L 0.65,0.96 L 0.67,0.93 L 0.68,0.90 L 0.70,0.87 L 0.72,0.84 L 0.75,0.81 L 0.77,0.79 L 0.81,0.76 L 0.84,0.74 L 0.88,0.73 L 0.91,0.71 L 0.95,0.70 L 0.99,0.69 L 1.03,0.69 L 1.07,0.69 L 1.12,0.69 L 1.17,0.70 L 1.22,0.72 L 1.27,0.74 L 1.29,0.75 L 1.31,0.77 L 1.33,0.80 L 1.35,0.82 L 1.36,0.84 L 1.38,0.87 L 1.39,0.90 L 1.39,0.92 L 1.40,0.99 L 1.41,1.05 L 1.41,1.12 L 1.41,1.19 L 1.41,2.35 L 1.72,2.35 L 1.72,1.21 L 1.72,1.12 L 1.72,1.03 L 1.72,0.94 L 1.71,0.85 L 1.71,0.81 L 1.70,0.78 L 1.69,0.75 L 1.68,0.71 L 1.66,0.68 L 1.65,0.65 L 1.63,0.62 L 1.61,0.60 L 1.58,0.57 L 1.56,0.55 L 1.53,0.52 L 1.50,0.50 L 1.47,0.49 L 1.44,0.47 L 1.41,0.46 L 1.38,0.44 L 1.32,0.43 L 1.25,0.41 L 1.19,0.41 L 1.12,0.41 L 1.08,0.41 L 1.04,0.41 L 1.00,0.42 L 0.96,0.43 L 0.91,0.44 L 0.87,0.45 L 0.83,0.46 L 0.80,0.48 L 0.76,0.50 L 0.72,0.52 L 0.69,0.55 L 0.66,0.58 L 0.63,0.60 L 0.60,0.63 L 0.57,0.67 L 0.55,0.70 L 0.52,0.66 L 0.49,0.62 L 0.46,0.58 L 0.43,0.55 L 0.20,0.78 Z" stroke-width="0.04" />
    <circle cx="1.53" cy="0.52" r="0.00" class="f0 sBLACK" stroke-width="0.04" />
    <path class="fBLACK sBLACK" d="M -0.92,-5.89 L 0.44,-7.84 L 1.79,-5.92 L 1.60,-5.78 L 0.44,-7.43 L -0.73,-5.76 L -0.92,-5.89 Z" stroke-width="0.04" />
    <path class="fBLACK sBLACK" d="M -1.90,-0.99 L -3.12,-2.74 L -1.94,-4.42 L -1.75,-4.29 L -2.84,-2.74 L -1.70,-1.12 L -1.90,-0.99 Z" stroke-width="0.04" />
    <path class="fBLACK sBLACK" d="M 2.88,-4.36 L 4.02,-2.74 L 2.78,-0.98 L 2.58,-1.11 L 3.73,-2.74 L 2.69,-4.23 L 2.88,-4.36 Z" stroke-width="0.04" />
    <path class="fORRED sORRED" d="M -0.09,-5.23 L 1.11,-5.23 L 1.00,-4.11 L -0.21,-4.11 L -0.09,-5.23 Z" stroke-width="0.04" />
    <path class="fORRED sORRED" d="M -0.31,-3.01 L 0.89,-3.01 L 0.78,-1.88 L -0.43,-1.88 L -0.31,-3.01 Z" stroke-width="0.04" />
    <path class="f0 sBLACK" d="M -0.09,-5.23 L 1.11,-5.23 L 0.68,-0.80 L -0.53,-0.80 L -0.09,-5.23 Z" stroke-width="0.12" />
    <circle class="pivotPoint layout" fill="none" cx="0" cy="0" r="0.2" />
  </g>
</svg>