<?xml version="1.0" encoding="UTF-8"?>
<?xml-stylesheet type='text/css' href='S401Style.css'?>
<svg version="1.2" baseProfile="tiny" width="6.10mm" height="8.70mm" viewBox="-2.75 -7.13 6.12 8.72" xmlns="http://www.w3.org/2000/svg">
  <title>BOYLAT27O</title>
  <desc>river buoy, obstruction at the left side - on position</desc>
  <metadata />
  <g>
    <path class="fWHITE sWHITE" d="M -0.60,-0.53 L 0.61,-0.53 L 1.04,-4.97 L -0.16,-4.97 L -0.60,-0.53 Z" stroke-width="0.04" />
    <path class="fBLACK sBLACK" d="M 0.31,1.59 L -2.74,-2.77 L 0.31,-7.12 L 3.36,-2.77 L 0.31,1.59 L 0.31,1.24 L 3.11,-2.77 L 0.31,-6.77 L -2.50,-2.77 L 0.31,1.24 L 0.31,1.59 Z" stroke-width="0" />
    <path class="fMIDGN sMIDGN" d="M -0.16,-4.97 L 1.04,-4.97 L 0.93,-3.84 L -0.28,-3.84 L -0.16,-4.97 Z" stroke-width="0.04" />
    <path class="fMIDGN sMIDGN" d="M -0.39,-2.74 L 0.82,-2.74 L 0.71,-1.61 L -0.50,-1.61 L -0.39,-2.74 Z" stroke-width="0.04" />
    <path class="f0 sBLACK" d="M -0.16,-4.97 L 1.04,-4.97 L 0.61,-0.53 L -0.60,-0.53 L -0.16,-4.97 Z" stroke-width="0.12" />
    <circle class="pivotPoint layout" fill="none" cx="0" cy="0" r="0.2" />
  </g>
</svg>