<?xml version="1.0" encoding="UTF-8"?>
<?xml-stylesheet type='text/css' href='svgStyle.css'?>
<svg version="1.2" baseProfile="tiny" width="7.14mm" height="10.18mm" viewBox="-3.16 -7.87 7.16 10.20" xmlns="http://www.w3.org/2000/svg">
  <title>BOYLAT26F</title>
  <desc>river buoy, obstruction at the right side - off position - text area -d</desc>
  <metadata />
  <g>
    <path class="fWHITE sWHITE" d="M -0.56,-0.82 L 0.66,-0.82 L 1.08,-5.25 L -0.12,-5.25 L -0.56,-0.82 Z" stroke-width="0.04" />
    <path class="fBLACK sBLACK" d="M 0.95,1.40 L 0.94,1.45 L 0.94,1.51 L 0.93,1.56 L 0.92,1.61 L 0.91,1.66 L 0.89,1.72 L 0.87,1.77 L 0.86,1.80 L 0.84,1.83 L 0.82,1.86 L 0.80,1.89 L 0.77,1.91 L 0.75,1.94 L 0.72,1.96 L 0.69,1.98 L 0.66,2.00 L 0.63,2.01 L 0.60,2.02 L 0.56,2.03 L 0.53,2.04 L 0.49,2.05 L 0.46,2.05 L 0.42,2.05 L 0.39,2.05 L 0.35,2.05 L 0.31,2.04 L 0.28,2.04 L 0.25,2.02 L 0.21,2.01 L 0.18,2.00 L 0.15,1.98 L 0.12,1.96 L 0.09,1.94 L 0.07,1.91 L 0.04,1.88 L 0.02,1.86 L 0.00,1.83 L -0.02,1.79 L -0.03,1.76 L -0.05,1.71 L -0.07,1.66 L -0.08,1.61 L -0.09,1.56 L -0.10,1.51 L -0.11,1.45 L -0.42,1.46 L -0.41,1.57 L -0.40,1.65 L -0.38,1.74 L -0.35,1.82 L -0.31,1.90 L -0.28,1.96 L -0.24,2.01 L -0.20,2.07 L -0.16,2.12 L -0.10,2.16 L -0.05,2.20 L 0.01,2.23 L 0.07,2.26 L 0.11,2.28 L 0.15,2.29 L 0.20,2.30 L 0.24,2.31 L 0.28,2.32 L 0.33,2.32 L 0.37,2.32 L 0.42,2.32 L 0.47,2.32 L 0.52,2.32 L 0.57,2.31 L 0.62,2.31 L 0.66,2.30 L 0.70,2.29 L 0.74,2.27 L 0.78,2.26 L 0.82,2.24 L 0.85,2.22 L 0.89,2.20 L 0.92,2.17 L 0.98,2.13 L 1.02,2.08 L 1.07,2.03 L 1.11,1.97 L 1.14,1.92 L 1.17,1.85 L 1.20,1.79 L 1.22,1.73 L 1.23,1.63 L 1.25,1.54 L 1.26,1.45 L 0.95,1.40 Z" stroke-width="0.04" />
    <path class="fBLACK sBLACK" d="M 0.42,0.38 L 0.37,0.38 L 0.33,0.38 L 0.28,0.38 L 0.24,0.39 L 0.20,0.40 L 0.15,0.41 L 0.11,0.42 L 0.07,0.44 L 0.03,0.46 L -0.01,0.48 L -0.05,0.50 L -0.09,0.53 L -0.12,0.56 L -0.16,0.59 L -0.19,0.62 L -0.22,0.65 L -0.25,0.69 L -0.27,0.73 L -0.30,0.76 L -0.32,0.80 L -0.34,0.84 L -0.35,0.89 L -0.37,0.93 L -0.38,0.97 L -0.40,1.07 L -0.41,1.16 L -0.42,1.25 L -0.42,1.35 L -0.42,1.46 L -0.11,1.45 L -0.11,1.40 L -0.11,1.35 L -0.11,1.30 L -0.10,1.24 L -0.10,1.19 L -0.09,1.14 L -0.08,1.09 L -0.07,1.03 L -0.05,0.98 L -0.03,0.93 L -0.02,0.90 L 0.00,0.87 L 0.02,0.84 L 0.04,0.81 L 0.07,0.79 L 0.09,0.76 L 0.12,0.74 L 0.15,0.72 L 0.18,0.70 L 0.21,0.69 L 0.25,0.67 L 0.28,0.66 L 0.32,0.66 L 0.35,0.65 L 0.39,0.65 L 0.42,0.65 L 0.42,0.38 Z" stroke-width="0.04" />
    <path class="fBLACK sBLACK" d="M 0.42,0.65 L 0.46,0.65 L 0.49,0.65 L 0.53,0.66 L 0.56,0.67 L 0.60,0.68 L 0.63,0.69 L 0.66,0.71 L 0.69,0.72 L 0.72,0.74 L 0.75,0.76 L 0.77,0.79 L 0.80,0.81 L 0.82,0.84 L 0.84,0.87 L 0.86,0.90 L 0.87,0.93 L 0.89,0.98 L 0.91,1.03 L 0.92,1.09 L 0.93,1.14 L 0.94,1.19 L 0.94,1.24 L 0.95,1.30 L 0.94,1.35 L 0.95,1.40 L 1.26,1.45 L 1.26,1.35 L 1.26,1.24 L 1.25,1.13 L 1.23,1.05 L 1.21,0.96 L 1.18,0.88 L 1.15,0.80 L 1.12,0.74 L 1.08,0.69 L 1.04,0.63 L 0.99,0.58 L 0.94,0.54 L 0.89,0.50 L 0.83,0.47 L 0.77,0.44 L 0.73,0.42 L 0.68,0.41 L 0.64,0.40 L 0.60,0.39 L 0.55,0.38 L 0.51,0.38 L 0.46,0.38 L 0.42,0.38 L 0.42,0.65 Z" stroke-width="0.04" />
    <path class="fBLACK sBLACK" d="M -0.87,0.50 L -3.15,-2.76 L 0.42,-7.86 L 3.99,-2.76 L 1.70,0.50 L 1.59,0.25 L 3.70,-2.76 L 0.42,-7.45 L -2.86,-2.76 L -0.75,0.25 L -0.87,0.50 Z" stroke-width="0" />
    <path class="fORRED sORRED" d="M -0.12,-5.25 L 1.08,-5.25 L 0.97,-4.12 L -0.23,-4.12 L -0.12,-5.25 Z" stroke-width="0.04" />
    <path class="fORRED sORRED" d="M -0.34,-3.03 L 0.86,-3.03 L 0.75,-1.90 L -0.45,-1.90 L -0.34,-3.03 Z" stroke-width="0.04" />
    <path class="f0 sBLACK" d="M -0.12,-5.25 L 1.08,-5.25 L 0.66,-0.82 L -0.56,-0.82 L -0.12,-5.25 Z" stroke-width="0.12" />
    <circle class="pivotPoint layout" fill="none" cx="0" cy="0" r="0.2" />
  </g>
</svg>