<?xml version="1.0" encoding="UTF-8"?>
<?xml-stylesheet type='text/css' href='svgStyle.css'?>
<svg version="1.2" baseProfile="tiny" width="3.90mm" height="3.29mm" viewBox="-1.96 -3.30 3.92 3.31" xmlns="http://www.w3.org/2000/svg">
  <title>BOYSFW01R</title>
  <desc>Buoy safe water round</desc>
  <metadata />
  <g>
    <path class="fWHITE sWHITE" d="M 1.31,-0.91 L 1.37,-1.01 L 1.42,-1.11 L 1.46,-1.21 L 1.49,-1.32 L 1.52,-1.43 L 1.54,-1.54 L 1.55,-1.65 L 1.55,-1.76 L 1.54,-1.87 L 1.53,-1.99 L 1.51,-2.09 L 1.48,-2.20 L 1.44,-2.31 L 1.40,-2.41 L 1.34,-2.51 L 1.28,-2.61 L 1.22,-2.70 L 1.15,-2.78 L 1.07,-2.86 L 0.98,-2.94 L 0.89,-3.00 L 0.80,-3.06 L 0.70,-3.12 L 0.60,-3.17 L 0.50,-3.21 L 0.39,-3.24 L 0.28,-3.26 L 0.17,-3.28 L 0.06,-3.29 L -0.06,-3.29 L -0.17,-3.28 L -0.28,-3.26 L -0.39,-3.24 L -0.50,-3.21 L -0.60,-3.17 L -0.70,-3.12 L -0.80,-3.06 L -0.89,-3.00 L -0.98,-2.94 L -1.07,-2.86 L -1.15,-2.78 L -1.22,-2.70 L -1.28,-2.61 L -1.34,-2.51 L -1.40,-2.41 L -1.44,-2.31 L -1.48,-2.20 L -1.51,-2.09 L -1.53,-1.99 L -1.54,-1.87 L -1.55,-1.76 L -1.55,-1.65 L -1.54,-1.54 L -1.52,-1.43 L -1.49,-1.32 L -1.46,-1.21 L -1.42,-1.11 L -1.37,-1.01 L -1.31,-0.91 L -1.95,-0.50 L -1.95,0.00 L 1.95,0.00 L 1.95,-0.50 L 1.31,-0.91 Z" stroke-width="0.12" />
    <path class="fORRED sORRED" d="M -1.31,-0.91 L -1.37,-1.01 L -1.42,-1.11 L -1.46,-1.22 L -1.50,-1.33 L -1.52,-1.44 L -1.54,-1.55 L -1.55,-1.66 L -1.55,-1.78 L -1.54,-1.89 L -1.53,-2.00 L -1.50,-2.12 L -1.47,-2.23 L -1.43,-2.33 L -1.38,-2.44 L -1.33,-2.54 L -1.27,-2.63 L -1.20,-2.72 L -1.12,-2.81 L -1.04,-2.89 L -0.95,-2.96 L -0.86,-3.03 L -0.76,-3.09 L -0.66,-3.14 L -0.56,-3.18 L -0.45,-3.22 L -0.34,-3.25 L -0.23,-3.27 L -0.11,-3.28 L 0.00,-3.29 L -0.11,-3.21 L -0.21,-3.13 L -0.31,-3.04 L -0.40,-2.95 L -0.48,-2.85 L -0.56,-2.74 L -0.63,-2.63 L -0.70,-2.51 L -0.75,-2.40 L -0.80,-2.27 L -0.84,-2.15 L -0.87,-2.02 L -0.90,-1.89 L -0.91,-1.76 L -0.92,-1.63 L -0.91,-1.50 L -0.90,-1.37 L -0.88,-1.24 L -0.86,-1.11 L -0.82,-0.98 L -0.78,-0.86 L -0.72,-0.74 L -1.13,0.00 L -1.95,0.00 L -1.95,-0.50 L -1.31,-0.91 Z" stroke-width="0.12" />
    <path class="fORRED sORRED" d="M 1.31,-0.91 L 1.37,-1.01 L 1.42,-1.11 L 1.46,-1.22 L 1.50,-1.33 L 1.52,-1.44 L 1.54,-1.55 L 1.55,-1.66 L 1.55,-1.78 L 1.54,-1.89 L 1.53,-2.00 L 1.50,-2.12 L 1.47,-2.23 L 1.43,-2.33 L 1.38,-2.44 L 1.33,-2.54 L 1.27,-2.63 L 1.20,-2.72 L 1.12,-2.81 L 1.04,-2.89 L 0.95,-2.96 L 0.86,-3.03 L 0.76,-3.09 L 0.66,-3.14 L 0.56,-3.18 L 0.45,-3.22 L 0.34,-3.25 L 0.23,-3.27 L 0.11,-3.28 L 0.00,-3.29 L 0.11,-3.21 L 0.21,-3.13 L 0.31,-3.04 L 0.40,-2.95 L 0.48,-2.85 L 0.56,-2.74 L 0.63,-2.63 L 0.70,-2.51 L 0.75,-2.40 L 0.80,-2.27 L 0.84,-2.15 L 0.87,-2.02 L 0.90,-1.89 L 0.91,-1.76 L 0.92,-1.63 L 0.91,-1.50 L 0.90,-1.37 L 0.88,-1.24 L 0.86,-1.11 L 0.82,-0.98 L 0.78,-0.86 L 0.72,-0.74 L 1.13,0.00 L 1.95,0.00 L 1.95,-0.50 L 1.31,-0.91 Z" stroke-width="0.12" />
    <path class="f0 sBLACK" d="M 1.33,-0.95 L 1.39,-1.05 L 1.43,-1.15 L 1.47,-1.25 L 1.50,-1.36 L 1.53,-1.47 L 1.54,-1.58 L 1.55,-1.69 L 1.55,-1.80 L 1.54,-1.91 L 1.52,-2.02 L 1.50,-2.13 L 1.47,-2.24 L 1.43,-2.34 L 1.38,-2.44 L 1.33,-2.54 L 1.27,-2.63 L 1.20,-2.72 L 1.12,-2.80 L 1.05,-2.88 L 0.96,-2.95 L 0.87,-3.02 L 0.78,-3.08 L 0.68,-3.13 L 0.58,-3.18 L 0.47,-3.21 L 0.36,-3.24 L 0.26,-3.27 L 0.14,-3.28 L 0.03,-3.29 L -0.08,-3.29 L -0.19,-3.28 L -0.30,-3.26 L -0.41,-3.23 L -0.51,-3.20 L -0.62,-3.16 L -0.72,-3.11 L -0.81,-3.06 L -0.91,-2.99 L -0.99,-2.93 L -1.08,-2.85 L -1.15,-2.77 L -1.23,-2.69 L -1.29,-2.60 L -1.35,-2.50 L -1.40,-2.40 L -1.44,-2.30 L -1.48,-2.19 L -1.51,-2.09 L -1.53,-1.98 L -1.55,-1.87 L -1.55,-1.76 L -1.55,-1.64 L -1.54,-1.53 L -1.52,-1.42 L -1.49,-1.32 L -1.46,-1.21 L -1.42,-1.11 L -1.37,-1.01 L -1.31,-0.91 " stroke-width="0.12" />
    <path class="f0 sMIDRD" d="M 0.72,-0.74 L 1.13,0.00 " stroke-width="0.12" />
    <path class="f0 sMIDRD" d="M 0.00,-3.29 L 0.11,-3.21 L 0.21,-3.13 L 0.31,-3.04 L 0.40,-2.95 L 0.48,-2.85 L 0.56,-2.74 L 0.63,-2.63 L 0.70,-2.51 L 0.75,-2.40 L 0.80,-2.27 L 0.84,-2.15 L 0.87,-2.02 L 0.90,-1.89 L 0.91,-1.76 L 0.92,-1.63 L 0.91,-1.50 L 0.90,-1.37 L 0.88,-1.24 L 0.86,-1.11 L 0.82,-0.98 L 0.78,-0.86 L 0.72,-0.74 " stroke-width="0.12" />
    <path class="f0 sBLACK" d="M -1.31,-0.91 L -1.37,-1.01 L -1.42,-1.11 L -1.46,-1.21 L -1.49,-1.32 L -1.52,-1.43 L -1.54,-1.54 L -1.55,-1.65 L -1.55,-1.76 L -1.54,-1.87 L -1.53,-1.99 L -1.51,-2.09 L -1.48,-2.20 L -1.44,-2.31 L -1.40,-2.41 L -1.34,-2.51 L -1.28,-2.61 L -1.22,-2.70 L -1.15,-2.78 L -1.07,-2.86 L -0.98,-2.94 L -0.89,-3.00 L -0.80,-3.06 L -0.70,-3.12 L -0.60,-3.17 L -0.50,-3.21 L -0.39,-3.24 L -0.28,-3.26 L -0.17,-3.28 L -0.06,-3.29 L 0.06,-3.29 L 0.17,-3.28 L 0.28,-3.26 L 0.39,-3.24 L 0.50,-3.21 L 0.60,-3.17 L 0.70,-3.12 L 0.80,-3.06 L 0.89,-3.00 L 0.98,-2.94 L 1.07,-2.86 L 1.15,-2.78 L 1.22,-2.70 L 1.28,-2.61 L 1.34,-2.51 L 1.40,-2.41 L 1.44,-2.31 L 1.48,-2.20 L 1.51,-2.09 L 1.53,-1.99 L 1.54,-1.87 L 1.55,-1.76 L 1.55,-1.65 L 1.54,-1.54 L 1.52,-1.43 L 1.49,-1.32 L 1.46,-1.21 L 1.42,-1.11 L 1.37,-1.01 L 1.31,-0.91 " stroke-width="0.12" />
    <path class="f0 sBLACK" d="M -1.31,-0.91 L -1.95,-0.50 L -1.95,0.00 L 1.95,0.00 L 1.95,-0.50 L 1.31,-0.91 " stroke-width="0.12" />
    <circle class="pivotPoint layout" fill="none" cx="0" cy="0" r="0.2" />
  </g>
</svg>