<?xml version="1.0" encoding="UTF-8"?>
<?xml-stylesheet type='text/css' href='S401Style.css'?>
<svg version="1.2" baseProfile="tiny" width="3.90mm" height="3.29mm" viewBox="-1.96 -3.30 3.92 3.31" xmlns="http://www.w3.org/2000/svg">
  <title>BOYSFW01</title>
  <desc>Buoy safe water</desc>
  <metadata />
  <g>
    <path class="fORRED sORRED" d="M -1.26,-0.95 L -1.95,-0.50 L -1.95,0.00 L 1.95,0.00 L 1.95,-0.50 L 1.33,-0.95 L 1.39,-1.04 L 1.44,-1.14 L 1.48,-1.25 L 1.51,-1.35 L 1.54,-1.46 L 1.56,-1.57 L 1.57,-1.68 L 1.57,-1.79 L 1.56,-1.90 L 1.55,-2.01 L 1.53,-2.12 L 1.50,-2.22 L 1.46,-2.33 L 1.41,-2.43 L 1.36,-2.52 L 1.30,-2.62 L 1.24,-2.71 L 1.17,-2.79 L 1.09,-2.87 L 1.01,-2.94 L 0.92,-3.01 L 0.83,-3.07 L 0.73,-3.12 L 0.63,-3.17 L 0.53,-3.21 L 0.42,-3.24 L 0.31,-3.26 L 0.20,-3.28 L 0.09,-3.29 L -0.02,-3.29 L -0.13,-3.28 L -0.24,-3.26 L -0.35,-3.24 L -0.45,-3.21 L -0.55,-3.17 L -0.65,-3.12 L -0.75,-3.07 L -0.84,-3.01 L -0.93,-2.94 L -1.01,-2.87 L -1.09,-2.79 L -1.16,-2.70 L -1.23,-2.62 L -1.29,-2.52 L -1.34,-2.42 L -1.38,-2.32 L -1.42,-2.22 L -1.45,-2.11 L -1.47,-2.00 L -1.48,-1.90 L -1.49,-1.79 L -1.49,-1.67 L -1.48,-1.56 L -1.46,-1.46 L -1.43,-1.35 L -1.40,-1.24 L -1.36,-1.14 L -1.31,-1.04 L -1.26,-0.95 Z" stroke-width="0.04" />
    <path class="fWHITE sWHITE" d="M -0.89,0.00 L -0.89,-2.98 L -0.97,-2.90 L -1.06,-2.83 L -1.13,-2.74 L -1.20,-2.65 L -1.27,-2.56 L -1.32,-2.46 L -1.37,-2.36 L -1.41,-2.25 L -1.44,-2.14 L -1.47,-2.03 L -1.48,-1.92 L -1.49,-1.81 L -1.49,-1.69 L -1.48,-1.58 L -1.46,-1.47 L -1.44,-1.36 L -1.40,-1.25 L -1.36,-1.15 L -1.31,-1.04 L -1.26,-0.95 L -1.95,-0.50 L -1.95,0.00 L -0.89,0.00 Z" stroke-width="0.04" />
    <path class="fWHITE sWHITE" d="M 0.90,0.00 L 0.90,-3.02 L 0.80,-3.08 L 0.70,-3.14 L 0.59,-3.19 L 0.47,-3.23 L 0.36,-3.26 L 0.24,-3.28 L 0.12,-3.29 L 0.00,-3.29 L 0.00,0.00 L 0.90,0.00 Z" stroke-width="0.04" />
    <path class="f0 sBLACK" d="M -1.26,-0.95 L -1.31,-1.04 L -1.36,-1.14 L -1.40,-1.24 L -1.43,-1.35 L -1.46,-1.46 L -1.48,-1.56 L -1.49,-1.67 L -1.49,-1.79 L -1.48,-1.90 L -1.47,-2.00 L -1.45,-2.11 L -1.42,-2.22 L -1.38,-2.32 L -1.34,-2.42 L -1.29,-2.52 L -1.23,-2.62 L -1.16,-2.70 L -1.09,-2.79 L -1.01,-2.87 L -0.93,-2.94 L -0.84,-3.01 L -0.75,-3.07 L -0.65,-3.12 L -0.55,-3.17 L -0.45,-3.21 L -0.35,-3.24 L -0.24,-3.26 L -0.13,-3.28 L -0.02,-3.29 L 0.09,-3.29 L 0.20,-3.28 L 0.31,-3.26 L 0.42,-3.24 L 0.53,-3.21 L 0.63,-3.17 L 0.73,-3.12 L 0.83,-3.07 L 0.92,-3.01 L 1.01,-2.94 L 1.09,-2.87 L 1.17,-2.79 L 1.24,-2.71 L 1.30,-2.62 L 1.36,-2.52 L 1.41,-2.43 L 1.46,-2.33 L 1.50,-2.22 L 1.53,-2.12 L 1.55,-2.01 L 1.56,-1.90 L 1.57,-1.79 L 1.57,-1.68 L 1.56,-1.57 L 1.54,-1.46 L 1.51,-1.35 L 1.48,-1.25 L 1.44,-1.14 L 1.39,-1.04 L 1.33,-0.95 " stroke-width="0.12" />
    <path class="f0 sBLACK" d="M -1.26,-0.95 L -1.95,-0.50 L -1.95,0.00 L 1.95,0.00 L 1.95,-0.50 L 1.33,-0.95 " stroke-width="0.12" />
    <circle class="pivotPoint layout" fill="none" cx="0" cy="0" r="0.2" />
  </g>
</svg>