<?xml version="1.0" encoding="UTF-8"?>
<?xml-stylesheet type='text/css' href='svgStyle.css'?>
<svg version="1.2" baseProfile="tiny" width="2.97mm" height="3.59mm" viewBox="-1.33 -1.81 2.99 3.61" xmlns="http://www.w3.org/2000/svg">
  <title>BUNSTA01</title>
  <desc>bunker station, diesel oil station</desc>
  <metadata />
  <g>
    <path class="fLITGY sBLACK" d="M 1.08,0.18 L 1.08,-0.27 L 1.31,-0.47 L 1.31,-1.80 L -1.32,-1.80 L -1.32,-0.47 L -1.09,-0.27 L -1.09,1.79 L 1.08,1.79 L 1.08,1.50 L 1.08,0.18 Z" stroke-width="0.16" />
    <path class="fBLACK sBLACK" d="M 1.57,-0.24 L 1.31,-0.47 L 1.08,-0.27 L 1.08,0.18 L 1.34,-0.04 L 1.57,-0.24 Z" stroke-width="0.16" />
    <path class="f0 sBLACK" d="M 1.08,1.50 L 1.40,1.50 L 1.65,1.25 L 1.65,0.24 L 1.34,-0.04 " stroke-width="0.16" />
    <path class="fLITGY sBLACK" d="M -0.84,-1.19 L -0.84,-0.84 L -0.71,-0.72 L 0.67,-0.72 L 0.80,-0.84 L 0.80,-1.19 L 0.67,-1.30 L -0.71,-1.30 L -0.84,-1.19 Z" stroke-width="0.16" />
    <circle class="pivotPoint layout" fill="none" cx="0" cy="0" r="0.2" />
  </g>
</svg>