<?xml version="1.0" encoding="UTF-8"?>
<?xml-stylesheet type='text/css' href='svgStyle.css'?>
<svg version="1.2" baseProfile="tiny" width="7.00mm" height="7.00mm" viewBox="-3.51 -3.51 7.02 7.02" xmlns="http://www.w3.org/2000/svg">
  <title>BUNSTA04a</title>
  <desc>Power supply</desc>
  <metadata />
  <g>
    <circle cx="0.00" cy="0.00" r="3.50" class="fLITGY sBLACK" stroke-width="0.12" />
    <path class="fBLACK sBLACK" d="M -2.28,-0.94 L -1.02,-0.94 L -1.02,-0.35 L -2.28,-0.35 L -2.28,-0.94 Z" stroke-width="0.04" />
    <path class="fBLACK sBLACK" d="M -2.28,0.37 L -1.02,0.37 L -1.02,0.96 L -2.28,0.96 L -2.28,0.37 Z" stroke-width="0.04" />
    <path class="fBLACK sBLACK" d="M -1.02,-1.44 L 0.08,-1.44 L 0.08,1.47 L -1.02,1.47 L -1.02,-1.44 Z" stroke-width="0.04" />
    <path class="fBLACK sBLACK" d="M 1.54,-0.37 L 2.62,-0.37 L 2.62,0.45 L 1.54,0.45 L 1.54,-0.37 Z" stroke-width="0.04" />
    <path class="fBLACK sBLACK" d="M 0.08,-1.15 L 0.08,1.18 L 0.44,1.15 L 0.75,1.11 L 1.40,1.11 L 1.46,1.07 L 1.54,0.94 L 1.54,-0.87 L 1.50,-0.95 L 1.45,-1.02 L 1.38,-1.05 L 0.68,-1.07 L 0.39,-1.12 L 0.08,-1.15 Z" stroke-width="0.04" />
    <circle class="pivotPoint layout" fill="none" cx="0" cy="0" r="0.2" />
  </g>
</svg>