<?xml version="1.0" encoding="UTF-8"?>
<?xml-stylesheet type='text/css' href='svgStyle.css'?>
<svg version="1.2" baseProfile="tiny" width="6.10mm" height="8.70mm" viewBox="-3.04 -5.41 6.12 8.72" xmlns="http://www.w3.org/2000/svg">
  <title>DFND02V</title>
  <desc>buoy berth left-hand side - virtual</desc>
  <metadata />
  <g>
    <path class="fBLACK sBLACK" d="M -0.98,-3.62 L 0.02,-5.05 L 1.01,-3.64 L 1.17,-3.76 L 0.02,-5.40 L -1.15,-3.74 L -0.98,-3.62 Z" stroke-width="0.04" />
    <path class="fBLACK sBLACK" d="M -0.98,-3.62 L 0.02,-5.05 L 1.01,-3.64 L 1.17,-3.76 L 0.02,-5.40 L -1.15,-3.74 L -0.98,-3.62 Z" stroke-width="0.04" />
    <path class="fBLACK sBLACK" d="M -1.81,0.34 L -2.78,-1.04 L -1.86,-2.37 L -2.02,-2.48 L -3.03,-1.04 L -1.98,0.45 L -1.81,0.34 Z" stroke-width="0.04" />
    <path class="fBLACK sBLACK" d="M 2.10,-2.43 L 3.07,-1.04 L 1.96,0.55 L 1.79,0.43 L 2.83,-1.04 L 1.94,-2.32 L 2.10,-2.43 Z" stroke-width="0.04" />
    <path class="fBLACK sBLACK" d="M 1.13,1.72 L 0.02,3.30 L -1.04,1.80 L -0.87,1.68 L 0.02,2.95 L 0.96,1.60 L 1.13,1.72 Z" stroke-width="0.04" />
    <path class="fMIDGN sBLACK" d="M -1.92,-0.10 L 1.95,-0.10 L 1.95,-0.77 L 1.47,-0.77 L 0.02,-3.45 L -1.44,-0.77 L -1.92,-0.77 L -1.92,-0.10 Z" stroke-width="0.12" />
    <path class="fWHITE sWHITE" d="M -0.43,-2.01 L -0.43,-0.45 L -0.15,-0.45 L -0.15,-2.01 L -0.43,-2.01 Z" stroke-width="0.04" />
    <path class="fWHITE sWHITE" d="M -0.15,-2.01 L 0.14,-2.01 L 0.21,-2.00 L 0.26,-2.00 L 0.30,-1.99 L 0.34,-1.98 L 0.38,-1.97 L 0.43,-1.94 L 0.47,-1.91 L 0.53,-1.85 L 0.57,-1.77 L 0.60,-1.68 L 0.61,-1.55 L 0.61,-1.45 L 0.60,-1.38 L 0.58,-1.30 L 0.55,-1.24 L 0.51,-1.19 L 0.45,-1.13 L 0.39,-1.10 L 0.32,-1.06 L 0.24,-1.05 L 0.17,-1.04 L 0.11,-1.04 L -0.15,-1.04 L -0.15,-1.30 L -0.03,-1.30 L 0.09,-1.30 L 0.17,-1.31 L 0.22,-1.33 L 0.26,-1.36 L 0.30,-1.40 L 0.32,-1.44 L 0.33,-1.49 L 0.33,-1.54 L 0.32,-1.59 L 0.31,-1.62 L 0.29,-1.66 L 0.27,-1.69 L 0.24,-1.71 L 0.21,-1.72 L 0.18,-1.73 L 0.13,-1.74 L 0.05,-1.74 L -0.15,-1.75 L -0.15,-2.01 Z" stroke-width="0.04" />
    <circle class="pivotPoint layout" fill="none" cx="0" cy="0" r="0.2" />
  </g>
</svg>