<?xml version="1.0" encoding="UTF-8"?>
<?xml-stylesheet type='text/css' href='S401Style.css'?>
<svg version="1.2" baseProfile="tiny" width="6.10mm" height="8.68mm" viewBox="-3.04 -5.41 6.12 8.70" xmlns="http://www.w3.org/2000/svg">
  <title>DFND02M</title>
  <desc>buoy berth left-hand side - off position - missing - text area -d</desc>
  <metadata />
  <g>
    <path class="fBLACK sBLACK" d="M 0.03,1.48 L -0.01,1.45 L -0.05,1.42 L -0.09,1.40 L -0.14,1.38 L -0.20,1.36 L -0.26,1.35 L -0.32,1.34 L -0.39,1.34 L -0.43,1.34 L -0.47,1.35 L -0.51,1.35 L -0.55,1.36 L -0.59,1.37 L -0.63,1.39 L -0.66,1.40 L -0.70,1.42 L -0.73,1.44 L -0.77,1.46 L -0.80,1.49 L -0.83,1.52 L -0.86,1.54 L -0.88,1.58 L -0.91,1.61 L -0.93,1.64 L -0.93,1.38 L -1.23,1.38 L -1.23,3.28 L -0.92,3.28 L -0.92,2.16 L -0.91,2.11 L -0.91,2.06 L -0.91,2.03 L -0.90,1.99 L -0.89,1.95 L -0.88,1.92 L -0.86,1.88 L -0.85,1.85 L -0.83,1.81 L -0.81,1.78 L -0.77,1.75 L -0.73,1.71 L -0.69,1.68 L -0.65,1.66 L -0.60,1.64 L -0.55,1.63 L -0.50,1.62 L -0.45,1.62 L -0.40,1.62 L -0.37,1.62 L -0.33,1.63 L -0.30,1.65 L -0.26,1.66 L -0.23,1.69 L -0.20,1.71 L 0.03,1.48 Z" stroke-width="0.04" />
    <path class="fBLACK sBLACK" d="M 0.03,1.48 L -0.01,1.45 L -0.05,1.42 L -0.09,1.40 L -0.14,1.38 L -0.20,1.36 L -0.26,1.35 L -0.32,1.34 L -0.39,1.34 L -0.43,1.34 L -0.47,1.35 L -0.51,1.35 L -0.55,1.36 L -0.59,1.37 L -0.63,1.39 L -0.66,1.40 L -0.70,1.42 L -0.73,1.44 L -0.77,1.46 L -0.80,1.49 L -0.83,1.52 L -0.86,1.54 L -0.88,1.58 L -0.91,1.61 L -0.93,1.64 L -0.93,1.38 L -1.23,1.38 L -1.23,3.28 L -0.92,3.28 L -0.92,2.16 L -0.91,2.11 L -0.91,2.06 L -0.91,2.03 L -0.90,1.99 L -0.89,1.95 L -0.88,1.92 L -0.86,1.88 L -0.85,1.85 L -0.83,1.81 L -0.81,1.78 L -0.77,1.75 L -0.73,1.71 L -0.69,1.68 L -0.65,1.66 L -0.60,1.64 L -0.55,1.63 L -0.50,1.62 L -0.45,1.62 L -0.40,1.62 L -0.37,1.62 L -0.33,1.63 L -0.30,1.65 L -0.26,1.66 L -0.23,1.69 L -0.20,1.71 L 0.03,1.48 Z" stroke-width="0.04" />
    <path class="fBLACK sBLACK" d="M 0.03,1.48 L -0.01,1.45 L -0.05,1.42 L -0.09,1.40 L -0.14,1.38 L -0.20,1.36 L -0.26,1.35 L -0.32,1.34 L -0.39,1.34 L -0.43,1.34 L -0.47,1.35 L -0.51,1.35 L -0.55,1.36 L -0.59,1.37 L -0.63,1.39 L -0.66,1.40 L -0.70,1.42 L -0.73,1.44 L -0.77,1.46 L -0.80,1.49 L -0.83,1.52 L -0.86,1.54 L -0.88,1.58 L -0.91,1.61 L -0.93,1.64 L -0.93,1.38 L -1.23,1.38 L -1.23,3.28 L -0.92,3.28 L -0.92,2.16 L -0.91,2.11 L -0.91,2.06 L -0.91,2.03 L -0.90,1.99 L -0.89,1.95 L -0.88,1.92 L -0.86,1.88 L -0.85,1.85 L -0.83,1.81 L -0.81,1.78 L -0.77,1.75 L -0.73,1.71 L -0.69,1.68 L -0.65,1.66 L -0.60,1.64 L -0.55,1.63 L -0.50,1.62 L -0.45,1.62 L -0.40,1.62 L -0.37,1.62 L -0.33,1.63 L -0.30,1.65 L -0.26,1.66 L -0.23,1.69 L -0.20,1.71 L 0.03,1.48 Z" stroke-width="0.04" />
    <path class="fBLACK sBLACK" d="M -0.24,1.68 L -0.21,1.71 L -0.20,1.74 L -0.17,1.79 L -0.16,1.85 L -0.15,1.91 L -0.15,1.97 L -0.15,3.25 L 0.18,3.25 L 0.18,2.13 L 0.18,2.08 L 0.18,2.03 L 0.19,1.98 L 0.20,1.93 L 0.21,1.89 L 0.22,1.86 L 0.23,1.83 L 0.25,1.79 L 0.27,1.76 L 0.29,1.74 L 0.31,1.71 L 0.34,1.68 L 0.37,1.66 L 0.41,1.64 L 0.44,1.62 L 0.48,1.61 L 0.52,1.60 L 0.56,1.59 L 0.60,1.59 L 0.64,1.59 L 0.69,1.59 L 0.74,1.60 L 0.79,1.61 L 0.83,1.64 L 0.86,1.65 L 0.88,1.67 L 0.90,1.69 L 0.92,1.72 L 0.93,1.74 L 0.94,1.77 L 0.95,1.79 L 0.96,1.82 L 0.97,1.89 L 0.97,1.95 L 0.97,2.02 L 0.97,2.08 L 0.97,3.25 L 1.29,3.25 L 1.29,2.11 L 1.29,2.02 L 1.29,1.93 L 1.28,1.84 L 1.28,1.75 L 1.27,1.71 L 1.26,1.68 L 1.25,1.64 L 1.24,1.61 L 1.23,1.58 L 1.21,1.55 L 1.19,1.52 L 1.17,1.50 L 1.15,1.47 L 1.12,1.45 L 1.10,1.42 L 1.07,1.40 L 1.04,1.38 L 1.01,1.37 L 0.98,1.35 L 0.95,1.34 L 0.88,1.32 L 0.82,1.31 L 0.75,1.31 L 0.69,1.31 L 0.65,1.31 L 0.60,1.31 L 0.56,1.31 L 0.52,1.32 L 0.48,1.33 L 0.44,1.35 L 0.40,1.36 L 0.36,1.38 L 0.33,1.40 L 0.29,1.42 L 0.26,1.45 L 0.22,1.47 L 0.19,1.50 L 0.16,1.53 L 0.14,1.56 L 0.11,1.60 L 0.09,1.55 L 0.06,1.52 L 0.03,1.48 L -0.01,1.44 L -0.24,1.68 Z" stroke-width="0.04" />
    <path class="fBLACK sBLACK" d="M -1.01,-3.58 L 0.02,-5.05 L 1.04,-3.60 L 1.20,-3.71 L 0.02,-5.40 L -1.17,-3.69 L -1.01,-3.58 Z" stroke-width="0.04" />
    <path class="fBLACK sBLACK" d="M -1.98,0.45 L -1.82,0.33 L -2.79,-1.05 L -1.86,-2.37 L -2.02,-2.49 L -3.03,-1.05 L -1.98,0.45 Z" stroke-width="0.04" />
    <path class="fBLACK sBLACK" d="M 2.10,-2.43 L 3.07,-1.05 L 1.96,0.54 L 1.79,0.42 L 2.82,-1.05 L 1.93,-2.32 L 2.10,-2.43 Z" stroke-width="0.04" />
    <path class="fMIDGN sBLACK" d="M -1.92,-0.10 L 1.95,-0.10 L 1.95,-0.77 L 1.47,-0.77 L 0.02,-3.45 L -1.44,-0.77 L -1.92,-0.77 L -1.92,-0.10 Z" stroke-width="0.12" />
    <path class="fWHITE sWHITE" d="M -0.43,-2.01 L -0.43,-0.45 L -0.15,-0.45 L -0.15,-2.01 L -0.43,-2.01 Z" stroke-width="0.04" />
    <path class="fWHITE sWHITE" d="M -0.15,-2.01 L 0.14,-2.01 L 0.21,-2.00 L 0.26,-2.00 L 0.30,-1.99 L 0.34,-1.98 L 0.38,-1.97 L 0.43,-1.94 L 0.47,-1.91 L 0.53,-1.85 L 0.57,-1.77 L 0.60,-1.68 L 0.61,-1.55 L 0.61,-1.45 L 0.60,-1.38 L 0.58,-1.30 L 0.55,-1.24 L 0.51,-1.19 L 0.45,-1.13 L 0.39,-1.10 L 0.32,-1.06 L 0.24,-1.05 L 0.17,-1.04 L 0.11,-1.04 L -0.15,-1.04 L -0.15,-1.30 L -0.03,-1.30 L 0.09,-1.30 L 0.17,-1.31 L 0.22,-1.33 L 0.26,-1.36 L 0.30,-1.40 L 0.32,-1.44 L 0.33,-1.49 L 0.33,-1.54 L 0.32,-1.59 L 0.31,-1.62 L 0.29,-1.66 L 0.27,-1.69 L 0.24,-1.71 L 0.21,-1.72 L 0.18,-1.73 L 0.13,-1.74 L 0.05,-1.74 L -0.15,-1.75 L -0.15,-2.01 Z" stroke-width="0.04" />
    <circle class="pivotPoint layout" fill="none" cx="0" cy="0" r="0.2" />
  </g>
</svg>