<?xml version="1.0" encoding="UTF-8"?>
<?xml-stylesheet type='text/css' href='svgStyle.css'?>
<svg version="1.2" baseProfile="tiny" width="6.10mm" height="8.70mm" viewBox="-3.04 -5.41 6.12 8.72" xmlns="http://www.w3.org/2000/svg">
  <title>DFND01F</title>
  <desc>buoy berth right-hand side - off position - text area -d</desc>
  <metadata />
  <g>
    <path class="fORRED sBLACK" d="M -1.96,-0.15 L -1.96,-0.76 L -1.28,-1.09 L -1.28,-2.53 L 1.24,-2.53 L 1.24,-1.09 L 1.92,-0.76 L 1.92,-0.15 L -1.96,-0.15 Z" stroke-width="0.12" />
    <path class="fBLACK sBLACK" d="M 0.54,2.38 L 0.54,2.43 L 0.53,2.48 L 0.53,2.54 L 0.52,2.59 L 0.50,2.64 L 0.49,2.69 L 0.47,2.74 L 0.45,2.77 L 0.44,2.80 L 0.42,2.83 L 0.39,2.86 L 0.37,2.89 L 0.34,2.91 L 0.32,2.93 L 0.29,2.95 L 0.26,2.97 L 0.23,2.99 L 0.19,3.00 L 0.16,3.01 L 0.12,3.02 L 0.09,3.02 L 0.05,3.02 L 0.02,3.02 L -0.02,3.02 L -0.05,3.02 L -0.09,3.02 L -0.12,3.01 L -0.16,3.00 L -0.19,2.99 L -0.22,2.97 L -0.25,2.95 L -0.28,2.93 L -0.31,2.91 L -0.34,2.89 L -0.36,2.86 L -0.38,2.83 L -0.40,2.80 L -0.42,2.77 L -0.44,2.74 L -0.46,2.69 L -0.47,2.64 L -0.49,2.59 L -0.50,2.53 L -0.50,2.48 L -0.51,2.43 L -0.82,2.43 L -0.82,2.54 L -0.80,2.63 L -0.78,2.71 L -0.75,2.79 L -0.72,2.87 L -0.69,2.93 L -0.65,2.99 L -0.61,3.04 L -0.56,3.09 L -0.51,3.13 L -0.45,3.17 L -0.40,3.21 L -0.34,3.24 L -0.29,3.25 L -0.25,3.27 L -0.21,3.28 L -0.16,3.29 L -0.12,3.29 L -0.07,3.30 L -0.03,3.30 L 0.02,3.30 L 0.07,3.30 L 0.12,3.29 L 0.17,3.29 L 0.22,3.28 L 0.26,3.27 L 0.30,3.26 L 0.34,3.25 L 0.38,3.23 L 0.41,3.21 L 0.45,3.19 L 0.49,3.17 L 0.52,3.15 L 0.57,3.10 L 0.62,3.06 L 0.66,3.00 L 0.70,2.95 L 0.74,2.89 L 0.77,2.83 L 0.79,2.77 L 0.81,2.70 L 0.83,2.61 L 0.84,2.52 L 0.85,2.42 L 0.54,2.38 Z" stroke-width="0.04" />
    <path class="fBLACK sBLACK" d="M 0.02,1.35 L -0.03,1.35 L -0.07,1.35 L -0.12,1.36 L -0.16,1.36 L -0.21,1.37 L -0.25,1.38 L -0.29,1.40 L -0.34,1.41 L -0.38,1.43 L -0.42,1.45 L -0.45,1.48 L -0.49,1.50 L -0.53,1.53 L -0.56,1.56 L -0.59,1.59 L -0.62,1.63 L -0.65,1.66 L -0.68,1.70 L -0.70,1.74 L -0.72,1.78 L -0.74,1.82 L -0.76,1.86 L -0.77,1.90 L -0.78,1.95 L -0.80,2.04 L -0.82,2.13 L -0.83,2.23 L -0.83,2.32 L -0.82,2.43 L -0.51,2.43 L -0.51,2.38 L -0.51,2.32 L -0.51,2.27 L -0.51,2.22 L -0.50,2.16 L -0.50,2.11 L -0.49,2.06 L -0.47,2.01 L -0.46,1.96 L -0.44,1.91 L -0.42,1.88 L -0.40,1.85 L -0.38,1.82 L -0.36,1.79 L -0.34,1.76 L -0.31,1.74 L -0.28,1.72 L -0.25,1.70 L -0.22,1.68 L -0.19,1.66 L -0.16,1.65 L -0.12,1.64 L -0.09,1.63 L -0.05,1.63 L -0.02,1.62 L 0.02,1.62 L 0.02,1.35 Z" stroke-width="0.04" />
    <path class="fBLACK sBLACK" d="M 0.02,1.62 L 0.05,1.62 L 0.09,1.63 L 0.12,1.63 L 0.16,1.64 L 0.19,1.65 L 0.23,1.66 L 0.26,1.68 L 0.29,1.70 L 0.32,1.72 L 0.34,1.74 L 0.37,1.76 L 0.39,1.79 L 0.42,1.82 L 0.43,1.85 L 0.45,1.88 L 0.47,1.91 L 0.49,1.96 L 0.50,2.01 L 0.52,2.06 L 0.53,2.11 L 0.53,2.16 L 0.54,2.22 L 0.54,2.27 L 0.54,2.32 L 0.54,2.38 L 0.85,2.42 L 0.85,2.33 L 0.85,2.22 L 0.84,2.11 L 0.83,2.02 L 0.81,1.94 L 0.78,1.86 L 0.74,1.78 L 0.71,1.72 L 0.68,1.66 L 0.63,1.61 L 0.59,1.56 L 0.54,1.52 L 0.48,1.48 L 0.43,1.44 L 0.37,1.41 L 0.32,1.40 L 0.28,1.38 L 0.24,1.37 L 0.19,1.36 L 0.15,1.36 L 0.11,1.35 L 0.06,1.35 L 0.02,1.35 L 0.02,1.62 Z" stroke-width="0.04" />
    <path class="fBLACK sBLACK" d="M 1.31,1.45 L 3.07,-1.05 L 0.02,-5.40 L -3.03,-1.05 L -1.27,1.46 L -1.17,1.26 L -2.79,-1.05 L 0.02,-5.06 L 2.82,-1.05 L 1.20,1.26 L 1.31,1.45 Z" stroke-width="0" />
    <path class="fWHITE sWHITE" d="M -0.51,-2.16 L -0.51,-0.52 L -0.21,-0.52 L -0.21,-2.16 L -0.51,-2.16 Z" stroke-width="0.04" />
    <path class="fWHITE sWHITE" d="M -0.21,-2.16 L 0.09,-2.16 L 0.16,-2.15 L 0.22,-2.14 L 0.26,-2.14 L 0.30,-2.13 L 0.34,-2.11 L 0.39,-2.09 L 0.44,-2.05 L 0.50,-1.99 L 0.54,-1.90 L 0.57,-1.81 L 0.59,-1.68 L 0.59,-1.57 L 0.58,-1.49 L 0.55,-1.41 L 0.52,-1.35 L 0.48,-1.30 L 0.42,-1.24 L 0.36,-1.20 L 0.28,-1.17 L 0.20,-1.15 L 0.12,-1.14 L 0.06,-1.14 L -0.21,-1.14 L -0.21,-1.42 L -0.09,-1.42 L 0.04,-1.42 L 0.12,-1.43 L 0.18,-1.45 L 0.22,-1.48 L 0.25,-1.52 L 0.28,-1.57 L 0.29,-1.62 L 0.29,-1.67 L 0.28,-1.72 L 0.27,-1.75 L 0.25,-1.79 L 0.22,-1.82 L 0.19,-1.84 L 0.16,-1.86 L 0.13,-1.87 L 0.08,-1.87 L 0.00,-1.88 L -0.21,-1.88 L -0.21,-2.16 Z" stroke-width="0.04" />
    <circle class="pivotPoint layout" fill="none" cx="0" cy="0" r="0.2" />
  </g>
</svg>