<?xml version="1.0" encoding="UTF-8"?>
<?xml-stylesheet type='text/css' href='svgStyle.css'?>
<svg version="1.2" baseProfile="tiny" width="3.79mm" height="6.30mm" viewBox="-1.91 -5.88 3.81 6.32" xmlns="http://www.w3.org/2000/svg">
  <title>HGWTMK01</title>
  <desc>high water mark</desc>
  <metadata />
  <g>
    <path class="fWHITE sBLACK" d="M -1.90,-5.87 L 1.90,-5.87 L 1.90,-2.31 L -1.90,-2.31 L -1.90,-5.87 Z" stroke-width="0.12" />
    <path class="f0 sBLACK" d="M 0.00,-2.31 L 0.00,-0.30 " stroke-width="0.12" />
    <path class="f0 sBLACK" d="M -0.83,0.00 L -0.30,0.00 " stroke-width="0.12" />
    <circle cx="0.00" cy="0.00" r="0.30" class="fWHITE sBLACK" stroke-width="0.12" />
    <path class="fBLACK sBLACK" d="M 1.07,-4.54 L 0.94,-4.54 L 0.59,-4.54 L 0.51,-4.54 L 0.45,-4.54 L 0.18,-4.54 L 0.18,-4.39 L 1.33,-4.39 L 1.33,-4.54 L 1.07,-4.54 Z" stroke-width="0.04" />
    <path class="fBLACK sBLACK" d="M 1.07,-5.33 L 0.94,-5.33 L 0.59,-5.33 L 0.51,-5.33 L 0.45,-5.33 L 0.18,-5.33 L 0.18,-5.18 L 1.33,-5.18 L 1.33,-5.33 L 1.07,-5.33 Z" stroke-width="0.04" />
    <path class="fBLACK sBLACK" d="M 0.45,-5.18 L 0.45,-4.54 L 0.51,-4.54 L 0.59,-4.54 L 0.59,-5.18 L 0.45,-5.18 Z" stroke-width="0.04" />
    <path class="fBLACK sBLACK" d="M 0.94,-5.18 L 0.94,-4.54 L 1.07,-4.54 L 1.07,-5.18 L 0.94,-5.18 Z" stroke-width="0.04" />
    <path class="fBLACK sBLACK" d="M -0.85,-4.62 L -0.19,-5.33 L -1.52,-5.33 L -0.85,-4.62 Z" stroke-width="0.04" />
    <path class="fBLACK sBLACK" d="M -1.52,-4.39 L -0.23,-4.39 L -0.23,-4.54 L -1.52,-4.54 L -1.52,-4.39 Z" stroke-width="0.04" />
    <path class="fBLACK sBLACK" d="M 0.71,-3.66 L 0.71,-3.01 L 0.77,-3.01 L 0.85,-3.01 L 0.85,-3.66 L 0.71,-3.66 Z" stroke-width="0.04" />
    <path class="fBLACK sBLACK" d="M -0.85,-3.09 L -0.19,-3.81 L -1.52,-3.81 L -0.85,-3.09 Z" stroke-width="0.04" />
    <path class="fBLACK sBLACK" d="M -1.52,-2.86 L -0.23,-2.86 L -0.23,-3.01 L -1.52,-3.01 L -1.52,-2.86 Z" stroke-width="0.04" />
    <path class="fBLACK sBLACK" d="M 0.94,-3.81 L 0.59,-3.81 L 0.51,-3.81 L 0.49,-3.81 L 0.49,-3.66 L 1.04,-3.66 L 1.04,-3.81 L 0.94,-3.81 Z" stroke-width="0.04" />
    <path class="fBLACK sBLACK" d="M 0.95,-3.01 L 0.59,-3.01 L 0.52,-3.01 L 0.50,-3.01 L 0.50,-2.86 L 1.04,-2.86 L 1.04,-3.01 L 0.95,-3.01 Z" stroke-width="0.04" />
    <path class="f0 sBLACK" d="M 0.00,0.30 L 0.00,0.43 " stroke-width="0.12" />
    <path class="f0 sBLACK" d="M 0.30,0.00 L 0.83,0.00 " stroke-width="0.12" />
    <circle class="pivotPoint layout" fill="none" cx="0" cy="0" r="0.2" />
  </g>
</svg>