<?xml version="1.0" encoding="UTF-8"?>
<?xml-stylesheet type='text/css' href='daySvgStyle.css'?>
<svg xmlns="http://www.w3.org/2000/svg" version="1.2" baseProfile="tiny" xml:space="preserve" style="shape-rendering:geometricPrecision; fill-rule:evenodd;" width="3.30mm" height="3.30mm" viewBox="-1.66 -1.66 3.32 3.32">
  <title>LIFEBUOY01</title>
  <desc>rescue station with life buoy, ring buoy, life ring or life saver</desc>
  <metadata><iho:S100SVG xmlns:iho="http://www.iho.int/SVGMetadata/5.2"><iho:Description iho:publisher="IHB" iho:creationDate="2014-06-09" iho:source="S52Preslib4.0" iho:format="S100SVG" iho:version="0.1"/></iho:S100SVG></metadata>
  
    <circle cx="0.00" cy="0.00" r="1.65" class="fWHITE sMIDRD" stroke-width="0.16" />
    <path class="fMIDRD sMIDRD" d="M -1.52,0.63 L -1.48,0.74 L -1.42,0.84 L -1.36,0.94 L -1.28,1.04 L -1.21,1.12 L -1.12,1.21 L -1.04,1.28 L -0.94,1.36 L -0.84,1.42 L -0.74,1.48 L -0.63,1.52 L -0.41,0.98 L -0.49,0.94 L -0.57,0.90 L -0.65,0.84 L -0.72,0.79 L -0.79,0.72 L -0.84,0.65 L -0.90,0.57 L -0.94,0.49 L -0.98,0.41 L -1.52,0.63 Z" stroke-width="0" />
    <path class="fMIDRD sMIDRD" d="M -1.52,0.63 L -1.48,0.74 L -1.42,0.84 L -1.36,0.94 L -1.28,1.04 L -1.21,1.12 L -1.12,1.21 L -1.04,1.28 L -0.94,1.36 L -0.84,1.42 L -0.74,1.48 L -0.63,1.52 L -0.41,0.98 L -0.49,0.94 L -0.57,0.90 L -0.65,0.84 L -0.72,0.79 L -0.79,0.72 L -0.84,0.65 L -0.90,0.57 L -0.94,0.49 L -0.98,0.41 L -1.52,0.63 Z" stroke-width="0" />
    <path class="fMIDRD sMIDRD" d="M -0.98,-0.41 L -0.94,-0.49 L -0.90,-0.57 L -0.84,-0.65 L -0.79,-0.72 L -0.72,-0.79 L -0.65,-0.84 L -0.57,-0.90 L -0.49,-0.94 L -0.41,-0.98 L -0.63,-1.52 L -0.74,-1.48 L -0.84,-1.42 L -0.94,-1.36 L -1.04,-1.28 L -1.12,-1.21 L -1.21,-1.12 L -1.28,-1.04 L -1.36,-0.94 L -1.42,-0.84 L -1.48,-0.74 L -1.52,-0.63 L -0.98,-0.41 Z" stroke-width="0" />
    <path class="fMIDRD sMIDRD" d="M 1.52,-0.63 L 1.48,-0.74 L 1.42,-0.84 L 1.36,-0.94 L 1.28,-1.04 L 1.21,-1.12 L 1.12,-1.21 L 1.04,-1.28 L 0.94,-1.36 L 0.84,-1.42 L 0.74,-1.48 L 0.63,-1.52 L 0.41,-0.98 L 0.49,-0.94 L 0.57,-0.90 L 0.65,-0.84 L 0.72,-0.79 L 0.79,-0.72 L 0.84,-0.65 L 0.90,-0.57 L 0.94,-0.49 L 0.98,-0.41 L 1.52,-0.63 Z" stroke-width="0" />
    <path class="fMIDRD sMIDRD" d="M 0.63,1.52 L 0.74,1.48 L 0.84,1.42 L 0.94,1.36 L 1.04,1.28 L 1.12,1.21 L 1.21,1.12 L 1.28,1.04 L 1.36,0.94 L 1.42,0.84 L 1.48,0.74 L 1.52,0.63 L 0.98,0.41 L 0.94,0.49 L 0.90,0.57 L 0.84,0.65 L 0.79,0.72 L 0.72,0.79 L 0.65,0.84 L 0.57,0.90 L 0.49,0.94 L 0.41,0.98 L 0.63,1.52 Z" stroke-width="0" />
    <circle cx="0.00" cy="0.00" r="1.07" class="f0 sMIDRD" stroke-width="0.16" />
    <circle class="pivotPoint layout" fill="none" cx="0" cy="0" r="0.2" />
  
</svg>