<?xml version="1.0" encoding="UTF-8"?>
<?xml-stylesheet type='text/css' href='daySvgStyle.css'?>
<svg xmlns="http://www.w3.org/2000/svg" version="1.2" baseProfile="tiny" xml:space="preserve" style="shape-rendering:geometricPrecision; fill-rule:evenodd;" width="4mm" height="4.02251mm" viewBox="0 0 1941 1952">
  
  <metadata>
    <iho:S100SVG xmlns:iho="http://www.iho.int/SVGMetadata/5.2">
      <iho:Description iho:publisher="IHB" iho:creationDate="2014-06-09" iho:source="S52Preslib4.0" iho:format="S100SVG" iho:version="0.1"/>
    </iho:S100SVG>
  </metadata>
  <circle class="fMIDRD sBLACK" cx="970" cy="976" r="942"/>
  <path class="fWHITE sBLACK" d="M1303 1856l-2 -1762c-10,-4 -24,-11 -39,-15 -20,-5 -66,-19 -96,-25 -32,-6 -39,-8 -81,-13 -39,-5 -85,-7 -115,-7 -37,0 -122,4 -155,9 -49,7 -46,12 -93,24 -37,10 -93,31 -87,24 2,-3 2,-3 2,-5l0 1770c38,13 72,26 114,35 49,11 100,19 123,21 44,5 73,7 104,5 115,-8 116,-6 245,-34 33,-8 80,-23 80,-27z"/>
 
</svg>
