<?xml version="1.0" encoding="UTF-8"?>
<?xml-stylesheet type='text/css' href='svgStyle.css'?>
<svg version="1.2" baseProfile="tiny" width="7.00mm" height="7.00mm" viewBox="-3.51 -3.51 7.02 7.02" xmlns="http://www.w3.org/2000/svg">
  <title>NMKAD008</title>
  <desc>no anchoring or trailing of anchors, cables or chains</desc>
  <metadata />
  <g>
    <path class="fMIDRD sMIDRD" d="M -3.50,3.50 L -3.50,-3.50 L 3.50,-3.50 L 3.50,3.50 L -3.50,3.50 Z" stroke-width="0.04" />
    <path class="fBLACK sBLACK" d="M -0.27,-2.00 L 0.26,-2.00 L 0.27,1.99 L -0.27,1.99 L -0.27,-2.00 Z" stroke-width="0" />
    <path class="fBLACK sBLACK" d="M 0.26,-1.14 L 1.04,-1.14 L 1.04,-0.69 L 0.26,-0.70 L 0.26,-1.14 Z" stroke-width="0.04" />
    <path class="fBLACK sBLACK" d="M -0.27,-0.70 L -1.06,-0.69 L -1.06,-1.14 L -0.27,-1.14 L -0.27,-0.70 Z" stroke-width="0.04" />
    <path class="fBLACK sBLACK" d="M 0.04,-2.03 L 0.08,-2.04 L 0.12,-2.06 L 0.16,-2.08 L 0.19,-2.11 L 0.21,-2.14 L 0.24,-2.18 L 0.25,-2.22 L 0.26,-2.26 L 0.27,-2.30 L 0.26,-2.34 L 0.25,-2.38 L 0.24,-2.42 L 0.21,-2.46 L 0.19,-2.49 L 0.15,-2.52 L 0.12,-2.54 L 0.08,-2.56 L 0.04,-2.56 L -0.01,-2.57 L -0.05,-2.56 L -0.09,-2.55 L -0.13,-2.54 L -0.16,-2.52 L -0.20,-2.49 L -0.22,-2.46 L -0.24,-2.42 L -0.26,-2.38 L -0.27,-2.34 L -0.27,-2.30 L -0.27,-2.25 L -0.26,-2.21 L -0.24,-2.17 L -0.22,-2.14 L -0.19,-2.11 L -0.16,-2.08 L -0.13,-2.06 L -0.09,-2.04 L -0.04,-2.03 L 0.04,-2.03 Z" stroke-width="0.04" />
    <path class="fBLACK sBLACK" d="M -3.50,-3.50 L -3.07,-3.50 L 3.50,3.07 L 3.50,3.50 L 3.07,3.50 L -3.50,-3.07 L -3.50,-3.50 Z" stroke-width="0" />
    <path class="fBLACK sBLACK" d="M -2.47,0.75 L -2.82,0.91 L -2.58,-0.09 L -1.70,0.41 L -2.06,0.57 L -2.01,0.69 L -1.96,0.82 L -1.89,0.93 L -1.82,1.05 L -1.75,1.16 L -1.66,1.26 L -1.57,1.36 L -1.48,1.45 L -1.37,1.54 L -1.27,1.62 L -1.16,1.69 L -1.04,1.76 L -0.92,1.82 L -0.79,1.87 L -0.67,1.91 L -0.54,1.95 L -0.41,1.97 L -0.27,1.99 L 0.27,1.99 L 0.40,1.97 L 0.53,1.94 L 0.66,1.90 L 0.79,1.86 L 0.91,1.81 L 1.03,1.75 L 1.15,1.68 L 1.26,1.60 L 1.37,1.52 L 1.47,1.43 L 1.57,1.34 L 1.66,1.24 L 1.74,1.13 L 1.82,1.02 L 1.89,0.90 L 1.95,0.78 L 2.00,0.66 L 2.05,0.53 L 1.70,0.39 L 2.55,-0.09 L 2.83,0.85 L 2.45,0.70 L 2.41,0.83 L 2.35,0.96 L 2.29,1.08 L 2.23,1.21 L 2.15,1.32 L 2.07,1.44 L 1.98,1.54 L 1.89,1.65 L 1.79,1.74 L 1.68,1.84 L 1.57,1.92 L 1.46,2.00 L 1.34,2.07 L 1.22,2.14 L 1.09,2.19 L 0.96,2.25 L 0.83,2.29 L 0.00,2.78 L -0.83,2.29 L -0.96,2.25 L -1.09,2.20 L -1.22,2.15 L -1.34,2.09 L -1.46,2.02 L -1.58,1.95 L -1.69,1.86 L -1.80,1.78 L -1.90,1.68 L -1.99,1.58 L -2.08,1.48 L -2.16,1.37 L -2.24,1.25 L -2.31,1.13 L -2.37,1.01 L -2.42,0.88 L -2.47,0.75 Z" stroke-width="0" />
    <circle class="pivotPoint layout" fill="none" cx="0" cy="0" r="0.2" />
  </g>
</svg>