<?xml version="1.0" encoding="UTF-8"?>
<?xml-stylesheet type='text/css' href='svgStyle.css'?>
<svg version="1.2" baseProfile="tiny" width="7.00mm" height="7.00mm" viewBox="-3.51 -3.51 7.02 7.02" xmlns="http://www.w3.org/2000/svg">
  <title>NMKAD106</title>
  <desc>cross river to port</desc>
  <metadata />
  <g>
    <path class="fMIDRD sMIDRD" d="M 2.94,3.50 L -2.94,3.50 L -2.94,-3.50 L 2.94,-3.50 L 2.94,3.50 Z" stroke-width="0.04" />
    <path class="fBLACK sBLACK" d="M -2.94,3.50 L -3.50,3.50 L -3.50,-3.50 L -2.94,-3.50 L -2.94,3.50 Z" stroke-width="0.04" />
    <path class="fBLACK sBLACK" d="M 3.50,3.50 L 2.94,3.50 L 2.94,-3.50 L 3.50,-3.50 L 3.50,3.50 Z" stroke-width="0.04" />
    <path class="fBLACK sBLACK" d="M -1.91,-0.91 L -1.30,-0.91 L -1.30,-0.83 L -1.29,-0.75 L -1.27,-0.67 L -1.24,-0.59 L -1.21,-0.52 L -1.17,-0.45 L -1.12,-0.39 L -1.07,-0.33 L -1.01,-0.27 L -0.94,-0.22 L -0.87,-0.18 L -0.80,-0.14 L -0.73,-0.12 L -0.65,-0.09 L -0.57,-0.08 L 0.15,0.00 L 0.27,0.00 L 0.38,0.01 L 0.50,0.03 L 0.61,0.06 L 0.72,0.10 L 0.83,0.14 L 0.94,0.19 L 1.04,0.25 L 1.14,0.31 L 1.23,0.38 L 1.32,0.46 L 1.40,0.54 L 1.48,0.63 L 1.55,0.73 L 1.61,0.82 L 1.66,0.93 L 1.71,1.03 L 1.75,1.14 L 1.79,1.26 L 1.81,1.37 L 1.83,1.48 L 1.84,1.60 L 1.84,1.72 L 1.84,2.58 L 1.22,2.58 L 1.22,1.76 L 1.22,1.67 L 1.22,1.58 L 1.21,1.49 L 1.19,1.40 L 1.16,1.31 L 1.12,1.23 L 1.08,1.15 L 1.03,1.07 L 0.98,1.00 L 0.92,0.93 L 0.85,0.87 L 0.78,0.81 L 0.70,0.76 L 0.62,0.72 L 0.54,0.68 L 0.45,0.66 L 0.36,0.64 L 0.27,0.62 L 0.18,0.62 L -0.64,0.53 L -0.74,0.51 L -0.84,0.49 L -0.94,0.46 L -1.04,0.42 L -1.14,0.37 L -1.23,0.32 L -1.32,0.26 L -1.40,0.20 L -1.48,0.13 L -1.55,0.05 L -1.61,-0.03 L -1.68,-0.12 L -1.73,-0.21 L -1.78,-0.30 L -1.82,-0.40 L -1.85,-0.49 L -1.88,-0.60 L -1.90,-0.70 L -1.91,-0.80 L -1.91,-0.91 Z" stroke-width="0.04" />
    <path class="fBLACK sBLACK" d="M -0.81,-0.91 L -2.40,-0.91 L -1.61,-2.09 L -0.81,-0.91 Z" stroke-width="0.04" />
    <circle class="pivotPoint layout" fill="none" cx="0" cy="0" r="0.2" />
  </g>
</svg>