<?xml version="1.0" encoding="UTF-8"?>
<?xml-stylesheet type='text/css' href='S401Style.css'?>
<svg version="1.2" baseProfile="tiny" width="6.10mm" height="8.70mm" viewBox="-3.00 -4.42 6.12 8.72" xmlns="http://www.w3.org/2000/svg">
  <title>NMKPRH11V</title>
  <desc>do not create wash likely to cause damage (A.9) - virtual</desc>
  <metadata />
  <g>
    <path class="fBLACK sBLACK" d="M -0.95,-2.63 L 0.05,-4.06 L 1.04,-2.65 L 1.21,-2.77 L 0.05,-4.41 L -1.11,-2.75 L -0.95,-2.63 Z" stroke-width="0.04" />
    <path class="fBLACK sBLACK" d="M -1.78,1.33 L -2.75,-0.05 L -1.82,-1.38 L -1.98,-1.49 L -2.99,-0.05 L -1.94,1.44 L -1.78,1.33 Z" stroke-width="0.04" />
    <path class="fBLACK sBLACK" d="M 2.14,-1.44 L 3.11,-0.05 L 1.99,1.54 L 1.83,1.42 L 2.86,-0.05 L 1.97,-1.33 L 2.14,-1.44 Z" stroke-width="0.04" />
    <path class="fBLACK sBLACK" d="M 1.16,2.71 L 0.05,4.29 L -1.00,2.79 L -0.84,2.67 L 0.05,3.94 L 1.00,2.59 L 1.16,2.71 Z" stroke-width="0.04" />
    <path class="fMIDRD sBLACK" d="M -1.47,1.44 L -1.47,-1.55 L 1.53,-1.55 L 1.53,1.44 L -1.47,1.44 Z" stroke-width="0.12" />
    <path class="fWHITE sWHITE" d="M 1.11,0.72 L 1.11,-1.13 L -0.73,-1.13 L 1.11,0.72 Z" stroke-width="0.04" />
    <path class="fWHITE sWHITE" d="M -1.05,-0.83 L -1.05,1.04 L 0.81,1.04 L -1.05,-0.83 Z" stroke-width="0.04" />
    <path class="fBLACK sBLACK" d="M -1.05,-0.50 L -0.84,-0.39 L -0.70,-0.33 L -0.58,-0.36 L -0.42,-0.46 L -0.28,-0.55 L -0.15,-0.60 L 0.00,-0.63 L 0.20,-0.62 L 0.37,-0.54 L 0.55,-0.43 L 0.70,-0.34 L 0.83,-0.34 L 0.99,-0.41 L 1.11,-0.49 L 1.11,-0.21 L 1.11,-0.21 L 0.98,-0.12 L 0.79,-0.07 L 0.65,-0.09 L 0.44,-0.22 L 0.28,-0.32 L 0.14,-0.38 L -0.02,-0.38 L -0.17,-0.34 L -0.30,-0.25 L -0.55,-0.11 L -0.71,-0.09 L -0.94,-0.17 L -1.05,-0.23 L -1.05,-0.50 Z" stroke-width="0.04" />
    <path class="fBLACK sBLACK" d="M -1.05,0.13 L -0.84,0.24 L -0.71,0.28 L -0.57,0.25 L -0.42,0.17 L -0.26,0.07 L -0.16,0.02 L -0.04,-0.01 L 0.16,-0.01 L 0.33,0.07 L 0.54,0.24 L 0.69,0.28 L 0.84,0.28 L 0.99,0.22 L 1.11,0.15 L 1.11,0.43 L 0.90,0.52 L 0.66,0.53 L 0.41,0.44 L 0.25,0.31 L 0.14,0.25 L -0.02,0.25 L -0.16,0.29 L -0.29,0.37 L -0.52,0.50 L -0.74,0.52 L -0.94,0.46 L -1.05,0.40 L -1.05,0.13 Z" stroke-width="0.04" />
    <circle class="pivotPoint layout" fill="none" cx="0" cy="0" r="0.2" />
  </g>
</svg>