<?xml version="1.0" encoding="UTF-8"?>
<?xml-stylesheet type='text/css' href='S401Style.css'?>
<svg version="1.2" baseProfile="tiny" width="14.69mm" height="12.76mm" viewBox="-6.38 -6.59 14.71 12.78" xmlns="http://www.w3.org/2000/svg">
  <title>NMKPRB01</title>
  <desc>empty direction circle</desc>
  <metadata />
  <g>
    <path class="fBLACK sBLACK" d="M 5.78,-2.90 L 5.87,-2.70 L 5.96,-2.49 L 6.03,-2.28 L 6.10,-2.07 L 6.16,-1.85 L 6.22,-1.64 L 6.27,-1.42 L 6.30,-1.20 L 6.34,-0.98 L 6.36,-0.76 L 6.37,-0.53 L 6.38,-0.31 L 6.38,-0.09 L 6.37,0.13 L 6.36,0.36 L 6.34,0.58 L 6.30,0.80 L 6.27,1.02 L 6.22,1.24 L 6.16,1.45 L 6.10,1.67 L 6.03,1.88 L 5.96,2.09 L 5.87,2.30 L 5.78,2.50 L 8.32,-0.20 L 5.78,-2.90 Z" stroke-width="0.04" />
    <circle cx="0.00" cy="-0.20" r="6.38" class="f0 sBLACK" stroke-width="0.24" stroke-dasharray="0.1,0.3" />
    <circle class="pivotPoint layout" fill="none" cx="0" cy="0" r="0.2" />
  </g>
</svg>