<?xml version="1.0" encoding="UTF-8"?>
<?xml-stylesheet type='text/css' href='S401Style.css'?>
<svg version="1.2" baseProfile="tiny" width="6.10mm" height="8.70mm" viewBox="-3.03 -4.39 6.12 8.72" xmlns="http://www.w3.org/2000/svg">
  <title>NMKPRH02V</title>
  <desc>no entry (A.1) - virtual</desc>
  <metadata />
  <g>
    <path class="fMIDRD sMIDRD" d="M -1.73,1.18 L 1.76,1.18 L 1.76,0.39 L -1.73,0.39 L -1.73,1.18 Z" stroke-width="0.04" />
    <path class="fWHITE sWHITE" d="M -1.73,0.39 L 1.76,0.39 L 1.76,-0.40 L -1.73,-0.40 L -1.73,0.39 Z" stroke-width="0.04" />
    <path class="fMIDRD sMIDRD" d="M -1.73,-0.40 L 1.76,-0.40 L 1.76,-1.18 L -1.73,-1.18 L -1.73,-0.40 Z" stroke-width="0.04" />
    <path class="fBLACK sBLACK" d="M -1.81,1.36 L -2.77,-0.03 L -1.85,-1.35 L -2.01,-1.46 L -3.02,-0.03 L -1.97,1.47 L -1.81,1.36 Z" stroke-width="0.04" />
    <path class="fBLACK sBLACK" d="M -0.97,-2.61 L 0.03,-4.03 L 1.01,-2.62 L 1.18,-2.74 L 0.03,-4.38 L -1.14,-2.72 L -0.97,-2.61 Z" stroke-width="0.04" />
    <path class="fBLACK sBLACK" d="M 2.11,-1.41 L 3.08,-0.03 L 1.97,1.57 L 1.80,1.45 L 2.84,-0.03 L 1.95,-1.30 L 2.11,-1.41 Z" stroke-width="0.04" />
    <path class="fBLACK sBLACK" d="M 1.14,2.74 L 0.03,4.32 L -1.03,2.81 L -0.86,2.70 L 0.03,3.97 L 0.97,2.62 L 1.14,2.74 Z" stroke-width="0.04" />
    <path class="f0 sBLACK" d="M -1.73,1.18 L -1.73,-1.18 L 1.76,-1.18 L 1.76,1.18 L -1.73,1.18 " stroke-width="0.12" />
    <circle class="pivotPoint layout" fill="none" cx="0" cy="0" r="0.2" />
  </g>
</svg>