<?xml version="1.0" encoding="UTF-8"?>
<?xml-stylesheet type='text/css' href='svgStyle.css'?>
<svg version="1.2" baseProfile="tiny" width="6.10mm" height="8.70mm" viewBox="-3.05 -5.46 6.12 8.72" xmlns="http://www.w3.org/2000/svg">
  <title>NMKPRB02F</title>
  <desc>no entry (A.1) on buoy - off position</desc>
  <metadata />
  <g>
    <path class="fBLACK sBLACK" d="M 0.52,2.34 L 0.52,2.39 L 0.51,2.44 L 0.51,2.49 L 0.50,2.55 L 0.48,2.60 L 0.47,2.65 L 0.45,2.70 L 0.43,2.73 L 0.41,2.76 L 0.40,2.79 L 0.37,2.82 L 0.35,2.85 L 0.32,2.87 L 0.30,2.89 L 0.27,2.91 L 0.24,2.93 L 0.20,2.95 L 0.17,2.96 L 0.14,2.97 L 0.10,2.98 L 0.07,2.98 L 0.03,2.98 L 0.00,2.98 L -0.04,2.98 L -0.07,2.98 L -0.11,2.98 L -0.14,2.97 L -0.18,2.96 L -0.21,2.95 L -0.24,2.93 L -0.28,2.91 L -0.30,2.89 L -0.33,2.87 L -0.36,2.84 L -0.38,2.82 L -0.41,2.79 L -0.43,2.76 L -0.44,2.73 L -0.46,2.70 L -0.48,2.65 L -0.49,2.60 L -0.51,2.55 L -0.52,2.49 L -0.52,2.44 L -0.53,2.39 L -0.85,2.39 L -0.84,2.50 L -0.82,2.59 L -0.80,2.67 L -0.77,2.75 L -0.74,2.83 L -0.71,2.89 L -0.67,2.95 L -0.63,3.00 L -0.58,3.05 L -0.53,3.09 L -0.47,3.13 L -0.42,3.17 L -0.36,3.20 L -0.31,3.21 L -0.27,3.22 L -0.23,3.24 L -0.18,3.24 L -0.14,3.25 L -0.09,3.25 L -0.05,3.26 L -0.01,3.26 L 0.04,3.26 L 0.09,3.25 L 0.14,3.25 L 0.19,3.24 L 0.24,3.23 L 0.28,3.22 L 0.32,3.21 L 0.36,3.19 L 0.39,3.17 L 0.43,3.15 L 0.47,3.13 L 0.50,3.11 L 0.55,3.06 L 0.60,3.02 L 0.64,2.96 L 0.68,2.91 L 0.72,2.85 L 0.75,2.79 L 0.77,2.73 L 0.79,2.66 L 0.81,2.57 L 0.82,2.47 L 0.83,2.38 L 0.52,2.34 Z" stroke-width="0.04" />
    <path class="fBLACK sBLACK" d="M -0.01,1.31 L -0.05,1.31 L -0.09,1.31 L -0.14,1.32 L -0.18,1.32 L -0.23,1.33 L -0.27,1.34 L -0.31,1.36 L -0.36,1.37 L -0.40,1.39 L -0.44,1.41 L -0.47,1.44 L -0.51,1.46 L -0.55,1.49 L -0.58,1.52 L -0.61,1.55 L -0.64,1.59 L -0.67,1.62 L -0.70,1.66 L -0.72,1.70 L -0.74,1.74 L -0.76,1.78 L -0.78,1.82 L -0.79,1.86 L -0.80,1.91 L -0.83,2.00 L -0.84,2.09 L -0.85,2.19 L -0.85,2.28 L -0.85,2.39 L -0.53,2.39 L -0.53,2.34 L -0.53,2.28 L -0.53,2.23 L -0.53,2.18 L -0.52,2.12 L -0.52,2.07 L -0.51,2.02 L -0.49,1.97 L -0.48,1.92 L -0.46,1.87 L -0.44,1.84 L -0.42,1.80 L -0.40,1.78 L -0.38,1.75 L -0.36,1.72 L -0.33,1.70 L -0.30,1.67 L -0.27,1.65 L -0.24,1.64 L -0.21,1.62 L -0.18,1.61 L -0.14,1.60 L -0.11,1.59 L -0.07,1.59 L -0.04,1.58 L 0.00,1.58 L -0.01,1.31 Z" stroke-width="0.04" />
    <path class="fBLACK sBLACK" d="M 0.00,1.58 L 0.03,1.58 L 0.07,1.59 L 0.10,1.59 L 0.14,1.60 L 0.17,1.61 L 0.20,1.62 L 0.24,1.64 L 0.27,1.66 L 0.30,1.68 L 0.32,1.70 L 0.35,1.72 L 0.37,1.75 L 0.39,1.78 L 0.41,1.81 L 0.43,1.84 L 0.45,1.87 L 0.47,1.92 L 0.48,1.97 L 0.49,2.02 L 0.51,2.07 L 0.51,2.12 L 0.52,2.18 L 0.52,2.23 L 0.52,2.28 L 0.52,2.34 L 0.83,2.38 L 0.83,2.29 L 0.83,2.18 L 0.82,2.07 L 0.81,1.98 L 0.79,1.90 L 0.76,1.82 L 0.72,1.74 L 0.69,1.68 L 0.66,1.62 L 0.61,1.57 L 0.57,1.52 L 0.52,1.47 L 0.46,1.43 L 0.41,1.40 L 0.35,1.37 L 0.30,1.36 L 0.26,1.34 L 0.22,1.33 L 0.17,1.32 L 0.13,1.32 L 0.08,1.31 L 0.04,1.31 L -0.01,1.31 L 0.00,1.58 Z" stroke-width="0.04" />
    <path class="fBLACK sBLACK" d="M 1.30,1.41 L 3.06,-1.09 L 0.01,-5.45 L -3.04,-1.09 L -1.29,1.41 L -1.18,1.22 L -2.80,-1.09 L 0.01,-5.10 L 2.81,-1.09 L 1.19,1.22 L 1.30,1.41 Z" stroke-width="0" />
    <path class="fMIDRD sMIDRD" d="M -1.65,0.06 L 1.67,0.06 L 1.67,-2.25 L -1.66,-2.25 L -1.65,0.06 Z" stroke-width="0.04" />
    <path class="fWHITE sWHITE" d="M -1.66,-1.48 L 1.67,-1.48 L 1.67,-0.71 L -1.66,-0.71 L -1.66,-1.48 Z" stroke-width="0.04" />
    <path class="f0 sBLACK" d="M -1.66,-2.25 L 1.67,-2.25 L 1.67,0.06 L -1.66,0.06 L -1.66,-2.25 " stroke-width="0.12" />
    <circle class="pivotPoint layout" fill="none" cx="0" cy="0" r="0.2" />
  </g>
</svg>