<?xml version="1.0" encoding="UTF-8"?>
<?xml-stylesheet type='text/css' href='S401Style.css'?>
<svg version="1.2" baseProfile="tiny" width="6.10mm" height="8.70mm" viewBox="-3.05 -5.45 6.12 8.72" xmlns="http://www.w3.org/2000/svg">
  <title>NMKPRB02V-G2</title>
  <desc>no entry (A.1) on buoy - virtual</desc>
  <metadata />
  <g>
    <path class="fBLACK sBLACK" d="M -1.00,-3.67 L 0.00,-5.10 L 0.99,-3.69 L 1.16,-3.80 L 0.00,-5.44 L -1.16,-3.78 L -1.00,-3.67 Z" stroke-width="0.04" />
    <path class="fBLACK sBLACK" d="M -1.83,0.29 L -2.80,-1.09 L -1.87,-2.41 L -2.03,-2.53 L -3.04,-1.09 L -1.99,0.41 L -1.83,0.29 Z" stroke-width="0.04" />
    <path class="fBLACK sBLACK" d="M 2.09,-2.48 L 3.06,-1.09 L 1.94,0.50 L 1.78,0.39 L 2.81,-1.09 L 1.92,-2.36 L 2.09,-2.48 Z" stroke-width="0.04" />
    <path class="fBLACK sBLACK" d="M 1.11,1.67 L 0.00,3.26 L -1.05,1.75 L -0.89,1.64 L 0.00,2.91 L 0.95,1.56 L 1.11,1.67 Z" stroke-width="0.04" />
    <path class="fYLLOW sBLACK" d="M -1.44,0.48 L 1.45,0.48 L 1.45,-0.01 L 1.12,-0.01 L 0.57,-1.06 L -0.56,-1.06 L -1.11,-0.01 L -1.44,-0.01 L -1.44,0.48 Z" stroke-width="0.12" />
    <path class="fMIDRD sMIDRD" d="M -1.22,-1.06 L 1.23,-1.06 L 1.23,-2.68 L -1.22,-2.68 L -1.22,-1.06 Z" stroke-width="0.04" />
    <path class="fWHITE sWHITE" d="M -1.22,-2.14 L 1.23,-2.14 L 1.23,-1.60 L -1.22,-1.60 L -1.22,-2.14 Z" stroke-width="0.04" />
    <path class="f0 sBLACK" d="M -1.22,-2.68 L 1.23,-2.68 L 1.23,-1.06 L -1.22,-1.06 L -1.22,-2.68 " stroke-width="0.12" />
    <circle class="pivotPoint layout" fill="none" cx="0" cy="0" r="0.2" />
  </g>
</svg>