<?xml version="1.0" encoding="UTF-8"?>
<?xml-stylesheet type='text/css' href='S401Style.css'?>
<svg version="1.2" baseProfile="tiny" width="7.00mm" height="7.00mm" viewBox="-3.51 -3.51 7.02 7.02" xmlns="http://www.w3.org/2000/svg">
  <title>NMKREG25a</title>
  <desc>Use shore power connection (B.12)</desc>
  <metadata />
  <g>
    <path class="fMIDRD sBLACK" d="M 3.50,3.50 L -3.50,3.50 L -3.50,-3.50 L 3.50,-3.50 L 3.50,3.50 Z" stroke-width="0.12" />
    <path class="fWHITE sWHITE" d="M 2.52,2.52 L -2.52,2.52 L -2.52,-2.52 L 2.52,-2.52 L 2.52,2.52 Z" stroke-width="0.04" />
    <path class="fBLACK sBLACK" d="M -2.11,-0.79 L -1.01,-0.79 L -1.01,-0.27 L -2.11,-0.27 L -2.11,-0.79 Z" stroke-width="0.04" />
    <path class="fBLACK sBLACK" d="M -2.11,0.35 L -1.01,0.35 L -1.01,0.87 L -2.11,0.87 L -2.11,0.35 Z" stroke-width="0.04" />
    <path class="fBLACK sBLACK" d="M -1.01,-1.22 L -0.05,-1.22 L -0.05,1.30 L -1.01,1.30 L -1.01,-1.22 Z" stroke-width="0.04" />
    <path class="fBLACK sBLACK" d="M 1.22,-0.30 L 2.16,-0.30 L 2.16,0.42 L 1.22,0.42 L 1.22,-0.30 Z" stroke-width="0.04" />
    <path class="fBLACK sBLACK" d="M -0.05,-0.97 L -0.05,1.06 L 0.26,1.03 L 0.53,1.00 L 1.10,0.99 L 1.14,0.96 L 1.22,0.85 L 1.22,-0.73 L 1.19,-0.80 L 1.14,-0.86 L 1.08,-0.88 L 0.47,-0.90 L 0.22,-0.95 L -0.05,-0.97 Z" stroke-width="0.04" />
    <circle class="pivotPoint layout" fill="none" cx="0" cy="0" r="0.2" />
  </g>
</svg>