<?xml version="1.0" encoding="UTF-8"?>
<?xml-stylesheet type='text/css' href='svgStyle.css'?>
<svg version="1.2" baseProfile="tiny" width="10.20mm" height="8.63mm" viewBox="-5.11 -8.29 10.22 8.65" xmlns="http://www.w3.org/2000/svg">
  <title>NMKRCD08</title>
  <desc>you are recommended to proceed in the right direction (D.3), orientation encoded</desc>
  <metadata />
  <g>
    <path class="fAZUBL sAZUBL" d="M -5.10,-1.28 L -5.10,-8.28 L 5.10,-8.28 L 5.10,-1.28 L -5.10,-1.28 Z" stroke-width="0.04" />
    <circle cx="0.00" cy="0.00" r="0.35" class="f0 sBLACK" stroke-width="0.12" />
    <path class="f0 sBLACK" d="M 0.00,-0.35 L 0.00,-1.28 " stroke-width="0.12" />
    <path class="f0 sBLACK" d="M -0.59,0.00 L -0.35,0.00 " stroke-width="0.12" />
    <path class="f0 sBLACK" d="M 0.35,0.00 L 0.59,0.00 " stroke-width="0.12" />
    <path class="f0 sBLACK" d="M -5.10,-1.28 L -5.10,-8.28 L 5.10,-8.28 L 5.10,-1.28 L -5.10,-1.28 " stroke-width="0.12" />
    <path class="fWHITE sWHITE" d="M 1.61,-4.23 L -3.90,-4.23 L -3.90,-5.20 L 1.61,-5.20 L 1.33,-5.98 L 1.66,-6.21 L 3.77,-4.71 L 1.61,-3.19 L 1.31,-3.46 L 1.61,-4.23 Z" stroke-width="0.04" />
    <circle class="pivotPoint layout" fill="none" cx="0" cy="0" r="0.2" />
  </g>
</svg>