<?xml version="1.0" encoding="UTF-8"?>
<?xml-stylesheet type='text/css' href='svgStyle.css'?>
<svg version="1.2" baseProfile="tiny" width="6.10mm" height="8.70mm" viewBox="-3.05 -5.45 6.12 8.72" xmlns="http://www.w3.org/2000/svg">
  <title>NMKREG17V</title>
  <desc>headroom limited (C.2) - virtual</desc>
  <metadata />
  <g>
    <path class="f0 sWHITE" d="M 1.48,-2.59 L -1.51,-2.59 L -1.51,0.41 L 1.48,0.41 L 1.48,-2.59 Z" stroke-width="0.04" />
    <path class="fMIDRD sBLACK" d="M 1.48,0.41 L -1.51,0.41 L -1.51,-2.59 L 1.48,-2.59 L 1.48,0.41 Z" stroke-width="0.12" />
    <path class="fBLACK sBLACK" d="M -1.00,-3.67 L 0.00,-5.10 L 0.99,-3.69 L 1.16,-3.80 L 0.00,-5.44 L -1.16,-3.78 L -1.00,-3.67 Z" stroke-width="0.04" />
    <path class="fBLACK sBLACK" d="M -1.83,0.29 L -2.80,-1.09 L -1.87,-2.41 L -2.03,-2.53 L -3.04,-1.09 L -1.99,0.41 L -1.83,0.29 Z" stroke-width="0.04" />
    <path class="fBLACK sBLACK" d="M 2.09,-2.48 L 3.06,-1.09 L 1.94,0.50 L 1.78,0.39 L 2.81,-1.09 L 1.92,-2.36 L 2.09,-2.48 Z" stroke-width="0.04" />
    <path class="fBLACK sBLACK" d="M 1.11,1.67 L 0.00,3.26 L -1.05,1.75 L -0.89,1.64 L 0.00,2.91 L 0.95,1.56 L 1.11,1.67 Z" stroke-width="0.04" />
    <path class="fWHITE sWHITE" d="M 1.06,-0.01 L -1.09,-0.01 L -1.09,-2.17 L 1.06,-2.17 L 1.06,-0.01 Z" stroke-width="0.04" />
    <path class="fBLACK sBLACK" d="M -0.86,-2.17 L -0.01,-1.32 L 0.83,-2.17 L -0.86,-2.17 Z" stroke-width="0.04" />
    <circle class="pivotPoint layout" fill="none" cx="0" cy="0" r="0.2" />
  </g>
</svg>