<?xml version="1.0" encoding="UTF-8"?>
<?xml-stylesheet type='text/css' href='S401Style.css'?>
<svg version="1.2" baseProfile="tiny" width="7.00mm" height="10.20mm" viewBox="-3.51 -5.11 7.02 10.22" xmlns="http://www.w3.org/2000/svg">
  <title>NOPASS01B</title>
  <desc>no passing (A.4)</desc>
  <metadata />
  <g>
    <path class="fPURPL sPURPL" d="M -3.50,-4.48 L -3.50,-5.10 L -3.08,-5.10 L 3.50,4.48 L 3.50,5.10 L 3.08,5.10 L -3.50,-4.48 Z" stroke-width="0" />
    <path class="fPURPL sPURPL" d="M 1.05,5.10 L 1.05,-3.38 L 0.14,-3.04 L 0.01,-3.20 L 1.48,-5.10 L 2.91,-3.20 L 2.78,-3.04 L 1.89,-3.38 L 1.89,5.10 L 1.05,5.10 L 1.18,4.98 L 1.77,4.98 L 1.77,-3.53 L 2.74,-3.18 L 2.75,-3.21 L 1.48,-4.90 L 0.17,-3.21 L 0.18,-3.18 L 1.18,-3.53 L 1.18,4.98 L 1.05,5.10 Z" stroke-width="0.04" />
    <path class="fPURPL sPURPL" d="M -1.03,-5.10 L -1.03,3.38 L -0.12,3.04 L 0.01,3.20 L -1.46,5.10 L -2.89,3.20 L -2.76,3.04 L -1.88,3.38 L -1.87,-5.10 L -1.03,-5.10 L -1.16,-4.98 L -1.75,-4.98 L -1.75,3.53 L -2.72,3.18 L -2.73,3.21 L -1.46,4.90 L -0.15,3.20 L -0.17,3.18 L -1.16,3.53 L -1.16,-4.98 L -1.03,-5.10 Z" stroke-width="0.04" />
    <circle class="pivotPoint layout" fill="none" cx="0" cy="0" r="0.2" />
  </g>
</svg>