<?xml version="1.0" encoding="UTF-8"?>
<?xml-stylesheet type='text/css' href='S401Style.css'?>
<svg version="1.2" baseProfile="tiny" width="18.29mm" height="10.20mm" viewBox="-3.51 -5.11 18.31 10.22" xmlns="http://www.w3.org/2000/svg">
  <title>NOPACV01</title>
  <desc>no overtaking of convoys by convoys (A.3)</desc>
  <metadata />
  <g>
    <path class="fPURPL sPURPL" d="M -3.50,-4.48 L -3.50,-5.10 L -3.08,-5.10 L 3.50,4.48 L 3.50,5.10 L 3.08,5.10 L -3.50,-4.48 Z" stroke-width="0" />
    <path class="f0 sBLACK" d="M 5.02,5.10 L 5.02,-5.10 L 12.02,-5.10 L 12.02,5.10 L 5.02,5.10 Z" stroke-width="0.12" />
    <path class="fA64CFF sA64CFF" d="M 5.02,-4.48 L 5.02,-5.10 L 5.44,-5.10 L 12.02,4.48 L 12.02,5.10 L 11.60,5.10 L 5.02,-4.48 Z" stroke-width="0" />
    <path class="fBLACK sBLACK" d="M 8.93,3.02 L 8.93,3.02 L 9.01,3.10 L 8.98,3.23 L 8.79,3.04 L 10.29,0.63 L 11.81,3.05 L 11.63,3.23 L 10.67,2.88 L 10.68,5.10 L 9.91,5.10 L 9.91,2.89 L 8.98,3.23 L 9.01,3.10 L 10.02,2.72 L 10.02,4.98 L 10.56,4.98 L 10.56,2.71 L 11.61,3.10 L 11.68,3.04 L 10.30,0.85 L 8.93,3.02 Z" stroke-width="0" />
    <path class="fBLACK sBLACK" d="M 9.12,-3.25 L 9.18,-3.18 L 9.05,-3.04 L 8.93,-3.20 L 10.27,-5.10 L 11.57,-3.20 L 11.45,-3.04 L 10.65,-3.38 L 10.65,-0.63 L 9.89,-0.63 L 9.88,-3.38 L 9.05,-3.04 L 9.18,-3.18 L 10.00,-3.53 L 10.00,-0.75 L 10.54,-0.75 L 10.54,-3.53 L 11.39,-3.15 L 11.45,-3.26 L 10.27,-4.88 L 9.12,-3.25 Z" stroke-width="0" />
    <path class="fORRED sORRED" d="M 12.30,-3.21 L 12.32,-3.18 L 12.28,-3.04 L 12.16,-3.20 L 13.49,-5.10 L 14.79,-3.20 L 14.67,-3.04 L 13.87,-3.38 L 13.88,-1.20 L 14.79,0.14 L 14.67,0.30 L 13.87,-0.04 L 13.90,5.10 L 13.13,5.10 L 13.11,-0.04 L 12.28,0.30 L 12.16,0.14 L 13.11,-1.21 L 13.11,-3.38 L 12.28,-3.04 L 12.32,-3.18 L 13.22,-3.53 L 13.22,-1.16 L 12.32,0.16 L 13.22,-0.19 L 13.25,4.98 L 13.79,4.98 L 13.76,-0.19 L 14.63,0.16 L 14.65,0.13 L 13.77,-1.15 L 13.76,-3.53 L 14.63,-3.18 L 14.65,-3.21 L 13.49,-4.90 L 12.30,-3.21 Z" stroke-width="0.12" />
    <path class="fBLACK sBLACK" d="M 12.32,0.16 L 12.32,0.16 L 12.28,0.30 L 12.16,0.14 L 13.49,-1.76 L 13.87,-1.20 L 14.79,0.14 L 14.67,0.30 L 13.87,-0.04 L 13.88,2.71 L 13.11,2.71 L 13.11,-0.04 L 12.28,0.30 L 12.32,0.16 L 13.22,-0.19 L 13.22,2.60 L 13.76,2.60 L 13.76,-0.19 L 14.63,0.16 L 14.65,0.13 L 13.49,-1.55 L 12.32,0.16 Z" stroke-width="0" />
    <path class="fPURPL sPURPL" d="M 1.05,5.10 L 1.05,-3.38 L 0.14,-3.04 L 0.01,-3.20 L 1.48,-5.10 L 2.91,-3.20 L 2.78,-3.04 L 1.89,-3.38 L 1.89,5.10 L 1.05,5.10 L 1.18,4.98 L 1.77,4.98 L 1.77,-3.53 L 2.74,-3.18 L 2.75,-3.21 L 1.48,-4.90 L 0.17,-3.21 L 0.18,-3.18 L 1.18,-3.53 L 1.18,4.98 L 1.05,5.10 Z" stroke-width="0.04" />
    <path class="fPURPL sPURPL" d="M -1.03,-5.10 L -1.03,3.38 L -0.12,3.04 L 0.01,3.20 L -1.46,5.10 L -2.89,3.20 L -2.76,3.04 L -1.88,3.38 L -1.87,-5.10 L -1.03,-5.10 L -1.16,-4.98 L -1.75,-4.98 L -1.75,3.53 L -2.72,3.18 L -2.73,3.21 L -1.46,4.90 L -0.15,3.20 L -0.17,3.18 L -1.16,3.53 L -1.16,-4.98 L -1.03,-5.10 Z" stroke-width="0.04" />
    <path class="f0 sBLACK" d="M 5.77,-5.10 L 4.60,-3.36 L 4.75,-3.26 L 5.49,-3.55 L 5.50,-2.24 L 4.62,-0.95 L 4.76,-0.86 L 5.50,-1.14 L 5.50,0.52 L 6.08,0.52 L 6.07,-1.14 L 6.84,-0.81 L 6.98,-0.93 L 6.06,-2.25 L 6.07,-3.55 L 6.84,-3.23 L 6.95,-3.38 L 5.77,-5.10 Z" stroke-width="0.12" />
    <path class="f0 sA64CFF" d="M 10.27,-5.10 L 8.93,-3.20 L 9.05,-3.04 L 9.96,-3.40 L 9.97,-1.22 L 9.01,0.19 L 9.16,0.29 L 9.97,-0.01 L 9.98,5.10 L 10.61,5.10 L 10.60,-0.01 L 11.45,0.35 L 11.60,0.21 L 10.59,-1.23 L 10.60,-3.40 L 11.45,-3.04 L 11.57,-3.20 L 10.27,-5.10 Z" stroke-width="0.2" />
    <path class="f0 sA64CFF" d="M 6.77,5.10 L 8.05,3.18 L 7.89,3.07 L 7.08,3.40 L 7.07,1.22 L 8.04,-0.19 L 7.89,-0.29 L 7.07,0.01 L 7.06,-5.10 L 6.43,-5.10 L 6.44,0.01 L 5.59,-0.35 L 5.44,-0.21 L 6.45,1.23 L 6.44,3.40 L 5.59,3.04 L 5.48,3.20 L 6.77,5.10 Z" stroke-width="0.12" />
    <circle class="pivotPoint layout" fill="none" cx="0" cy="0" r="0.2" />
  </g>
</svg>