<?xml version="1.0" encoding="UTF-8"?>
<?xml-stylesheet type='text/css' href='svgStyle.css'?>
<svg version="1.2" baseProfile="tiny" width="7.00mm" height="10.20mm" viewBox="-3.51 -5.11 7.02 10.22" xmlns="http://www.w3.org/2000/svg">
  <title>NOPASS0</title>
  <desc>no passing or overtaking (A.4)</desc>
  <metadata />
  <g>
    <path class="f0 sBLACK" d="M -3.50,5.10 L -3.50,-5.10 L 3.50,-5.10 L 3.50,5.10 L -3.50,5.10 Z" stroke-width="0.12" />
    <path class="fCE58D5 sCE58D5" d="M -3.50,-4.48 L -3.50,-5.10 L -3.08,-5.10 L 3.50,4.48 L 3.50,5.10 L 3.08,5.10 L -3.50,-4.48 Z" stroke-width="0" />
    <path class="f0 sBLACK" d="M 1.42,-5.10 L -0.18,-2.37 L 0.00,-2.22 L 1.03,-2.57 L 1.03,5.10 L 1.83,5.10 L 1.82,-2.56 L 2.87,-2.17 L 3.04,-2.35 L 1.42,-5.10 Z" stroke-width="0.12" />
    <path class="f0 sBLACK" d="M -1.42,5.10 L 0.18,2.37 L 0.00,2.22 L -1.03,2.57 L -1.03,-5.10 L -1.83,-5.10 L -1.82,2.56 L -2.87,2.17 L -3.04,2.35 L -1.42,5.10 Z" stroke-width="0.12" />
    <circle class="pivotPoint layout" fill="none" cx="0" cy="0" r="0.2" />
  </g>
</svg>