<?xml version="1.0" encoding="UTF-8"?>
<?xml-stylesheet type='text/css' href='S401Style.css'?>
<svg version="1.2" baseProfile="tiny" width="15.52mm" height="10.32mm" viewBox="-3.51 -5.23 15.54 10.34" xmlns="http://www.w3.org/2000/svg">
  <title>NOVCON02B</title>
  <desc>no overtaking of convoys by convoys (A.3) gleiche richtung</desc>
  <metadata />
  <g>
    <path class="fPURPL sPURPL" d="M -3.50,-4.48 L -3.50,-5.10 L -3.08,-5.10 L 3.50,4.48 L 3.50,5.10 L 3.08,5.10 L -3.50,-4.48 Z" stroke-width="0" />
    <path class="f0 sBLACK" d="M 5.02,5.10 L 5.02,-5.10 L 12.02,-5.10 L 12.02,5.10 L 5.02,5.10 Z" stroke-width="0.12" />
    <path class="fDPRPL sDPRPL" d="M 5.02,-4.57 L 5.02,-5.10 L 5.38,-5.10 L 12.02,4.57 L 12.02,5.10 L 11.66,5.10 L 5.02,-4.57 Z" stroke-width="0" />
    <path class="fDPRPL sDPRPL" d="M 5.48,3.02 L 5.48,3.02 L 5.56,3.10 L 5.53,3.23 L 5.34,3.04 L 6.84,0.63 L 8.36,3.05 L 8.18,3.23 L 7.22,2.88 L 7.23,5.10 L 6.46,5.10 L 6.46,2.89 L 5.53,3.23 L 5.56,3.10 L 6.57,2.72 L 6.57,4.98 L 7.11,4.98 L 7.11,2.71 L 8.16,3.10 L 8.23,3.04 L 6.85,0.85 L 5.48,3.02 Z" stroke-width="0" />
    <path class="fPURPL sPURPL" d="M 1.36,0.52 L 1.36,-1.11 L 0.53,-0.77 L 0.41,-0.93 L 1.36,-2.28 L 1.36,-3.38 L 0.53,-3.04 L 0.41,-3.20 L 1.75,-5.10 L 3.05,-3.20 L 2.93,-3.04 L 2.13,-3.38 L 2.13,-2.27 L 3.05,-0.93 L 2.93,-0.77 L 2.13,-1.11 L 2.13,0.52 L 1.36,0.52 L 1.48,0.41 L 2.02,0.41 L 2.02,-1.26 L 2.89,-0.91 L 2.90,-0.94 L 2.02,-2.22 L 2.02,-3.53 L 2.89,-3.18 L 2.90,-3.21 L 1.75,-4.90 L 0.55,-3.21 L 0.57,-3.18 L 1.48,-3.53 L 1.48,-2.23 L 0.55,-0.95 L 0.57,-0.91 L 1.48,-1.26 L 1.48,0.41 L 1.36,0.52 Z" stroke-width="0.04" />
    <path class="fPURPL sPURPL" d="M -2.16,5.10 L -2.16,3.47 L -2.99,3.81 L -3.11,3.65 L -2.16,2.30 L -2.16,1.20 L -2.99,1.54 L -3.11,1.37 L -1.78,-0.52 L -0.48,1.37 L -0.60,1.54 L -1.40,1.20 L -1.40,2.30 L -0.48,3.65 L -0.60,3.81 L -1.40,3.47 L -1.40,5.10 L -2.16,5.10 L -2.05,4.99 L -1.51,4.99 L -1.51,3.32 L -0.63,3.67 L -0.62,3.64 L -1.51,2.35 L -1.51,1.05 L -0.63,1.40 L -0.62,1.37 L -1.78,-0.32 L -2.97,1.37 L -2.95,1.40 L -2.05,1.05 L -2.05,2.35 L -2.97,3.63 L -2.95,3.67 L -2.05,3.32 L -2.05,4.99 L -2.16,5.10 Z" stroke-width="0.04" />
    <path class="f9125C2 s9125C2" d="M 8.69,-2.82 L 8.69,-2.82 L 8.77,-2.75 L 8.74,-2.62 L 8.54,-2.80 L 10.05,-5.22 L 11.57,-2.80 L 11.38,-2.62 L 10.43,-2.97 L 10.43,-0.75 L 9.67,-0.75 L 9.66,-2.96 L 8.74,-2.62 L 8.77,-2.75 L 9.78,-3.13 L 9.78,-0.86 L 10.32,-0.86 L 10.32,-3.13 L 11.36,-2.75 L 11.43,-2.81 L 10.05,-5.00 L 8.69,-2.82 Z" stroke-width="0" />
    <path class="f0 sBLACK" d="M 5.77,-5.10 L 4.60,-3.36 L 4.75,-3.26 L 5.49,-3.55 L 5.50,-2.24 L 4.62,-0.95 L 4.76,-0.86 L 5.50,-1.14 L 5.50,0.52 L 6.08,0.52 L 6.07,-1.14 L 6.84,-0.81 L 6.98,-0.93 L 6.06,-2.25 L 6.07,-3.55 L 6.84,-3.23 L 6.95,-3.38 L 5.77,-5.10 Z" stroke-width="0.12" />
    <circle class="pivotPoint layout" fill="none" cx="0" cy="0" r="0.2" />
  </g>
</svg>