<?xml version="1.0" encoding="UTF-8"?>
<?xml-stylesheet type='text/css' href='S401Style.css'?>
<svg version="1.2" baseProfile="tiny" width="15.52mm" height="10.23mm" viewBox="-3.51 -5.11 15.54 10.25" xmlns="http://www.w3.org/2000/svg">
  <title>NOVCON02A</title>
  <desc>no overtaking of convoys by convoys (A.3)</desc>
  <metadata />
  <g>
    <path class="f0 sBLACK" d="M -3.50,5.10 L -3.50,-5.10 L 3.50,-5.10 L 3.50,5.10 L -3.50,5.10 Z" stroke-width="0.12" />
    <path class="fA64CFF sA64CFF" d="M -3.50,-4.48 L -3.50,-5.10 L -3.08,-5.10 L 3.50,4.48 L 3.50,5.10 L 3.08,5.10 L -3.50,-4.48 Z" stroke-width="0" />
    <path class="f0 sBLACK" d="M 5.02,5.10 L 5.02,-5.10 L 12.02,-5.10 L 12.02,5.10 L 5.02,5.10 Z" stroke-width="0.12" />
    <path class="fA64CFF sA64CFF" d="M 5.02,-4.48 L 5.02,-5.10 L 5.44,-5.10 L 12.02,4.48 L 12.02,5.10 L 11.60,5.10 L 5.02,-4.48 Z" stroke-width="0" />
    <path class="fBLACK sBLACK" d="M 8.93,3.02 L 8.93,3.02 L 9.01,3.10 L 8.98,3.23 L 8.79,3.04 L 10.29,0.63 L 11.81,3.05 L 11.63,3.23 L 10.67,2.88 L 10.68,5.10 L 9.91,5.10 L 9.91,2.89 L 8.98,3.23 L 9.01,3.10 L 10.02,2.72 L 10.02,4.98 L 10.56,4.98 L 10.56,2.71 L 11.61,3.10 L 11.68,3.04 L 10.30,0.85 L 8.93,3.02 Z" stroke-width="0" />
    <path class="fBLACK sBLACK" d="M 9.12,-3.25 L 9.18,-3.18 L 9.05,-3.04 L 8.93,-3.20 L 10.27,-5.10 L 11.57,-3.20 L 11.45,-3.04 L 10.65,-3.38 L 10.65,-0.63 L 9.89,-0.63 L 9.88,-3.38 L 9.05,-3.04 L 9.18,-3.18 L 10.00,-3.53 L 10.00,-0.75 L 10.54,-0.75 L 10.54,-3.53 L 11.39,-3.15 L 11.45,-3.26 L 10.27,-4.88 L 9.12,-3.25 Z" stroke-width="0" />
    <path class="fA64CFF sA64CFF" d="M 1.36,0.52 L 1.36,-1.11 L 0.53,-0.77 L 0.41,-0.93 L 1.36,-2.28 L 1.36,-3.38 L 0.53,-3.04 L 0.41,-3.20 L 1.75,-5.10 L 3.05,-3.20 L 2.93,-3.04 L 2.13,-3.38 L 2.13,-2.27 L 3.05,-0.93 L 2.93,-0.77 L 2.13,-1.11 L 2.13,0.52 L 1.36,0.52 L 1.48,0.41 L 2.02,0.41 L 2.02,-1.26 L 2.89,-0.91 L 2.90,-0.94 L 2.02,-2.22 L 2.02,-3.53 L 2.89,-3.18 L 2.90,-3.21 L 1.75,-4.90 L 0.55,-3.21 L 0.57,-3.18 L 1.48,-3.53 L 1.48,-2.23 L 0.55,-0.95 L 0.57,-0.91 L 1.48,-1.26 L 1.48,0.41 L 1.36,0.52 Z" stroke-width="0.04" />
    <path class="fA64CFF sA64CFF" d="M -1.39,-0.50 L -1.39,1.13 L -0.56,0.79 L -0.44,0.96 L -1.39,2.30 L -1.39,3.40 L -0.56,3.07 L -0.44,3.23 L -1.78,5.13 L -3.08,3.23 L -2.96,3.07 L -2.16,3.40 L -2.16,2.30 L -3.08,0.96 L -2.96,0.79 L -2.16,1.13 L -2.16,-0.50 L -1.39,-0.50 L -1.51,-0.38 L -2.05,-0.38 L -2.05,1.28 L -2.92,0.93 L -2.94,0.96 L -2.05,2.25 L -2.05,3.56 L -2.92,3.21 L -2.94,3.23 L -1.78,4.92 L -0.59,3.23 L -0.60,3.21 L -1.51,3.56 L -1.51,2.25 L -0.58,0.97 L -0.60,0.93 L -1.51,1.28 L -1.51,-0.38 L -1.39,-0.50 Z" stroke-width="0.04" />
    <path class="f0 sBLACK" d="M 5.77,-5.10 L 4.60,-3.36 L 4.75,-3.26 L 5.49,-3.55 L 5.50,-2.24 L 4.62,-0.95 L 4.76,-0.86 L 5.50,-1.14 L 5.50,0.52 L 6.08,0.52 L 6.07,-1.14 L 6.84,-0.81 L 6.98,-0.93 L 6.06,-2.25 L 6.07,-3.55 L 6.84,-3.23 L 6.95,-3.38 L 5.77,-5.10 Z" stroke-width="0.12" />
    <path class="f0 sA64CFF" d="M 10.27,-5.10 L 8.93,-3.20 L 9.05,-3.04 L 9.96,-3.40 L 9.97,-1.22 L 9.01,0.19 L 9.16,0.29 L 9.97,-0.01 L 9.98,5.10 L 10.61,5.10 L 10.60,-0.01 L 11.45,0.35 L 11.60,0.21 L 10.59,-1.23 L 10.60,-3.40 L 11.45,-3.04 L 11.57,-3.20 L 10.27,-5.10 Z" stroke-width="0.2" />
    <path class="f0 sA64CFF" d="M 6.77,5.10 L 8.05,3.18 L 7.89,3.07 L 7.08,3.40 L 7.07,1.22 L 8.04,-0.19 L 7.89,-0.29 L 7.07,0.01 L 7.06,-5.10 L 6.43,-5.10 L 6.44,0.01 L 5.59,-0.35 L 5.44,-0.21 L 6.45,1.23 L 6.44,3.40 L 5.59,3.04 L 5.48,3.20 L 6.77,5.10 Z" stroke-width="0.12" />
    <circle class="pivotPoint layout" fill="none" cx="0" cy="0" r="0.2" />
  </g>
</svg>