<?xml version="1.0" encoding="UTF-8"?>
<?xml-stylesheet type='text/css' href='svgStyle.css'?>
<svg version="1.2" baseProfile="tiny" width="7.00mm" height="10.20mm" viewBox="-3.51 -5.11 7.02 10.22" xmlns="http://www.w3.org/2000/svg">
  <title>NOVCON01A</title>
  <desc>no overtaking of convoys by convoys (A.3)</desc>
  <metadata />
  <g>
    <path class="fPURPL sPURPL" d="M -3.50,-4.48 L -3.50,-5.10 L -3.08,-5.10 L 3.50,4.48 L 3.50,5.10 L 3.08,5.10 L -3.50,-4.48 Z" stroke-width="0" />
    <path class="fPURPL sPURPL" d="M -1.39,-5.10 L -1.39,0.04 L -0.56,-0.30 L -0.44,-0.14 L -1.40,1.21 L -1.39,3.38 L -0.56,3.04 L -0.44,3.20 L -1.78,5.10 L -3.08,3.20 L -2.96,3.04 L -2.16,3.38 L -2.16,1.20 L -3.08,-0.14 L -2.96,-0.30 L -2.16,0.04 L -2.16,-5.10 L -1.39,-5.10 L -1.51,-4.98 L -2.05,-4.98 L -2.05,0.19 L -2.92,-0.16 L -2.94,-0.14 L -2.05,1.15 L -2.05,3.53 L -2.92,3.18 L -2.94,3.21 L -1.78,4.90 L -0.59,3.21 L -0.60,3.18 L -1.51,3.53 L -1.51,1.16 L -0.58,-0.12 L -0.60,-0.16 L -1.51,0.19 L -1.51,-4.98 L -1.39,-5.10 Z" stroke-width="0.04" />
    <path class="fPURPL sPURPL" d="M 1.39,5.10 L 1.39,-0.04 L 0.56,0.30 L 0.44,0.14 L 1.39,-1.21 L 1.39,-3.38 L 0.56,-3.04 L 0.44,-3.20 L 1.78,-5.10 L 3.08,-3.20 L 2.96,-3.04 L 2.16,-3.38 L 2.16,-1.20 L 3.08,0.14 L 2.96,0.30 L 2.16,-0.04 L 2.16,5.10 L 1.39,5.10 L 1.51,4.98 L 2.05,4.98 L 2.05,-0.19 L 2.92,0.16 L 2.93,0.13 L 2.05,-1.15 L 2.05,-3.53 L 2.92,-3.18 L 2.93,-3.21 L 1.78,-4.90 L 0.58,-3.21 L 0.60,-3.18 L 1.51,-3.53 L 1.51,-1.16 L 0.58,0.12 L 0.60,0.16 L 1.51,-0.19 L 1.51,4.98 L 1.39,5.10 Z" stroke-width="0.04" />
    <circle class="pivotPoint layout" fill="none" cx="0" cy="0" r="0.2" />
  </g>
</svg>