<?xml version="1.0" encoding="UTF-8"?>
<?xml-stylesheet type='text/css' href='S401Style.css'?>
<svg version="1.2" baseProfile="tiny" width="23.16mm" height="10.20mm" viewBox="-3.51 -5.11 23.18 10.22" xmlns="http://www.w3.org/2000/svg">
  <title>NOVRTK01</title>
  <desc>no overtaking (A.2) violet</desc>
  <metadata />
  <g>
    <path class="f9A2F87 s962F87" d="M 13.65,-5.10 L 19.66,4.82 L 19.66,5.10 L 18.69,5.10 L 12.66,-4.79 L 12.66,-5.10 L 13.65,-5.10 Z" stroke-width="0.04" />
    <path class="f0 sWHITE" d="M 12.66,5.10 L 12.66,-5.10 L 19.66,-5.10 L 19.66,5.10 L 12.66,5.10 Z" stroke-width="0.04" />
    <path class="f0 sE1FFFF" d="M -3.50,-4.48 L 3.08,5.10 " stroke-width="0" />
    <path class="f0 sE1FFFF" d="M -3.08,-5.10 L 3.50,4.48 " stroke-width="0" />
    <path class="fPURPL sPURPL" d="M -3.50,-4.48 L -3.50,-5.10 L -3.08,-5.10 L 3.50,4.48 L 3.50,5.10 L 3.08,5.10 L -3.50,-4.48 Z" stroke-width="0" />
    <path class="f0 sE1FFFF" d="M 4.75,-5.10 L 4.75,-4.43 " stroke-width="0" />
    <path class="f0 sE1FFFF" d="M 4.75,-5.10 L 11.75,5.10 " stroke-width="0" />
    <path class="f0 sE1FFFF" d="M 4.75,-4.48 L 11.32,5.10 " stroke-width="0" />
    <path class="f0 sE1FFFF" d="M 5.17,-5.10 L 11.75,4.48 " stroke-width="0" />
    <path class="fC53BCE sC53BCE" d="M 4.75,-4.48 L 4.75,-5.10 L 5.17,-5.10 L 11.75,4.48 L 11.75,5.10 L 11.32,5.10 L 4.75,-4.48 Z" stroke-width="0" />
    <path class="f0 sWHITE" d="M 4.75,5.10 L 11.75,5.10 L 11.75,-5.10 L 4.75,-5.10 L 4.75,5.10 Z" stroke-width="0" />
    <path class="fBLACK sBLACK" d="M 3.91,-0.40 L 3.91,-0.40 L 3.98,-0.32 L 3.96,-0.19 L 3.76,-0.38 L 5.27,-2.79 L 6.79,-0.37 L 6.60,-0.19 L 5.65,-0.55 L 5.65,1.68 L 4.89,1.68 L 4.88,-0.53 L 3.96,-0.19 L 3.98,-0.32 L 5.00,-0.70 L 5.00,1.56 L 5.54,1.56 L 5.54,-0.71 L 6.58,-0.32 L 6.65,-0.38 L 5.27,-2.57 L 3.91,-0.40 Z" stroke-width="0" />
    <path class="fPURPL sPURPL" d="M 0.15,-2.71 L 0.15,-2.71 L 0.23,-2.63 L 0.20,-2.50 L 0.01,-2.69 L 1.52,-5.10 L 3.03,-2.68 L 2.85,-2.50 L 1.92,-2.85 L 1.93,-0.50 L 1.09,-0.50 L 1.09,-2.84 L 0.20,-2.50 L 0.23,-2.63 L 1.21,-3.01 L 1.21,-0.62 L 1.81,-0.62 L 1.81,-3.02 L 2.83,-2.63 L 2.90,-2.69 L 1.52,-4.88 L 0.15,-2.71 Z" stroke-width="0" />
    <path class="fPURPL sPURPL" d="M -2.87,3.02 L -2.87,3.02 L -2.79,3.10 L -2.82,3.23 L -3.01,3.04 L -1.51,0.63 L 0.01,3.05 L -0.18,3.23 L -1.13,2.88 L -1.13,5.10 L -1.89,5.10 L -1.90,2.89 L -2.82,3.23 L -2.79,3.10 L -1.78,2.72 L -1.78,4.98 L -1.24,4.98 L -1.24,2.71 L -0.19,3.10 L -0.13,3.04 L -1.50,0.85 L -2.87,3.02 Z" stroke-width="0" />
    <path class="fCE58D5 sCE58D5" d="M 7.45,2.42 L 7.45,2.42 L 7.53,2.50 L 7.50,2.62 L 7.31,2.44 L 8.81,0.03 L 10.33,2.45 L 10.15,2.62 L 9.19,2.27 L 9.20,4.50 L 8.43,4.50 L 8.43,2.28 L 7.50,2.62 L 7.53,2.50 L 8.54,2.11 L 8.55,4.38 L 9.08,4.38 L 9.08,2.11 L 10.13,2.50 L 10.20,2.43 L 8.82,0.25 L 7.45,2.42 Z" stroke-width="0" />
    <path class="f0 sD20000" d="M 17.78,-5.08 L 19.31,-2.61 L 19.12,-2.49 L 18.14,-2.95 L 18.14,-0.61 L 17.43,-0.61 L 17.43,-2.90 L 16.45,-2.48 L 16.26,-2.66 L 17.78,-5.08 Z" stroke-width="0.12" />
    <path class="f0 sD20000" d="M 14.61,0.63 L 16.15,3.09 L 15.96,3.22 L 14.98,2.76 L 14.98,5.10 L 14.27,5.10 L 14.27,2.81 L 13.29,3.23 L 13.10,3.04 L 14.61,0.63 Z" stroke-width="0.04" />
    <path class="f0 sBLACK" d="M 9.48,-5.10 L 11.01,-2.64 L 10.82,-2.51 L 9.84,-2.97 L 9.84,-0.63 L 9.13,-0.63 L 9.13,-2.92 L 8.15,-2.50 L 7.96,-2.69 L 9.48,-5.10 Z" stroke-width="0.2" />
    <path class="f0 sBLACK" d="M 7.02,0.63 L 8.56,3.09 L 8.36,3.22 L 7.39,2.76 L 7.39,5.10 L 6.68,5.10 L 6.68,2.81 L 5.70,3.23 L 5.51,3.04 L 7.02,0.63 Z" stroke-width="0.16" />
    <circle class="pivotPoint layout" fill="none" cx="0" cy="0" r="0.2" />
  </g>
</svg>