<?xml version="1.0" encoding="UTF-8"?>
<?xml-stylesheet type='text/css' href='S401Style.css'?>
<svg version="1.2" baseProfile="tiny" width="30.31mm" height="12.50mm" viewBox="-3.51 -7.41 30.33 12.52" xmlns="http://www.w3.org/2000/svg">
  <title>NOVRTK02</title>
  <desc>no overtaking (A.2) violet Birklhuber Größe</desc>
  <metadata />
  <g>
    <path class="f9A2F87 s962F87" d="M 18.94,-7.40 L 26.81,4.75 L 26.81,5.10 L 25.54,5.10 L 17.65,-7.02 L 17.65,-7.40 L 18.94,-7.40 Z" stroke-width="0.04" />
    <path class="f0 sWHITE" d="M 17.65,5.10 L 17.65,-7.40 L 26.81,-7.40 L 26.81,5.10 L 17.65,5.10 Z" stroke-width="0.04" />
    <path class="f0 sE1FFFF" d="M -3.50,-7.40 L -3.50,-6.58 " stroke-width="0" />
    <path class="f0 sE1FFFF" d="M -3.50,-7.40 L 5.66,5.10 " stroke-width="0" />
    <path class="f0 sE1FFFF" d="M -3.50,-6.64 L 5.10,5.10 " stroke-width="0" />
    <path class="f0 sE1FFFF" d="M -2.94,-7.40 L 5.66,4.34 " stroke-width="0" />
    <path class="fCE58D5 sCE58D5" d="M -3.50,-6.64 L -3.50,-7.40 L -2.94,-7.40 L 5.66,4.34 L 5.66,5.10 L 5.10,5.10 L -3.50,-6.64 Z" stroke-width="0" />
    <path class="f0 sWHITE" d="M -3.50,5.10 L 5.66,5.10 L 5.66,-7.40 L -3.50,-7.40 L -3.50,5.10 Z" stroke-width="0" />
    <path class="f0 sE1FFFF" d="M 7.29,-7.40 L 7.29,-6.58 " stroke-width="0" />
    <path class="f0 sE1FFFF" d="M 7.29,-7.40 L 16.45,5.10 " stroke-width="0" />
    <path class="f0 sE1FFFF" d="M 7.29,-6.64 L 15.89,5.10 " stroke-width="0" />
    <path class="f0 sE1FFFF" d="M 7.85,-7.40 L 16.45,4.34 " stroke-width="0" />
    <path class="fC53BCE sC53BCE" d="M 7.29,-6.64 L 7.29,-7.40 L 7.85,-7.40 L 16.45,4.34 L 16.45,5.10 L 15.89,5.10 L 7.29,-6.64 Z" stroke-width="0" />
    <path class="f0 sWHITE" d="M 7.29,5.10 L 16.45,5.10 L 16.45,-7.40 L 7.29,-7.40 L 7.29,5.10 Z" stroke-width="0" />
    <path class="fBLACK sBLACK" d="M 3.88,-1.26 L 3.88,-1.26 L 3.98,-1.17 L 3.94,-1.01 L 3.69,-1.23 L 5.67,-4.19 L 7.68,-1.17 L 7.43,-1.02 L 6.15,-1.58 L 6.15,1.29 L 5.22,1.29 L 5.22,-1.52 L 3.94,-1.01 L 3.98,-1.17 L 5.38,-1.76 L 5.39,1.13 L 5.99,1.13 L 6.00,-1.81 L 7.40,-1.19 L 7.48,-1.23 L 5.68,-3.87 L 3.88,-1.26 Z" stroke-width="0" />
    <path class="f0 sBLACK" d="M 2.69,-7.40 L 4.70,-4.38 L 4.45,-4.23 L 3.17,-4.79 L 3.17,-1.92 L 2.24,-1.92 L 2.24,-4.73 L 0.96,-4.22 L 0.71,-4.44 L 2.69,-7.40 Z" stroke-width="0.24" />
    <path class="f0 sBLACK" d="M -0.52,-0.38 L 1.49,2.64 L 1.23,2.79 L -0.04,2.23 L -0.04,5.10 L -0.97,5.10 L -0.97,2.29 L -2.25,2.81 L -2.51,2.58 L -0.52,-0.38 Z" stroke-width="0.12" />
    <path class="f0 sD20000" d="M 24.34,-7.37 L 26.35,-4.35 L 26.10,-4.20 L 24.82,-4.76 L 24.82,-1.89 L 23.89,-1.89 L 23.89,-4.70 L 22.61,-4.19 L 22.36,-4.41 L 24.34,-7.37 Z" stroke-width="0.12" />
    <path class="f0 sD20000" d="M 20.20,-0.38 L 22.22,2.64 L 21.96,2.79 L 20.68,2.23 L 20.68,5.10 L 19.75,5.10 L 19.75,2.29 L 18.47,2.81 L 18.22,2.58 L 20.20,-0.38 Z" stroke-width="0.12" />
    <path class="f0 sBLACK" d="M 13.48,-7.40 L 15.49,-4.38 L 15.24,-4.23 L 13.96,-4.79 L 13.96,-1.92 L 13.03,-1.92 L 13.03,-4.73 L 11.75,-4.22 L 11.50,-4.44 L 13.48,-7.40 Z" stroke-width="0.2" />
    <path class="f0 sBLACK" d="M 10.27,-0.38 L 12.28,2.64 L 12.02,2.79 L 10.75,2.23 L 10.75,5.10 L 9.82,5.10 L 9.82,2.29 L 8.54,2.81 L 8.29,2.58 L 10.27,-0.38 Z" stroke-width="0.16" />
    <circle class="pivotPoint layout" fill="none" cx="0" cy="0" r="0.2" />
  </g>
</svg>