<?xml version="1.0" encoding="UTF-8"?>
<?xml-stylesheet type='text/css' href='S401Style.css'?>
<svg version="1.2" baseProfile="tiny" width="7.00mm" height="7.00mm" viewBox="-3.51 -3.51 7.02 7.02" xmlns="http://www.w3.org/2000/svg">
  <title>NOWAKE02</title>
  <desc>do not create wash likely to cause damage (A.9)</desc>
  <metadata />
  <g>
    <path class="fPURPL sPURPL" d="M -3.50,-3.01 L -3.50,-3.50 L -3.01,-3.50 L 3.50,2.97 L 3.50,3.50 L 3.01,3.50 L -3.50,-3.01 Z" stroke-width="0" />
    <path class="fPURPL sPURPL" d="M -3.50,-1.58 L -2.82,-1.22 L -2.57,-1.08 L -2.36,-1.02 L -2.13,-1.05 L -1.96,-1.12 L -1.46,-1.42 L -0.98,-1.73 L -0.57,-1.91 L -0.10,-1.99 L 0.57,-1.95 L 1.12,-1.72 L 1.71,-1.33 L 2.19,-1.04 L 2.41,-1.02 L 2.69,-1.05 L 2.92,-1.15 L 3.12,-1.29 L 3.50,-1.53 L 3.50,-1.40 L 2.97,-1.05 L 2.73,-0.94 L 2.42,-0.91 L 2.16,-0.92 L 1.65,-1.23 L 1.07,-1.61 L 0.54,-1.84 L -0.09,-1.88 L -0.54,-1.80 L -0.93,-1.63 L -1.39,-1.33 L -1.90,-1.01 L -2.10,-0.93 L -2.37,-0.90 L -2.61,-0.97 L -2.87,-1.11 L -3.50,-1.45 L -3.50,-1.58 Z" stroke-width="0.04" />
    <path class="fPURPL sPURPL" d="M -3.50,-0.60 L -3.16,-0.42 L -2.79,-0.25 L -2.39,-0.15 L -2.07,-0.17 L -1.84,-0.22 L -1.02,-0.69 L -0.60,-0.96 L -0.15,-1.09 L 0.35,-1.09 L 0.78,-0.92 L 1.30,-0.59 L 1.98,-0.19 L 2.27,-0.11 L 2.49,-0.10 L 2.86,-0.16 L 3.12,-0.27 L 3.50,-0.52 L 3.50,-0.38 L 3.18,-0.16 L 2.89,-0.05 L 2.50,0.01 L 2.25,0.00 L 1.94,-0.08 L 1.24,-0.49 L 0.73,-0.81 L 0.32,-0.97 L -0.14,-0.97 L -0.55,-0.85 L -0.96,-0.59 L -1.80,-0.11 L -2.05,-0.05 L -2.40,-0.03 L -2.82,-0.14 L -3.21,-0.31 L -3.50,-0.47 L -3.50,-0.60 Z" stroke-width="0.04" />
    <path class="fPURPL sPURPL" d="M -3.50,0.47 L -3.50,0.65 L -3.50,0.47 L -2.82,0.83 L -2.40,0.95 L -2.17,0.94 L -1.94,0.88 L -1.46,0.62 L -0.93,0.27 L -0.61,0.10 L -0.21,0.00 L 0.10,-0.02 L 0.42,0.00 L 0.69,0.14 L 1.04,0.37 L 1.64,0.77 L 1.88,0.90 L 2.14,0.96 L 2.43,0.99 L 2.68,0.96 L 3.12,0.75 L 3.50,0.53 L 3.50,0.67 L 3.18,0.86 L 2.72,1.07 L 2.43,1.11 L 2.12,1.08 L 1.84,1.01 L 1.58,0.87 L 0.97,0.46 L 0.63,0.24 L 0.38,0.12 L 0.10,0.09 L -0.19,0.12 L -0.57,0.21 L -0.87,0.37 L -1.40,0.72 L -1.90,0.99 L -2.16,1.06 L -2.42,1.06 L -2.86,0.93 L -3.50,0.60 L -3.50,0.47 Z" stroke-width="0.04" />
    <path class="fPURPL sPURPL" d="M 3.50,1.53 L 2.84,1.84 L 2.52,1.87 L 2.04,1.85 L 1.59,1.73 L 1.21,1.55 L 0.78,1.22 L 0.33,0.95 L 0.10,0.92 L -0.15,0.95 L -0.56,1.08 L -1.16,1.47 L -1.75,1.75 L -2.04,1.84 L -2.29,1.85 L -2.51,1.84 L -3.16,1.63 L -3.50,1.44 L -3.50,1.57 L -3.20,1.73 L -2.54,1.95 L -2.29,1.97 L -2.02,1.95 L -1.70,1.86 L -1.11,1.57 L -0.51,1.19 L -0.12,1.06 L 0.10,1.03 L 0.29,1.06 L 0.72,1.32 L 1.15,1.65 L 1.55,1.84 L 2.02,1.97 L 2.53,1.99 L 2.87,1.95 L 3.50,1.66 L 3.50,1.53 Z" stroke-width="0.04" />
    <circle class="pivotPoint layout" fill="none" cx="0" cy="0" r="0.2" />
  </g>
</svg>