<?xml version="1.0" encoding="UTF-8"?>
<?xml-stylesheet type='text/css' href='S401Style.css'?>
<svg version="1.2" baseProfile="tiny" width="14.87mm" height="7.00mm" viewBox="-3.51 -3.51 14.89 7.02" xmlns="http://www.w3.org/2000/svg">
  <title>NOWAKE01</title>
  <desc>do not create wash likely to cause damage (A.9)</desc>
  <metadata />
  <g>
    <path class="f0 sBLACK" d="M -3.50,3.50 L -3.50,-3.50 L 3.50,-3.50 L 3.50,3.50 L -3.50,3.50 Z" stroke-width="0.12" />
    <path class="fA64CFF sA64CFF" d="M -3.50,-3.01 L -3.50,-3.50 L -3.01,-3.50 L 3.50,2.97 L 3.50,3.50 L 3.01,3.50 L -3.50,-3.01 Z" stroke-width="0" />
    <path class="fPURPL sPURPL" d="M 4.37,-3.01 L 4.37,-3.50 L 4.86,-3.50 L 11.37,2.97 L 11.37,3.50 L 10.87,3.50 L 4.37,-3.01 Z" stroke-width="0" />
    <text x="3.59" y="2.20" font-family="Arial" font-size="0.80" text-anchor="middle" fill="black">3</text>
    <text x="3.59" y="-0.83" font-family="Arial" font-size="0.80" text-anchor="middle" fill="black">2</text>
    <path class="f0 sBLACK" d="M -3.50,-1.48 L 4.79,-1.48 " stroke-width="0.04" />
    <path class="f0 sBLACK" d="M -3.50,0.57 L 4.79,0.57 " stroke-width="0.04" />
    <path class="f0 sPURPL" d="M 4.36,0.70 L 4.36,0.65 " stroke-width="0.04" />
    <path class="f0 sPURPL" d="M 4.37,0.70 L 4.36,0.70 " stroke-width="0.04" />
    <path class="fPURPL sPURPL" d="M 4.36,-1.58 L 5.05,-1.22 L 5.30,-1.08 L 5.51,-1.02 L 5.74,-1.05 L 5.91,-1.12 L 6.41,-1.42 L 6.88,-1.73 L 7.30,-1.91 L 7.77,-1.99 L 8.44,-1.95 L 8.99,-1.72 L 9.57,-1.33 L 10.06,-1.04 L 10.28,-1.02 L 10.56,-1.05 L 10.79,-1.15 L 10.99,-1.29 L 11.37,-1.53 L 11.37,-1.40 L 10.84,-1.05 L 10.59,-0.94 L 10.28,-0.91 L 10.02,-0.92 L 9.51,-1.23 L 8.94,-1.61 L 8.41,-1.84 L 7.78,-1.88 L 7.33,-1.80 L 6.94,-1.63 L 6.47,-1.33 L 5.96,-1.01 L 5.76,-0.93 L 5.50,-0.90 L 5.26,-0.97 L 5.00,-1.11 L 4.37,-1.45 L 4.36,-1.58 Z" stroke-width="0.04" />
    <path class="fPURPL sPURPL" d="M 4.37,-0.60 L 4.71,-0.42 L 5.08,-0.25 L 5.47,-0.15 L 5.80,-0.17 L 6.03,-0.22 L 6.84,-0.69 L 7.27,-0.96 L 7.71,-1.09 L 8.21,-1.09 L 8.65,-0.92 L 9.17,-0.59 L 9.85,-0.19 L 10.14,-0.11 L 10.36,-0.10 L 10.73,-0.16 L 10.99,-0.27 L 11.37,-0.52 L 11.37,-0.38 L 11.04,-0.16 L 10.76,-0.05 L 10.36,0.01 L 10.12,0.00 L 9.80,-0.08 L 9.11,-0.49 L 8.60,-0.81 L 8.19,-0.97 L 7.73,-0.97 L 7.31,-0.85 L 6.90,-0.59 L 6.07,-0.11 L 5.81,-0.05 L 5.46,-0.03 L 5.04,-0.14 L 4.66,-0.31 L 4.37,-0.47 L 4.37,-0.60 Z" stroke-width="0.04" />
    <path class="fPURPL sPURPL" d="M 4.36,0.47 L 4.36,0.65 L 4.36,0.47 L 5.05,0.83 L 5.47,0.95 L 5.69,0.94 L 5.93,0.88 L 6.41,0.62 L 6.94,0.27 L 7.26,0.10 L 7.66,0.00 L 7.97,-0.02 L 8.28,0.00 L 8.55,0.14 L 8.90,0.37 L 9.50,0.77 L 9.75,0.90 L 10.01,0.96 L 10.30,0.99 L 10.55,0.96 L 10.99,0.75 L 11.37,0.53 L 11.37,0.67 L 11.04,0.86 L 10.58,1.07 L 10.30,1.11 L 9.99,1.08 L 9.71,1.01 L 9.44,0.87 L 8.84,0.46 L 8.50,0.24 L 8.25,0.12 L 7.97,0.09 L 7.68,0.12 L 7.30,0.21 L 7.00,0.37 L 6.47,0.72 L 5.97,0.99 L 5.71,1.06 L 5.45,1.06 L 5.01,0.93 L 4.37,0.60 L 4.36,0.47 Z" stroke-width="0.04" />
    <path class="fPURPL sPURPL" d="M 11.37,1.53 L 10.71,1.84 L 10.39,1.87 L 9.91,1.85 L 9.46,1.73 L 9.07,1.55 L 8.65,1.22 L 8.20,0.95 L 7.97,0.92 L 7.72,0.95 L 7.31,1.08 L 6.70,1.47 L 6.12,1.75 L 5.83,1.84 L 5.58,1.85 L 5.35,1.84 L 4.71,1.63 L 4.37,1.44 L 4.37,1.57 L 4.67,1.73 L 5.33,1.95 L 5.58,1.97 L 5.85,1.95 L 6.16,1.86 L 6.76,1.57 L 7.36,1.19 L 7.75,1.06 L 7.97,1.03 L 8.16,1.06 L 8.59,1.32 L 9.01,1.65 L 9.42,1.84 L 9.89,1.97 L 10.39,1.99 L 10.74,1.95 L 11.37,1.66 L 11.37,1.53 Z" stroke-width="0.04" />
    <path class="f0 sA64CFF" d="M 3.50,-0.52 L 3.50,-0.52 L 3.08,-0.24 L 2.84,-0.14 L 2.48,-0.09 L 2.28,-0.10 L 2.01,-0.17 L 1.35,-0.56 L 0.82,-0.89 L 0.36,-1.07 L -0.17,-1.07 L -0.64,-0.94 L -1.07,-0.66 L -1.87,-0.20 L -2.08,-0.15 L -2.39,-0.13 L -2.76,-0.23 L -3.12,-0.39 L -3.50,-0.60 " stroke-width="0.12" />
    <path class="f0 sA64CFF" d="M -3.50,-1.48 L -2.82,-1.12 L -2.57,-0.98 L -2.36,-0.92 L -2.13,-0.95 L -1.96,-1.02 L -1.46,-1.32 L -0.98,-1.63 L -0.57,-1.81 L -0.10,-1.89 L 0.57,-1.85 L 1.12,-1.62 L 1.71,-1.23 L 2.19,-0.94 L 2.41,-0.92 L 2.69,-0.95 L 2.92,-1.05 L 3.12,-1.19 L 3.50,-1.44 " stroke-width="0.12" />
    <path class="f0 sA64CFF" d="M 3.50,1.54 L 2.82,1.85 L 2.52,1.89 L 2.05,1.87 L 1.62,1.75 L 1.25,1.58 L 0.83,1.25 L 0.36,0.97 L 0.10,0.93 L -0.17,0.97 L -0.60,1.10 L -1.20,1.50 L -1.78,1.77 L -2.06,1.86 L -2.29,1.87 L -2.50,1.85 L -3.12,1.65 L -3.50,1.44 " stroke-width="0.16" />
    <path class="f0 sA64CFF" d="M -3.50,0.57 L -2.82,0.93 L -2.40,1.05 L -2.17,1.04 L -1.94,0.98 L -1.46,0.72 L -0.93,0.37 L -0.61,0.20 L -0.21,0.10 L 0.10,0.08 L 0.42,0.10 L 0.69,0.24 L 1.04,0.47 L 1.64,0.87 L 1.88,1.00 L 2.14,1.06 L 2.43,1.09 L 2.68,1.06 L 3.12,0.85 L 3.50,0.63 " stroke-width="0.16" />
    <circle class="pivotPoint layout" fill="none" cx="0" cy="0" r="0.2" />
  </g>
</svg>