<?xml version="1.0" encoding="UTF-8"?>
<?xml-stylesheet type='text/css' href='svgStyle.css'?>
<svg version="1.2" baseProfile="tiny" width="6.10mm" height="8.70mm" viewBox="-2.93 -5.50 6.12 8.72" xmlns="http://www.w3.org/2000/svg">
  <title>SIGFLT01F</title>
  <desc>signal float - off position - text area -d</desc>
  <metadata />
  <g>
    <path class="fYLLOW sBLACK" d="M -1.94,-1.37 L 2.21,-1.37 L 1.45,-0.43 L -1.18,-0.43 L -1.94,-1.37 Z" stroke-width="0.12" />
    <path class="fBLACK sBLACK" d="M 0.66,2.29 L 0.66,2.35 L 0.65,2.40 L 0.64,2.45 L 0.63,2.51 L 0.62,2.56 L 0.60,2.61 L 0.59,2.66 L 0.57,2.69 L 0.55,2.72 L 0.53,2.75 L 0.51,2.78 L 0.49,2.80 L 0.46,2.83 L 0.43,2.85 L 0.41,2.87 L 0.37,2.89 L 0.34,2.90 L 0.31,2.92 L 0.28,2.93 L 0.24,2.93 L 0.21,2.94 L 0.17,2.94 L 0.14,2.94 L 0.10,2.94 L 0.06,2.94 L 0.03,2.94 L -0.01,2.93 L -0.04,2.92 L -0.07,2.90 L -0.11,2.89 L -0.14,2.87 L -0.17,2.85 L -0.19,2.83 L -0.22,2.80 L -0.25,2.78 L -0.27,2.75 L -0.29,2.72 L -0.31,2.69 L -0.32,2.65 L -0.34,2.60 L -0.35,2.55 L -0.37,2.50 L -0.38,2.45 L -0.39,2.40 L -0.39,2.35 L -0.71,2.35 L -0.70,2.46 L -0.69,2.55 L -0.66,2.63 L -0.64,2.71 L -0.60,2.79 L -0.57,2.85 L -0.53,2.91 L -0.49,2.96 L -0.44,3.01 L -0.39,3.05 L -0.34,3.09 L -0.28,3.13 L -0.22,3.16 L -0.18,3.17 L -0.13,3.18 L -0.09,3.19 L -0.05,3.20 L 0.00,3.21 L 0.04,3.21 L 0.09,3.21 L 0.13,3.21 L 0.18,3.21 L 0.23,3.21 L 0.28,3.20 L 0.33,3.20 L 0.37,3.19 L 0.41,3.18 L 0.45,3.16 L 0.49,3.15 L 0.53,3.13 L 0.57,3.11 L 0.60,3.09 L 0.64,3.06 L 0.69,3.02 L 0.74,2.97 L 0.78,2.92 L 0.82,2.87 L 0.86,2.81 L 0.89,2.75 L 0.91,2.68 L 0.93,2.62 L 0.95,2.53 L 0.96,2.43 L 0.97,2.34 L 0.66,2.29 Z" stroke-width="0.04" />
    <path class="fBLACK sBLACK" d="M 0.13,1.27 L 0.09,1.27 L 0.04,1.27 L 0.00,1.27 L -0.05,1.28 L -0.09,1.29 L -0.13,1.30 L -0.18,1.31 L -0.22,1.33 L -0.26,1.35 L -0.30,1.37 L -0.34,1.39 L -0.37,1.42 L -0.41,1.45 L -0.44,1.48 L -0.47,1.51 L -0.50,1.55 L -0.53,1.58 L -0.56,1.62 L -0.58,1.66 L -0.60,1.70 L -0.62,1.74 L -0.64,1.78 L -0.65,1.82 L -0.67,1.86 L -0.69,1.96 L -0.70,2.05 L -0.71,2.15 L -0.71,2.24 L -0.71,2.35 L -0.39,2.35 L -0.39,2.29 L -0.39,2.24 L -0.39,2.19 L -0.39,2.13 L -0.39,2.08 L -0.38,2.03 L -0.37,1.98 L -0.35,1.93 L -0.34,1.88 L -0.32,1.83 L -0.30,1.79 L -0.29,1.76 L -0.27,1.73 L -0.24,1.71 L -0.22,1.68 L -0.19,1.65 L -0.17,1.63 L -0.14,1.61 L -0.11,1.59 L -0.07,1.58 L -0.04,1.57 L -0.01,1.56 L 0.03,1.55 L 0.06,1.54 L 0.10,1.54 L 0.14,1.54 L 0.13,1.27 Z" stroke-width="0.04" />
    <path class="fBLACK sBLACK" d="M 0.14,1.54 L 0.17,1.54 L 0.21,1.55 L 0.24,1.55 L 0.28,1.56 L 0.31,1.57 L 0.34,1.58 L 0.37,1.60 L 0.40,1.61 L 0.43,1.63 L 0.46,1.66 L 0.49,1.68 L 0.51,1.71 L 0.53,1.73 L 0.55,1.76 L 0.57,1.79 L 0.59,1.83 L 0.60,1.88 L 0.62,1.93 L 0.63,1.98 L 0.64,2.03 L 0.65,2.08 L 0.66,2.13 L 0.66,2.19 L 0.66,2.24 L 0.66,2.29 L 0.97,2.34 L 0.97,2.24 L 0.97,2.13 L 0.96,2.03 L 0.95,1.94 L 0.93,1.86 L 0.90,1.77 L 0.86,1.69 L 0.83,1.63 L 0.79,1.58 L 0.75,1.53 L 0.71,1.48 L 0.65,1.43 L 0.60,1.39 L 0.54,1.36 L 0.48,1.33 L 0.44,1.31 L 0.40,1.30 L 0.36,1.29 L 0.31,1.28 L 0.27,1.27 L 0.22,1.27 L 0.18,1.27 L 0.13,1.27 L 0.14,1.54 Z" stroke-width="0.04" />
    <path class="fBLACK sBLACK" d="M 1.43,1.37 L 3.18,-1.14 L 0.13,-5.49 L -2.92,-1.14 L -1.16,1.37 L -1.05,1.18 L -2.67,-1.14 L 0.13,-5.14 L 2.94,-1.14 L 1.32,1.18 L 1.43,1.37 Z" stroke-width="0" />
    <path class="f0 sBLACK" d="M 0.13,-2.54 L 0.13,-1.37 " stroke-width="0.12" />
    <path class="f0 sBLACK" d="M -1.59,-0.43 L -0.07,-0.43 " stroke-width="0.12" />
    <path class="f0 sBLACK" d="M 0.34,-0.43 L 1.86,-0.43 " stroke-width="0.12" />
    <circle cx="0.13" cy="-0.43" r="0.21" class="fWHITE sBLACK" stroke-width="0.12" />
    <circle class="pivotPoint layout" fill="none" cx="0" cy="0" r="0.2" />
  </g>
</svg>