<?xml version="1.0" encoding="UTF-8"?>
<?xml-stylesheet type='text/css' href='svgStyle.css'?>
<svg version="1.2" baseProfile="tiny" width="6.10mm" height="8.68mm" viewBox="-2.92 -5.49 6.12 8.70" xmlns="http://www.w3.org/2000/svg">
  <title>SIGFLT01M</title>
  <desc>signal float - off position - missing - text area -d</desc>
  <metadata />
  <g>
    <path class="fYLLOW sBLACK" d="M -1.94,-1.37 L 2.21,-1.37 L 1.45,-0.43 L -1.18,-0.43 L -1.94,-1.37 Z" stroke-width="0.12" />
    <path class="fBLACK sBLACK" d="M 0.14,1.40 L 0.11,1.37 L 0.07,1.34 L 0.03,1.31 L -0.02,1.29 L -0.08,1.28 L -0.14,1.26 L -0.21,1.26 L -0.27,1.26 L -0.31,1.26 L -0.35,1.26 L -0.39,1.27 L -0.43,1.28 L -0.47,1.29 L -0.51,1.30 L -0.55,1.32 L -0.58,1.34 L -0.61,1.36 L -0.65,1.38 L -0.68,1.41 L -0.71,1.43 L -0.74,1.46 L -0.76,1.49 L -0.79,1.53 L -0.81,1.56 L -0.81,1.30 L -1.12,1.30 L -1.12,3.20 L -0.80,3.20 L -0.80,2.08 L -0.80,2.03 L -0.79,1.98 L -0.79,1.94 L -0.78,1.91 L -0.77,1.87 L -0.76,1.83 L -0.75,1.80 L -0.73,1.76 L -0.71,1.73 L -0.69,1.70 L -0.66,1.66 L -0.62,1.63 L -0.58,1.60 L -0.53,1.58 L -0.48,1.56 L -0.43,1.55 L -0.38,1.54 L -0.33,1.54 L -0.29,1.54 L -0.25,1.54 L -0.21,1.55 L -0.18,1.56 L -0.14,1.58 L -0.11,1.60 L -0.09,1.63 L 0.14,1.40 Z" stroke-width="0.04" />
    <path class="fBLACK sBLACK" d="M -0.12,1.59 L -0.10,1.62 L -0.08,1.66 L -0.06,1.71 L -0.04,1.77 L -0.04,1.83 L -0.03,1.89 L -0.03,3.17 L 0.29,3.17 L 0.29,2.04 L 0.29,1.99 L 0.30,1.95 L 0.31,1.90 L 0.32,1.85 L 0.32,1.81 L 0.33,1.78 L 0.35,1.74 L 0.36,1.71 L 0.38,1.68 L 0.41,1.65 L 0.43,1.63 L 0.46,1.60 L 0.49,1.58 L 0.52,1.56 L 0.56,1.54 L 0.60,1.53 L 0.64,1.52 L 0.68,1.51 L 0.71,1.50 L 0.76,1.50 L 0.81,1.50 L 0.86,1.51 L 0.91,1.53 L 0.95,1.55 L 0.97,1.57 L 1.00,1.59 L 1.02,1.61 L 1.03,1.63 L 1.05,1.66 L 1.06,1.68 L 1.07,1.71 L 1.07,1.74 L 1.08,1.80 L 1.09,1.87 L 1.09,1.94 L 1.09,2.00 L 1.09,3.17 L 1.41,3.17 L 1.41,2.03 L 1.41,1.94 L 1.41,1.84 L 1.40,1.75 L 1.39,1.66 L 1.39,1.63 L 1.38,1.59 L 1.37,1.56 L 1.36,1.53 L 1.35,1.50 L 1.33,1.47 L 1.31,1.44 L 1.29,1.41 L 1.27,1.39 L 1.24,1.36 L 1.22,1.34 L 1.19,1.32 L 1.16,1.30 L 1.13,1.28 L 1.10,1.27 L 1.06,1.26 L 1.00,1.24 L 0.94,1.23 L 0.87,1.22 L 0.81,1.22 L 0.76,1.22 L 0.72,1.23 L 0.68,1.23 L 0.64,1.24 L 0.60,1.25 L 0.56,1.26 L 0.52,1.28 L 0.48,1.30 L 0.44,1.32 L 0.41,1.34 L 0.37,1.36 L 0.34,1.39 L 0.31,1.42 L 0.28,1.45 L 0.25,1.48 L 0.23,1.51 L 0.20,1.47 L 0.18,1.43 L 0.14,1.40 L 0.11,1.36 L -0.12,1.59 Z" stroke-width="0.04" />
    <path class="fBLACK sBLACK" d="M -0.89,-3.66 L 0.14,-5.13 L 1.15,-3.68 L 1.32,-3.79 L 0.14,-5.48 L -1.06,-3.78 L -0.89,-3.66 Z" stroke-width="0.04" />
    <path class="fBLACK sBLACK" d="M -1.86,0.37 L -1.70,0.25 L -2.67,-1.13 L -1.74,-2.45 L -1.90,-2.57 L -2.91,-1.13 L -1.86,0.37 Z" stroke-width="0.04" />
    <path class="fBLACK sBLACK" d="M 2.21,-2.52 L 3.19,-1.13 L 2.08,0.45 L 1.91,0.34 L 2.94,-1.13 L 2.05,-2.40 L 2.21,-2.52 Z" stroke-width="0.04" />
    <path class="f0 sBLACK" d="M 0.13,-2.54 L 0.13,-1.37 " stroke-width="0.12" />
    <path class="f0 sBLACK" d="M -1.59,-0.43 L -0.07,-0.43 " stroke-width="0.12" />
    <path class="f0 sBLACK" d="M 0.34,-0.43 L 1.86,-0.43 " stroke-width="0.12" />
    <circle cx="0.13" cy="-0.43" r="0.21" class="fWHITE sBLACK" stroke-width="0.12" />
    <circle class="pivotPoint layout" fill="none" cx="0" cy="0" r="0.2" />
  </g>
</svg>