<?xml version="1.0" encoding="UTF-8"?>
<?xml-stylesheet type='text/css' href='S401Style.css'?>
<svg version="1.2" baseProfile="tiny" width="2.90mm" height="5.75mm" viewBox="-1.46 -5.36 2.92 5.77" xmlns="http://www.w3.org/2000/svg">
  <title>SSF01_S7</title>
  <desc>signal station, form 01, status 7</desc>
  <metadata />
  <g>
    <path class="f0 sBLACK" d="M 0.00,-2.45 L 0.00,-0.24 " stroke-width="0.12" />
    <path class="f0 sBLACK" d="M -0.90,0.00 L -0.24,0.00 " stroke-width="0.12" />
    <path class="f0 sBLACK" d="M 0.24,0.00 L 0.93,0.00 " stroke-width="0.12" />
    <path class="f0 sBLACK" d="M 0.00,0.24 L 0.00,0.39 " stroke-width="0.12" />
    <path class="fLITGY sBLACK" d="M -1.45,-5.35 L 1.45,-5.35 L 1.45,-2.45 L -1.45,-2.45 L -1.45,-5.35 Z" stroke-width="0.12" />
    <circle cx="0.00" cy="0.00" r="0.24" class="fWHITE sBLACK" stroke-width="0.12" />
    <circle cx="0.00" cy="-3.90" r="1.09" class="fBLACK sBLACK" stroke-width="0.12" />
    <path class="fYLLOW sBLACK" d="M -0.77,-4.67 L -0.83,-4.60 L -0.89,-4.53 L -0.93,-4.46 L -0.98,-4.38 L -1.01,-4.30 L -1.04,-4.21 L -1.06,-4.12 L -1.08,-4.04 L -1.09,-3.95 L -1.09,-3.86 L -1.08,-3.77 L -1.06,-3.68 L -1.04,-3.59 L -1.01,-3.51 L -0.98,-3.42 L -0.93,-3.34 L -0.89,-3.27 L -0.83,-3.20 L -0.77,-3.13 L 0.00,-3.90 L -0.77,-4.67 Z" stroke-width="0.12" />
    <path class="fYLLOW sBLACK" d="M 0.77,-4.67 L 0.83,-4.60 L 0.89,-4.52 L 0.94,-4.44 L 0.99,-4.36 L 1.02,-4.27 L 1.05,-4.18 L 1.07,-4.09 L 1.08,-4.00 L 1.09,-3.90 L 1.08,-3.81 L 1.07,-3.71 L 1.05,-3.62 L 1.02,-3.53 L 0.99,-3.44 L 0.94,-3.36 L 0.89,-3.28 L 0.83,-3.20 L 0.77,-3.13 L 0.00,-3.90 L 0.77,-4.67 Z" stroke-width="0.12" />
    <circle class="pivotPoint layout" fill="none" cx="0" cy="0" r="0.2" />
  </g>
</svg>