<?xml version="1.0" encoding="UTF-8"?>
<?xml-stylesheet type='text/css' href='S401Style.css'?>
<svg version="1.2" baseProfile="tiny" width="5.80mm" height="8.65mm" viewBox="-2.91 -8.26 5.82 8.67" xmlns="http://www.w3.org/2000/svg">
  <title>SSF11</title>
  <desc>signal station, form 11</desc>
  <metadata />
  <g>
    <path class="f0 sBLACK" d="M 0.00,-2.45 L 0.00,-0.24 " stroke-width="0.12" />
    <path class="f0 sBLACK" d="M -0.90,0.00 L -0.24,0.00 " stroke-width="0.12" />
    <path class="f0 sBLACK" d="M 0.24,0.00 L 0.93,0.00 " stroke-width="0.12" />
    <path class="f0 sBLACK" d="M 0.00,0.24 L 0.00,0.39 " stroke-width="0.12" />
    <path class="fLITGY sBLACK" d="M -2.90,-5.35 L 2.90,-5.35 L 2.90,-2.45 L -2.90,-2.45 L -2.90,-5.35 Z" stroke-width="0.12" />
    <circle cx="0.00" cy="0.00" r="0.24" class="fWHITE sBLACK" stroke-width="0.12" />
    <path class="flight4 sBLACK" d="M 1.57,-2.82 L 2.65,-4.69 L 2.16,-4.98 L 1.08,-3.11 L 1.57,-2.82 Z" stroke-width="0.12" />
    <path class="flight3 sBLACK" d="M -1.70,-4.69 L -0.62,-2.82 L -0.13,-3.11 L -1.21,-4.98 L -1.70,-4.69 Z" stroke-width="0.12" />
    <path class="fLITGY sBLACK" d="M -2.90,-8.25 L 2.90,-8.25 L 2.90,-5.35 L -2.90,-5.35 L -2.90,-8.25 Z" stroke-width="0.12" />
    <path class="flight1 sBLACK" d="M -2.01,-7.60 L -0.93,-5.73 L -0.44,-6.01 L -1.52,-7.88 L -2.01,-7.60 Z" stroke-width="0.12" />
    <path class="flight4 sBLACK" d="M 0.62,-2.82 L 1.70,-4.69 L 1.21,-4.98 L 0.13,-3.11 L 0.62,-2.82 Z" stroke-width="0.12" />
    <path class="flight3 sBLACK" d="M -2.65,-4.69 L -1.57,-2.82 L -1.08,-3.11 L -2.16,-4.98 L -2.65,-4.69 Z" stroke-width="0.12" />
    <path class="flight2 sBLACK" d="M 0.93,-5.73 L 2.01,-7.60 L 1.52,-7.88 L 0.44,-6.01 L 0.93,-5.73 Z" stroke-width="0.12" />
    <circle class="pivotPoint layout" fill="none" cx="0" cy="0" r="0.2" />
  </g>
</svg>