<?xml version="1.0" encoding="UTF-8"?>
<?xml-stylesheet type='text/css' href='S401Style.css'?>
<svg version="1.2" baseProfile="tiny" width="6.10mm" height="8.68mm" viewBox="-3.06 -5.43 6.12 8.70" xmlns="http://www.w3.org/2000/svg">
  <title>TOPMA109M</title>
  <desc>beacon top mark, green boarded square board, diagonal - missing</desc>
  <metadata />
  <g>
    <path class="fLTGRN sBLACK" d="M -1.56,-1.16 L 0.02,-2.72 L 1.56,-1.16 L 0.02,0.40 L -1.56,-1.16 Z" stroke-width="0.12" />
    <path class="fBLACK sBLACK" d="M 0.01,1.45 L -0.03,1.42 L -0.07,1.39 L -0.11,1.37 L -0.15,1.35 L -0.22,1.33 L -0.28,1.32 L -0.34,1.31 L -0.41,1.31 L -0.45,1.32 L -0.49,1.32 L -0.53,1.33 L -0.57,1.33 L -0.61,1.35 L -0.64,1.36 L -0.68,1.38 L -0.72,1.39 L -0.75,1.42 L -0.78,1.44 L -0.82,1.46 L -0.85,1.49 L -0.87,1.52 L -0.90,1.55 L -0.92,1.58 L -0.95,1.62 L -0.95,1.36 L -1.25,1.36 L -1.25,3.26 L -0.94,3.26 L -0.94,2.14 L -0.93,2.09 L -0.93,2.04 L -0.92,2.00 L -0.92,1.96 L -0.91,1.93 L -0.90,1.89 L -0.88,1.86 L -0.87,1.82 L -0.85,1.79 L -0.83,1.76 L -0.79,1.72 L -0.75,1.69 L -0.71,1.66 L -0.67,1.63 L -0.62,1.61 L -0.57,1.60 L -0.52,1.59 L -0.47,1.59 L -0.42,1.59 L -0.39,1.60 L -0.35,1.61 L -0.31,1.62 L -0.28,1.64 L -0.25,1.66 L -0.22,1.69 L 0.01,1.45 Z" stroke-width="0.04" />
    <path class="fBLACK sBLACK" d="M -0.26,1.65 L -0.23,1.68 L -0.21,1.71 L -0.19,1.77 L -0.18,1.83 L -0.17,1.89 L -0.17,1.94 L -0.17,3.22 L 0.16,3.22 L 0.16,2.10 L 0.16,2.05 L 0.16,2.00 L 0.17,1.95 L 0.18,1.91 L 0.19,1.87 L 0.20,1.84 L 0.21,1.80 L 0.23,1.77 L 0.25,1.74 L 0.27,1.71 L 0.29,1.68 L 0.32,1.66 L 0.35,1.63 L 0.39,1.61 L 0.42,1.60 L 0.46,1.58 L 0.50,1.57 L 0.54,1.56 L 0.58,1.56 L 0.62,1.56 L 0.67,1.56 L 0.72,1.57 L 0.77,1.59 L 0.82,1.61 L 0.84,1.63 L 0.86,1.65 L 0.88,1.67 L 0.90,1.69 L 0.91,1.72 L 0.92,1.74 L 0.93,1.77 L 0.94,1.80 L 0.95,1.86 L 0.95,1.93 L 0.95,1.99 L 0.95,2.06 L 0.95,3.22 L 1.27,3.22 L 1.27,2.08 L 1.27,1.99 L 1.27,1.90 L 1.27,1.81 L 1.26,1.72 L 1.25,1.69 L 1.25,1.65 L 1.24,1.62 L 1.22,1.59 L 1.21,1.56 L 1.19,1.53 L 1.17,1.50 L 1.15,1.47 L 1.13,1.44 L 1.11,1.42 L 1.08,1.40 L 1.05,1.38 L 1.02,1.36 L 0.99,1.34 L 0.96,1.33 L 0.93,1.32 L 0.86,1.30 L 0.80,1.29 L 0.74,1.28 L 0.67,1.28 L 0.63,1.28 L 0.59,1.28 L 0.54,1.29 L 0.50,1.30 L 0.46,1.31 L 0.42,1.32 L 0.38,1.34 L 0.34,1.35 L 0.31,1.37 L 0.27,1.40 L 0.24,1.42 L 0.21,1.45 L 0.17,1.48 L 0.15,1.51 L 0.12,1.54 L 0.09,1.57 L 0.07,1.53 L 0.04,1.49 L 0.01,1.45 L -0.03,1.42 L -0.26,1.65 Z" stroke-width="0.04" />
    <path class="fBLACK sBLACK" d="M 2.08,-2.46 L 3.05,-1.07 L 1.94,0.51 L 1.78,0.40 L 2.81,-1.07 L 1.92,-2.34 L 2.08,-2.46 Z" stroke-width="0.04" />
    <path class="fBLACK sBLACK" d="M -1.03,-3.61 L 0.00,-5.07 L 1.02,-3.62 L 1.18,-3.74 L 0.00,-5.42 L -1.19,-3.72 L -1.03,-3.61 Z" stroke-width="0.04" />
    <path class="fBLACK sBLACK" d="M -2.00,0.42 L -1.83,0.31 L -2.80,-1.07 L -1.87,-2.40 L -2.04,-2.51 L -3.05,-1.07 L -2.00,0.42 Z" stroke-width="0.04" />
    <path class="fWHITE sWHITE" d="M 0.03,-0.41 L 0.78,-1.15 L 0.03,-1.91 L -0.72,-1.17 L 0.03,-0.41 Z" stroke-width="0.04" />
    <circle class="pivotPoint layout" fill="none" cx="0" cy="0" r="0.2" />
  </g>
</svg>