<?xml version="1.0" encoding="UTF-8"?>
<?xml-stylesheet type='text/css' href='svgStyle.css'?>
<svg version="1.2" baseProfile="tiny" width="1.70mm" height="5.22mm" viewBox="-0.86 -5.23 1.72 5.24" xmlns="http://www.w3.org/2000/svg">
  <title>TOPMA117</title>
  <desc>buoy top mark, red-green sphere, upright</desc>
  <metadata />
  <g>
    <circle cx="0.00" cy="-4.37" r="0.85" class="fMIDRD sMIDRD" stroke-width="0.04" />
    <path class="fLTGRN sLTGRN" d="M 0.85,-4.37 L -0.85,-4.37 L -0.85,-4.29 L -0.83,-4.21 L -0.82,-4.14 L -0.79,-4.06 L -0.76,-3.99 L -0.72,-3.92 L -0.67,-3.85 L -0.62,-3.79 L -0.56,-3.73 L -0.49,-3.68 L -0.42,-3.64 L -0.35,-3.60 L -0.28,-3.57 L -0.20,-3.55 L -0.12,-3.53 L -0.04,-3.53 L 0.04,-3.53 L 0.12,-3.53 L 0.20,-3.55 L 0.28,-3.57 L 0.35,-3.60 L 0.43,-3.64 L 0.49,-3.68 L 0.56,-3.73 L 0.62,-3.79 L 0.67,-3.85 L 0.72,-3.92 L 0.76,-3.99 L 0.79,-4.06 L 0.82,-4.14 L 0.83,-4.21 L 0.85,-4.29 L 0.85,-4.37 Z" stroke-width="0.04" />
    <circle cx="0.00" cy="-4.37" r="0.85" class="f0 sBLACK" stroke-width="0.12" />
    <path class="f0 sBLACK" d="M 0.00,-3.52 L 0.00,-3.29 " stroke-width="0.12" />
    <circle class="pivotPoint layout" fill="none" cx="0" cy="0" r="0.2" />
  </g>
</svg>