<?xml version="1.0" encoding="UTF-8"?>
<?xml-stylesheet type='text/css' href='S401Style.css'?>
<svg version="1.2" baseProfile="tiny" width="3.00mm" height="5.40mm" viewBox="-1.51 -5.41 3.02 5.42" xmlns="http://www.w3.org/2000/svg">
  <title>TOPMAB3L2</title>
  <desc>BinSchStrO, Anl. 8, VII.B.3 left, catlam 24</desc>
  <metadata />
  <g>
    <path class="f0 sWHITE" d="M -1.33,-4.07 L 0.00,-5.40 L 1.33,-4.07 " stroke-width="0.04" />
    <path class="fBLACK sBLACK" d="M -0.33,-5.07 L 0.33,-5.07 L 0.67,-4.73 L -0.67,-4.73 L -0.33,-5.07 Z" stroke-width="0" />
    <path class="fBLACK sBLACK" d="M -1.00,-4.40 L 1.00,-4.40 L 1.33,-4.07 L -1.33,-4.07 L -1.00,-4.40 Z" stroke-width="0" />
    <path class="fBLACK sBLACK" d="M -1.33,-3.73 L 1.33,-3.73 L 1.00,-3.40 L -1.00,-3.40 L -1.33,-3.73 Z" stroke-width="0" />
    <path class="fBLACK sBLACK" d="M -0.67,-3.07 L 0.67,-3.07 L 0.33,-2.73 L -0.33,-2.73 L -0.67,-3.07 Z" stroke-width="0" />
    <path class="f0 sBLACK" d="M 0.00,-5.40 L 1.50,-3.90 L 0.00,-2.40 L -1.50,-3.90 L 0.00,-5.40 " stroke-width="0.12" />
    <circle class="pivotPoint layout" fill="none" cx="0" cy="0" r="0.2" />
  </g>
</svg>