<?xml version="1.0" encoding="UTF-8"?>
<?xml-stylesheet type='text/css' href='S401Style.css'?>
<svg version="1.2" baseProfile="tiny" width="6.10mm" height="8.70mm" viewBox="-3.11 -8.29 6.12 8.72" xmlns="http://www.w3.org/2000/svg">
  <title>TOPMA112F</title>
  <desc>beacon top mark, yellow-black square board, diagonal - off position</desc>
  <metadata />
  <g>
    <path class="fBLACK sBLACK" d="M 0.47,-0.50 L 0.47,-0.45 L 0.47,-0.39 L 0.46,-0.34 L 0.45,-0.29 L 0.44,-0.24 L 0.42,-0.19 L 0.40,-0.14 L 0.39,-0.10 L 0.37,-0.07 L 0.35,-0.04 L 0.33,-0.02 L 0.30,0.01 L 0.28,0.03 L 0.25,0.06 L 0.22,0.08 L 0.19,0.09 L 0.16,0.11 L 0.13,0.12 L 0.09,0.13 L 0.06,0.14 L 0.02,0.15 L -0.01,0.15 L -0.05,0.15 L -0.08,0.15 L -0.12,0.15 L -0.16,0.14 L -0.19,0.13 L -0.22,0.12 L -0.26,0.11 L -0.29,0.09 L -0.32,0.08 L -0.35,0.06 L -0.38,0.03 L -0.41,0.01 L -0.43,-0.02 L -0.45,-0.05 L -0.47,-0.08 L -0.49,-0.11 L -0.50,-0.14 L -0.52,-0.19 L -0.54,-0.24 L -0.55,-0.29 L -0.56,-0.34 L -0.57,-0.39 L -0.58,-0.45 L -0.89,-0.44 L -0.88,-0.33 L -0.87,-0.25 L -0.85,-0.16 L -0.82,-0.08 L -0.78,0.00 L -0.75,0.06 L -0.71,0.11 L -0.67,0.16 L -0.63,0.21 L -0.58,0.26 L -0.52,0.30 L -0.46,0.33 L -0.40,0.36 L -0.36,0.38 L -0.32,0.39 L -0.27,0.40 L -0.23,0.41 L -0.19,0.42 L -0.14,0.42 L -0.10,0.42 L -0.05,0.42 L 0.00,0.42 L 0.05,0.42 L 0.10,0.41 L 0.15,0.40 L 0.19,0.40 L 0.23,0.38 L 0.27,0.37 L 0.31,0.36 L 0.35,0.34 L 0.38,0.32 L 0.42,0.30 L 0.45,0.27 L 0.50,0.23 L 0.55,0.18 L 0.60,0.13 L 0.64,0.07 L 0.67,0.01 L 0.70,-0.05 L 0.73,-0.11 L 0.74,-0.17 L 0.76,-0.27 L 0.78,-0.36 L 0.79,-0.46 L 0.47,-0.50 Z" stroke-width="0.04" />
    <path class="fBLACK sBLACK" d="M -0.05,-1.53 L -0.10,-1.53 L -0.14,-1.52 L -0.19,-1.52 L -0.23,-1.51 L -0.27,-1.50 L -0.32,-1.49 L -0.36,-1.48 L -0.40,-1.47 L -0.44,-1.45 L -0.48,-1.42 L -0.52,-1.40 L -0.56,-1.37 L -0.59,-1.34 L -0.63,-1.31 L -0.66,-1.28 L -0.69,-1.25 L -0.72,-1.21 L -0.74,-1.18 L -0.77,-1.14 L -0.79,-1.10 L -0.81,-1.06 L -0.82,-1.01 L -0.84,-0.97 L -0.85,-0.93 L -0.87,-0.84 L -0.89,-0.74 L -0.89,-0.65 L -0.89,-0.55 L -0.89,-0.44 L -0.58,-0.45 L -0.58,-0.50 L -0.58,-0.55 L -0.58,-0.61 L -0.58,-0.66 L -0.57,-0.71 L -0.56,-0.76 L -0.55,-0.82 L -0.54,-0.87 L -0.52,-0.92 L -0.50,-0.97 L -0.49,-1.00 L -0.47,-1.03 L -0.45,-1.06 L -0.43,-1.09 L -0.40,-1.11 L -0.38,-1.14 L -0.35,-1.16 L -0.32,-1.18 L -0.29,-1.20 L -0.26,-1.21 L -0.22,-1.23 L -0.19,-1.24 L -0.15,-1.24 L -0.12,-1.25 L -0.08,-1.25 L -0.05,-1.25 L -0.05,-1.53 Z" stroke-width="0.04" />
    <path class="fBLACK sBLACK" d="M -0.05,-1.25 L -0.01,-1.25 L 0.02,-1.25 L 0.06,-1.24 L 0.09,-1.24 L 0.13,-1.23 L 0.16,-1.21 L 0.19,-1.20 L 0.22,-1.18 L 0.25,-1.16 L 0.28,-1.14 L 0.30,-1.11 L 0.33,-1.09 L 0.35,-1.06 L 0.37,-1.03 L 0.39,-1.00 L 0.40,-0.97 L 0.42,-0.92 L 0.43,-0.87 L 0.45,-0.82 L 0.46,-0.76 L 0.47,-0.71 L 0.47,-0.66 L 0.47,-0.61 L 0.47,-0.55 L 0.47,-0.50 L 0.79,-0.46 L 0.79,-0.55 L 0.78,-0.66 L 0.78,-0.77 L 0.76,-0.85 L 0.74,-0.94 L 0.71,-1.02 L 0.68,-1.10 L 0.65,-1.16 L 0.61,-1.22 L 0.57,-1.27 L 0.52,-1.32 L 0.47,-1.36 L 0.42,-1.40 L 0.36,-1.44 L 0.30,-1.47 L 0.26,-1.48 L 0.21,-1.49 L 0.17,-1.50 L 0.13,-1.51 L 0.08,-1.52 L 0.04,-1.52 L -0.01,-1.53 L -0.05,-1.53 L -0.05,-1.25 Z" stroke-width="0.04" />
    <path class="fBLACK sBLACK" d="M 1.24,-1.42 L 3.00,-3.93 L -0.05,-8.28 L -3.10,-3.93 L -1.34,-1.42 L -1.23,-1.61 L -2.86,-3.93 L -0.05,-7.93 L 2.76,-3.93 L 1.13,-1.61 L 1.24,-1.42 Z" stroke-width="0" />
    <path class="fYLLOW sYLLOW" d="M -1.61,-4.08 L -0.05,-5.65 L 1.51,-4.08 L -0.05,-2.53 L -1.61,-4.08 Z" stroke-width="0.04" />
    <path class="fBLACK sBLACK" d="M -0.37,-5.33 L -0.05,-5.65 L 0.27,-5.33 L 0.27,-2.85 L -0.05,-2.53 L -0.37,-2.85 L -0.37,-5.33 Z" stroke-width="0.04" />
    <path class="f0 sBLACK" d="M -1.61,-4.08 L -0.05,-5.65 L 1.51,-4.08 L -0.05,-2.53 L -1.61,-4.08 " stroke-width="0.12" />
    <circle class="pivotPoint layout" fill="none" cx="0" cy="0" r="0.2" />
  </g>
</svg>