<?xml version="1.0" encoding="UTF-8"?>
<?xml-stylesheet type='text/css' href='S401Style.css'?>
<svg version="1.2" baseProfile="tiny" width="6.10mm" height="8.70mm" viewBox="-3.06 -8.18 6.12 8.72" xmlns="http://www.w3.org/2000/svg">
  <title>TOPMA107V</title>
  <desc>beacon top mark, red boarded square board, vertical - virtual</desc>
  <metadata />
  <g>
    <path class="fMIDRD sBLACK" d="M -1.19,-2.62 L 1.19,-2.62 L 1.19,-5.01 L -1.19,-5.01 L -1.19,-2.62 Z" stroke-width="0.12" />
    <path class="fBLACK sBLACK" d="M -1.00,-6.39 L 0.00,-7.82 L 0.98,-6.41 L 1.15,-6.53 L 0.00,-8.17 L -1.17,-6.51 L -1.00,-6.39 Z" stroke-width="0.04" />
    <path class="fBLACK sBLACK" d="M -1.84,-2.43 L -2.80,-3.81 L -1.88,-5.14 L -2.04,-5.25 L -3.05,-3.81 L -2.00,-2.32 L -1.84,-2.43 Z" stroke-width="0.04" />
    <path class="fBLACK sBLACK" d="M 2.08,-5.20 L 3.05,-3.81 L 1.94,-2.22 L 1.77,-2.34 L 2.81,-3.81 L 1.91,-5.09 L 2.08,-5.20 Z" stroke-width="0.04" />
    <path class="fBLACK sBLACK" d="M 1.11,-1.05 L 0.00,0.53 L -1.06,-0.97 L -0.89,-1.09 L 0.00,0.18 L 0.94,-1.17 L 1.11,-1.05 Z" stroke-width="0.04" />
    <path class="fWHITE sWHITE" d="M -0.72,-3.10 L 0.72,-3.10 L 0.72,-4.53 L -0.72,-4.53 L -0.72,-3.10 Z" stroke-width="0.04" />
    <circle class="pivotPoint layout" fill="none" cx="0" cy="0" r="0.2" />
  </g>
</svg>