<?xml version="1.0" encoding="UTF-8"?>
<?xml-stylesheet type='text/css' href='S401Style.css'?>
<svg version="1.2" baseProfile="tiny" width="6.10mm" height="8.70mm" viewBox="-3.04 -8.12 6.12 8.72" xmlns="http://www.w3.org/2000/svg">
  <title>TOPMA107F</title>
  <desc>beacon top mark, red boarded square board, vertical - off position
</desc>
  <metadata />
  <g>
    <path class="fMIDRD sBLACK" d="M -1.19,-2.62 L 1.19,-2.62 L 1.19,-5.01 L -1.19,-5.01 L -1.19,-2.62 Z" stroke-width="0.12" />
    <path class="fBLACK sBLACK" d="M 0.54,-0.33 L 0.54,-0.28 L 0.54,-0.23 L 0.53,-0.17 L 0.52,-0.12 L 0.50,-0.07 L 0.49,-0.02 L 0.47,0.03 L 0.45,0.06 L 0.44,0.09 L 0.42,0.12 L 0.40,0.15 L 0.37,0.18 L 0.35,0.20 L 0.32,0.22 L 0.29,0.24 L 0.26,0.26 L 0.23,0.28 L 0.19,0.29 L 0.16,0.30 L 0.13,0.31 L 0.09,0.31 L 0.06,0.31 L 0.02,0.31 L -0.02,0.31 L -0.05,0.31 L -0.09,0.31 L -0.12,0.30 L -0.16,0.29 L -0.19,0.28 L -0.22,0.26 L -0.25,0.24 L -0.28,0.22 L -0.31,0.20 L -0.34,0.18 L -0.36,0.15 L -0.38,0.12 L -0.40,0.09 L -0.42,0.06 L -0.44,0.03 L -0.45,-0.02 L -0.47,-0.07 L -0.48,-0.12 L -0.49,-0.18 L -0.50,-0.23 L -0.51,-0.28 L -0.82,-0.28 L -0.81,-0.17 L -0.80,-0.08 L -0.78,0.00 L -0.75,0.08 L -0.72,0.16 L -0.68,0.22 L -0.65,0.28 L -0.60,0.33 L -0.56,0.38 L -0.51,0.42 L -0.45,0.46 L -0.39,0.50 L -0.33,0.53 L -0.29,0.54 L -0.25,0.56 L -0.21,0.57 L -0.16,0.58 L -0.12,0.58 L -0.07,0.59 L -0.03,0.59 L 0.02,0.59 L 0.07,0.59 L 0.12,0.58 L 0.17,0.58 L 0.22,0.57 L 0.26,0.56 L 0.30,0.55 L 0.34,0.54 L 0.38,0.52 L 0.42,0.50 L 0.45,0.48 L 0.49,0.46 L 0.52,0.44 L 0.57,0.39 L 0.62,0.35 L 0.67,0.29 L 0.71,0.24 L 0.74,0.18 L 0.77,0.12 L 0.79,0.06 L 0.81,-0.01 L 0.83,-0.10 L 0.85,-0.19 L 0.85,-0.29 L 0.54,-0.33 Z" stroke-width="0.04" />
    <path class="fBLACK sBLACK" d="M 0.02,-1.36 L -0.03,-1.36 L -0.07,-1.36 L -0.12,-1.35 L -0.16,-1.35 L -0.21,-1.34 L -0.25,-1.33 L -0.29,-1.31 L -0.33,-1.30 L -0.37,-1.28 L -0.41,-1.26 L -0.45,-1.23 L -0.49,-1.21 L -0.52,-1.18 L -0.56,-1.15 L -0.59,-1.12 L -0.62,-1.08 L -0.65,-1.05 L -0.67,-1.01 L -0.70,-0.97 L -0.72,-0.93 L -0.74,-0.89 L -0.76,-0.85 L -0.77,-0.81 L -0.78,-0.76 L -0.80,-0.67 L -0.82,-0.58 L -0.82,-0.48 L -0.82,-0.39 L -0.82,-0.28 L -0.51,-0.28 L -0.51,-0.33 L -0.51,-0.39 L -0.51,-0.44 L -0.51,-0.49 L -0.50,-0.55 L -0.49,-0.60 L -0.48,-0.65 L -0.47,-0.70 L -0.45,-0.75 L -0.44,-0.80 L -0.42,-0.83 L -0.40,-0.86 L -0.38,-0.89 L -0.36,-0.92 L -0.34,-0.95 L -0.31,-0.97 L -0.28,-0.99 L -0.25,-1.01 L -0.22,-1.03 L -0.19,-1.05 L -0.16,-1.06 L -0.12,-1.07 L -0.09,-1.08 L -0.05,-1.08 L -0.01,-1.09 L 0.02,-1.09 L 0.02,-1.36 Z" stroke-width="0.04" />
    <path class="fBLACK sBLACK" d="M 0.02,-1.09 L 0.06,-1.09 L 0.09,-1.08 L 0.13,-1.08 L 0.16,-1.07 L 0.19,-1.06 L 0.23,-1.05 L 0.26,-1.03 L 0.29,-1.01 L 0.32,-0.99 L 0.35,-0.97 L 0.37,-0.95 L 0.40,-0.92 L 0.42,-0.89 L 0.44,-0.86 L 0.45,-0.83 L 0.47,-0.80 L 0.49,-0.75 L 0.50,-0.70 L 0.52,-0.65 L 0.53,-0.60 L 0.54,-0.55 L 0.54,-0.49 L 0.54,-0.44 L 0.54,-0.39 L 0.54,-0.33 L 0.85,-0.29 L 0.86,-0.38 L 0.85,-0.49 L 0.84,-0.60 L 0.83,-0.69 L 0.81,-0.77 L 0.78,-0.85 L 0.75,-0.93 L 0.71,-0.99 L 0.68,-1.05 L 0.64,-1.10 L 0.59,-1.15 L 0.54,-1.19 L 0.49,-1.23 L 0.43,-1.27 L 0.37,-1.30 L 0.33,-1.31 L 0.28,-1.33 L 0.24,-1.34 L 0.20,-1.35 L 0.15,-1.35 L 0.11,-1.36 L 0.06,-1.36 L 0.02,-1.36 L 0.02,-1.09 Z" stroke-width="0.04" />
    <path class="fBLACK sBLACK" d="M 1.31,-1.26 L 3.07,-3.76 L 0.02,-8.11 L -3.03,-3.76 L -1.27,-1.25 L -1.16,-1.45 L -2.79,-3.76 L 0.02,-7.77 L 2.82,-3.76 L 1.20,-1.45 L 1.31,-1.26 Z" stroke-width="0" />
    <path class="fWHITE sWHITE" d="M -0.72,-3.10 L 0.72,-3.10 L 0.72,-4.53 L -0.72,-4.53 L -0.72,-3.10 Z" stroke-width="0.04" />
    <circle class="pivotPoint layout" fill="none" cx="0" cy="0" r="0.2" />
  </g>
</svg>