<?xml version="1.0" encoding="UTF-8"?>
<?xml-stylesheet type='text/css' href='S401Style.css'?>
<svg version="1.2" baseProfile="tiny" width="6.10mm" height="8.69mm" viewBox="-3.06 -8.17 6.12 8.71" xmlns="http://www.w3.org/2000/svg">
  <title>TOPMA107M</title>
  <desc>beacon top mark, red boarded square board, vertical - missing</desc>
  <metadata />
  <g>
    <path class="fMIDRD sBLACK" d="M -1.19,-2.67 L 1.19,-2.67 L 1.19,-5.06 L -1.19,-5.06 L -1.19,-2.67 Z" stroke-width="0.12" />
    <path class="fBLACK sBLACK" d="M 0.01,-1.28 L -0.03,-1.31 L -0.06,-1.34 L -0.11,-1.36 L -0.15,-1.38 L -0.21,-1.40 L -0.28,-1.41 L -0.34,-1.42 L -0.40,-1.42 L -0.44,-1.42 L -0.49,-1.42 L -0.52,-1.41 L -0.56,-1.40 L -0.60,-1.39 L -0.64,-1.38 L -0.68,-1.36 L -0.71,-1.34 L -0.75,-1.32 L -0.78,-1.30 L -0.81,-1.27 L -0.84,-1.24 L -0.87,-1.22 L -0.90,-1.18 L -0.92,-1.15 L -0.94,-1.12 L -0.94,-1.38 L -1.25,-1.38 L -1.25,0.52 L -0.93,0.52 L -0.93,-0.60 L -0.93,-0.65 L -0.92,-0.70 L -0.92,-0.73 L -0.91,-0.77 L -0.90,-0.81 L -0.89,-0.84 L -0.88,-0.88 L -0.86,-0.91 L -0.84,-0.95 L -0.82,-0.98 L -0.79,-1.02 L -0.75,-1.05 L -0.71,-1.08 L -0.66,-1.10 L -0.61,-1.12 L -0.56,-1.13 L -0.51,-1.14 L -0.46,-1.14 L -0.42,-1.14 L -0.38,-1.14 L -0.35,-1.13 L -0.31,-1.12 L -0.28,-1.10 L -0.25,-1.08 L -0.22,-1.05 L 0.01,-1.28 Z" stroke-width="0.04" />
    <path class="fBLACK sBLACK" d="M -0.25,-1.08 L -0.23,-1.05 L -0.21,-1.02 L -0.19,-0.97 L -0.18,-0.91 L -0.17,-0.85 L -0.17,-0.79 L -0.17,0.49 L 0.16,0.49 L 0.16,-0.63 L 0.16,-0.68 L 0.17,-0.73 L 0.17,-0.78 L 0.18,-0.83 L 0.19,-0.87 L 0.20,-0.90 L 0.22,-0.93 L 0.23,-0.97 L 0.25,-1.00 L 0.27,-1.03 L 0.30,-1.05 L 0.32,-1.08 L 0.36,-1.10 L 0.39,-1.12 L 0.43,-1.14 L 0.47,-1.15 L 0.50,-1.16 L 0.54,-1.17 L 0.58,-1.17 L 0.62,-1.18 L 0.67,-1.17 L 0.72,-1.16 L 0.77,-1.15 L 0.82,-1.12 L 0.84,-1.11 L 0.86,-1.09 L 0.88,-1.07 L 0.90,-1.04 L 0.91,-1.02 L 0.93,-0.99 L 0.94,-0.97 L 0.94,-0.94 L 0.95,-0.87 L 0.96,-0.81 L 0.96,-0.74 L 0.96,-0.68 L 0.96,0.49 L 1.27,0.49 L 1.27,-0.65 L 1.28,-0.74 L 1.27,-0.83 L 1.27,-0.92 L 1.26,-1.02 L 1.26,-1.05 L 1.25,-1.08 L 1.24,-1.12 L 1.23,-1.15 L 1.21,-1.18 L 1.20,-1.21 L 1.18,-1.24 L 1.16,-1.26 L 1.13,-1.29 L 1.11,-1.32 L 1.08,-1.34 L 1.05,-1.36 L 1.03,-1.38 L 1.00,-1.39 L 0.96,-1.41 L 0.93,-1.42 L 0.87,-1.44 L 0.80,-1.45 L 0.74,-1.45 L 0.67,-1.45 L 0.63,-1.45 L 0.59,-1.45 L 0.55,-1.45 L 0.51,-1.44 L 0.46,-1.43 L 0.42,-1.41 L 0.39,-1.40 L 0.35,-1.38 L 0.31,-1.36 L 0.28,-1.34 L 0.24,-1.31 L 0.21,-1.29 L 0.18,-1.26 L 0.15,-1.23 L 0.12,-1.20 L 0.10,-1.16 L 0.07,-1.21 L 0.04,-1.24 L 0.01,-1.28 L -0.02,-1.32 L -0.25,-1.08 Z" stroke-width="0.04" />
    <path class="fBLACK sBLACK" d="M -1.03,-6.35 L 0.00,-7.81 L 1.02,-6.36 L 1.18,-6.48 L 0.00,-8.16 L -1.19,-6.46 L -1.03,-6.35 Z" stroke-width="0.04" />
    <path class="fBLACK sBLACK" d="M -2.00,-2.32 L -1.84,-2.43 L -2.80,-3.81 L -1.88,-5.14 L -2.04,-5.25 L -3.05,-3.81 L -2.00,-2.32 Z" stroke-width="0.04" />
    <path class="fBLACK sBLACK" d="M 2.08,-5.20 L 3.05,-3.81 L 1.94,-2.23 L 1.78,-2.34 L 2.80,-3.81 L 1.91,-5.09 L 2.08,-5.20 Z" stroke-width="0.04" />
    <path class="fWHITE sWHITE" d="M -0.72,-3.15 L 0.72,-3.15 L 0.72,-4.58 L -0.72,-4.58 L -0.72,-3.15 Z" stroke-width="0.04" />
    <circle class="pivotPoint layout" fill="none" cx="0" cy="0" r="0.2" />
  </g>
</svg>