<?xml version="1.0" encoding="UTF-8"?>
<?xml-stylesheet type='text/css' href='svgStyle.css'?>
<svg version="1.2" baseProfile="tiny" width="6.10mm" height="8.69mm" viewBox="-3.08 -8.25 6.12 8.71" xmlns="http://www.w3.org/2000/svg">
  <title>TOPMA112M</title>
  <desc>beacon top mark, yellow-black square board, diagonal - missing</desc>
  <metadata />
  <g>
    <path class="fBLACK sBLACK" d="M -0.01,-1.36 L -0.04,-1.39 L -0.08,-1.42 L -0.13,-1.44 L -0.17,-1.46 L -0.23,-1.48 L -0.29,-1.49 L -0.36,-1.50 L -0.42,-1.50 L -0.46,-1.50 L -0.50,-1.49 L -0.54,-1.49 L -0.58,-1.48 L -0.62,-1.47 L -0.66,-1.45 L -0.70,-1.44 L -0.73,-1.42 L -0.77,-1.40 L -0.80,-1.38 L -0.83,-1.35 L -0.86,-1.32 L -0.89,-1.30 L -0.92,-1.26 L -0.94,-1.23 L -0.96,-1.20 L -0.96,-1.46 L -1.27,-1.46 L -1.27,0.44 L -0.95,0.44 L -0.95,-0.68 L -0.95,-0.73 L -0.94,-0.78 L -0.94,-0.81 L -0.93,-0.85 L -0.92,-0.89 L -0.91,-0.92 L -0.90,-0.96 L -0.88,-0.99 L -0.86,-1.03 L -0.84,-1.06 L -0.81,-1.09 L -0.77,-1.13 L -0.73,-1.16 L -0.68,-1.18 L -0.63,-1.20 L -0.58,-1.21 L -0.53,-1.22 L -0.48,-1.22 L -0.44,-1.22 L -0.40,-1.22 L -0.36,-1.21 L -0.33,-1.19 L -0.30,-1.18 L -0.26,-1.15 L -0.24,-1.13 L -0.01,-1.36 Z" stroke-width="0.04" />
    <path class="fBLACK sBLACK" d="M -0.27,-1.16 L -0.25,-1.13 L -0.23,-1.10 L -0.21,-1.05 L -0.19,-0.99 L -0.19,-0.93 L -0.19,-0.87 L -0.19,0.41 L 0.14,0.41 L 0.14,-0.71 L 0.14,-0.76 L 0.15,-0.81 L 0.15,-0.86 L 0.16,-0.91 L 0.17,-0.95 L 0.18,-0.98 L 0.20,-1.01 L 0.21,-1.05 L 0.23,-1.08 L 0.26,-1.10 L 0.28,-1.13 L 0.31,-1.16 L 0.34,-1.18 L 0.37,-1.20 L 0.41,-1.22 L 0.45,-1.23 L 0.49,-1.24 L 0.52,-1.25 L 0.56,-1.25 L 0.60,-1.25 L 0.66,-1.25 L 0.71,-1.24 L 0.75,-1.23 L 0.80,-1.20 L 0.82,-1.19 L 0.84,-1.17 L 0.86,-1.15 L 0.88,-1.12 L 0.90,-1.10 L 0.91,-1.07 L 0.92,-1.05 L 0.92,-1.02 L 0.93,-0.95 L 0.94,-0.89 L 0.94,-0.82 L 0.94,-0.76 L 0.94,0.41 L 1.25,0.41 L 1.25,-0.73 L 1.26,-0.82 L 1.25,-0.91 L 1.25,-1.00 L 1.24,-1.09 L 1.24,-1.13 L 1.23,-1.16 L 1.22,-1.20 L 1.21,-1.23 L 1.19,-1.26 L 1.18,-1.29 L 1.16,-1.32 L 1.14,-1.34 L 1.11,-1.37 L 1.09,-1.39 L 1.06,-1.42 L 1.04,-1.44 L 1.01,-1.46 L 0.98,-1.47 L 0.95,-1.49 L 0.91,-1.50 L 0.85,-1.52 L 0.79,-1.53 L 0.72,-1.53 L 0.65,-1.53 L 0.61,-1.53 L 0.57,-1.53 L 0.53,-1.53 L 0.49,-1.52 L 0.45,-1.51 L 0.41,-1.49 L 0.37,-1.48 L 0.33,-1.46 L 0.29,-1.44 L 0.26,-1.42 L 0.22,-1.39 L 0.19,-1.37 L 0.16,-1.34 L 0.13,-1.31 L 0.10,-1.28 L 0.08,-1.24 L 0.05,-1.29 L 0.02,-1.32 L -0.01,-1.36 L -0.04,-1.40 L -0.27,-1.16 Z" stroke-width="0.04" />
    <path class="fBLACK sBLACK" d="M -1.05,-6.43 L -0.02,-7.89 L 1.00,-6.44 L 1.16,-6.56 L -0.02,-8.24 L -1.21,-6.54 L -1.05,-6.43 Z" stroke-width="0.04" />
    <path class="fBLACK sBLACK" d="M -2.02,-2.40 L -1.86,-2.51 L -2.82,-3.89 L -1.90,-5.22 L -2.06,-5.33 L -3.07,-3.89 L -2.02,-2.40 Z" stroke-width="0.04" />
    <path class="fBLACK sBLACK" d="M 2.06,-5.28 L 3.03,-3.89 L 1.92,-2.31 L 1.76,-2.42 L 2.79,-3.89 L 1.89,-5.16 L 2.06,-5.28 Z" stroke-width="0.04" />
    <path class="fYLLOW sYLLOW" d="M -1.58,-4.04 L -0.02,-5.61 L 1.54,-4.04 L -0.02,-2.50 L -1.58,-4.04 Z" stroke-width="0.04" />
    <path class="fBLACK sBLACK" d="M -0.33,-5.29 L -0.02,-5.61 L 0.30,-5.29 L 0.30,-2.81 L -0.02,-2.50 L -0.33,-2.81 L -0.33,-5.29 Z" stroke-width="0.04" />
    <path class="f0 sBLACK" d="M -1.58,-4.04 L -0.02,-5.61 L 1.54,-4.04 L -0.02,-2.50 L -1.58,-4.04 " stroke-width="0.12" />
    <circle class="pivotPoint layout" fill="none" cx="0" cy="0" r="0.2" />
  </g>
</svg>