<?xml version="1.0" encoding="UTF-8"?>
<?xml-stylesheet type='text/css' href='svgStyle.css'?>
<svg version="1.2" baseProfile="tiny" width="14.99mm" height="7.00mm" viewBox="-3.51 -3.51 15.01 7.02" xmlns="http://www.w3.org/2000/svg">
  <title>TRNARE01</title>
  <desc>turning area (E.8)</desc>
  <metadata />
  <g>
    <path class="f0 sBLACK" d="M 4.49,3.50 L 4.49,-3.50 L 11.49,-3.50 L 11.49,3.50 L 4.49,3.50 Z" stroke-width="0.12" />
    <path class="fPURPL sPURPL" d="M 0.94,2.64 L 0.87,2.78 L 0.76,2.82 L 0.52,2.87 L 0.28,2.90 L 0.03,2.91 L -0.23,2.90 L -0.49,2.87 L -0.74,2.81 L -0.99,2.73 L -1.24,2.63 L -1.47,2.50 L -1.69,2.36 L -1.89,2.19 L -2.07,2.02 L -2.23,1.83 L -2.38,1.63 L -2.50,1.43 L -2.61,1.22 L -2.70,1.00 L -2.77,0.77 L -2.82,0.53 L -2.85,0.28 L -2.86,0.02 L -2.85,-0.24 L -2.81,-0.50 L -2.75,-0.76 L -2.67,-1.01 L -2.56,-1.25 L -2.44,-1.47 L -2.29,-1.69 L -2.13,-1.88 L -1.96,-2.06 L -1.78,-2.22 L -1.59,-2.36 L -1.39,-2.48 L -1.18,-2.59 L -0.95,-2.68 L -0.71,-2.75 L -0.46,-2.81 L -0.21,-2.84 L 0.05,-2.85 L 0.32,-2.83 L 0.58,-2.79 L 0.83,-2.73 L 1.08,-2.64 L 1.32,-2.54 L 1.54,-2.41 L 1.75,-2.27 L 1.94,-2.11 L 2.11,-1.94 L 2.33,-1.69 L 1.88,-1.26 L 3.37,-0.88 L 3.21,-2.46 L 2.73,-2.02 L 2.43,-2.35 L 2.23,-2.55 L 2.00,-2.73 L 1.76,-2.89 L 1.49,-3.04 L 1.22,-3.16 L 0.92,-3.25 L 0.63,-3.33 L 0.32,-3.37 L 0.01,-3.38 L -0.29,-3.37 L -0.59,-3.33 L -0.88,-3.27 L -1.16,-3.18 L -1.43,-3.07 L -1.67,-2.94 L -1.90,-2.80 L -2.13,-2.63 L -2.34,-2.45 L -2.54,-2.24 L -2.73,-2.01 L -2.89,-1.76 L -3.04,-1.49 L -3.16,-1.21 L -3.26,-0.92 L -3.33,-0.61 L -3.37,-0.31 L -3.39,-0.01 L -3.37,0.29 L -3.33,0.59 L -3.27,0.87 L -3.19,1.14 L -3.08,1.40 L -2.96,1.64 L -2.81,1.88 L -2.65,2.11 L -2.45,2.33 L -2.24,2.54 L -2.00,2.73 L -1.75,2.90 L -1.48,3.04 L -1.20,3.16 L -0.90,3.26 L -0.60,3.33 L -0.30,3.37 L 0.00,3.38 L 0.29,3.37 L 0.58,3.33 L 0.85,3.27 L 1.01,3.22 L 0.87,2.78 L 0.94,2.64 L 1.15,3.30 L 0.88,3.38 L 0.60,3.44 L 0.30,3.48 L 0.00,3.50 L -0.31,3.48 L -0.62,3.44 L -0.93,3.37 L -1.24,3.27 L -1.53,3.15 L -1.81,2.99 L -2.07,2.82 L -2.31,2.62 L -2.54,2.41 L -2.74,2.18 L -2.91,1.94 L -3.06,1.70 L -3.19,1.45 L -3.29,1.18 L -3.38,0.90 L -3.45,0.61 L -3.49,0.30 L -3.50,-0.01 L -3.49,-0.32 L -3.44,-0.64 L -3.37,-0.95 L -3.27,-1.25 L -3.14,-1.54 L -2.99,-1.82 L -2.82,-2.08 L -2.63,-2.31 L -2.42,-2.53 L -2.20,-2.72 L -1.97,-2.89 L -1.73,-3.04 L -1.47,-3.17 L -1.20,-3.29 L -0.91,-3.38 L -0.61,-3.45 L -0.30,-3.49 L 0.01,-3.50 L 0.33,-3.48 L 0.65,-3.44 L 0.96,-3.37 L 1.26,-3.26 L 1.54,-3.14 L 1.82,-2.99 L 2.07,-2.82 L 2.30,-2.63 L 2.51,-2.43 L 2.74,-2.19 L 3.30,-2.69 L 3.50,-0.72 L 1.65,-1.20 L 2.17,-1.70 L 2.03,-1.87 L 1.86,-2.03 L 1.68,-2.18 L 1.48,-2.31 L 1.27,-2.43 L 1.04,-2.54 L 0.80,-2.62 L 0.56,-2.68 L 0.30,-2.72 L 0.05,-2.73 L -0.20,-2.72 L -0.44,-2.69 L -0.68,-2.64 L -0.91,-2.57 L -1.13,-2.48 L -1.33,-2.38 L -1.52,-2.26 L -1.71,-2.13 L -1.88,-1.98 L -2.05,-1.81 L -2.20,-1.62 L -2.34,-1.41 L -2.46,-1.19 L -2.56,-0.96 L -2.64,-0.72 L -2.70,-0.48 L -2.74,-0.23 L -2.75,0.02 L -2.74,0.27 L -2.71,0.51 L -2.66,0.74 L -2.59,0.96 L -2.50,1.17 L -2.40,1.37 L -2.28,1.57 L -2.14,1.76 L -1.99,1.94 L -1.81,2.11 L -1.62,2.26 L -1.41,2.40 L -1.19,2.52 L -0.95,2.62 L -0.71,2.70 L -0.47,2.75 L -0.22,2.79 L 0.03,2.80 L 0.27,2.79 L 0.50,2.75 L 0.73,2.70 L 0.94,2.64 Z" stroke-width="0.04" />
    <path class="fPURPL sPURPL" d="M 0.09,1.26 L 0.10,1.82 L -0.02,1.94 L -0.02,1.16 L 0.05,1.15 L 0.13,1.14 L 0.20,1.13 L 0.28,1.11 L 0.36,1.08 L 0.44,1.05 L 0.52,1.01 L 0.59,0.96 L 0.66,0.91 L 0.73,0.84 L 0.79,0.78 L 0.85,0.70 L 0.90,0.63 L 0.95,0.54 L 0.98,0.46 L 1.01,0.37 L 1.04,0.29 L 1.05,0.20 L 1.06,0.11 L 1.06,0.03 L 1.05,-0.06 L 1.04,-0.14 L 1.02,-0.21 L 1.00,-0.29 L 0.97,-0.36 L 0.94,-0.42 L 0.90,-0.49 L 0.86,-0.55 L 0.81,-0.62 L 0.76,-0.68 L 0.70,-0.74 L 0.63,-0.80 L 0.56,-0.85 L 0.48,-0.89 L 0.40,-0.93 L 0.31,-0.97 L 0.22,-0.99 L 0.13,-1.01 L 0.04,-1.02 L -0.06,-1.02 L -0.15,-1.01 L -0.24,-1.00 L -0.32,-0.98 L -0.41,-0.95 L -0.48,-0.92 L -0.56,-0.88 L -0.63,-0.84 L -0.69,-0.79 L -0.75,-0.75 L -0.80,-0.70 L -0.21,-0.20 L -2.15,0.21 L -1.80,-1.83 L -1.29,-1.24 L -1.19,-1.32 L -1.09,-1.41 L -0.98,-1.49 L -0.86,-1.56 L -0.73,-1.62 L -0.60,-1.68 L -0.45,-1.72 L -0.30,-1.76 L -0.15,-1.78 L 0.01,-1.79 L 0.17,-1.79 L 0.33,-1.77 L 0.49,-1.73 L 0.64,-1.69 L 0.79,-1.63 L 0.93,-1.56 L 1.07,-1.48 L 1.19,-1.39 L 1.31,-1.29 L 1.41,-1.19 L 1.51,-1.08 L 1.59,-0.96 L 1.66,-0.85 L 1.72,-0.73 L 1.77,-0.61 L 1.81,-0.50 L 1.85,-0.37 L 1.88,-0.24 L 1.90,-0.10 L 1.90,0.05 L 1.90,0.19 L 1.88,0.34 L 1.85,0.50 L 1.81,0.65 L 1.76,0.80 L 1.69,0.94 L 1.61,1.08 L 1.52,1.21 L 1.41,1.33 L 1.30,1.45 L 1.18,1.55 L 1.05,1.64 L 0.92,1.72 L 0.78,1.78 L 0.64,1.84 L 0.51,1.88 L 0.37,1.91 L 0.24,1.93 L 0.10,1.94 L -0.02,1.94 L 0.10,1.82 L 0.22,1.81 L 0.35,1.80 L 0.48,1.77 L 0.61,1.73 L 0.74,1.68 L 0.86,1.62 L 0.99,1.54 L 1.11,1.46 L 1.22,1.36 L 1.33,1.26 L 1.43,1.14 L 1.51,1.02 L 1.59,0.89 L 1.65,0.75 L 1.70,0.61 L 1.74,0.47 L 1.77,0.33 L 1.78,0.19 L 1.79,0.05 L 1.78,-0.09 L 1.76,-0.22 L 1.74,-0.34 L 1.70,-0.46 L 1.66,-0.57 L 1.62,-0.68 L 1.56,-0.79 L 1.49,-0.90 L 1.42,-1.01 L 1.33,-1.11 L 1.23,-1.21 L 1.12,-1.30 L 1.01,-1.38 L 0.88,-1.46 L 0.75,-1.53 L 0.61,-1.58 L 0.46,-1.62 L 0.31,-1.65 L 0.16,-1.67 L 0.01,-1.67 L -0.13,-1.67 L -0.28,-1.65 L -0.42,-1.61 L -0.56,-1.57 L -0.68,-1.52 L -0.81,-1.46 L -0.92,-1.39 L -1.02,-1.32 L -1.12,-1.24 L -1.29,-1.07 L -1.72,-1.57 L -2.01,0.06 L -0.46,-0.26 L -0.98,-0.69 L -0.83,-0.83 L -0.76,-0.89 L -0.69,-0.94 L -0.62,-0.98 L -0.53,-1.02 L -0.45,-1.06 L -0.35,-1.09 L -0.26,-1.11 L -0.16,-1.13 L -0.06,-1.13 L 0.04,-1.13 L 0.15,-1.12 L 0.25,-1.10 L 0.35,-1.07 L 0.44,-1.04 L 0.53,-1.00 L 0.62,-0.95 L 0.70,-0.89 L 0.77,-0.83 L 0.84,-0.76 L 0.90,-0.69 L 0.96,-0.62 L 1.00,-0.55 L 1.04,-0.47 L 1.08,-0.40 L 1.11,-0.32 L 1.13,-0.24 L 1.15,-0.16 L 1.16,-0.07 L 1.17,0.02 L 1.17,0.12 L 1.16,0.21 L 1.15,0.31 L 1.12,0.41 L 1.09,0.50 L 1.05,0.60 L 1.00,0.69 L 0.95,0.77 L 0.88,0.85 L 0.81,0.93 L 0.74,0.99 L 0.66,1.05 L 0.57,1.11 L 0.49,1.15 L 0.40,1.19 L 0.32,1.22 L 0.23,1.24 L 0.14,1.26 L 0.09,1.26 Z" stroke-width="0.04" />
    <path class="fA64CFF sA64CFF" d="M 8.80,2.89 L 8.93,2.64 L 8.72,2.70 L 8.49,2.75 L 8.26,2.79 L 8.02,2.80 L 7.77,2.79 L 7.52,2.75 L 7.28,2.70 L 7.04,2.62 L 6.80,2.52 L 6.58,2.40 L 6.37,2.26 L 6.18,2.11 L 6.00,1.94 L 5.85,1.76 L 5.71,1.57 L 5.59,1.37 L 5.49,1.17 L 5.40,0.96 L 5.33,0.74 L 5.28,0.51 L 5.25,0.27 L 5.24,0.02 L 5.25,-0.23 L 5.29,-0.48 L 5.35,-0.72 L 5.43,-0.96 L 5.53,-1.19 L 5.65,-1.41 L 5.79,-1.62 L 5.94,-1.81 L 6.11,-1.98 L 6.28,-2.13 L 6.47,-2.26 L 6.66,-2.38 L 6.86,-2.48 L 7.08,-2.57 L 7.31,-2.64 L 7.55,-2.69 L 7.79,-2.72 L 8.04,-2.73 L 8.29,-2.72 L 8.55,-2.68 L 8.79,-2.62 L 9.03,-2.54 L 9.26,-2.43 L 9.47,-2.31 L 9.67,-2.18 L 9.85,-2.03 L 10.02,-1.87 L 10.16,-1.70 L 9.64,-1.20 L 11.49,-0.72 L 11.29,-2.69 L 10.73,-2.19 L 10.50,-2.43 L 10.29,-2.63 L 10.06,-2.82 L 9.81,-2.99 L 9.53,-3.14 L 9.25,-3.26 L 8.95,-3.37 L 8.64,-3.44 L 8.32,-3.48 L 8.00,-3.50 L 7.69,-3.49 L 7.38,-3.45 L 7.08,-3.38 L 6.79,-3.29 L 6.52,-3.17 L 6.26,-3.04 L 6.02,-2.89 L 5.79,-2.72 L 5.57,-2.53 L 5.36,-2.31 L 5.17,-2.08 L 5.00,-1.82 L 4.85,-1.54 L 4.72,-1.25 L 4.62,-0.95 L 4.55,-0.64 L 4.50,-0.32 L 4.49,-0.01 L 4.50,0.30 L 4.54,0.61 L 4.61,0.90 L 4.70,1.18 L 4.80,1.45 L 4.93,1.70 L 5.08,1.94 L 5.25,2.18 L 5.45,2.41 L 5.68,2.62 L 5.92,2.82 L 6.18,2.99 L 6.46,3.15 L 6.75,3.27 L 7.06,3.37 L 7.37,3.44 L 7.68,3.48 L 7.99,3.50 L 8.29,3.48 L 8.59,3.44 L 8.87,3.38 L 9.14,3.30 L 8.93,2.64 L 8.80,2.89 L 8.89,3.17 L 8.82,3.19 L 8.55,3.25 L 8.27,3.28 L 7.99,3.30 L 7.70,3.28 L 7.40,3.24 L 7.11,3.18 L 6.83,3.08 L 6.55,2.97 L 6.29,2.82 L 6.04,2.66 L 5.81,2.47 L 5.60,2.27 L 5.41,2.06 L 5.25,1.83 L 5.11,1.60 L 4.99,1.36 L 4.88,1.11 L 4.80,0.85 L 4.74,0.57 L 4.70,0.29 L 4.69,-0.01 L 4.70,-0.30 L 4.75,-0.60 L 4.81,-0.89 L 4.91,-1.18 L 5.03,-1.45 L 5.17,-1.71 L 5.33,-1.96 L 5.51,-2.18 L 5.71,-2.39 L 5.92,-2.57 L 6.13,-2.73 L 6.36,-2.87 L 6.60,-2.99 L 6.86,-3.10 L 7.13,-3.19 L 7.41,-3.25 L 7.70,-3.29 L 8.00,-3.30 L 8.30,-3.28 L 8.60,-3.24 L 8.89,-3.17 L 9.18,-3.08 L 9.45,-2.96 L 9.70,-2.82 L 9.94,-2.66 L 10.16,-2.48 L 10.36,-2.29 L 10.72,-1.90 L 11.13,-2.28 L 11.26,-0.99 L 10.04,-1.30 L 10.44,-1.68 L 10.16,-2.00 L 9.98,-2.18 L 9.79,-2.34 L 9.58,-2.48 L 9.35,-2.61 L 9.10,-2.72 L 8.85,-2.81 L 8.58,-2.88 L 8.32,-2.92 L 8.05,-2.93 L 7.78,-2.92 L 7.51,-2.89 L 7.26,-2.84 L 7.01,-2.76 L 6.78,-2.67 L 6.56,-2.55 L 6.36,-2.43 L 6.16,-2.29 L 5.97,-2.12 L 5.79,-1.94 L 5.63,-1.74 L 5.48,-1.52 L 5.35,-1.28 L 5.24,-1.04 L 5.15,-0.78 L 5.09,-0.51 L 5.05,-0.25 L 5.04,0.02 L 5.05,0.29 L 5.09,0.54 L 5.14,0.79 L 5.21,1.03 L 5.31,1.26 L 5.41,1.47 L 5.54,1.68 L 5.69,1.88 L 5.86,2.08 L 6.05,2.26 L 6.25,2.42 L 6.48,2.57 L 6.72,2.70 L 6.97,2.81 L 7.22,2.89 L 7.49,2.95 L 7.75,2.99 L 8.02,3.00 L 8.27,2.99 L 8.53,2.95 L 8.77,2.90 L 8.80,2.89 Z" stroke-width="0.04" />
    <path class="fA64CFF sA64CFF" d="M 7.97,1.16 L 8.17,1.34 L 8.17,1.73 L 8.20,1.73 L 8.32,1.71 L 8.45,1.69 L 8.57,1.65 L 8.69,1.60 L 8.81,1.54 L 8.93,1.47 L 9.05,1.39 L 9.15,1.30 L 9.26,1.20 L 9.35,1.09 L 9.43,0.97 L 9.50,0.85 L 9.56,0.72 L 9.61,0.59 L 9.65,0.45 L 9.68,0.32 L 9.69,0.18 L 9.69,0.05 L 9.69,-0.08 L 9.67,-0.20 L 9.65,-0.32 L 9.61,-0.43 L 9.58,-0.54 L 9.53,-0.64 L 9.48,-0.75 L 9.41,-0.85 L 9.34,-0.95 L 9.26,-1.05 L 9.16,-1.14 L 9.06,-1.23 L 8.95,-1.31 L 8.83,-1.38 L 8.70,-1.45 L 8.57,-1.50 L 8.43,-1.54 L 8.29,-1.57 L 8.15,-1.59 L 8.01,-1.59 L 7.86,-1.58 L 7.73,-1.56 L 7.59,-1.53 L 7.46,-1.49 L 7.34,-1.44 L 7.23,-1.38 L 7.12,-1.32 L 7.02,-1.25 L 6.93,-1.17 L 6.69,-0.95 L 6.32,-1.38 L 6.09,-0.05 L 7.34,-0.31 L 6.88,-0.69 L 7.11,-0.90 L 7.18,-0.95 L 7.25,-1.01 L 7.33,-1.06 L 7.42,-1.10 L 7.52,-1.14 L 7.61,-1.17 L 7.72,-1.20 L 7.82,-1.21 L 7.93,-1.22 L 8.04,-1.22 L 8.15,-1.21 L 8.26,-1.19 L 8.36,-1.16 L 8.46,-1.12 L 8.56,-1.07 L 8.65,-1.02 L 8.74,-0.96 L 8.82,-0.89 L 8.89,-0.82 L 8.96,-0.75 L 9.02,-0.67 L 9.07,-0.59 L 9.11,-0.51 L 9.15,-0.43 L 9.18,-0.35 L 9.20,-0.27 L 9.23,-0.17 L 9.24,-0.08 L 9.25,0.02 L 9.25,0.12 L 9.24,0.22 L 9.22,0.33 L 9.20,0.43 L 9.16,0.53 L 9.12,0.63 L 9.07,0.73 L 9.00,0.82 L 8.94,0.91 L 8.86,0.99 L 8.78,1.06 L 8.70,1.12 L 8.61,1.18 L 8.52,1.23 L 8.42,1.27 L 8.33,1.30 L 8.24,1.33 L 8.17,1.34 L 7.97,1.16 L 8.04,1.15 L 8.12,1.14 L 8.19,1.13 L 8.27,1.11 L 8.35,1.08 L 8.43,1.05 L 8.51,1.01 L 8.58,0.96 L 8.65,0.91 L 8.72,0.84 L 8.79,0.78 L 8.84,0.70 L 8.89,0.63 L 8.94,0.54 L 8.97,0.46 L 9.00,0.37 L 9.03,0.29 L 9.04,0.20 L 9.05,0.11 L 9.05,0.03 L 9.04,-0.06 L 9.03,-0.14 L 9.01,-0.21 L 8.99,-0.29 L 8.96,-0.36 L 8.93,-0.42 L 8.89,-0.49 L 8.85,-0.55 L 8.80,-0.62 L 8.75,-0.68 L 8.69,-0.74 L 8.62,-0.80 L 8.55,-0.85 L 8.47,-0.89 L 8.39,-0.93 L 8.30,-0.97 L 8.21,-0.99 L 8.12,-1.01 L 8.03,-1.02 L 7.93,-1.02 L 7.84,-1.01 L 7.75,-1.00 L 7.67,-0.98 L 7.58,-0.95 L 7.51,-0.92 L 7.43,-0.88 L 7.36,-0.84 L 7.30,-0.79 L 7.24,-0.75 L 7.19,-0.70 L 7.78,-0.20 L 5.84,0.21 L 6.19,-1.83 L 6.70,-1.24 L 6.80,-1.32 L 6.90,-1.41 L 7.01,-1.49 L 7.13,-1.56 L 7.26,-1.62 L 7.39,-1.68 L 7.54,-1.72 L 7.69,-1.76 L 7.84,-1.78 L 8.00,-1.79 L 8.16,-1.79 L 8.32,-1.77 L 8.48,-1.73 L 8.63,-1.69 L 8.78,-1.63 L 8.93,-1.56 L 9.06,-1.48 L 9.18,-1.39 L 9.30,-1.29 L 9.40,-1.19 L 9.50,-1.08 L 9.58,-0.96 L 9.65,-0.85 L 9.71,-0.73 L 9.76,-0.61 L 9.80,-0.50 L 9.84,-0.37 L 9.87,-0.24 L 9.89,-0.10 L 9.89,0.05 L 9.89,0.19 L 9.87,0.34 L 9.85,0.50 L 9.80,0.65 L 9.75,0.80 L 9.68,0.94 L 9.60,1.08 L 9.51,1.21 L 9.40,1.33 L 9.29,1.45 L 9.17,1.55 L 9.04,1.64 L 8.91,1.72 L 8.77,1.78 L 8.64,1.84 L 8.50,1.88 L 8.36,1.91 L 8.23,1.93 L 8.09,1.94 L 7.97,1.94 L 7.97,1.16 Z" stroke-width="0.12" />
    <path class="f0 sE1FFFF" d="M -3.01,-3.50 L 3.50,3.01 " stroke-width="0.04" />
    <path class="f0 sE1FFFF" d="M -3.50,-3.01 L 3.01,3.50 " stroke-width="0.04" />
    <path class="fPURPL sPURPL" d="M -3.50,-3.01 L -3.50,-3.50 L -3.01,-3.50 L 3.50,3.01 L 3.50,3.50 L 3.01,3.50 L -3.50,-3.01 Z" stroke-width="0.04" />
    <path class="f0 sBLACK" d="M 4.49,3.50 L 4.49,-3.50 L 11.49,-3.50 L 11.49,3.50 L 4.49,3.50 " stroke-width="0.12" />
    <circle class="pivotPoint layout" fill="none" cx="0" cy="0" r="0.2" />
  </g>
</svg>