<?xml version="1.0" encoding="UTF-8"?>
<?xml-stylesheet type='text/css' href='S401Style.css'?>
<svg version="1.2" baseProfile="tiny" width="7.00mm" height="7.00mm" viewBox="-3.51 -3.51 7.02 7.02" xmlns="http://www.w3.org/2000/svg">
  <title>TRNARE01A</title>
  <desc>turning area (E.8)</desc>
  <metadata />
  <g>
    <path class="fPURPL sPURPL" d="M 0.94,2.64 L 0.87,2.78 L 0.76,2.82 L 0.52,2.87 L 0.28,2.90 L 0.03,2.91 L -0.23,2.90 L -0.49,2.87 L -0.74,2.81 L -0.99,2.73 L -1.24,2.63 L -1.47,2.50 L -1.69,2.36 L -1.89,2.19 L -2.07,2.02 L -2.23,1.83 L -2.38,1.63 L -2.50,1.43 L -2.61,1.22 L -2.70,1.00 L -2.77,0.77 L -2.82,0.53 L -2.85,0.28 L -2.86,0.02 L -2.85,-0.24 L -2.81,-0.50 L -2.75,-0.76 L -2.67,-1.01 L -2.56,-1.25 L -2.44,-1.47 L -2.29,-1.69 L -2.13,-1.88 L -1.96,-2.06 L -1.78,-2.22 L -1.59,-2.36 L -1.39,-2.48 L -1.18,-2.59 L -0.95,-2.68 L -0.71,-2.75 L -0.46,-2.81 L -0.21,-2.84 L 0.05,-2.85 L 0.32,-2.83 L 0.58,-2.79 L 0.83,-2.73 L 1.08,-2.64 L 1.32,-2.54 L 1.54,-2.41 L 1.75,-2.27 L 1.94,-2.11 L 2.11,-1.94 L 2.33,-1.69 L 1.88,-1.26 L 3.37,-0.88 L 3.21,-2.46 L 2.73,-2.02 L 2.43,-2.35 L 2.23,-2.55 L 2.00,-2.73 L 1.76,-2.89 L 1.49,-3.04 L 1.22,-3.16 L 0.92,-3.25 L 0.63,-3.33 L 0.32,-3.37 L 0.01,-3.38 L -0.29,-3.37 L -0.59,-3.33 L -0.88,-3.27 L -1.16,-3.18 L -1.43,-3.07 L -1.67,-2.94 L -1.90,-2.80 L -2.13,-2.63 L -2.34,-2.45 L -2.54,-2.24 L -2.73,-2.01 L -2.89,-1.76 L -3.04,-1.49 L -3.16,-1.21 L -3.26,-0.92 L -3.33,-0.61 L -3.37,-0.31 L -3.39,-0.01 L -3.37,0.29 L -3.33,0.59 L -3.27,0.87 L -3.19,1.14 L -3.08,1.40 L -2.96,1.64 L -2.81,1.88 L -2.65,2.11 L -2.45,2.33 L -2.24,2.54 L -2.00,2.73 L -1.75,2.90 L -1.48,3.04 L -1.20,3.16 L -0.90,3.26 L -0.60,3.33 L -0.30,3.37 L 0.00,3.38 L 0.29,3.37 L 0.58,3.33 L 0.85,3.27 L 1.01,3.22 L 0.87,2.78 L 0.94,2.64 L 1.15,3.30 L 0.88,3.38 L 0.60,3.44 L 0.30,3.48 L 0.00,3.50 L -0.31,3.48 L -0.62,3.44 L -0.93,3.37 L -1.24,3.27 L -1.53,3.15 L -1.81,2.99 L -2.07,2.82 L -2.31,2.62 L -2.54,2.41 L -2.74,2.18 L -2.91,1.94 L -3.06,1.70 L -3.19,1.45 L -3.29,1.18 L -3.38,0.90 L -3.45,0.61 L -3.49,0.30 L -3.50,-0.01 L -3.49,-0.32 L -3.44,-0.64 L -3.37,-0.95 L -3.27,-1.25 L -3.14,-1.54 L -2.99,-1.82 L -2.82,-2.08 L -2.63,-2.31 L -2.42,-2.53 L -2.20,-2.72 L -1.97,-2.89 L -1.73,-3.04 L -1.47,-3.17 L -1.20,-3.29 L -0.91,-3.38 L -0.61,-3.45 L -0.30,-3.49 L 0.01,-3.50 L 0.33,-3.48 L 0.65,-3.44 L 0.96,-3.37 L 1.26,-3.26 L 1.54,-3.14 L 1.82,-2.99 L 2.07,-2.82 L 2.30,-2.63 L 2.51,-2.43 L 2.74,-2.19 L 3.30,-2.69 L 3.50,-0.72 L 1.65,-1.20 L 2.17,-1.70 L 2.03,-1.87 L 1.86,-2.03 L 1.68,-2.18 L 1.48,-2.31 L 1.27,-2.43 L 1.04,-2.54 L 0.80,-2.62 L 0.56,-2.68 L 0.30,-2.72 L 0.05,-2.73 L -0.20,-2.72 L -0.44,-2.69 L -0.68,-2.64 L -0.91,-2.57 L -1.13,-2.48 L -1.33,-2.38 L -1.52,-2.26 L -1.71,-2.13 L -1.88,-1.98 L -2.05,-1.81 L -2.20,-1.62 L -2.34,-1.41 L -2.46,-1.19 L -2.56,-0.96 L -2.64,-0.72 L -2.70,-0.48 L -2.74,-0.23 L -2.75,0.02 L -2.74,0.27 L -2.71,0.51 L -2.66,0.74 L -2.59,0.96 L -2.50,1.17 L -2.40,1.37 L -2.28,1.57 L -2.14,1.76 L -1.99,1.94 L -1.81,2.11 L -1.62,2.26 L -1.41,2.40 L -1.19,2.52 L -0.95,2.62 L -0.71,2.70 L -0.47,2.75 L -0.22,2.79 L 0.03,2.80 L 0.27,2.79 L 0.50,2.75 L 0.73,2.70 L 0.94,2.64 Z" stroke-width="0.04" />
    <path class="fPURPL sPURPL" d="M 0.09,1.26 L 0.10,1.82 L -0.02,1.94 L -0.02,1.16 L 0.05,1.15 L 0.13,1.14 L 0.20,1.13 L 0.28,1.11 L 0.36,1.08 L 0.44,1.05 L 0.52,1.01 L 0.59,0.96 L 0.66,0.91 L 0.73,0.84 L 0.79,0.78 L 0.85,0.70 L 0.90,0.63 L 0.95,0.54 L 0.98,0.46 L 1.01,0.37 L 1.04,0.29 L 1.05,0.20 L 1.06,0.11 L 1.06,0.03 L 1.05,-0.06 L 1.04,-0.14 L 1.02,-0.21 L 1.00,-0.29 L 0.97,-0.36 L 0.94,-0.42 L 0.90,-0.49 L 0.86,-0.55 L 0.81,-0.62 L 0.76,-0.68 L 0.70,-0.74 L 0.63,-0.80 L 0.56,-0.85 L 0.48,-0.89 L 0.40,-0.93 L 0.31,-0.97 L 0.22,-0.99 L 0.13,-1.01 L 0.04,-1.02 L -0.06,-1.02 L -0.15,-1.01 L -0.24,-1.00 L -0.32,-0.98 L -0.41,-0.95 L -0.48,-0.92 L -0.56,-0.88 L -0.63,-0.84 L -0.69,-0.79 L -0.75,-0.75 L -0.80,-0.70 L -0.21,-0.20 L -2.15,0.21 L -1.80,-1.83 L -1.29,-1.24 L -1.19,-1.32 L -1.09,-1.41 L -0.98,-1.49 L -0.86,-1.56 L -0.73,-1.62 L -0.60,-1.68 L -0.45,-1.72 L -0.30,-1.76 L -0.15,-1.78 L 0.01,-1.79 L 0.17,-1.79 L 0.33,-1.77 L 0.49,-1.73 L 0.64,-1.69 L 0.79,-1.63 L 0.93,-1.56 L 1.07,-1.48 L 1.19,-1.39 L 1.31,-1.29 L 1.41,-1.19 L 1.51,-1.08 L 1.59,-0.96 L 1.66,-0.85 L 1.72,-0.73 L 1.77,-0.61 L 1.81,-0.50 L 1.85,-0.37 L 1.88,-0.24 L 1.90,-0.10 L 1.90,0.05 L 1.90,0.19 L 1.88,0.34 L 1.85,0.50 L 1.81,0.65 L 1.76,0.80 L 1.69,0.94 L 1.61,1.08 L 1.52,1.21 L 1.41,1.33 L 1.30,1.45 L 1.18,1.55 L 1.05,1.64 L 0.92,1.72 L 0.78,1.78 L 0.64,1.84 L 0.51,1.88 L 0.37,1.91 L 0.24,1.93 L 0.10,1.94 L -0.02,1.94 L 0.10,1.82 L 0.22,1.81 L 0.35,1.80 L 0.48,1.77 L 0.61,1.73 L 0.74,1.68 L 0.86,1.62 L 0.99,1.54 L 1.11,1.46 L 1.22,1.36 L 1.33,1.26 L 1.43,1.14 L 1.51,1.02 L 1.59,0.89 L 1.65,0.75 L 1.70,0.61 L 1.74,0.47 L 1.77,0.33 L 1.78,0.19 L 1.79,0.05 L 1.78,-0.09 L 1.76,-0.22 L 1.74,-0.34 L 1.70,-0.46 L 1.66,-0.57 L 1.62,-0.68 L 1.56,-0.79 L 1.49,-0.90 L 1.42,-1.01 L 1.33,-1.11 L 1.23,-1.21 L 1.12,-1.30 L 1.01,-1.38 L 0.88,-1.46 L 0.75,-1.53 L 0.61,-1.58 L 0.46,-1.62 L 0.31,-1.65 L 0.16,-1.67 L 0.01,-1.67 L -0.13,-1.67 L -0.28,-1.65 L -0.42,-1.61 L -0.56,-1.57 L -0.68,-1.52 L -0.81,-1.46 L -0.92,-1.39 L -1.02,-1.32 L -1.12,-1.24 L -1.29,-1.07 L -1.72,-1.57 L -2.01,0.06 L -0.46,-0.26 L -0.98,-0.69 L -0.83,-0.83 L -0.76,-0.89 L -0.69,-0.94 L -0.62,-0.98 L -0.53,-1.02 L -0.45,-1.06 L -0.35,-1.09 L -0.26,-1.11 L -0.16,-1.13 L -0.06,-1.13 L 0.04,-1.13 L 0.15,-1.12 L 0.25,-1.10 L 0.35,-1.07 L 0.44,-1.04 L 0.53,-1.00 L 0.62,-0.95 L 0.70,-0.89 L 0.77,-0.83 L 0.84,-0.76 L 0.90,-0.69 L 0.96,-0.62 L 1.00,-0.55 L 1.04,-0.47 L 1.08,-0.40 L 1.11,-0.32 L 1.13,-0.24 L 1.15,-0.16 L 1.16,-0.07 L 1.17,0.02 L 1.17,0.12 L 1.16,0.21 L 1.15,0.31 L 1.12,0.41 L 1.09,0.50 L 1.05,0.60 L 1.00,0.69 L 0.95,0.77 L 0.88,0.85 L 0.81,0.93 L 0.74,0.99 L 0.66,1.05 L 0.57,1.11 L 0.49,1.15 L 0.40,1.19 L 0.32,1.22 L 0.23,1.24 L 0.14,1.26 L 0.09,1.26 Z" stroke-width="0.04" />
    <path class="f0 sE1FFFF" d="M -3.01,-3.50 L 3.50,3.01 " stroke-width="0.04" />
    <path class="f0 sE1FFFF" d="M -3.50,-3.01 L 3.01,3.50 " stroke-width="0.04" />
    <path class="fPURPL sPURPL" d="M -3.50,-3.01 L -3.50,-3.50 L -3.01,-3.50 L 3.50,3.01 L 3.50,3.50 L 3.01,3.50 L -3.50,-3.01 Z" stroke-width="0.04" />
    <circle class="pivotPoint layout" fill="none" cx="0" cy="0" r="0.2" />
  </g>
</svg>